<svg width="136" height="24" viewBox="0 0 136 24" fill="none" xmlns="http://www.w3.org/2000/svg">
<g clip-path="url(#clip0_6807_10307)">
<path d="M12.0002 2L15.1037 8.72839L22.4618 9.60081L17.0218 14.6316L18.4658 21.8992L12.0002 18.28L5.53456 21.8992L6.97862 14.6316L1.53857 9.60081L8.89669 8.72839L12.0002 2Z" fill="#FFBA35"/>
</g>
<g clip-path="url(#clip1_6807_10307)">
<path d="M40.0002 2L43.1037 8.72839L50.4618 9.60081L45.0218 14.6316L46.4658 21.8992L40.0002 18.28L33.5346 21.8992L34.9786 14.6316L29.5386 9.60081L36.8967 8.72839L40.0002 2Z" fill="#FFBA35"/>
</g>
<g clip-path="url(#clip2_6807_10307)">
<path d="M68.0002 2L71.1037 8.72839L78.4618 9.60081L73.0218 14.6316L74.4658 21.8992L68.0002 18.28L61.5346 21.8992L62.9786 14.6316L57.5386 9.60081L64.8967 8.72839L68.0002 2Z" fill="#FFBA35"/>
</g>
<g clip-path="url(#clip3_6807_10307)">
<path d="M96.0002 2L99.1037 8.72839L106.462 9.60081L101.022 14.6316L102.466 21.8992L96.0002 18.28L89.5346 21.8992L90.9786 14.6316L85.5386 9.60081L92.8967 8.72839L96.0002 2Z" fill="#FFBA35"/>
</g>
<g clip-path="url(#clip4_6807_10307)">
<path d="M124 2L127.104 8.72839L134.462 9.60081L129.022 14.6316L130.466 21.8992L124 18.28L117.535 21.8992L118.979 14.6316L113.539 9.60081L120.897 8.72839L124 2Z" fill="#FFBA35"/>
</g>
<defs>
<clipPath id="clip0_6807_10307">
<rect width="24" height="24" fill="white"/>
</clipPath>
<clipPath id="clip1_6807_10307">
<rect width="24" height="24" fill="white" transform="translate(28)"/>
</clipPath>
<clipPath id="clip2_6807_10307">
<rect width="24" height="24" fill="white" transform="translate(56)"/>
</clipPath>
<clipPath id="clip3_6807_10307">
<rect width="24" height="24" fill="white" transform="translate(84)"/>
</clipPath>
<clipPath id="clip4_6807_10307">
<rect width="24" height="24" fill="white" transform="translate(112)"/>
</clipPath>
</defs>
</svg>
