<svg width="96" height="96" viewBox="0 0 96 96" fill="none" xmlns="http://www.w3.org/2000/svg">
<rect width="96" height="96" rx="5" fill="#100943"/>
<g clip-path="url(#clip0_915_29)">
<path d="M55.3425 43.6058H36.8448V36.1524H55.3425C56.4229 36.1524 57.1742 36.3442 57.5513 36.6791C57.9283 37.014 58.1619 37.6351 58.1619 38.5424V41.2187C58.1619 42.1747 57.9283 42.7958 57.5513 43.1307C57.1742 43.4656 56.4229 43.6087 55.3425 43.6087V43.6058ZM56.6115 29.1254H29V61.0001H36.8448V50.6299H51.3019L58.1619 61.0001H66.9464L59.383 50.5813C62.1715 50.1605 63.4236 49.2904 64.4562 47.8564C65.4889 46.4224 66.0067 44.1297 66.0067 41.0699V38.6798C66.0067 36.8651 65.8181 35.4311 65.4889 34.332C65.1597 33.2328 64.5969 32.2768 63.7978 31.4181C62.9537 30.6052 62.0139 30.0328 60.8856 29.6492C59.7573 29.3143 58.3475 29.1226 56.6115 29.1226V29.1254Z" fill="white"/>
<path d="M72.9741 29.1224C76.3026 29.1224 79.0008 26.4087 79.0008 23.0612C79.0008 19.7137 76.3026 17 72.9741 17C69.6456 17 66.9473 19.7137 66.9473 23.0612C66.9473 26.4087 69.6456 29.1224 72.9741 29.1224Z" fill="#ED143B"/>
</g>
<defs>
<clipPath id="clip0_915_29">
<rect width="50" height="44" fill="white" transform="translate(29 17)"/>
</clipPath>
</defs>
</svg>
