<svg width="96" height="96" viewBox="0 0 96 96" fill="none" xmlns="http://www.w3.org/2000/svg">
<rect width="96" height="96" rx="5" fill="#1E1E1E"/>
<g clip-path="url(#clip0_915_22)">
<path d="M20 46.4C20 33.9535 20 27.733 23.8665 23.8665C27.733 20 33.9535 20 46.4 20H48.6C61.0465 20 67.267 20 71.1335 23.8665C75 27.733 75 33.9535 75 46.4V48.6C75 61.0465 75 67.267 71.1335 71.1335C67.267 75 61.0465 75 48.6 75H46.4C33.9535 75 27.733 75 23.8665 71.1335C20 67.267 20 61.0465 20 48.6V46.4Z" fill="#0077FF"/>
<path d="M52.0826 20.4956C41.9241 20.5286 36.5176 20.8696 33.0306 24.3566C29.1641 28.2231 29.1641 34.4436 29.1641 46.8901V49.0901C29.1641 61.5366 29.1641 67.7571 33.0306 71.6236C36.5176 75.1106 41.9241 75.4516 52.0826 75.4846C62.2411 75.4516 67.6476 75.1106 71.1346 71.6236C75.001 67.7571 75.001 61.5366 75.001 49.0901V46.8901C75.001 34.4436 75.001 28.2231 71.1346 24.3566C67.6476 20.8751 62.2411 20.5341 52.0826 20.4956Z" fill="#FF2B42"/>
<path d="M58.8078 42.6106C61.5908 44.2166 62.9768 45.0196 63.4443 46.0646C63.8513 46.9776 63.8513 48.0226 63.4443 48.9356C62.9768 49.9861 61.5853 50.7836 58.8078 52.3896L51.1903 56.7896C48.4073 58.3956 47.0213 59.1986 45.8773 59.0776C44.8818 58.9731 43.9798 58.4506 43.3913 57.6421C42.7148 56.7126 42.7148 55.1066 42.7148 51.9001V43.1001C42.7148 39.8881 42.7148 38.2821 43.3913 37.3581C43.9798 36.5496 44.8818 36.0271 45.8773 35.9226C47.0158 35.8016 48.4073 36.6046 51.1903 38.2106L58.8078 42.6106Z" fill="white"/>
</g>
<defs>
<clipPath id="clip0_915_22">
<rect width="55" height="55" fill="white" transform="translate(20 20)"/>
</clipPath>
</defs>
</svg>
