<svg width="38" height="42" viewBox="0 0 38 42" fill="none" xmlns="http://www.w3.org/2000/svg">
<path fill-rule="evenodd" clip-rule="evenodd" d="M22.3241 2.21647L27.6843 5.31338V24.7295L23.8199 27.0109V20.5849C24.2453 20.5643 24.757 20.4675 25.1818 20.1132C25.7021 19.6794 25.9404 18.9935 25.9404 18.0948C25.9404 17.3059 25.6065 16.4095 25.2517 15.6697C24.8911 14.9176 24.4611 14.2309 24.1649 13.814C23.822 13.2834 22.8633 12.5229 21.3282 12.5229H16.1758C15.2872 12.5229 14.4928 12.7148 13.9372 13.1774C13.3418 13.673 13.125 14.3912 13.2555 15.1695C13.3976 16.0165 13.791 17.0065 14.2906 17.8756C14.6218 18.4517 15.0239 19.017 15.468 19.4651L15.468 31.9418L11.2298 34.4439L11.2298 19.4045H9.90015V25.3306C9.62768 25.2219 9.39068 25.092 9.20295 24.9188C8.94941 24.6848 8.7367 24.3264 8.7367 23.6666V19.3838C8.7367 18.7434 8.85297 18.3265 9.00762 18.0503C9.15692 17.7837 9.36609 17.6045 9.64089 17.4763C10.2483 17.1929 11.0998 17.18 12.1439 17.18V15.8494L12.0637 15.8494C11.1275 15.849 9.98304 15.8486 9.07905 16.2703C8.58515 16.5008 8.15027 16.8595 7.84769 17.3998C7.55046 17.9306 7.40704 18.5896 7.40704 19.3838V23.6666C7.40704 24.6702 7.75527 25.3929 8.3016 25.897C8.79879 26.3557 9.41334 26.5881 9.90015 26.7393L9.90014 35.2289L9.34682 35.5556L6.09814 33.6786L6.09814 22.544H4.76849V28.3646C4.63915 28.2881 4.51305 28.2024 4.39551 28.1058C4.01518 27.7933 3.75043 27.3911 3.75043 26.806V22.5231C3.75043 21.2235 4.12828 20.7889 4.47688 20.5921C4.92975 20.3365 5.57491 20.3193 6.45128 20.3193V18.9887L6.371 18.9887C5.6083 18.9881 4.61346 18.9874 3.82363 19.4332C2.90152 19.9537 2.42078 20.9537 2.42078 22.5231V26.806C2.42078 27.8841 2.94529 28.6358 3.55171 29.1342C3.95202 29.4631 4.39809 29.691 4.76849 29.8496V32.9104L4.65378 32.8441C2.5968 31.6557 1.32965 29.4594 1.32965 27.0825V14.3462C1.32965 11.9694 2.5968 9.77302 4.65378 8.58458L15.6758 2.21647C17.7328 1.02803 20.2671 1.02803 22.3241 2.21647ZM8.03157 36.3321L3.98896 33.9965C1.52058 32.5703 0 29.9347 0 27.0825V14.3462C0 11.494 1.52058 8.85838 3.98896 7.43225L15.011 1.06414C17.4794 -0.361995 20.5205 -0.361996 22.9889 1.06414L34.0109 7.43225C36.4793 8.85838 37.9999 11.494 37.9999 14.3462V18.7504L38 18.7503V29.2183C38 30.749 37.1836 32.1635 35.8583 32.9292L21.144 41.4305C19.8175 42.197 18.1826 42.197 16.856 41.4305L15.0309 40.376L15.011 40.3646L8.03157 36.3321ZM36.6703 19.4243V14.3462C36.6703 12.6533 36.0274 11.052 34.9142 9.84115V20.461L36.6703 19.4243ZM33.5846 21.246V8.72909C33.5063 8.6794 33.4268 8.63122 33.3461 8.58458L31.8809 7.73804V22.2518L33.5846 21.246ZM30.5513 23.0368L30.5513 6.96982L29.0139 6.0816V23.9445L30.5513 23.0368ZM16.7976 31.1568L18.9792 29.8688V22.9806H20.3089V29.0838L22.4903 27.7959V20.5896H21.5775C21.0651 20.5896 20.6549 20.3551 20.3445 20.1034C20.2128 19.9966 20.0864 19.8759 19.967 19.7526C19.3439 20.0692 18.6553 20.2856 18.0072 20.3581C17.6091 20.4026 17.1886 20.3967 16.7976 20.3002V31.1568ZM19.831 8.44793V9.4043C19.831 10.1392 19.2357 10.7349 18.5013 10.7349C17.767 10.7349 17.1717 10.1392 17.1717 9.4043V8.44793C17.1717 7.71306 17.767 7.11733 18.5013 7.11733C19.2357 7.11733 19.831 7.71306 19.831 8.44793ZM15.842 8.44793C15.842 6.97819 17.0327 5.78673 18.5013 5.78673C19.97 5.78673 21.1606 6.97819 21.1606 8.44793V9.4043C21.1606 10.874 19.97 12.0655 18.5013 12.0655C17.0327 12.0655 15.842 10.874 15.842 9.4043V8.44793ZM21.0979 18.998C21.1259 19.0231 21.1537 19.047 21.1816 19.0696C21.3713 19.2234 21.4916 19.259 21.5775 19.259H23.6136C23.9873 19.259 24.2036 19.1969 24.3306 19.091C24.4337 19.0051 24.6108 18.7761 24.6108 18.0948C24.6108 17.6196 24.3908 16.9498 24.053 16.2453C23.7253 15.5619 23.3301 14.9337 23.0726 14.5728L23.0606 14.5561L23.0498 14.5387C22.9661 14.4048 22.4336 13.8535 21.3282 13.8535H16.1758C15.4427 13.8535 15.0074 14.0173 14.7876 14.2003C14.6074 14.3503 14.5028 14.5677 14.5668 14.9492C14.6759 15.5991 14.9985 16.4387 15.4431 17.2121C15.8939 17.9962 16.4154 18.6173 16.8663 18.9073C17.0358 19.0164 17.3669 19.0908 17.8595 19.0357C18.3339 18.9826 18.8721 18.8176 19.3715 18.5629C19.8729 18.3071 20.2988 17.9798 20.5771 17.6288C20.6868 17.4905 20.7693 17.3546 20.8265 17.2216H18.1703V15.891H22.1637L22.2371 16.473C22.3331 17.2341 22.0478 17.9147 21.6187 18.4559C21.4648 18.65 21.289 18.831 21.0979 18.998ZM13.4736 11.5873V12.0654H14.8032V11.5873C14.8032 10.1176 13.6126 8.9261 12.1439 8.9261C10.6752 8.9261 9.48462 10.1176 9.48462 11.5873V12.5437C9.48462 14.0134 10.6752 15.2049 12.1439 15.2049H12.144V13.8743H12.1439C11.4096 13.8743 10.8143 13.2785 10.8143 12.5437V11.5873C10.8143 10.8524 11.4096 10.2567 12.1439 10.2567C12.8783 10.2567 13.4736 10.8524 13.4736 11.5873ZM7.78095 15.2049V14.7267C7.78095 13.9918 7.18564 13.3961 6.4513 13.3961C5.71695 13.3961 5.12164 13.9918 5.12164 14.7267V15.683C5.12164 16.4179 5.71695 17.0136 6.4513 17.0136H6.45142V18.3442H6.4513C4.9826 18.3442 3.79199 17.1528 3.79199 15.683V14.7267C3.79199 13.2569 4.9826 12.0655 6.4513 12.0655C7.91999 12.0655 9.1106 13.2569 9.1106 14.7267V15.2049H7.78095ZM31.3289 27.9276C31.3604 27.9135 31.3854 27.9009 31.4038 27.8896L31.4589 27.8559C31.595 27.7726 31.682 27.6623 31.7199 27.5248C31.7577 27.3874 31.7395 27.2505 31.6652 27.1141C31.593 26.9816 31.4942 26.8992 31.3687 26.8669C31.2468 26.8323 31.1234 26.8532 30.9984 26.9297C30.866 27.0107 30.7848 27.1227 30.7548 27.2657C30.7249 27.4087 30.7503 27.5542 30.8309 27.7023L29.8325 28.313C29.7329 28.0674 29.6748 27.8302 29.658 27.6015C29.6449 27.3706 29.6698 27.1553 29.7327 26.9558C29.7935 26.7524 29.8933 26.5666 30.0322 26.3986C30.169 26.2266 30.3422 26.0765 30.5518 25.9483C30.7577 25.8223 30.9604 25.7399 31.1599 25.701C31.3609 25.656 31.5511 25.6539 31.7303 25.695C31.9111 25.7298 32.0763 25.808 32.2259 25.9295C32.3771 26.0449 32.5057 26.2 32.6119 26.3948C32.7265 26.6052 32.7824 26.8022 32.7795 26.9858C32.7781 27.1632 32.7341 27.3434 32.6474 27.5263C32.899 27.466 33.1335 27.4914 33.3509 27.6025C33.57 27.7075 33.7517 27.8925 33.8961 28.1574C34.015 28.3756 34.0828 28.5991 34.0996 28.8278C34.1163 29.0565 34.0862 29.2801 34.0092 29.4987C33.9358 29.715 33.8171 29.9201 33.653 30.114C33.4927 30.3056 33.293 30.4745 33.0539 30.6207C32.734 30.8164 32.4092 30.9268 32.0795 30.9517C31.7499 30.9767 31.4293 30.8923 31.1177 30.6985C30.9778 30.6126 30.8599 30.5133 30.7641 30.4005C30.6719 30.2854 30.5898 30.1616 30.5176 30.0291L31.5878 29.3745C31.7077 29.5765 31.8507 29.6995 32.0168 29.7433C32.1808 29.7833 32.3528 29.7482 32.5331 29.6379C32.7243 29.521 32.8343 29.3809 32.8631 29.2178C32.8919 29.0548 32.8628 28.8933 32.7758 28.7336C32.6717 28.5427 32.5398 28.4311 32.3801 28.399C32.2204 28.3668 32.0669 28.3957 31.9198 28.4857C31.8831 28.5082 31.8502 28.5334 31.8214 28.5615C31.7904 28.5856 31.7568 28.614 31.7206 28.6465L31.3289 27.9276ZM27.384 33.9252L30.7325 31.877L30.2038 30.9068L28.8578 31.7301L29.1747 30.6245C29.2712 30.2798 29.3121 29.9768 29.2973 29.7157C29.284 29.4485 29.2116 29.1941 29.08 28.9525C28.9568 28.7265 28.8028 28.5428 28.6178 28.4014C28.4307 28.2561 28.2273 28.1572 28.0074 28.1046C27.7875 28.0521 27.5571 28.0476 27.316 28.0911C27.0786 28.1324 26.8441 28.2239 26.6124 28.3657C26.377 28.5096 26.1823 28.6833 26.0283 28.8866C25.878 29.0876 25.7725 29.308 25.7119 29.5477C25.6513 29.7873 25.6378 30.0371 25.6716 30.297C25.709 30.5547 25.7978 30.8121 25.9379 31.0692L27.1185 30.3471C27.0629 30.272 27.0234 30.2131 27 30.1702C26.9172 30.0183 26.8886 29.8669 26.9144 29.7161C26.9437 29.5631 27.032 29.4415 27.1791 29.3516C27.2563 29.3043 27.331 29.2794 27.4032 29.2768C27.4769 29.2681 27.5477 29.2767 27.6158 29.3026C27.6817 29.3246 27.7409 29.3612 27.7932 29.4123C27.8493 29.4611 27.8954 29.5187 27.9314 29.5849C27.9654 29.6472 27.9976 29.7288 28.0281 29.8297C28.0585 29.9306 28.0744 30.0767 28.0757 30.2681C28.0808 30.4573 28.0634 30.7043 28.0236 31.0092C27.9816 31.3101 27.9063 31.6939 27.7977 32.1603L27.384 33.9252ZM23.2912 33.4831C23.3974 33.6779 23.5106 33.845 23.6307 33.9845C23.7509 34.124 23.8722 34.2342 23.9948 34.3151C24.121 34.3938 24.2444 34.4403 24.3651 34.4548C24.4837 34.4654 24.5963 34.4381 24.7029 34.3729C24.8059 34.3099 24.8827 34.2214 24.9333 34.1073C24.9855 33.9871 25.0091 33.8505 25.0043 33.6976C24.9994 33.5448 24.97 33.3783 24.9161 33.1983C24.8621 33.0183 24.7821 32.8309 24.6759 32.6361C24.5718 32.4452 24.4597 32.28 24.3396 32.1405C24.2173 31.9971 24.096 31.8869 23.9755 31.8099C23.853 31.729 23.7306 31.6844 23.6084 31.676C23.4877 31.6615 23.3759 31.6858 23.2729 31.7487C23.1662 31.814 23.0887 31.9056 23.0402 32.0236C22.9896 32.1376 22.9648 32.2722 22.966 32.4274C22.9688 32.5764 22.9982 32.7428 23.0542 32.9267C23.1082 33.1067 23.1872 33.2921 23.2912 33.4831ZM22.221 34.1377C22.0299 33.787 21.8992 33.4436 21.8288 33.1074C21.7599 32.7651 21.7475 32.4454 21.7916 32.1483C21.8393 31.849 21.9401 31.5795 22.0939 31.34C22.2493 31.0942 22.4576 30.8915 22.7187 30.7318C22.9761 30.5743 23.2441 30.4857 23.5227 30.466C23.7991 30.4424 24.0698 30.4846 24.3347 30.5928C24.5995 30.7009 24.8528 30.8733 25.0945 31.1098C25.3378 31.3403 25.555 31.6308 25.7461 31.9815C25.9372 32.3322 26.0672 32.6787 26.136 33.021C26.2064 33.3571 26.2207 33.6757 26.1788 33.9767C26.1347 34.2738 26.035 34.5452 25.8796 34.7909C25.722 35.0327 25.5146 35.2324 25.2571 35.3898C24.996 35.5495 24.7272 35.6412 24.4508 35.6648C24.1759 35.6823 23.9042 35.6381 23.6356 35.5322C23.3687 35.4202 23.1135 35.249 22.8703 35.0185C22.6285 34.782 22.4121 34.4883 22.221 34.1377ZM19.5541 38.7146L22.9027 36.6664L22.374 35.6962L21.0279 36.5195L21.3449 35.4139C21.4414 35.0692 21.4822 34.7662 21.4675 34.5051C21.4542 34.2379 21.3818 33.9835 21.2501 33.7419C21.127 33.5159 20.9729 33.3322 20.788 33.1908C20.6009 33.0455 20.3974 32.9465 20.1776 32.894C19.9577 32.8415 19.7272 32.837 19.4862 32.8805C19.2488 32.9218 19.0142 33.0133 18.7826 33.1551C18.5472 33.299 18.3525 33.4727 18.1985 33.676C18.0482 33.877 17.9427 34.0974 17.8821 34.3371C17.8215 34.5767 17.808 34.8265 17.8418 35.0864C17.8792 35.3441 17.968 35.6015 18.1081 35.8586L19.2886 35.1365C19.233 35.0614 19.1935 35.0025 19.1702 34.9596C19.0874 34.8077 19.0588 34.6563 19.0845 34.5055C19.1139 34.3524 19.2021 34.2309 19.3492 34.141C19.4265 34.0937 19.5012 34.0688 19.5733 34.0662C19.647 34.0575 19.7179 34.0661 19.786 34.092C19.8519 34.114 19.911 34.1506 19.9634 34.2017C20.0194 34.2505 20.0655 34.3081 20.1016 34.3743C20.1356 34.4366 20.1678 34.5182 20.1982 34.6191C20.2287 34.72 20.2446 34.8661 20.2459 35.0575C20.2509 35.2467 20.2335 35.4937 20.1937 35.7985C20.1518 36.0995 20.0765 36.4833 19.9678 36.9497L19.5541 38.7146Z" fill="#00CA89"/>
</svg>
