<?xml version="1.0" encoding="UTF-8"?>
<svg xmlns="http://www.w3.org/2000/svg" xmlns:xlink="http://www.w3.org/1999/xlink" width="40px" height="40px" viewBox="0 0 40 40" version="1.1">
<g id="surface1">
<path style=" stroke:none;fill-rule:evenodd;fill:rgb(0%,79.215688%,58.039218%);fill-opacity:1;" d="M 19.96875 0 C 30.996094 0 39.9375 8.941406 39.9375 19.96875 C 39.9375 30.996094 30.996094 39.9375 19.96875 39.9375 C 8.941406 39.9375 0 30.996094 0 19.96875 C 0 8.941406 8.941406 0 19.96875 0 Z M 19.96875 0 "/>
<path style=" stroke:none;fill-rule:nonzero;fill:rgb(100%,100%,100%);fill-opacity:1;" d="M 13.839844 10.660156 L 13.839844 19.03125 L 11.914062 19.03125 L 11.914062 12.238281 L 8.136719 12.238281 L 8.136719 19.03125 L 6.210938 19.03125 L 6.210938 10.660156 Z M 13.839844 10.660156 "/>
<path style=" stroke:none;fill-rule:nonzero;fill:rgb(100%,100%,100%);fill-opacity:1;" d="M 19.125 10.660156 C 19.863281 10.660156 20.507812 10.785156 21.054688 11.03125 C 21.601562 11.277344 22.019531 11.628906 22.316406 12.082031 C 22.613281 12.539062 22.757812 13.074219 22.757812 13.699219 C 22.757812 14.3125 22.613281 14.847656 22.316406 15.304688 C 22.019531 15.765625 21.601562 16.117188 21.054688 16.359375 C 20.507812 16.601562 19.863281 16.722656 19.125 16.722656 L 17.4375 16.722656 L 17.4375 19.03125 L 15.5 19.03125 L 15.5 10.660156 Z M 19.015625 15.144531 C 19.597656 15.144531 20.039062 15.019531 20.34375 14.769531 C 20.644531 14.515625 20.796875 14.160156 20.796875 13.699219 C 20.796875 13.226562 20.644531 12.867188 20.34375 12.617188 C 20.039062 12.363281 19.597656 12.238281 19.015625 12.238281 L 17.4375 12.238281 L 17.4375 15.144531 Z M 19.015625 15.144531 "/>
<path style=" stroke:none;fill-rule:nonzero;fill:rgb(100%,100%,100%);fill-opacity:1;" d="M 14.226562 22.039062 L 10.664062 28.664062 C 10.320312 29.300781 9.910156 29.78125 9.425781 30.109375 C 8.945312 30.4375 8.421875 30.601562 7.855469 30.601562 C 7.417969 30.601562 6.960938 30.503906 6.492188 30.3125 L 6.957031 28.84375 C 7.292969 28.945312 7.570312 28.996094 7.796875 28.996094 C 8.035156 28.996094 8.25 28.941406 8.441406 28.824219 C 8.632812 28.707031 8.808594 28.527344 8.96875 28.28125 L 9.039062 28.183594 L 5.738281 22.039062 L 7.808594 22.039062 L 10.03125 26.535156 L 12.328125 22.039062 Z M 14.226562 22.039062 "/>
<path style=" stroke:none;fill-rule:nonzero;fill:rgb(100%,100%,100%);fill-opacity:1;" d="M 22.386719 22.039062 L 22.386719 30.410156 L 20.449219 30.410156 L 20.449219 26.976562 L 16.648438 26.976562 L 16.648438 30.410156 L 14.710938 30.410156 L 14.710938 22.039062 L 16.648438 22.039062 L 16.648438 25.339844 L 20.449219 25.339844 L 20.449219 22.039062 Z M 22.386719 22.039062 "/>
<path style=" stroke:none;fill-rule:nonzero;fill:rgb(100%,100%,100%);fill-opacity:1;" d="M 33.867188 26.199219 C 33.867188 27.308594 33.492188 28.179688 32.738281 28.8125 C 31.984375 29.445312 30.902344 29.800781 29.492188 29.871094 L 29.492188 30.78125 L 27.710938 30.78125 L 27.710938 29.859375 C 26.289062 29.777344 25.203125 29.421875 24.449219 28.789062 C 23.699219 28.15625 23.320312 27.292969 23.320312 26.199219 C 23.320312 25.097656 23.699219 24.238281 24.449219 23.609375 C 25.203125 22.984375 26.289062 22.628906 27.710938 22.539062 L 27.710938 21.679688 L 29.492188 21.679688 L 29.492188 22.527344 C 30.902344 22.609375 31.984375 22.96875 32.738281 23.605469 C 33.492188 24.242188 33.867188 25.109375 33.867188 26.199219 Z M 29.492188 28.351562 C 30.335938 28.273438 30.964844 28.054688 31.378906 27.699219 C 31.792969 27.34375 32.003906 26.839844 32.003906 26.1875 C 32.003906 24.914062 31.164062 24.203125 29.492188 24.058594 Z M 25.199219 26.199219 C 25.199219 27.460938 26.035156 28.175781 27.710938 28.351562 L 27.710938 24.058594 C 26.855469 24.140625 26.222656 24.351562 25.8125 24.699219 C 25.402344 25.046875 25.199219 25.546875 25.199219 26.199219 Z M 25.199219 26.199219 "/>
<path style=" stroke:none;fill-rule:evenodd;fill:rgb(99.607843%,99.607843%,99.607843%);fill-opacity:1;" d="M 28.59375 13.703125 C 29.179688 13.703125 29.65625 14.175781 29.65625 14.761719 C 29.65625 15.347656 29.179688 15.824219 28.59375 15.824219 C 28.007812 15.824219 27.535156 15.347656 27.535156 14.761719 C 27.535156 14.175781 28.007812 13.703125 28.59375 13.703125 Z M 28.433594 9.15625 L 28.753906 9.15625 C 28.851562 9.15625 28.929688 9.238281 28.929688 9.335938 L 28.929688 10.1875 C 29.023438 10.230469 29.089844 10.324219 29.089844 10.429688 L 29.089844 10.546875 C 29.890625 10.640625 30.625 10.957031 31.222656 11.433594 L 31.308594 11.351562 C 31.382812 11.273438 31.496094 11.253906 31.589844 11.289062 L 32.195312 10.6875 C 32.261719 10.617188 32.375 10.617188 32.445312 10.6875 L 32.671875 10.914062 C 32.738281 10.980469 32.738281 11.09375 32.671875 11.164062 L 32.066406 11.765625 C 32.101562 11.859375 32.085938 11.972656 32.007812 12.050781 L 31.925781 12.132812 C 32.398438 12.734375 32.714844 13.46875 32.808594 14.269531 L 32.925781 14.269531 C 33.035156 14.269531 33.128906 14.332031 33.167969 14.425781 L 34.023438 14.425781 C 34.121094 14.425781 34.199219 14.507812 34.199219 14.605469 L 34.199219 14.921875 C 34.199219 15.019531 34.121094 15.097656 34.023438 15.097656 L 33.167969 15.097656 C 33.128906 15.191406 33.035156 15.257812 32.925781 15.257812 L 32.808594 15.257812 C 32.714844 16.058594 32.398438 16.792969 31.925781 17.394531 L 32.007812 17.476562 C 32.085938 17.550781 32.101562 17.664062 32.066406 17.761719 L 32.671875 18.363281 C 32.738281 18.433594 32.738281 18.546875 32.671875 18.613281 L 32.445312 18.839844 C 32.375 18.90625 32.261719 18.90625 32.195312 18.839844 L 31.589844 18.234375 C 31.496094 18.273438 31.382812 18.253906 31.308594 18.175781 L 31.222656 18.09375 C 30.625 18.570312 29.890625 18.882812 29.089844 18.976562 L 29.089844 19.09375 C 29.089844 19.203125 29.023438 19.296875 28.929688 19.339844 L 28.929688 20.191406 C 28.929688 20.289062 28.851562 20.367188 28.753906 20.367188 L 28.433594 20.367188 C 28.339844 20.367188 28.257812 20.289062 28.257812 20.191406 L 28.257812 19.339844 C 28.164062 19.296875 28.097656 19.203125 28.097656 19.09375 L 28.097656 18.976562 C 27.296875 18.882812 26.566406 18.570312 25.964844 18.09375 L 25.878906 18.175781 C 25.804688 18.253906 25.691406 18.273438 25.597656 18.234375 L 24.992188 18.839844 C 24.925781 18.90625 24.8125 18.90625 24.742188 18.839844 L 24.519531 18.613281 C 24.449219 18.546875 24.449219 18.433594 24.519531 18.363281 L 25.121094 17.761719 C 25.085938 17.664062 25.105469 17.550781 25.179688 17.476562 L 25.265625 17.394531 C 24.789062 16.792969 24.472656 16.058594 24.378906 15.257812 L 24.261719 15.257812 C 24.152344 15.257812 24.0625 15.191406 24.019531 15.097656 L 23.164062 15.097656 C 23.070312 15.097656 22.988281 15.019531 22.988281 14.921875 L 22.988281 14.605469 C 22.988281 14.507812 23.070312 14.425781 23.164062 14.425781 L 24.019531 14.425781 C 24.0625 14.332031 24.152344 14.269531 24.261719 14.269531 L 24.378906 14.269531 C 24.472656 13.46875 24.789062 12.734375 25.265625 12.132812 L 25.179688 12.050781 C 25.105469 11.972656 25.085938 11.859375 25.121094 11.765625 L 24.519531 11.164062 C 24.449219 11.09375 24.449219 10.980469 24.519531 10.914062 L 24.742188 10.6875 C 24.8125 10.617188 24.925781 10.617188 24.992188 10.6875 L 25.597656 11.289062 C 25.691406 11.253906 25.804688 11.273438 25.882812 11.351562 L 25.964844 11.433594 C 26.566406 10.957031 27.296875 10.640625 28.097656 10.546875 L 28.097656 10.429688 C 28.097656 10.324219 28.164062 10.230469 28.257812 10.1875 L 28.257812 9.335938 C 28.257812 9.238281 28.339844 9.15625 28.433594 9.15625 Z M 29.089844 11.332031 L 29.089844 11.351562 C 29.089844 11.457031 29.023438 11.550781 28.929688 11.59375 L 28.929688 13.117188 C 29.144531 13.160156 29.34375 13.246094 29.519531 13.363281 L 30.597656 12.285156 C 30.5625 12.1875 30.582031 12.074219 30.65625 12 L 30.667969 11.988281 C 30.214844 11.648438 29.675781 11.417969 29.089844 11.332031 Z M 28.257812 13.117188 L 28.257812 11.59375 C 28.164062 11.550781 28.097656 11.457031 28.097656 11.351562 L 28.097656 11.332031 C 27.511719 11.417969 26.972656 11.648438 26.519531 11.988281 L 26.53125 12 C 26.609375 12.074219 26.625 12.1875 26.589844 12.285156 L 27.667969 13.363281 C 27.84375 13.246094 28.042969 13.160156 28.257812 13.117188 Z M 27.191406 13.835938 L 26.113281 12.757812 C 26.019531 12.796875 25.90625 12.777344 25.832031 12.699219 L 25.820312 12.6875 C 25.480469 13.140625 25.25 13.679688 25.164062 14.269531 L 25.179688 14.269531 C 25.289062 14.269531 25.382812 14.332031 25.425781 14.425781 L 26.949219 14.425781 C 26.992188 14.214844 27.078125 14.011719 27.191406 13.835938 Z M 26.949219 15.097656 L 25.425781 15.097656 C 25.382812 15.191406 25.289062 15.257812 25.179688 15.257812 L 25.164062 15.257812 C 25.25 15.84375 25.480469 16.382812 25.820312 16.839844 L 25.832031 16.824219 C 25.90625 16.75 26.019531 16.730469 26.113281 16.765625 L 27.191406 15.6875 C 27.074219 15.511719 26.992188 15.3125 26.949219 15.097656 Z M 27.667969 16.164062 L 26.589844 17.242188 C 26.625 17.335938 26.609375 17.449219 26.53125 17.527344 L 26.519531 17.539062 C 26.972656 17.878906 27.511719 18.109375 28.097656 18.191406 L 28.097656 18.175781 C 28.097656 18.066406 28.164062 17.972656 28.257812 17.933594 L 28.257812 16.410156 C 28.042969 16.367188 27.84375 16.28125 27.667969 16.164062 Z M 28.929688 16.410156 L 28.929688 17.933594 C 29.023438 17.972656 29.089844 18.066406 29.089844 18.175781 L 29.089844 18.191406 C 29.675781 18.109375 30.214844 17.878906 30.667969 17.539062 L 30.65625 17.527344 C 30.582031 17.449219 30.5625 17.335938 30.597656 17.242188 L 29.519531 16.164062 C 29.34375 16.28125 29.144531 16.367188 28.929688 16.410156 Z M 29.996094 15.6875 L 31.074219 16.765625 C 31.167969 16.730469 31.28125 16.75 31.355469 16.824219 L 31.371094 16.839844 C 31.710938 16.386719 31.941406 15.84375 32.023438 15.257812 L 32.007812 15.257812 C 31.898438 15.257812 31.804688 15.191406 31.761719 15.097656 L 30.242188 15.097656 C 30.195312 15.3125 30.113281 15.511719 29.996094 15.6875 Z M 30.242188 14.425781 L 31.761719 14.425781 C 31.804688 14.332031 31.898438 14.269531 32.007812 14.269531 L 32.023438 14.269531 C 31.941406 13.679688 31.710938 13.140625 31.367188 12.6875 L 31.355469 12.699219 C 31.28125 12.777344 31.167969 12.796875 31.074219 12.757812 L 29.996094 13.835938 C 30.113281 14.011719 30.195312 14.214844 30.242188 14.425781 Z M 30.242188 14.425781 "/>
</g>
</svg>
