<svg id="Слой_1" data-name="Слой 1" xmlns="http://www.w3.org/2000/svg" viewBox="0 0 18.03 16.04"><defs><style>.cls-1{fill:#c50026;}</style></defs><title>icon-like-red</title><path class="cls-1" d="M31.83,457a1,1,0,0,1-.69-.26c-.73-.64-1.43-1.24-2.05-1.76h0a37.5,37.5,0,0,1-4.47-4.2,6.71,6.71,0,0,1-1.79-4.39,5.65,5.65,0,0,1,1.43-3.85,4.84,4.84,0,0,1,3.6-1.57,4.53,4.53,0,0,1,2.84,1,5.87,5.87,0,0,1,1.14,1.19A6.2,6.2,0,0,1,33,442a4.53,4.53,0,0,1,2.83-1,4.86,4.86,0,0,1,3.61,1.57,5.65,5.65,0,0,1,1.43,3.85,6.71,6.71,0,0,1-1.79,4.39,36.91,36.91,0,0,1-4.48,4.2l-2,1.77A1,1,0,0,1,31.83,457Z" transform="translate(-22.82 -441)"/></svg>