<svg width="430" height="932" viewBox="0 0 430 932" fill="none" xmlns="http://www.w3.org/2000/svg">
<rect width="430" height="932" rx="40" fill="#EBF7FF"/>
<path d="M120.203 459.004C121.053 459.004 121.762 459.083 122.331 459.242C122.91 459.401 123.344 459.667 123.633 460.04C123.932 460.404 124.081 460.889 124.081 461.496C124.081 461.888 124.011 462.238 123.871 462.546C123.731 462.845 123.526 463.097 123.255 463.302C122.994 463.498 122.667 463.629 122.275 463.694V463.764C122.677 463.829 123.036 463.951 123.353 464.128C123.671 464.296 123.923 464.543 124.109 464.87C124.296 465.197 124.389 465.621 124.389 466.144C124.389 466.751 124.245 467.269 123.955 467.698C123.675 468.118 123.269 468.44 122.737 468.664C122.215 468.888 121.589 469 120.861 469H117.277V459.004H120.203ZM120.455 463.176C121.239 463.176 121.776 463.05 122.065 462.798C122.364 462.546 122.513 462.173 122.513 461.678C122.513 461.174 122.336 460.815 121.981 460.6C121.627 460.385 121.062 460.278 120.287 460.278H118.789V463.176H120.455ZM118.789 464.408V467.74H120.623C121.435 467.74 122 467.581 122.317 467.264C122.635 466.947 122.793 466.527 122.793 466.004C122.793 465.687 122.723 465.407 122.583 465.164C122.443 464.921 122.205 464.735 121.869 464.604C121.543 464.473 121.095 464.408 120.525 464.408H118.789ZM129.335 469.14C128.644 469.14 128.037 469.005 127.515 468.734C126.992 468.463 126.586 468.043 126.297 467.474C126.007 466.895 125.863 466.163 125.863 465.276C125.863 464.343 126.017 463.587 126.325 463.008C126.642 462.429 127.067 462.005 127.599 461.734C128.14 461.454 128.756 461.314 129.447 461.314C129.867 461.314 130.259 461.361 130.623 461.454C130.996 461.538 131.304 461.636 131.547 461.748L131.099 462.952C130.837 462.849 130.557 462.761 130.259 462.686C129.969 462.611 129.694 462.574 129.433 462.574C128.966 462.574 128.579 462.677 128.271 462.882C127.972 463.078 127.748 463.377 127.599 463.778C127.459 464.17 127.389 464.665 127.389 465.262C127.389 465.831 127.463 466.312 127.613 466.704C127.762 467.096 127.981 467.395 128.271 467.6C128.569 467.796 128.938 467.894 129.377 467.894C129.797 467.894 130.165 467.847 130.483 467.754C130.8 467.661 131.099 467.539 131.379 467.39V468.678C131.108 468.837 130.814 468.953 130.497 469.028C130.179 469.103 129.792 469.14 129.335 469.14ZM136.128 461.314C136.791 461.314 137.36 461.454 137.836 461.734C138.312 462.005 138.676 462.397 138.928 462.91C139.189 463.423 139.32 464.03 139.32 464.73V465.542H134.252C134.271 466.317 134.471 466.909 134.854 467.32C135.246 467.731 135.792 467.936 136.492 467.936C136.977 467.936 137.407 467.894 137.78 467.81C138.163 467.717 138.555 467.581 138.956 467.404V468.636C138.583 468.804 138.2 468.93 137.808 469.014C137.425 469.098 136.968 469.14 136.436 469.14C135.708 469.14 135.064 468.995 134.504 468.706C133.944 468.417 133.505 467.987 133.188 467.418C132.88 466.839 132.726 466.13 132.726 465.29C132.726 464.441 132.866 463.722 133.146 463.134C133.435 462.546 133.832 462.098 134.336 461.79C134.849 461.473 135.447 461.314 136.128 461.314ZM136.128 462.462C135.596 462.462 135.167 462.635 134.84 462.98C134.523 463.325 134.336 463.815 134.28 464.45H137.836C137.836 464.058 137.775 463.713 137.654 463.414C137.533 463.115 137.346 462.882 137.094 462.714C136.842 462.546 136.52 462.462 136.128 462.462ZM133.944 459.452C133.944 459.181 134.019 458.99 134.168 458.878C134.317 458.757 134.49 458.696 134.686 458.696C134.891 458.696 135.069 458.757 135.218 458.878C135.367 458.99 135.442 459.177 135.442 459.438C135.442 459.699 135.367 459.895 135.218 460.026C135.069 460.147 134.891 460.208 134.686 460.208C134.49 460.208 134.317 460.147 134.168 460.026C134.019 459.895 133.944 459.704 133.944 459.452ZM136.618 459.452C136.618 459.181 136.688 458.99 136.828 458.878C136.977 458.757 137.155 458.696 137.36 458.696C137.556 458.696 137.729 458.757 137.878 458.878C138.027 458.99 138.102 459.177 138.102 459.438C138.102 459.699 138.027 459.895 137.878 460.026C137.729 460.147 137.556 460.208 137.36 460.208C137.155 460.208 136.977 460.147 136.828 460.026C136.688 459.895 136.618 459.704 136.618 459.452ZM151.332 461.454V469H149.848V462.658H146.292V469H144.808V461.454H151.332ZM157.42 461.314C158.326 461.314 159.054 461.641 159.604 462.294C160.164 462.947 160.444 463.923 160.444 465.22C160.444 466.069 160.318 466.788 160.066 467.376C159.814 467.964 159.46 468.407 159.002 468.706C158.545 468.995 158.013 469.14 157.406 469.14C157.024 469.14 156.688 469.093 156.398 469C156.109 468.897 155.862 468.767 155.656 468.608C155.46 468.44 155.288 468.263 155.138 468.076H155.04C155.068 468.244 155.092 468.445 155.11 468.678C155.129 468.902 155.138 469.103 155.138 469.28V472.36H153.654V461.454H154.858L155.068 462.462H155.138C155.288 462.257 155.465 462.065 155.67 461.888C155.876 461.711 156.123 461.571 156.412 461.468C156.702 461.365 157.038 461.314 157.42 461.314ZM157.07 462.532C156.604 462.532 156.23 462.625 155.95 462.812C155.67 462.989 155.465 463.26 155.334 463.624C155.213 463.979 155.148 464.431 155.138 464.982V465.206C155.138 465.785 155.199 466.279 155.32 466.69C155.442 467.091 155.642 467.399 155.922 467.614C156.212 467.819 156.604 467.922 157.098 467.922C157.518 467.922 157.859 467.81 158.12 467.586C158.391 467.353 158.592 467.031 158.722 466.62C158.853 466.209 158.918 465.733 158.918 465.192C158.918 464.371 158.769 463.722 158.47 463.246C158.172 462.77 157.705 462.532 157.07 462.532ZM168.986 465.22C168.986 465.845 168.902 466.401 168.734 466.886C168.566 467.371 168.328 467.782 168.02 468.118C167.712 468.454 167.338 468.711 166.9 468.888C166.461 469.056 165.966 469.14 165.416 469.14C164.912 469.14 164.445 469.056 164.016 468.888C163.586 468.711 163.213 468.454 162.896 468.118C162.588 467.782 162.345 467.371 162.168 466.886C161.99 466.401 161.902 465.841 161.902 465.206C161.902 464.375 162.042 463.671 162.322 463.092C162.611 462.513 163.022 462.075 163.554 461.776C164.095 461.468 164.73 461.314 165.458 461.314C166.148 461.314 166.755 461.468 167.278 461.776C167.81 462.075 168.225 462.513 168.524 463.092C168.832 463.671 168.986 464.38 168.986 465.22ZM163.428 465.22C163.428 465.78 163.498 466.265 163.638 466.676C163.778 467.077 163.997 467.385 164.296 467.6C164.594 467.815 164.977 467.922 165.444 467.922C165.91 467.922 166.293 467.815 166.592 467.6C166.89 467.385 167.11 467.077 167.25 466.676C167.39 466.265 167.46 465.78 167.46 465.22C167.46 464.641 167.385 464.156 167.236 463.764C167.096 463.372 166.876 463.073 166.578 462.868C166.288 462.653 165.906 462.546 165.43 462.546C164.73 462.546 164.221 462.779 163.904 463.246C163.586 463.713 163.428 464.371 163.428 465.22ZM180.454 461.454V467.824H181.56V471.646H180.174V469H174.966V471.646H173.594V467.824H174.196C174.597 467.245 174.933 466.611 175.204 465.92C175.474 465.229 175.68 464.506 175.82 463.75C175.969 462.985 176.058 462.219 176.086 461.454H180.454ZM177.374 462.602C177.318 463.209 177.215 463.829 177.066 464.464C176.926 465.099 176.744 465.705 176.52 466.284C176.305 466.863 176.048 467.376 175.75 467.824H178.998V462.602H177.374ZM189.238 463.372C189.238 463.829 189.098 464.193 188.818 464.464C188.548 464.725 188.184 464.903 187.726 464.996V465.052C188.212 465.117 188.622 465.29 188.958 465.57C189.304 465.841 189.476 466.242 189.476 466.774C189.476 467.101 189.416 467.399 189.294 467.67C189.173 467.941 188.986 468.179 188.734 468.384C188.482 468.58 188.156 468.734 187.754 468.846C187.362 468.949 186.886 469 186.326 469H182.98V461.454H186.326C186.877 461.454 187.372 461.515 187.81 461.636C188.249 461.757 188.594 461.958 188.846 462.238C189.108 462.518 189.238 462.896 189.238 463.372ZM187.936 466.746C187.936 466.354 187.787 466.074 187.488 465.906C187.19 465.729 186.746 465.64 186.158 465.64H184.464V467.88H186.186C186.737 467.88 187.166 467.796 187.474 467.628C187.782 467.451 187.936 467.157 187.936 466.746ZM187.726 463.54C187.726 463.213 187.61 462.975 187.376 462.826C187.143 462.677 186.765 462.602 186.242 462.602H184.464V464.506H186.018C186.578 464.506 187.003 464.431 187.292 464.282C187.582 464.123 187.726 463.876 187.726 463.54ZM192.68 465.57C192.68 465.682 192.675 465.827 192.666 466.004C192.656 466.181 192.647 466.368 192.638 466.564C192.628 466.751 192.614 466.928 192.596 467.096C192.586 467.255 192.577 467.381 192.568 467.474L196.446 461.454H198.252V469H196.852V464.982C196.852 464.805 196.856 464.585 196.866 464.324C196.875 464.063 196.884 463.811 196.894 463.568C196.912 463.316 196.926 463.125 196.936 462.994L193.086 469H191.266V461.454H192.68V465.57ZM210.138 461.454L207.128 465.108L210.404 469H208.766L205.616 465.178V469H204.23V465.178L201.08 469H199.442L202.718 465.108L199.708 461.454H201.29L204.23 465.122V461.454H205.616V465.122L208.57 461.454H210.138ZM214.29 461.314C214.953 461.314 215.522 461.454 215.998 461.734C216.474 462.005 216.838 462.397 217.09 462.91C217.351 463.423 217.482 464.03 217.482 464.73V465.542H212.414C212.433 466.317 212.633 466.909 213.016 467.32C213.408 467.731 213.954 467.936 214.654 467.936C215.139 467.936 215.569 467.894 215.942 467.81C216.325 467.717 216.717 467.581 217.118 467.404V468.636C216.745 468.804 216.362 468.93 215.97 469.014C215.587 469.098 215.13 469.14 214.598 469.14C213.87 469.14 213.226 468.995 212.666 468.706C212.106 468.417 211.667 467.987 211.35 467.418C211.042 466.839 210.888 466.13 210.888 465.29C210.888 464.441 211.028 463.722 211.308 463.134C211.597 462.546 211.994 462.098 212.498 461.79C213.011 461.473 213.609 461.314 214.29 461.314ZM214.29 462.462C213.758 462.462 213.329 462.635 213.002 462.98C212.685 463.325 212.498 463.815 212.442 464.45H215.998C215.998 464.058 215.937 463.713 215.816 463.414C215.695 463.115 215.508 462.882 215.256 462.714C215.004 462.546 214.682 462.462 214.29 462.462ZM220.818 461.454V464.52H224.542V461.454H226.026V469H224.542V465.71H220.818V469H219.334V461.454H220.818ZM229.758 465.57C229.758 465.682 229.753 465.827 229.744 466.004C229.734 466.181 229.725 466.368 229.716 466.564C229.706 466.751 229.692 466.928 229.674 467.096C229.664 467.255 229.655 467.381 229.646 467.474L233.524 461.454H235.33V469H233.93V464.982C233.93 464.805 233.934 464.585 233.944 464.324C233.953 464.063 233.962 463.811 233.972 463.568C233.99 463.316 234.004 463.125 234.014 462.994L230.164 469H228.344V461.454H229.758V465.57ZM240.636 461.314C241.299 461.314 241.868 461.454 242.344 461.734C242.82 462.005 243.184 462.397 243.436 462.91C243.697 463.423 243.828 464.03 243.828 464.73V465.542H238.76C238.779 466.317 238.979 466.909 239.362 467.32C239.754 467.731 240.3 467.936 241 467.936C241.485 467.936 241.915 467.894 242.288 467.81C242.671 467.717 243.063 467.581 243.464 467.404V468.636C243.091 468.804 242.708 468.93 242.316 469.014C241.933 469.098 241.476 469.14 240.944 469.14C240.216 469.14 239.572 468.995 239.012 468.706C238.452 468.417 238.013 467.987 237.696 467.418C237.388 466.839 237.234 466.13 237.234 465.29C237.234 464.441 237.374 463.722 237.654 463.134C237.943 462.546 238.34 462.098 238.844 461.79C239.357 461.473 239.955 461.314 240.636 461.314ZM240.636 462.462C240.104 462.462 239.675 462.635 239.348 462.98C239.031 463.325 238.844 463.815 238.788 464.45H242.344C242.344 464.058 242.283 463.713 242.162 463.414C242.041 463.115 241.854 462.882 241.602 462.714C241.35 462.546 241.028 462.462 240.636 462.462ZM247.318 467.082L245.624 470.946H244.588L245.582 467.082H247.318ZM258.411 461.454V467.824H259.517V471.646H258.131V469H252.923V471.646H251.551V467.824H252.153C252.554 467.245 252.89 466.611 253.161 465.92C253.431 465.229 253.637 464.506 253.777 463.75C253.926 462.985 254.015 462.219 254.043 461.454H258.411ZM255.331 462.602C255.275 463.209 255.172 463.829 255.023 464.464C254.883 465.099 254.701 465.705 254.477 466.284C254.262 466.863 254.005 467.376 253.707 467.824H256.955V462.602H255.331ZM267.587 465.22C267.587 465.845 267.503 466.401 267.335 466.886C267.167 467.371 266.929 467.782 266.621 468.118C266.313 468.454 265.94 468.711 265.501 468.888C265.063 469.056 264.568 469.14 264.017 469.14C263.513 469.14 263.047 469.056 262.617 468.888C262.188 468.711 261.815 468.454 261.497 468.118C261.189 467.782 260.947 467.371 260.769 466.886C260.592 466.401 260.503 465.841 260.503 465.206C260.503 464.375 260.643 463.671 260.923 463.092C261.213 462.513 261.623 462.075 262.155 461.776C262.697 461.468 263.331 461.314 264.059 461.314C264.75 461.314 265.357 461.468 265.879 461.776C266.411 462.075 266.827 462.513 267.125 463.092C267.433 463.671 267.587 464.38 267.587 465.22ZM262.029 465.22C262.029 465.78 262.099 466.265 262.239 466.676C262.379 467.077 262.599 467.385 262.897 467.6C263.196 467.815 263.579 467.922 264.045 467.922C264.512 467.922 264.895 467.815 265.193 467.6C265.492 467.385 265.711 467.077 265.851 466.676C265.991 466.265 266.061 465.78 266.061 465.22C266.061 464.641 265.987 464.156 265.837 463.764C265.697 463.372 265.478 463.073 265.179 462.868C264.89 462.653 264.507 462.546 264.031 462.546C263.331 462.546 262.823 462.779 262.505 463.246C262.188 463.713 262.029 464.371 262.029 465.22ZM273.235 461.314C274.14 461.314 274.868 461.641 275.419 462.294C275.979 462.947 276.259 463.923 276.259 465.22C276.259 466.069 276.133 466.788 275.881 467.376C275.629 467.964 275.274 468.407 274.817 468.706C274.359 468.995 273.827 469.14 273.221 469.14C272.838 469.14 272.502 469.093 272.213 469C271.923 468.897 271.676 468.767 271.471 468.608C271.275 468.44 271.102 468.263 270.953 468.076H270.855C270.883 468.244 270.906 468.445 270.925 468.678C270.943 468.902 270.953 469.103 270.953 469.28V472.36H269.469V461.454H270.673L270.883 462.462H270.953C271.102 462.257 271.279 462.065 271.485 461.888C271.69 461.711 271.937 461.571 272.227 461.468C272.516 461.365 272.852 461.314 273.235 461.314ZM272.885 462.532C272.418 462.532 272.045 462.625 271.765 462.812C271.485 462.989 271.279 463.26 271.149 463.624C271.027 463.979 270.962 464.431 270.953 464.982V465.206C270.953 465.785 271.013 466.279 271.135 466.69C271.256 467.091 271.457 467.399 271.737 467.614C272.026 467.819 272.418 467.922 272.913 467.922C273.333 467.922 273.673 467.81 273.935 467.586C274.205 467.353 274.406 467.031 274.537 466.62C274.667 466.209 274.733 465.733 274.733 465.192C274.733 464.371 274.583 463.722 274.285 463.246C273.986 462.77 273.519 462.532 272.885 462.532ZM284.8 465.22C284.8 465.845 284.716 466.401 284.548 466.886C284.38 467.371 284.142 467.782 283.834 468.118C283.526 468.454 283.153 468.711 282.714 468.888C282.276 469.056 281.781 469.14 281.23 469.14C280.726 469.14 280.26 469.056 279.83 468.888C279.401 468.711 279.028 468.454 278.71 468.118C278.402 467.782 278.16 467.371 277.982 466.886C277.805 466.401 277.716 465.841 277.716 465.206C277.716 464.375 277.856 463.671 278.136 463.092C278.426 462.513 278.836 462.075 279.368 461.776C279.91 461.468 280.544 461.314 281.272 461.314C281.963 461.314 282.57 461.468 283.092 461.776C283.624 462.075 284.04 462.513 284.338 463.092C284.646 463.671 284.8 464.38 284.8 465.22ZM279.242 465.22C279.242 465.78 279.312 466.265 279.452 466.676C279.592 467.077 279.812 467.385 280.11 467.6C280.409 467.815 280.792 467.922 281.258 467.922C281.725 467.922 282.108 467.815 282.406 467.6C282.705 467.385 282.924 467.077 283.064 466.676C283.204 466.265 283.274 465.78 283.274 465.22C283.274 464.641 283.2 464.156 283.05 463.764C282.91 463.372 282.691 463.073 282.392 462.868C282.103 462.653 281.72 462.546 281.244 462.546C280.544 462.546 280.036 462.779 279.718 463.246C279.401 463.713 279.242 464.371 279.242 465.22ZM291.47 461.454V462.644H288.166V469H286.682V461.454H291.47ZM294.344 465.57C294.344 465.682 294.339 465.827 294.33 466.004C294.32 466.181 294.311 466.368 294.302 466.564C294.292 466.751 294.278 466.928 294.26 467.096C294.25 467.255 294.241 467.381 294.232 467.474L298.11 461.454H299.916V469H298.516V464.982C298.516 464.805 298.52 464.585 298.53 464.324C298.539 464.063 298.548 463.811 298.558 463.568C298.576 463.316 298.59 463.125 298.6 462.994L294.75 469H292.93V461.454H294.344V465.57ZM307.305 465.57C307.305 465.682 307.3 465.827 307.291 466.004C307.281 466.181 307.272 466.368 307.263 466.564C307.253 466.751 307.239 466.928 307.221 467.096C307.211 467.255 307.202 467.381 307.193 467.474L311.071 461.454H312.877V469H311.477V464.982C311.477 464.805 311.481 464.585 311.491 464.324C311.5 464.063 311.509 463.811 311.519 463.568C311.537 463.316 311.551 463.125 311.561 462.994L307.711 469H305.891V461.454H307.305V465.57ZM167.897 485.478C167.897 484.367 168.014 483.425 168.247 482.65C168.49 481.875 168.863 481.259 169.367 480.802C169.871 480.335 170.525 480.018 171.327 479.85C171.906 479.738 172.471 479.635 173.021 479.542C173.581 479.449 174.123 479.365 174.645 479.29L174.855 480.592C174.622 480.62 174.356 480.657 174.057 480.704C173.768 480.751 173.469 480.797 173.161 480.844C172.863 480.891 172.573 480.937 172.293 480.984C172.023 481.031 171.78 481.077 171.565 481.124C171.239 481.18 170.949 481.278 170.697 481.418C170.455 481.558 170.245 481.745 170.067 481.978C169.899 482.211 169.764 482.51 169.661 482.874C169.559 483.229 169.498 483.663 169.479 484.176H169.563C169.694 483.999 169.867 483.817 170.081 483.63C170.305 483.443 170.571 483.289 170.879 483.168C171.197 483.037 171.561 482.972 171.971 482.972C172.606 482.972 173.143 483.112 173.581 483.392C174.02 483.663 174.351 484.05 174.575 484.554C174.799 485.049 174.911 485.641 174.911 486.332C174.911 487.181 174.762 487.891 174.463 488.46C174.174 489.02 173.763 489.44 173.231 489.72C172.709 490 172.097 490.14 171.397 490.14C170.865 490.14 170.385 490.042 169.955 489.846C169.526 489.641 169.157 489.342 168.849 488.95C168.541 488.549 168.303 488.059 168.135 487.48C167.977 486.901 167.897 486.234 167.897 485.478ZM171.509 488.922C171.883 488.922 172.209 488.843 172.489 488.684C172.769 488.525 172.984 488.269 173.133 487.914C173.292 487.559 173.371 487.083 173.371 486.486C173.371 485.767 173.241 485.198 172.979 484.778C172.718 484.358 172.284 484.148 171.677 484.148C171.304 484.148 170.959 484.237 170.641 484.414C170.333 484.582 170.072 484.773 169.857 484.988C169.652 485.203 169.507 485.385 169.423 485.534C169.423 485.973 169.451 486.393 169.507 486.794C169.573 487.195 169.68 487.555 169.829 487.872C169.988 488.189 170.203 488.446 170.473 488.642C170.744 488.829 171.089 488.922 171.509 488.922ZM179.776 482.314C180.438 482.314 181.008 482.454 181.484 482.734C181.96 483.005 182.324 483.397 182.576 483.91C182.837 484.423 182.968 485.03 182.968 485.73V486.542H177.9C177.918 487.317 178.119 487.909 178.502 488.32C178.894 488.731 179.44 488.936 180.14 488.936C180.625 488.936 181.054 488.894 181.428 488.81C181.81 488.717 182.202 488.581 182.604 488.404V489.636C182.23 489.804 181.848 489.93 181.456 490.014C181.073 490.098 180.616 490.14 180.084 490.14C179.356 490.14 178.712 489.995 178.152 489.706C177.592 489.417 177.153 488.987 176.836 488.418C176.528 487.839 176.374 487.13 176.374 486.29C176.374 485.441 176.514 484.722 176.794 484.134C177.083 483.546 177.48 483.098 177.984 482.79C178.497 482.473 179.094 482.314 179.776 482.314ZM179.776 483.462C179.244 483.462 178.814 483.635 178.488 483.98C178.17 484.325 177.984 484.815 177.928 485.45H181.484C181.484 485.058 181.423 484.713 181.302 484.414C181.18 484.115 180.994 483.882 180.742 483.714C180.49 483.546 180.168 483.462 179.776 483.462ZM187.031 482.314C187.591 482.314 188.091 482.389 188.529 482.538C188.968 482.687 189.313 482.911 189.565 483.21C189.817 483.509 189.943 483.873 189.943 484.302C189.943 484.759 189.813 485.123 189.551 485.394C189.299 485.665 188.949 485.861 188.501 485.982V486.038C188.809 486.122 189.089 486.239 189.341 486.388C189.593 486.528 189.794 486.719 189.943 486.962C190.102 487.195 190.181 487.503 190.181 487.886C190.181 488.297 190.06 488.675 189.817 489.02C189.584 489.365 189.22 489.641 188.725 489.846C188.231 490.042 187.591 490.14 186.807 490.14C186.443 490.14 186.093 490.121 185.757 490.084C185.421 490.047 185.118 489.991 184.847 489.916C184.577 489.841 184.339 489.753 184.133 489.65V488.362C184.451 488.511 184.829 488.647 185.267 488.768C185.715 488.889 186.201 488.95 186.723 488.95C187.097 488.95 187.433 488.913 187.731 488.838C188.039 488.763 188.282 488.642 188.459 488.474C188.637 488.306 188.725 488.082 188.725 487.802C188.725 487.531 188.646 487.312 188.487 487.144C188.329 486.976 188.091 486.85 187.773 486.766C187.465 486.682 187.069 486.64 186.583 486.64H185.631V485.506H186.429C187.083 485.506 187.601 485.431 187.983 485.282C188.375 485.123 188.571 484.848 188.571 484.456C188.571 484.139 188.431 483.901 188.151 483.742C187.871 483.574 187.456 483.49 186.905 483.49C186.504 483.49 186.131 483.532 185.785 483.616C185.44 483.691 185.081 483.807 184.707 483.966L184.217 482.846C184.628 482.678 185.062 482.547 185.519 482.454C185.986 482.361 186.49 482.314 187.031 482.314ZM198.592 486.22C198.592 486.845 198.508 487.401 198.34 487.886C198.172 488.371 197.934 488.782 197.626 489.118C197.318 489.454 196.945 489.711 196.506 489.888C196.068 490.056 195.573 490.14 195.022 490.14C194.518 490.14 194.052 490.056 193.622 489.888C193.193 489.711 192.82 489.454 192.502 489.118C192.194 488.782 191.952 488.371 191.774 487.886C191.597 487.401 191.508 486.841 191.508 486.206C191.508 485.375 191.648 484.671 191.928 484.092C192.218 483.513 192.628 483.075 193.16 482.776C193.702 482.468 194.336 482.314 195.064 482.314C195.755 482.314 196.362 482.468 196.884 482.776C197.416 483.075 197.832 483.513 198.13 484.092C198.438 484.671 198.592 485.38 198.592 486.22ZM193.034 486.22C193.034 486.78 193.104 487.265 193.244 487.676C193.384 488.077 193.604 488.385 193.902 488.6C194.201 488.815 194.584 488.922 195.05 488.922C195.517 488.922 195.9 488.815 196.198 488.6C196.497 488.385 196.716 488.077 196.856 487.676C196.996 487.265 197.066 486.78 197.066 486.22C197.066 485.641 196.992 485.156 196.842 484.764C196.702 484.372 196.483 484.073 196.184 483.868C195.895 483.653 195.512 483.546 195.036 483.546C194.336 483.546 193.828 483.779 193.51 484.246C193.193 484.713 193.034 485.371 193.034 486.22ZM206.998 482.454V490H205.514V483.658H201.958V490H200.474V482.454H206.998ZM212.245 482.314C213.197 482.314 213.907 482.524 214.373 482.944C214.84 483.355 215.073 484.003 215.073 484.89V490H214.023L213.729 488.95H213.673C213.459 489.221 213.235 489.445 213.001 489.622C212.777 489.799 212.516 489.93 212.217 490.014C211.928 490.098 211.573 490.14 211.153 490.14C210.705 490.14 210.299 490.061 209.935 489.902C209.581 489.734 209.301 489.482 209.095 489.146C208.89 488.801 208.787 488.371 208.787 487.858C208.787 487.093 209.077 486.509 209.655 486.108C210.243 485.707 211.135 485.487 212.329 485.45L213.617 485.408V484.988C213.617 484.428 213.491 484.036 213.239 483.812C212.987 483.588 212.633 483.476 212.175 483.476C211.783 483.476 211.41 483.532 211.055 483.644C210.701 483.756 210.365 483.891 210.047 484.05L209.571 482.972C209.926 482.785 210.332 482.631 210.789 482.51C211.256 482.379 211.741 482.314 212.245 482.314ZM212.595 486.402C211.737 486.439 211.139 486.584 210.803 486.836C210.477 487.079 210.313 487.424 210.313 487.872C210.313 488.264 210.43 488.549 210.663 488.726C210.906 488.903 211.209 488.992 211.573 488.992C212.161 488.992 212.647 488.829 213.029 488.502C213.412 488.175 213.603 487.685 213.603 487.032V486.374L212.595 486.402ZM220.396 490.14C219.706 490.14 219.099 490.005 218.576 489.734C218.054 489.463 217.648 489.043 217.358 488.474C217.069 487.895 216.924 487.163 216.924 486.276C216.924 485.343 217.078 484.587 217.386 484.008C217.704 483.429 218.128 483.005 218.66 482.734C219.202 482.454 219.818 482.314 220.508 482.314C220.928 482.314 221.32 482.361 221.684 482.454C222.058 482.538 222.366 482.636 222.608 482.748L222.16 483.952C221.899 483.849 221.619 483.761 221.32 483.686C221.031 483.611 220.756 483.574 220.494 483.574C220.028 483.574 219.64 483.677 219.332 483.882C219.034 484.078 218.81 484.377 218.66 484.778C218.52 485.17 218.45 485.665 218.45 486.262C218.45 486.831 218.525 487.312 218.674 487.704C218.824 488.096 219.043 488.395 219.332 488.6C219.631 488.796 220 488.894 220.438 488.894C220.858 488.894 221.227 488.847 221.544 488.754C221.862 488.661 222.16 488.539 222.44 488.39V489.678C222.17 489.837 221.876 489.953 221.558 490.028C221.241 490.103 220.854 490.14 220.396 490.14ZM225.706 482.454V485.52H229.43V482.454H230.914V490H229.43V486.71H225.706V490H224.222V482.454H225.706ZM239.881 486.22C239.881 486.845 239.797 487.401 239.629 487.886C239.461 488.371 239.223 488.782 238.915 489.118C238.607 489.454 238.234 489.711 237.795 489.888C237.357 490.056 236.862 490.14 236.311 490.14C235.807 490.14 235.341 490.056 234.911 489.888C234.482 489.711 234.109 489.454 233.791 489.118C233.483 488.782 233.241 488.371 233.063 487.886C232.886 487.401 232.797 486.841 232.797 486.206C232.797 485.375 232.937 484.671 233.217 484.092C233.507 483.513 233.917 483.075 234.449 482.776C234.991 482.468 235.625 482.314 236.353 482.314C237.044 482.314 237.651 482.468 238.173 482.776C238.705 483.075 239.121 483.513 239.419 484.092C239.727 484.671 239.881 485.38 239.881 486.22ZM234.323 486.22C234.323 486.78 234.393 487.265 234.533 487.676C234.673 488.077 234.893 488.385 235.191 488.6C235.49 488.815 235.873 488.922 236.339 488.922C236.806 488.922 237.189 488.815 237.487 488.6C237.786 488.385 238.005 488.077 238.145 487.676C238.285 487.265 238.355 486.78 238.355 486.22C238.355 485.641 238.281 485.156 238.131 484.764C237.991 484.372 237.772 484.073 237.473 483.868C237.184 483.653 236.801 483.546 236.325 483.546C235.625 483.546 235.117 483.779 234.799 484.246C234.482 484.713 234.323 485.371 234.323 486.22ZM244.801 490.14C244.11 490.14 243.503 490.005 242.981 489.734C242.458 489.463 242.052 489.043 241.763 488.474C241.473 487.895 241.329 487.163 241.329 486.276C241.329 485.343 241.483 484.587 241.791 484.008C242.108 483.429 242.533 483.005 243.065 482.734C243.606 482.454 244.222 482.314 244.913 482.314C245.333 482.314 245.725 482.361 246.089 482.454C246.462 482.538 246.77 482.636 247.013 482.748L246.565 483.952C246.303 483.849 246.023 483.761 245.725 483.686C245.435 483.611 245.16 483.574 244.899 483.574C244.432 483.574 244.045 483.677 243.737 483.882C243.438 484.078 243.214 484.377 243.065 484.778C242.925 485.17 242.855 485.665 242.855 486.262C242.855 486.831 242.929 487.312 243.079 487.704C243.228 488.096 243.447 488.395 243.737 488.6C244.035 488.796 244.404 488.894 244.843 488.894C245.263 488.894 245.631 488.847 245.949 488.754C246.266 488.661 246.565 488.539 246.845 488.39V489.678C246.574 489.837 246.28 489.953 245.963 490.028C245.645 490.103 245.258 490.14 244.801 490.14ZM254.142 483.644H251.678V490H250.208V483.644H247.758V482.454H254.142V483.644ZM259.098 485.492C259.789 485.492 260.358 485.576 260.806 485.744C261.264 485.903 261.604 486.141 261.828 486.458C262.062 486.775 262.178 487.177 262.178 487.662C262.178 488.138 262.071 488.553 261.856 488.908C261.642 489.253 261.306 489.524 260.848 489.72C260.391 489.907 259.803 490 259.084 490H255.612V482.454H257.096V485.492H259.098ZM260.694 487.718C260.694 487.307 260.545 487.027 260.246 486.878C259.957 486.719 259.537 486.64 258.986 486.64H257.096V488.88H259.014C259.509 488.88 259.91 488.791 260.218 488.614C260.536 488.437 260.694 488.138 260.694 487.718Z" fill="#4B4544"/>
<rect x="89" y="530" width="252" height="45" rx="22.5" fill="#6DB6FE"/>
<path d="M194.728 546.29C195.658 546.29 196.438 546.38 197.068 546.56C197.698 546.73 198.168 547.01 198.478 547.4C198.798 547.79 198.958 548.315 198.958 548.975C198.958 549.385 198.888 549.755 198.748 550.085C198.608 550.415 198.403 550.685 198.133 550.895C197.873 551.105 197.548 551.245 197.158 551.315V551.39C197.558 551.46 197.913 551.59 198.223 551.78C198.543 551.96 198.793 552.225 198.973 552.575C199.163 552.915 199.258 553.365 199.258 553.925C199.258 554.575 199.103 555.13 198.793 555.59C198.483 556.05 198.038 556.4 197.458 556.64C196.888 556.88 196.208 557 195.418 557H191.503V546.29H194.728ZM194.983 550.655C195.743 550.655 196.263 550.535 196.543 550.295C196.833 550.055 196.978 549.7 196.978 549.23C196.978 548.75 196.808 548.405 196.468 548.195C196.128 547.985 195.583 547.88 194.833 547.88H193.423V550.655H194.983ZM193.423 552.2V555.395H195.163C195.943 555.395 196.483 555.245 196.783 554.945C197.093 554.645 197.248 554.245 197.248 553.745C197.248 553.425 197.183 553.15 197.053 552.92C196.923 552.69 196.698 552.515 196.378 552.395C196.058 552.265 195.623 552.2 195.073 552.2H193.423ZM208.544 552.92C208.544 553.6 208.454 554.2 208.274 554.72C208.094 555.24 207.834 555.685 207.494 556.055C207.164 556.415 206.754 556.69 206.264 556.88C205.784 557.06 205.249 557.15 204.659 557.15C204.099 557.15 203.584 557.06 203.114 556.88C202.644 556.69 202.234 556.415 201.884 556.055C201.544 555.685 201.279 555.24 201.089 554.72C200.899 554.2 200.804 553.6 200.804 552.92C200.804 552.02 200.959 551.26 201.269 550.64C201.579 550.01 202.024 549.535 202.604 549.215C203.194 548.885 203.889 548.72 204.689 548.72C205.449 548.72 206.114 548.885 206.684 549.215C207.264 549.535 207.719 550.01 208.049 550.64C208.379 551.26 208.544 552.02 208.544 552.92ZM202.739 552.92C202.739 553.49 202.804 553.98 202.934 554.39C203.074 554.79 203.284 555.095 203.564 555.305C203.854 555.515 204.224 555.62 204.674 555.62C205.134 555.62 205.504 555.515 205.784 555.305C206.074 555.095 206.284 554.79 206.414 554.39C206.544 553.98 206.609 553.49 206.609 552.92C206.609 552.34 206.539 551.855 206.399 551.465C206.269 551.065 206.059 550.765 205.769 550.565C205.489 550.355 205.124 550.25 204.674 550.25C203.994 550.25 203.499 550.48 203.189 550.94C202.889 551.4 202.739 552.06 202.739 552.92ZM217.833 545.42C217.783 545.93 217.643 546.375 217.413 546.755C217.193 547.125 216.848 547.41 216.378 547.61C215.908 547.81 215.288 547.91 214.518 547.91C213.718 547.91 213.088 547.81 212.628 547.61C212.178 547.41 211.853 547.13 211.653 546.77C211.453 546.4 211.333 545.95 211.293 545.42H213.003C213.053 545.96 213.193 546.325 213.423 546.515C213.653 546.695 214.028 546.785 214.548 546.785C214.988 546.785 215.343 546.69 215.613 546.5C215.893 546.3 216.058 545.94 216.108 545.42H217.833ZM212.313 552.74C212.313 552.88 212.303 553.06 212.283 553.28C212.273 553.49 212.263 553.715 212.253 553.955C212.243 554.185 212.228 554.395 212.208 554.585C212.198 554.765 212.188 554.9 212.178 554.99L216.153 548.87H218.433V557H216.618V553.175C216.618 552.945 216.623 552.68 216.633 552.38C216.653 552.08 216.673 551.795 216.693 551.525C216.713 551.245 216.728 551.035 216.738 550.895L212.778 557H210.498V548.87H212.313V552.74ZM227.184 550.325H224.514V557H222.639V550.325H219.984V548.87H227.184V550.325ZM230.551 552.74C230.551 552.88 230.541 553.06 230.521 553.28C230.511 553.49 230.501 553.715 230.491 553.955C230.481 554.185 230.466 554.395 230.446 554.585C230.436 554.765 230.426 554.9 230.416 554.99L234.391 548.87H236.671V557H234.856V553.175C234.856 552.945 234.861 552.68 234.871 552.38C234.891 552.08 234.911 551.795 234.931 551.525C234.951 551.245 234.966 551.035 234.976 550.895L231.016 557H228.736V548.87H230.551V552.74Z" fill="white"/>
<rect x="89.5" y="587.5" width="251" height="44" rx="22" fill="white" stroke="#6DB6FE"/>
<path d="M143.152 605.795C143.152 606.515 142.907 607.095 142.417 607.535C141.927 607.965 141.287 608.24 140.497 608.36V608.405C141.447 608.515 142.172 608.79 142.672 609.23C143.182 609.67 143.437 610.245 143.437 610.955C143.437 611.585 143.272 612.14 142.942 612.62C142.612 613.1 142.117 613.475 141.457 613.745C140.797 614.015 139.977 614.15 138.997 614.15C138.277 614.15 137.622 614.1 137.032 614C136.442 613.91 135.922 613.765 135.472 613.565V611.915C135.782 612.065 136.122 612.195 136.492 612.305C136.872 612.405 137.252 612.485 137.632 612.545C138.022 612.595 138.387 612.62 138.727 612.62C139.677 612.62 140.377 612.47 140.827 612.17C141.277 611.86 141.502 611.425 141.502 610.865C141.502 610.285 141.197 609.865 140.587 609.605C139.987 609.335 139.167 609.2 138.127 609.2H136.927V607.685H138.022C138.822 607.685 139.457 607.62 139.927 607.49C140.397 607.36 140.732 607.175 140.932 606.935C141.142 606.685 141.247 606.395 141.247 606.065C141.247 605.635 141.072 605.3 140.722 605.06C140.372 604.81 139.872 604.685 139.222 604.685C138.622 604.685 138.087 604.77 137.617 604.94C137.147 605.1 136.702 605.31 136.282 605.57L135.427 604.28C135.767 604.06 136.132 603.865 136.522 603.695C136.922 603.515 137.362 603.38 137.842 603.29C138.322 603.19 138.847 603.14 139.417 603.14C140.217 603.14 140.892 603.255 141.442 603.485C142.002 603.715 142.427 604.03 142.717 604.43C143.007 604.82 143.152 605.275 143.152 605.795ZM148.597 605.72C149.647 605.72 150.442 605.95 150.982 606.41C151.532 606.86 151.807 607.57 151.807 608.54V614H150.472L150.097 612.875H150.037C149.807 613.165 149.567 613.41 149.317 613.61C149.077 613.8 148.797 613.935 148.477 614.015C148.167 614.105 147.787 614.15 147.337 614.15C146.857 614.15 146.422 614.06 146.032 613.88C145.652 613.7 145.352 613.425 145.132 613.055C144.912 612.675 144.802 612.2 144.802 611.63C144.802 610.79 145.107 610.16 145.717 609.74C146.337 609.31 147.272 609.075 148.522 609.035L149.932 608.99V608.585C149.932 608.065 149.807 607.695 149.557 607.475C149.307 607.255 148.957 607.145 148.507 607.145C148.097 607.145 147.702 607.205 147.322 607.325C146.942 607.445 146.572 607.585 146.212 607.745L145.612 606.425C146.012 606.215 146.467 606.045 146.977 605.915C147.497 605.785 148.037 605.72 148.597 605.72ZM148.942 610.19C148.112 610.22 147.537 610.365 147.217 610.625C146.897 610.875 146.737 611.215 146.737 611.645C146.737 612.025 146.852 612.3 147.082 612.47C147.312 612.64 147.607 612.725 147.967 612.725C148.517 612.725 148.982 612.57 149.362 612.26C149.742 611.94 149.932 611.47 149.932 610.85V610.16L148.942 610.19ZM158.45 605.72C159.4 605.72 160.165 606.075 160.745 606.785C161.325 607.485 161.615 608.53 161.615 609.92C161.615 610.84 161.48 611.615 161.21 612.245C160.94 612.875 160.565 613.35 160.085 613.67C159.605 613.99 159.045 614.15 158.405 614.15C158.015 614.15 157.67 614.1 157.37 614C157.07 613.89 156.815 613.755 156.605 613.595C156.395 613.425 156.215 613.245 156.065 613.055H155.945C155.985 613.235 156.015 613.44 156.035 613.67C156.055 613.89 156.065 614.1 156.065 614.3V617.6H154.175V605.87H155.705L155.975 606.95H156.065C156.215 606.72 156.395 606.515 156.605 606.335C156.825 606.145 157.085 605.995 157.385 605.885C157.695 605.775 158.05 605.72 158.45 605.72ZM157.91 607.25C157.47 607.25 157.115 607.34 156.845 607.52C156.575 607.69 156.38 607.955 156.26 608.315C156.14 608.675 156.075 609.125 156.065 609.665V609.905C156.065 610.485 156.12 610.975 156.23 611.375C156.35 611.775 156.545 612.08 156.815 612.29C157.095 612.5 157.47 612.605 157.94 612.605C158.34 612.605 158.665 612.495 158.915 612.275C159.175 612.055 159.365 611.745 159.485 611.345C159.615 610.935 159.68 610.45 159.68 609.89C159.68 609.05 159.535 608.4 159.245 607.94C158.965 607.48 158.52 607.25 157.91 607.25ZM166.835 605.72C167.565 605.72 168.19 605.87 168.71 606.17C169.24 606.46 169.65 606.88 169.94 607.43C170.23 607.97 170.375 608.63 170.375 609.41V610.37H165.005C165.025 611.11 165.23 611.685 165.62 612.095C166.01 612.495 166.55 612.695 167.24 612.695C167.77 612.695 168.24 612.645 168.65 612.545C169.07 612.435 169.5 612.28 169.94 612.08V613.595C169.54 613.785 169.125 613.925 168.695 614.015C168.265 614.105 167.75 614.15 167.15 614.15C166.36 614.15 165.655 614 165.035 613.7C164.425 613.39 163.945 612.925 163.595 612.305C163.255 611.685 163.085 610.915 163.085 609.995C163.085 609.065 163.24 608.285 163.55 607.655C163.87 607.015 164.31 606.535 164.87 606.215C165.43 605.885 166.085 605.72 166.835 605.72ZM166.835 607.115C166.335 607.115 165.925 607.28 165.605 607.61C165.295 607.93 165.11 608.41 165.05 609.05H168.545C168.545 608.67 168.48 608.335 168.35 608.045C168.23 607.755 168.045 607.53 167.795 607.37C167.545 607.2 167.225 607.115 166.835 607.115ZM177.65 605.87V607.325H174.17V614H172.28V605.87H177.65ZM181.009 609.74C181.009 609.88 180.999 610.06 180.979 610.28C180.969 610.49 180.959 610.715 180.949 610.955C180.939 611.185 180.924 611.395 180.904 611.585C180.894 611.765 180.884 611.9 180.874 611.99L184.849 605.87H187.129V614H185.314V610.175C185.314 609.945 185.319 609.68 185.329 609.38C185.349 609.08 185.369 608.795 185.389 608.525C185.409 608.245 185.424 608.035 185.434 607.895L181.474 614H179.194V605.87H181.009V609.74ZM192.851 614.15C192.081 614.15 191.411 614.005 190.841 613.715C190.281 613.415 189.846 612.96 189.536 612.35C189.236 611.73 189.086 610.94 189.086 609.98C189.086 608.98 189.251 608.17 189.581 607.55C189.921 606.92 190.386 606.46 190.976 606.17C191.566 605.87 192.241 605.72 193.001 605.72C193.511 605.72 193.966 605.77 194.366 605.87C194.766 605.97 195.106 606.09 195.386 606.23L194.831 607.715C194.521 607.595 194.211 607.495 193.901 607.415C193.591 607.325 193.291 607.28 193.001 607.28C192.551 607.28 192.176 607.38 191.876 607.58C191.586 607.78 191.371 608.08 191.231 608.48C191.091 608.87 191.021 609.365 191.021 609.965C191.021 610.545 191.091 611.03 191.231 611.42C191.381 611.81 191.601 612.105 191.891 612.305C192.181 612.495 192.541 612.59 192.971 612.59C193.431 612.59 193.836 612.535 194.186 612.425C194.536 612.315 194.866 612.165 195.176 611.975V613.61C194.866 613.8 194.531 613.935 194.171 614.015C193.821 614.105 193.381 614.15 192.851 614.15ZM203.395 607.325H200.725V614H198.85V607.325H196.195V605.87H203.395V607.325ZM209.221 605.72C210.171 605.72 210.936 606.075 211.516 606.785C212.096 607.485 212.386 608.53 212.386 609.92C212.386 610.84 212.251 611.615 211.981 612.245C211.711 612.875 211.336 613.35 210.856 613.67C210.376 613.99 209.816 614.15 209.176 614.15C208.786 614.15 208.441 614.1 208.141 614C207.841 613.89 207.586 613.755 207.376 613.595C207.166 613.425 206.986 613.245 206.836 613.055H206.716C206.756 613.235 206.786 613.44 206.806 613.67C206.826 613.89 206.836 614.1 206.836 614.3V617.6H204.946V605.87H206.476L206.746 606.95H206.836C206.986 606.72 207.166 606.515 207.376 606.335C207.596 606.145 207.856 605.995 208.156 605.885C208.466 605.775 208.821 605.72 209.221 605.72ZM208.681 607.25C208.241 607.25 207.886 607.34 207.616 607.52C207.346 607.69 207.151 607.955 207.031 608.315C206.911 608.675 206.846 609.125 206.836 609.665V609.905C206.836 610.485 206.891 610.975 207.001 611.375C207.121 611.775 207.316 612.08 207.586 612.29C207.866 612.5 208.241 612.605 208.711 612.605C209.111 612.605 209.436 612.495 209.686 612.275C209.946 612.055 210.136 611.745 210.256 611.345C210.386 610.935 210.451 610.45 210.451 609.89C210.451 609.05 210.306 608.4 210.016 607.94C209.736 607.48 209.291 607.25 208.681 607.25ZM216.151 609.74C216.151 609.88 216.141 610.06 216.121 610.28C216.111 610.49 216.101 610.715 216.091 610.955C216.081 611.185 216.066 611.395 216.046 611.585C216.036 611.765 216.026 611.9 216.016 611.99L219.991 605.87H222.271V614H220.456V610.175C220.456 609.945 220.461 609.68 220.471 609.38C220.491 609.08 220.511 608.795 220.531 608.525C220.551 608.245 220.566 608.035 220.576 607.895L216.616 614H214.336V605.87H216.151V609.74ZM228.982 605.72C229.932 605.72 230.697 606.075 231.277 606.785C231.857 607.485 232.147 608.53 232.147 609.92C232.147 610.84 232.012 611.615 231.742 612.245C231.472 612.875 231.097 613.35 230.617 613.67C230.137 613.99 229.577 614.15 228.937 614.15C228.547 614.15 228.202 614.1 227.902 614C227.602 613.89 227.347 613.755 227.137 613.595C226.927 613.425 226.747 613.245 226.597 613.055H226.477C226.517 613.235 226.547 613.44 226.567 613.67C226.587 613.89 226.597 614.1 226.597 614.3V617.6H224.707V605.87H226.237L226.507 606.95H226.597C226.747 606.72 226.927 606.515 227.137 606.335C227.357 606.145 227.617 605.995 227.917 605.885C228.227 605.775 228.582 605.72 228.982 605.72ZM228.442 607.25C228.002 607.25 227.647 607.34 227.377 607.52C227.107 607.69 226.912 607.955 226.792 608.315C226.672 608.675 226.607 609.125 226.597 609.665V609.905C226.597 610.485 226.652 610.975 226.762 611.375C226.882 611.775 227.077 612.08 227.347 612.29C227.627 612.5 228.002 612.605 228.472 612.605C228.872 612.605 229.197 612.495 229.447 612.275C229.707 612.055 229.897 611.745 230.017 611.345C230.147 610.935 230.212 610.45 230.212 609.89C230.212 609.05 230.067 608.4 229.777 607.94C229.497 607.48 229.052 607.25 228.442 607.25ZM241.357 609.92C241.357 610.6 241.267 611.2 241.087 611.72C240.907 612.24 240.647 612.685 240.307 613.055C239.977 613.415 239.567 613.69 239.077 613.88C238.597 614.06 238.062 614.15 237.472 614.15C236.912 614.15 236.397 614.06 235.927 613.88C235.457 613.69 235.047 613.415 234.697 613.055C234.357 612.685 234.092 612.24 233.902 611.72C233.712 611.2 233.617 610.6 233.617 609.92C233.617 609.02 233.772 608.26 234.082 607.64C234.392 607.01 234.837 606.535 235.417 606.215C236.007 605.885 236.702 605.72 237.502 605.72C238.262 605.72 238.927 605.885 239.497 606.215C240.077 606.535 240.532 607.01 240.862 607.64C241.192 608.26 241.357 609.02 241.357 609.92ZM235.552 609.92C235.552 610.49 235.617 610.98 235.747 611.39C235.887 611.79 236.097 612.095 236.377 612.305C236.667 612.515 237.037 612.62 237.487 612.62C237.947 612.62 238.317 612.515 238.597 612.305C238.887 612.095 239.097 611.79 239.227 611.39C239.357 610.98 239.422 610.49 239.422 609.92C239.422 609.34 239.352 608.855 239.212 608.465C239.082 608.065 238.872 607.765 238.582 607.565C238.302 607.355 237.937 607.25 237.487 607.25C236.807 607.25 236.312 607.48 236.002 607.94C235.702 608.4 235.552 609.06 235.552 609.92ZM250.271 607.97C250.271 608.43 250.126 608.81 249.836 609.11C249.556 609.41 249.156 609.605 248.636 609.695V609.755C249.186 609.825 249.636 610.015 249.986 610.325C250.346 610.625 250.526 611.045 250.526 611.585C250.526 611.935 250.456 612.26 250.316 612.56C250.186 612.85 249.981 613.105 249.701 613.325C249.431 613.535 249.076 613.7 248.636 613.82C248.196 613.94 247.666 614 247.046 614H243.311V605.87H247.031C247.651 605.87 248.201 605.935 248.681 606.065C249.171 606.195 249.556 606.415 249.836 606.725C250.126 607.025 250.271 607.44 250.271 607.97ZM248.561 611.51C248.561 611.14 248.416 610.875 248.126 610.715C247.846 610.545 247.421 610.46 246.851 610.46H245.201V612.635H246.896C247.406 612.635 247.811 612.55 248.111 612.38C248.411 612.21 248.561 611.92 248.561 611.51ZM248.351 608.135C248.351 607.835 248.236 607.615 248.006 607.475C247.776 607.335 247.426 607.265 246.956 607.265H245.201V609.095H246.701C247.241 609.095 247.651 609.02 247.931 608.87C248.211 608.72 248.351 608.475 248.351 608.135ZM255.691 605.72C256.741 605.72 257.536 605.95 258.076 606.41C258.626 606.86 258.901 607.57 258.901 608.54V614H257.566L257.191 612.875H257.131C256.901 613.165 256.661 613.41 256.411 613.61C256.171 613.8 255.891 613.935 255.571 614.015C255.261 614.105 254.881 614.15 254.431 614.15C253.951 614.15 253.516 614.06 253.126 613.88C252.746 613.7 252.446 613.425 252.226 613.055C252.006 612.675 251.896 612.2 251.896 611.63C251.896 610.79 252.201 610.16 252.811 609.74C253.431 609.31 254.366 609.075 255.616 609.035L257.026 608.99V608.585C257.026 608.065 256.901 607.695 256.651 607.475C256.401 607.255 256.051 607.145 255.601 607.145C255.191 607.145 254.796 607.205 254.416 607.325C254.036 607.445 253.666 607.585 253.306 607.745L252.706 606.425C253.106 606.215 253.561 606.045 254.071 605.915C254.591 605.785 255.131 605.72 255.691 605.72ZM256.036 610.19C255.206 610.22 254.631 610.365 254.311 610.625C253.991 610.875 253.831 611.215 253.831 611.645C253.831 612.025 253.946 612.3 254.176 612.47C254.406 612.64 254.701 612.725 255.061 612.725C255.611 612.725 256.076 612.57 256.456 612.26C256.836 611.94 257.026 611.47 257.026 610.85V610.16L256.036 610.19ZM267.585 607.325H264.915V614H263.04V607.325H260.385V605.87H267.585V607.325ZM272.901 609.08C273.691 609.08 274.341 609.17 274.851 609.35C275.371 609.52 275.756 609.78 276.006 610.13C276.266 610.48 276.396 610.92 276.396 611.45C276.396 611.97 276.276 612.42 276.036 612.8C275.796 613.18 275.421 613.475 274.911 613.685C274.411 613.895 273.751 614 272.931 614H269.136V605.87H271.026V609.08H272.901ZM274.506 611.495C274.506 611.105 274.361 610.835 274.071 610.685C273.781 610.535 273.361 610.46 272.811 610.46H271.026V612.635H272.841C273.331 612.635 273.731 612.55 274.041 612.38C274.351 612.2 274.506 611.905 274.506 611.495ZM281.518 614.15C280.748 614.15 280.078 614.005 279.508 613.715C278.948 613.415 278.513 612.96 278.203 612.35C277.903 611.73 277.753 610.94 277.753 609.98C277.753 608.98 277.918 608.17 278.248 607.55C278.588 606.92 279.053 606.46 279.643 606.17C280.233 605.87 280.908 605.72 281.668 605.72C282.178 605.72 282.633 605.77 283.033 605.87C283.433 605.97 283.773 606.09 284.053 606.23L283.498 607.715C283.188 607.595 282.878 607.495 282.568 607.415C282.258 607.325 281.958 607.28 281.668 607.28C281.218 607.28 280.843 607.38 280.543 607.58C280.253 607.78 280.038 608.08 279.898 608.48C279.758 608.87 279.688 609.365 279.688 609.965C279.688 610.545 279.758 611.03 279.898 611.42C280.048 611.81 280.268 612.105 280.558 612.305C280.848 612.495 281.208 612.59 281.638 612.59C282.098 612.59 282.503 612.535 282.853 612.425C283.203 612.315 283.533 612.165 283.843 611.975V613.61C283.533 613.8 283.198 613.935 282.838 614.015C282.488 614.105 282.048 614.15 281.518 614.15ZM286.707 614H284.622L286.857 610.715C286.567 610.605 286.292 610.455 286.032 610.265C285.772 610.065 285.562 609.81 285.402 609.5C285.242 609.18 285.162 608.795 285.162 608.345C285.162 607.545 285.452 606.935 286.032 606.515C286.612 606.085 287.367 605.87 288.297 605.87H292.032V614H290.142V610.895H288.627L286.707 614ZM287.007 608.36C287.007 608.74 287.152 609.035 287.442 609.245C287.742 609.445 288.142 609.545 288.642 609.545H290.142V607.265H288.372C287.892 607.265 287.542 607.37 287.322 607.58C287.112 607.79 287.007 608.05 287.007 608.36Z" fill="#092948"/>
<path d="M171.612 647.436C171.612 648.012 171.416 648.476 171.024 648.828C170.632 649.172 170.12 649.392 169.488 649.488V649.524C170.248 649.612 170.828 649.832 171.228 650.184C171.636 650.536 171.84 650.996 171.84 651.564C171.84 652.068 171.708 652.512 171.444 652.896C171.18 653.28 170.784 653.58 170.256 653.796C169.728 654.012 169.072 654.12 168.288 654.12C167.712 654.12 167.188 654.08 166.716 654C166.244 653.928 165.828 653.812 165.468 653.652V652.332C165.716 652.452 165.988 652.556 166.284 652.644C166.588 652.724 166.892 652.788 167.196 652.836C167.508 652.876 167.8 652.896 168.072 652.896C168.832 652.896 169.392 652.776 169.752 652.536C170.112 652.288 170.292 651.94 170.292 651.492C170.292 651.028 170.048 650.692 169.56 650.484C169.08 650.268 168.424 650.16 167.592 650.16H166.632V648.948H167.508C168.148 648.948 168.656 648.896 169.032 648.792C169.408 648.688 169.676 648.54 169.836 648.348C170.004 648.148 170.088 647.916 170.088 647.652C170.088 647.308 169.948 647.04 169.668 646.848C169.388 646.648 168.988 646.548 168.468 646.548C167.988 646.548 167.56 646.616 167.184 646.752C166.808 646.88 166.452 647.048 166.116 647.256L165.432 646.224C165.704 646.048 165.996 645.892 166.308 645.756C166.628 645.612 166.98 645.504 167.364 645.432C167.748 645.352 168.168 645.312 168.624 645.312C169.264 645.312 169.804 645.404 170.244 645.588C170.692 645.772 171.032 646.024 171.264 646.344C171.496 646.656 171.612 647.02 171.612 647.436ZM175.968 647.376C176.808 647.376 177.444 647.56 177.876 647.928C178.316 648.288 178.536 648.856 178.536 649.632V654H177.468L177.168 653.1H177.12C176.936 653.332 176.744 653.528 176.544 653.688C176.352 653.84 176.128 653.948 175.872 654.012C175.624 654.084 175.32 654.12 174.96 654.12C174.576 654.12 174.228 654.048 173.916 653.904C173.612 653.76 173.372 653.54 173.196 653.244C173.02 652.94 172.932 652.56 172.932 652.104C172.932 651.432 173.176 650.928 173.664 650.592C174.16 650.248 174.908 650.06 175.908 650.028L177.036 649.992V649.668C177.036 649.252 176.936 648.956 176.736 648.78C176.536 648.604 176.256 648.516 175.896 648.516C175.568 648.516 175.252 648.564 174.948 648.66C174.644 648.756 174.348 648.868 174.06 648.996L173.58 647.94C173.9 647.772 174.264 647.636 174.672 647.532C175.088 647.428 175.52 647.376 175.968 647.376ZM176.244 650.952C175.58 650.976 175.12 651.092 174.864 651.3C174.608 651.5 174.48 651.772 174.48 652.116C174.48 652.42 174.572 652.64 174.756 652.776C174.94 652.912 175.176 652.98 175.464 652.98C175.904 652.98 176.276 652.856 176.58 652.608C176.884 652.352 177.036 651.976 177.036 651.48V650.928L176.244 650.952ZM180.059 650.1C180.059 649.14 180.167 648.328 180.383 647.664C180.607 646.992 180.955 646.456 181.427 646.056C181.899 645.656 182.515 645.384 183.275 645.24C183.731 645.152 184.187 645.076 184.643 645.012C185.107 644.948 185.563 644.884 186.011 644.82L186.215 646.14C186.007 646.164 185.779 646.196 185.531 646.236C185.291 646.268 185.043 646.3 184.787 646.332C184.539 646.364 184.299 646.4 184.067 646.44C183.835 646.48 183.627 646.512 183.443 646.536C183.163 646.592 182.911 646.672 182.687 646.776C182.471 646.872 182.287 647.012 182.135 647.196C181.983 647.372 181.863 647.604 181.775 647.892C181.695 648.172 181.643 648.524 181.619 648.948H181.703C181.807 648.796 181.947 648.644 182.123 648.492C182.307 648.34 182.531 648.212 182.795 648.108C183.059 647.996 183.359 647.94 183.695 647.94C184.231 647.94 184.687 648.052 185.063 648.276C185.447 648.5 185.739 648.828 185.939 649.26C186.139 649.684 186.239 650.204 186.239 650.82C186.239 651.548 186.107 652.16 185.843 652.656C185.579 653.144 185.215 653.512 184.751 653.76C184.287 654 183.747 654.12 183.131 654.12C182.667 654.12 182.243 654.032 181.859 653.856C181.483 653.68 181.159 653.424 180.887 653.088C180.615 652.744 180.407 652.324 180.263 651.828C180.127 651.324 180.059 650.748 180.059 650.1ZM183.227 652.884C183.523 652.884 183.779 652.824 183.995 652.704C184.211 652.576 184.379 652.372 184.499 652.092C184.619 651.804 184.679 651.424 184.679 650.952C184.679 650.384 184.579 649.932 184.379 649.596C184.179 649.26 183.843 649.092 183.371 649.092C183.075 649.092 182.803 649.16 182.555 649.296C182.315 649.432 182.111 649.588 181.943 649.764C181.775 649.932 181.659 650.076 181.595 650.196C181.595 650.54 181.619 650.872 181.667 651.192C181.723 651.512 181.811 651.8 181.931 652.056C182.059 652.312 182.227 652.516 182.435 652.668C182.651 652.812 182.915 652.884 183.227 652.884ZM187.79 654V647.496H189.302V650.064H190.466C191.098 650.064 191.614 650.136 192.014 650.28C192.422 650.416 192.722 650.624 192.914 650.904C193.114 651.184 193.214 651.536 193.214 651.96C193.214 652.376 193.122 652.736 192.938 653.04C192.754 653.344 192.462 653.58 192.062 653.748C191.662 653.916 191.138 654 190.49 654H187.79ZM190.394 652.908C190.778 652.908 191.094 652.84 191.342 652.704C191.59 652.56 191.714 652.324 191.714 651.996C191.714 651.684 191.598 651.468 191.366 651.348C191.142 651.228 190.814 651.168 190.382 651.168H189.302V652.908H190.394ZM194.21 654V647.496H195.722V654H194.21ZM203.165 654H201.653V648.66H199.913C199.833 649.644 199.733 650.48 199.613 651.168C199.493 651.856 199.345 652.42 199.169 652.86C198.993 653.292 198.773 653.608 198.509 653.808C198.253 654.008 197.941 654.108 197.573 654.108C197.405 654.108 197.249 654.096 197.105 654.072C196.961 654.048 196.837 654.008 196.733 653.952V652.764C196.805 652.788 196.881 652.812 196.961 652.836C197.041 652.852 197.125 652.86 197.213 652.86C197.349 652.86 197.473 652.808 197.585 652.704C197.705 652.592 197.813 652.412 197.909 652.164C198.013 651.908 198.109 651.572 198.197 651.156C198.285 650.74 198.361 650.232 198.425 649.632C198.497 649.024 198.561 648.312 198.617 647.496H203.165V654ZM206.563 650.592C206.563 650.704 206.555 650.848 206.539 651.024C206.531 651.192 206.523 651.372 206.515 651.564C206.507 651.748 206.495 651.916 206.479 652.068C206.471 652.212 206.463 652.32 206.455 652.392L209.635 647.496H211.459V654H210.007V650.94C210.007 650.756 210.011 650.544 210.019 650.304C210.035 650.064 210.051 649.836 210.067 649.62C210.083 649.396 210.095 649.228 210.103 649.116L206.935 654H205.111V647.496H206.563V650.592ZM222.015 647.496V654H220.503V648.672H217.779V654H216.267V647.496H222.015ZM226.546 647.376C227.386 647.376 228.022 647.56 228.454 647.928C228.894 648.288 229.114 648.856 229.114 649.632V654H228.046L227.746 653.1H227.698C227.514 653.332 227.322 653.528 227.122 653.688C226.93 653.84 226.706 653.948 226.45 654.012C226.202 654.084 225.898 654.12 225.538 654.12C225.154 654.12 224.806 654.048 224.494 653.904C224.19 653.76 223.95 653.54 223.774 653.244C223.598 652.94 223.51 652.56 223.51 652.104C223.51 651.432 223.754 650.928 224.242 650.592C224.738 650.248 225.486 650.06 226.486 650.028L227.614 649.992V649.668C227.614 649.252 227.514 648.956 227.314 648.78C227.114 648.604 226.834 648.516 226.474 648.516C226.146 648.516 225.83 648.564 225.526 648.66C225.222 648.756 224.926 648.868 224.638 648.996L224.158 647.94C224.478 647.772 224.842 647.636 225.25 647.532C225.666 647.428 226.098 647.376 226.546 647.376ZM226.822 650.952C226.158 650.976 225.698 651.092 225.442 651.3C225.186 651.5 225.058 651.772 225.058 652.116C225.058 652.42 225.15 652.64 225.334 652.776C225.518 652.912 225.754 652.98 226.042 652.98C226.482 652.98 226.854 652.856 227.158 652.608C227.462 652.352 227.614 651.976 227.614 651.48V650.928L226.822 650.952ZM234.429 647.376C235.189 647.376 235.801 647.66 236.265 648.228C236.729 648.788 236.961 649.624 236.961 650.736C236.961 651.472 236.853 652.092 236.637 652.596C236.421 653.1 236.121 653.48 235.737 653.736C235.353 653.992 234.905 654.12 234.393 654.12C234.081 654.12 233.805 654.08 233.565 654C233.325 653.912 233.121 653.804 232.953 653.676C232.785 653.54 232.641 653.396 232.521 653.244H232.425C232.457 653.388 232.481 653.552 232.497 653.736C232.513 653.912 232.521 654.08 232.521 654.24V656.88H231.009V647.496H232.233L232.449 648.36H232.521C232.641 648.176 232.785 648.012 232.953 647.868C233.129 647.716 233.337 647.596 233.577 647.508C233.825 647.42 234.109 647.376 234.429 647.376ZM233.997 648.6C233.645 648.6 233.361 648.672 233.145 648.816C232.929 648.952 232.773 649.164 232.677 649.452C232.581 649.74 232.529 650.1 232.521 650.532V650.724C232.521 651.188 232.565 651.58 232.653 651.9C232.749 652.22 232.905 652.464 233.121 652.632C233.345 652.8 233.645 652.884 234.021 652.884C234.341 652.884 234.601 652.796 234.801 652.62C235.009 652.444 235.161 652.196 235.257 651.876C235.361 651.548 235.413 651.16 235.413 650.712C235.413 650.04 235.297 649.52 235.065 649.152C234.841 648.784 234.485 648.6 233.997 648.6ZM244.329 650.736C244.329 651.28 244.257 651.76 244.113 652.176C243.969 652.592 243.761 652.948 243.489 653.244C243.225 653.532 242.897 653.752 242.505 653.904C242.121 654.048 241.693 654.12 241.221 654.12C240.773 654.12 240.361 654.048 239.985 653.904C239.609 653.752 239.281 653.532 239.001 653.244C238.729 652.948 238.517 652.592 238.365 652.176C238.213 651.76 238.137 651.28 238.137 650.736C238.137 650.016 238.261 649.408 238.509 648.912C238.757 648.408 239.113 648.028 239.577 647.772C240.049 647.508 240.605 647.376 241.245 647.376C241.853 647.376 242.385 647.508 242.841 647.772C243.305 648.028 243.669 648.408 243.933 648.912C244.197 649.408 244.329 650.016 244.329 650.736ZM239.685 650.736C239.685 651.192 239.737 651.584 239.841 651.912C239.953 652.232 240.121 652.476 240.345 652.644C240.577 652.812 240.873 652.896 241.233 652.896C241.601 652.896 241.897 652.812 242.121 652.644C242.353 652.476 242.521 652.232 242.625 651.912C242.729 651.584 242.781 651.192 242.781 650.736C242.781 650.272 242.725 649.884 242.613 649.572C242.509 649.252 242.341 649.012 242.109 648.852C241.885 648.684 241.593 648.6 241.233 648.6C240.689 648.6 240.293 648.784 240.045 649.152C239.805 649.52 239.685 650.048 239.685 650.736ZM251.388 654H249.876V648.66H248.136C248.056 649.644 247.956 650.48 247.836 651.168C247.716 651.856 247.568 652.42 247.392 652.86C247.216 653.292 246.996 653.608 246.732 653.808C246.476 654.008 246.164 654.108 245.796 654.108C245.628 654.108 245.472 654.096 245.328 654.072C245.184 654.048 245.06 654.008 244.956 653.952V652.764C245.028 652.788 245.104 652.812 245.184 652.836C245.264 652.852 245.348 652.86 245.436 652.86C245.572 652.86 245.696 652.808 245.808 652.704C245.928 652.592 246.036 652.412 246.132 652.164C246.236 651.908 246.332 651.572 246.42 651.156C246.508 650.74 246.584 650.232 246.648 649.632C246.72 649.024 246.784 648.312 246.84 647.496H251.388V654ZM256.345 650.064C256.977 650.064 257.497 650.136 257.905 650.28C258.321 650.416 258.629 650.624 258.829 650.904C259.037 651.184 259.141 651.536 259.141 651.96C259.141 652.376 259.045 652.736 258.853 653.04C258.661 653.344 258.361 653.58 257.953 653.748C257.553 653.916 257.025 654 256.369 654H253.333V647.496H254.845V650.064H256.345ZM257.629 651.996C257.629 651.684 257.513 651.468 257.281 651.348C257.049 651.228 256.713 651.168 256.273 651.168H254.845V652.908H256.297C256.689 652.908 257.009 652.84 257.257 652.704C257.505 652.56 257.629 652.324 257.629 651.996ZM262.807 645.336C263.639 645.336 264.307 645.564 264.811 646.02C265.323 646.468 265.579 647.088 265.579 647.88C265.579 648.664 265.327 649.264 264.823 649.68C264.319 650.088 263.651 650.292 262.819 650.292L262.771 651.216H261.295L261.235 649.176H261.775C262.471 649.176 263.007 649.084 263.383 648.9C263.759 648.716 263.947 648.38 263.947 647.892C263.947 647.54 263.843 647.26 263.635 647.052C263.435 646.844 263.159 646.74 262.807 646.74C262.439 646.74 262.151 646.84 261.943 647.04C261.743 647.24 261.643 647.516 261.643 647.868H260.059C260.051 647.38 260.155 646.944 260.371 646.56C260.587 646.176 260.903 645.876 261.319 645.66C261.743 645.444 262.239 645.336 262.807 645.336ZM262.027 654.084C261.723 654.084 261.471 653.992 261.271 653.808C261.079 653.616 260.983 653.38 260.983 653.1C260.983 652.82 261.079 652.588 261.271 652.404C261.471 652.212 261.723 652.116 262.027 652.116C262.323 652.116 262.567 652.212 262.759 652.404C262.951 652.588 263.047 652.82 263.047 653.1C263.047 653.38 262.951 653.616 262.759 653.808C262.567 653.992 262.323 654.084 262.027 654.084Z" fill="#093030"/>
<path d="M61.1464 427V398.44H84.5464V427H76.7864V404.76H68.9064V427H61.1464ZM100.597 398.44C104.223 398.44 106.93 399.227 108.717 400.8C110.53 402.373 111.437 404.613 111.437 407.52C111.437 408.827 111.25 410.08 110.877 411.28C110.503 412.453 109.89 413.52 109.037 414.48C108.21 415.413 107.103 416.16 105.717 416.72C104.33 417.253 102.623 417.52 100.597 417.52H98.4367V427H90.7167V398.44H100.597ZM100.437 404.68H98.4367V411.24H99.9567C100.623 411.24 101.237 411.133 101.797 410.92C102.383 410.68 102.85 410.307 103.197 409.8C103.543 409.267 103.717 408.573 103.717 407.72C103.717 406.813 103.45 406.08 102.917 405.52C102.383 404.96 101.557 404.68 100.437 404.68ZM142.71 412.68C142.71 414.893 142.443 416.907 141.91 418.72C141.377 420.507 140.55 422.053 139.43 423.36C138.31 424.667 136.87 425.667 135.11 426.36C133.377 427.053 131.283 427.4 128.83 427.4C126.43 427.4 124.35 427.053 122.59 426.36C120.857 425.667 119.417 424.667 118.27 423.36C117.15 422.053 116.31 420.507 115.75 418.72C115.217 416.907 114.95 414.88 114.95 412.64C114.95 409.68 115.443 407.107 116.43 404.92C117.417 402.707 118.937 401 120.99 399.8C123.043 398.6 125.67 398 128.87 398C132.123 398 134.763 398.613 136.79 399.84C138.843 401.04 140.337 402.747 141.27 404.96C142.23 407.147 142.71 409.72 142.71 412.68ZM123.07 412.68C123.07 414.387 123.257 415.867 123.63 417.12C124.03 418.347 124.657 419.293 125.51 419.96C126.363 420.627 127.47 420.96 128.83 420.96C130.243 420.96 131.363 420.627 132.19 419.96C133.043 419.293 133.657 418.347 134.03 417.12C134.403 415.867 134.59 414.387 134.59 412.68C134.59 410.093 134.163 408.053 133.31 406.56C132.457 405.067 130.977 404.32 128.87 404.32C127.483 404.32 126.363 404.667 125.51 405.36C124.657 406.027 124.03 406.987 123.63 408.24C123.257 409.467 123.07 410.947 123.07 412.68ZM168.745 398.44V423.24H172.425V434.76H168.265V427H149.145V434.76H145.025V423.24H147.225C148.105 421.64 148.958 419.88 149.785 417.96C150.612 416.013 151.345 413.973 151.985 411.84C152.625 409.68 153.158 407.48 153.585 405.24C154.038 402.973 154.358 400.707 154.545 398.44H168.745ZM158.185 402.2C158.052 403.72 157.785 405.4 157.385 407.24C156.985 409.053 156.492 410.92 155.905 412.84C155.345 414.76 154.705 416.627 153.985 418.44C153.292 420.227 152.558 421.827 151.785 423.24H164.465V402.2H158.185ZM185.461 398.44C187.887 398.44 189.914 398.667 191.541 399.12C193.194 399.573 194.434 400.333 195.261 401.4C196.114 402.44 196.541 403.827 196.541 405.56C196.541 406.68 196.341 407.68 195.941 408.56C195.541 409.413 194.954 410.133 194.181 410.72C193.434 411.28 192.501 411.653 191.381 411.84V412.04C192.527 412.227 193.554 412.573 194.461 413.08C195.367 413.56 196.087 414.267 196.621 415.2C197.154 416.133 197.421 417.347 197.421 418.84C197.421 420.573 197.007 422.053 196.181 423.28C195.381 424.48 194.221 425.4 192.701 426.04C191.207 426.68 189.421 427 187.341 427H177.101V398.44H185.461ZM186.181 410.36C188.421 410.36 189.954 410 190.781 409.28C191.634 408.56 192.061 407.493 192.061 406.08C192.061 404.64 191.554 403.613 190.541 403C189.527 402.387 187.914 402.08 185.701 402.08H181.421V410.36H186.181ZM181.421 413.88V423.4H186.661C188.981 423.4 190.594 422.947 191.501 422.04C192.407 421.133 192.861 419.933 192.861 418.44C192.861 417.533 192.661 416.733 192.261 416.04C191.861 415.347 191.181 414.813 190.221 414.44C189.287 414.067 188.007 413.88 186.381 413.88H181.421ZM203.391 398.44H207.351V413.56C207.351 414.227 207.337 414.96 207.311 415.76C207.311 416.56 207.297 417.347 207.271 418.12C207.244 418.893 207.204 419.587 207.151 420.2C207.124 420.787 207.097 421.227 207.071 421.52H207.231L222.191 398.44H227.151V427H223.191V412C223.191 411.28 223.204 410.507 223.231 409.68C223.257 408.827 223.284 408 223.311 407.2C223.364 406.4 223.404 405.707 223.431 405.12C223.457 404.507 223.484 404.067 223.511 403.8H223.351L208.351 427H203.391V398.44ZM242.038 412.28L231.398 398.44H236.038L246.478 412.28V398.44H250.558V412.28L260.998 398.44H265.638L254.998 412.24L266.078 427H261.238L250.558 412.52V427H246.478V412.52L235.758 427H230.958L242.038 412.28ZM285.993 427H269.913V398.44H285.993V402.12H274.233V410.28H285.273V413.92H274.233V423.28H285.993V427ZM314.459 427H310.139V413.96H296.499V427H292.179V398.44H296.499V410.28H310.139V398.44H314.459V427ZM322.141 398.44H326.101V413.56C326.101 414.227 326.087 414.96 326.061 415.76C326.061 416.56 326.047 417.347 326.021 418.12C325.994 418.893 325.954 419.587 325.901 420.2C325.874 420.787 325.847 421.227 325.821 421.52H325.981L340.941 398.44H345.901V427H341.941V412C341.941 411.28 341.954 410.507 341.981 409.68C342.007 408.827 342.034 408 342.061 407.2C342.114 406.4 342.154 405.707 342.181 405.12C342.207 404.507 342.234 404.067 342.261 403.8H342.101L327.101 427H322.141V398.44ZM369.548 427H353.468V398.44H369.548V402.12H357.788V410.28H368.828V413.92H357.788V423.28H369.548V427Z" fill="#092948"/>
<path d="M190.699 298.469C190.699 291.979 193.259 285.756 197.817 281.167C202.374 276.578 208.554 274 214.999 274C221.444 274 227.625 276.578 232.182 281.167C236.739 285.756 239.299 291.979 239.299 298.469C239.299 304.958 236.739 311.182 232.182 315.771C227.625 320.36 221.444 322.938 214.999 322.938C208.554 322.938 202.374 320.36 197.817 315.771C193.259 311.182 190.699 304.958 190.699 298.469ZM214.999 287.594C216.484 287.594 217.699 286.37 217.699 284.875C217.699 283.38 216.484 282.156 214.999 282.156C206.055 282.156 198.799 289.463 198.799 298.469C198.799 299.964 200.014 301.188 201.499 301.188C202.984 301.188 204.199 299.964 204.199 298.469C204.199 292.471 209.042 287.594 214.999 287.594ZM209.599 355.562V327.882C213.17 328.539 216.829 328.539 220.399 327.882V355.562C220.399 358.57 217.986 361 214.999 361C212.012 361 209.599 358.57 209.599 355.562Z" fill="#4BB1F1"/>
</svg>
