<svg width="430" height="932" viewBox="0 0 430 932" fill="none" xmlns="http://www.w3.org/2000/svg">
<g clip-path="url(#clip0_320_1244)">
<rect width="430" height="932" rx="40" fill="#242C3B"/>
<path d="M116.644 466.904C117.27 467.072 117.746 467.361 118.072 467.772C118.399 468.173 118.562 468.677 118.562 469.284C118.562 470.143 118.245 470.81 117.61 471.286C116.976 471.762 116.056 472 114.852 472H110.204V462.2H114.586C115.688 462.2 116.546 462.419 117.162 462.858C117.778 463.297 118.086 463.917 118.086 464.72C118.086 465.233 117.96 465.677 117.708 466.05C117.466 466.423 117.111 466.708 116.644 466.904ZM111.996 466.386H114.432C115.02 466.386 115.468 466.269 115.776 466.036C116.084 465.803 116.238 465.457 116.238 465C116.238 464.543 116.084 464.197 115.776 463.964C115.468 463.721 115.02 463.6 114.432 463.6H111.996V466.386ZM114.796 470.6C116.084 470.6 116.728 470.115 116.728 469.144C116.728 468.192 116.084 467.716 114.796 467.716H111.996V470.6H114.796ZM123.842 472.098C123.067 472.098 122.372 471.935 121.756 471.608C121.14 471.281 120.659 470.829 120.314 470.25C119.968 469.662 119.796 468.999 119.796 468.262C119.796 467.525 119.968 466.867 120.314 466.288C120.659 465.709 121.135 465.257 121.742 464.93C122.358 464.603 123.058 464.44 123.842 464.44C124.579 464.44 125.223 464.589 125.774 464.888C126.334 465.187 126.754 465.616 127.034 466.176L125.69 466.96C125.475 466.615 125.204 466.358 124.878 466.19C124.56 466.013 124.21 465.924 123.828 465.924C123.174 465.924 122.633 466.139 122.204 466.568C121.774 466.988 121.56 467.553 121.56 468.262C121.56 468.971 121.77 469.541 122.19 469.97C122.619 470.39 123.165 470.6 123.828 470.6C124.21 470.6 124.56 470.516 124.878 470.348C125.204 470.171 125.475 469.909 125.69 469.564L127.034 470.348C126.744 470.908 126.32 471.342 125.76 471.65C125.209 471.949 124.57 472.098 123.842 472.098ZM131.993 470.614C132.805 470.614 133.482 470.343 134.023 469.802L134.947 470.88C134.62 471.281 134.2 471.585 133.687 471.79C133.174 471.995 132.595 472.098 131.951 472.098C131.13 472.098 130.406 471.935 129.781 471.608C129.156 471.281 128.67 470.829 128.325 470.25C127.989 469.662 127.821 468.999 127.821 468.262C127.821 467.534 127.984 466.881 128.311 466.302C128.647 465.714 129.104 465.257 129.683 464.93C130.271 464.603 130.934 464.44 131.671 464.44C132.371 464.44 133.006 464.594 133.575 464.902C134.154 465.201 134.611 465.635 134.947 466.204C135.283 466.764 135.451 467.422 135.451 468.178L129.725 469.298C129.902 469.727 130.187 470.054 130.579 470.278C130.971 470.502 131.442 470.614 131.993 470.614ZM131.671 465.84C131.027 465.84 130.504 466.05 130.103 466.47C129.711 466.89 129.515 467.455 129.515 468.164V468.178L133.743 467.366C133.622 466.909 133.374 466.54 133.001 466.26C132.637 465.98 132.194 465.84 131.671 465.84ZM130.271 463.348C130.028 463.348 129.828 463.269 129.669 463.11C129.51 462.951 129.431 462.751 129.431 462.508C129.431 462.256 129.51 462.051 129.669 461.892C129.828 461.733 130.028 461.654 130.271 461.654C130.514 461.654 130.714 461.733 130.873 461.892C131.032 462.051 131.111 462.256 131.111 462.508C131.111 462.751 131.032 462.951 130.873 463.11C130.714 463.269 130.514 463.348 130.271 463.348ZM132.987 463.348C132.744 463.348 132.544 463.269 132.385 463.11C132.226 462.951 132.147 462.751 132.147 462.508C132.147 462.256 132.226 462.051 132.385 461.892C132.544 461.733 132.744 461.654 132.987 461.654C133.23 461.654 133.43 461.733 133.589 461.892C133.748 462.051 133.827 462.256 133.827 462.508C133.827 462.751 133.748 462.951 133.589 463.11C133.43 463.269 133.23 463.348 132.987 463.348ZM148.198 464.524V472H146.462V466.008H142.78V472H141.03V464.524H148.198ZM154.255 464.44C155.029 464.44 155.706 464.599 156.285 464.916C156.873 465.233 157.325 465.681 157.643 466.26C157.969 466.839 158.133 467.511 158.133 468.276C158.133 469.032 157.979 469.699 157.671 470.278C157.363 470.857 156.929 471.305 156.369 471.622C155.818 471.939 155.179 472.098 154.451 472.098C153.415 472.098 152.603 471.767 152.015 471.104V474.716H150.251V468.29C150.251 467.534 150.419 466.867 150.755 466.288C151.091 465.7 151.557 465.247 152.155 464.93C152.761 464.603 153.461 464.44 154.255 464.44ZM154.185 470.614C154.838 470.614 155.37 470.399 155.781 469.97C156.191 469.531 156.397 468.967 156.397 468.276C156.397 467.585 156.191 467.021 155.781 466.582C155.37 466.143 154.838 465.924 154.185 465.924C153.522 465.924 152.99 466.139 152.589 466.568C152.187 466.997 151.987 467.562 151.987 468.262C151.987 468.962 152.187 469.531 152.589 469.97C152.999 470.399 153.531 470.614 154.185 470.614ZM163.215 472.098C162.459 472.098 161.778 471.935 161.171 471.608C160.564 471.281 160.088 470.829 159.743 470.25C159.407 469.662 159.239 468.999 159.239 468.262C159.239 467.525 159.407 466.867 159.743 466.288C160.088 465.709 160.564 465.257 161.171 464.93C161.778 464.603 162.459 464.44 163.215 464.44C163.98 464.44 164.666 464.603 165.273 464.93C165.88 465.257 166.351 465.709 166.687 466.288C167.032 466.867 167.205 467.525 167.205 468.262C167.205 468.999 167.032 469.662 166.687 470.25C166.351 470.829 165.88 471.281 165.273 471.608C164.666 471.935 163.98 472.098 163.215 472.098ZM163.215 470.6C163.859 470.6 164.391 470.385 164.811 469.956C165.231 469.527 165.441 468.962 165.441 468.262C165.441 467.562 165.231 466.997 164.811 466.568C164.391 466.139 163.859 465.924 163.215 465.924C162.571 465.924 162.039 466.139 161.619 466.568C161.208 466.997 161.003 467.562 161.003 468.262C161.003 468.962 161.208 469.527 161.619 469.956C162.039 470.385 162.571 470.6 163.215 470.6ZM180.167 464.524V470.866C180.167 473.498 178.823 474.814 176.135 474.814C175.416 474.814 174.735 474.721 174.091 474.534C173.447 474.357 172.915 474.095 172.495 473.75L173.279 472.434C173.606 472.705 174.016 472.919 174.511 473.078C175.015 473.246 175.524 473.33 176.037 473.33C176.858 473.33 177.46 473.143 177.843 472.77C178.226 472.397 178.417 471.827 178.417 471.062V470.67C178.118 470.997 177.754 471.244 177.325 471.412C176.896 471.58 176.424 471.664 175.911 471.664C175.202 471.664 174.558 471.515 173.979 471.216C173.41 470.908 172.957 470.479 172.621 469.928C172.294 469.377 172.131 468.747 172.131 468.038C172.131 467.329 172.294 466.703 172.621 466.162C172.957 465.611 173.41 465.187 173.979 464.888C174.558 464.589 175.202 464.44 175.911 464.44C176.452 464.44 176.942 464.529 177.381 464.706C177.829 464.883 178.202 465.154 178.501 465.518V464.524H180.167ZM176.177 470.18C176.84 470.18 177.381 469.984 177.801 469.592C178.23 469.191 178.445 468.673 178.445 468.038C178.445 467.413 178.23 466.904 177.801 466.512C177.381 466.12 176.84 465.924 176.177 465.924C175.505 465.924 174.954 466.12 174.525 466.512C174.105 466.904 173.895 467.413 173.895 468.038C173.895 468.673 174.105 469.191 174.525 469.592C174.954 469.984 175.505 470.18 176.177 470.18ZM187.942 468.108C188.866 468.388 189.328 468.985 189.328 469.9C189.328 470.572 189.076 471.09 188.572 471.454C188.068 471.818 187.321 472 186.332 472H182.524V464.524H186.178C187.092 464.524 187.806 464.692 188.32 465.028C188.833 465.364 189.09 465.84 189.09 466.456C189.09 466.839 188.987 467.17 188.782 467.45C188.586 467.73 188.306 467.949 187.942 468.108ZM184.19 467.646H186.024C186.929 467.646 187.382 467.333 187.382 466.708C187.382 466.101 186.929 465.798 186.024 465.798H184.19V467.646ZM186.192 470.726C187.153 470.726 187.634 470.413 187.634 469.788C187.634 469.461 187.522 469.219 187.298 469.06C187.074 468.892 186.724 468.808 186.248 468.808H184.19V470.726H186.192ZM198.276 464.524V472H196.61V471.048C196.33 471.384 195.98 471.645 195.56 471.832C195.149 472.009 194.701 472.098 194.216 472.098C193.217 472.098 192.428 471.823 191.85 471.272C191.271 470.712 190.982 469.886 190.982 468.794V464.524H192.732V468.556C192.732 469.228 192.881 469.732 193.18 470.068C193.488 470.395 193.926 470.558 194.496 470.558C195.112 470.558 195.602 470.367 195.966 469.984C196.339 469.592 196.526 469.032 196.526 468.304V464.524H198.276ZM207.737 469.004H206.477V472H204.741V469.004H203.481L201.661 472H199.589L202.039 468.136L199.771 464.524H201.633L203.453 467.548H204.741V464.524H206.477V467.548H207.751L209.585 464.524H211.447L209.179 468.136L211.643 472H209.557L207.737 469.004ZM216.225 470.614C217.037 470.614 217.714 470.343 218.255 469.802L219.179 470.88C218.853 471.281 218.433 471.585 217.919 471.79C217.406 471.995 216.827 472.098 216.183 472.098C215.362 472.098 214.639 471.935 214.013 471.608C213.388 471.281 212.903 470.829 212.557 470.25C212.221 469.662 212.053 468.999 212.053 468.262C212.053 467.534 212.217 466.881 212.543 466.302C212.879 465.714 213.337 465.257 213.915 464.93C214.503 464.603 215.166 464.44 215.903 464.44C216.603 464.44 217.238 464.594 217.807 464.902C218.386 465.201 218.843 465.635 219.179 466.204C219.515 466.764 219.683 467.422 219.683 468.178L213.957 469.298C214.135 469.727 214.419 470.054 214.811 470.278C215.203 470.502 215.675 470.614 216.225 470.614ZM215.903 465.84C215.259 465.84 214.737 466.05 214.335 466.47C213.943 466.89 213.747 467.455 213.747 468.164V468.178L217.975 467.366C217.854 466.909 217.607 466.54 217.233 466.26C216.869 465.98 216.426 465.84 215.903 465.84ZM221.393 464.524H223.143V467.562H226.909V464.524H228.659V472H226.909V469.046H223.143V472H221.393V464.524ZM238.088 464.524V472H236.422V471.048C236.142 471.384 235.792 471.645 235.372 471.832C234.961 472.009 234.513 472.098 234.028 472.098C233.029 472.098 232.241 471.823 231.662 471.272C231.083 470.712 230.794 469.886 230.794 468.794V464.524H232.544V468.556C232.544 469.228 232.693 469.732 232.992 470.068C233.3 470.395 233.739 470.558 234.308 470.558C234.924 470.558 235.414 470.367 235.778 469.984C236.151 469.592 236.338 469.032 236.338 468.304V464.524H238.088ZM243.979 470.614C244.791 470.614 245.468 470.343 246.009 469.802L246.933 470.88C246.607 471.281 246.187 471.585 245.673 471.79C245.16 471.995 244.581 472.098 243.937 472.098C243.116 472.098 242.393 471.935 241.767 471.608C241.142 471.281 240.657 470.829 240.311 470.25C239.975 469.662 239.807 468.999 239.807 468.262C239.807 467.534 239.971 466.881 240.297 466.302C240.633 465.714 241.091 465.257 241.669 464.93C242.257 464.603 242.92 464.44 243.657 464.44C244.357 464.44 244.992 464.594 245.561 464.902C246.14 465.201 246.597 465.635 246.933 466.204C247.269 466.764 247.437 467.422 247.437 468.178L241.711 469.298C241.889 469.727 242.173 470.054 242.565 470.278C242.957 470.502 243.429 470.614 243.979 470.614ZM243.657 465.84C243.013 465.84 242.491 466.05 242.089 466.47C241.697 466.89 241.501 467.455 241.501 468.164V468.178L245.729 467.366C245.608 466.909 245.361 466.54 244.987 466.26C244.623 465.98 244.18 465.84 243.657 465.84ZM249.693 469.774C250.019 469.774 250.29 469.881 250.505 470.096C250.719 470.311 250.827 470.591 250.827 470.936C250.827 471.085 250.803 471.244 250.757 471.412C250.719 471.571 250.635 471.813 250.505 472.14L249.791 474.114H248.657L249.217 471.972C249.011 471.888 248.848 471.757 248.727 471.58C248.615 471.393 248.559 471.179 248.559 470.936C248.559 470.591 248.666 470.311 248.881 470.096C249.095 469.881 249.366 469.774 249.693 469.774ZM263.798 464.524V470.866C263.798 473.498 262.454 474.814 259.766 474.814C259.047 474.814 258.366 474.721 257.722 474.534C257.078 474.357 256.546 474.095 256.126 473.75L256.91 472.434C257.236 472.705 257.647 472.919 258.142 473.078C258.646 473.246 259.154 473.33 259.668 473.33C260.489 473.33 261.091 473.143 261.474 472.77C261.856 472.397 262.048 471.827 262.048 471.062V470.67C261.749 470.997 261.385 471.244 260.956 471.412C260.526 471.58 260.055 471.664 259.542 471.664C258.832 471.664 258.188 471.515 257.61 471.216C257.04 470.908 256.588 470.479 256.252 469.928C255.925 469.377 255.762 468.747 255.762 468.038C255.762 467.329 255.925 466.703 256.252 466.162C256.588 465.611 257.04 465.187 257.61 464.888C258.188 464.589 258.832 464.44 259.542 464.44C260.083 464.44 260.573 464.529 261.012 464.706C261.46 464.883 261.833 465.154 262.132 465.518V464.524H263.798ZM259.808 470.18C260.47 470.18 261.012 469.984 261.432 469.592C261.861 469.191 262.076 468.673 262.076 468.038C262.076 467.413 261.861 466.904 261.432 466.512C261.012 466.12 260.47 465.924 259.808 465.924C259.136 465.924 258.585 466.12 258.156 466.512C257.736 466.904 257.526 467.413 257.526 468.038C257.526 468.673 257.736 469.191 258.156 469.592C258.585 469.984 259.136 470.18 259.808 470.18ZM269.487 472.098C268.731 472.098 268.049 471.935 267.443 471.608C266.836 471.281 266.36 470.829 266.015 470.25C265.679 469.662 265.511 468.999 265.511 468.262C265.511 467.525 265.679 466.867 266.015 466.288C266.36 465.709 266.836 465.257 267.443 464.93C268.049 464.603 268.731 464.44 269.487 464.44C270.252 464.44 270.938 464.603 271.545 464.93C272.151 465.257 272.623 465.709 272.959 466.288C273.304 466.867 273.477 467.525 273.477 468.262C273.477 468.999 273.304 469.662 272.959 470.25C272.623 470.829 272.151 471.281 271.545 471.608C270.938 471.935 270.252 472.098 269.487 472.098ZM269.487 470.6C270.131 470.6 270.663 470.385 271.083 469.956C271.503 469.527 271.713 468.962 271.713 468.262C271.713 467.562 271.503 466.997 271.083 466.568C270.663 466.139 270.131 465.924 269.487 465.924C268.843 465.924 268.311 466.139 267.891 466.568C267.48 466.997 267.275 467.562 267.275 468.262C267.275 468.962 267.48 469.527 267.891 469.956C268.311 470.385 268.843 470.6 269.487 470.6ZM278.901 464.44C279.676 464.44 280.353 464.599 280.931 464.916C281.519 465.233 281.972 465.681 282.289 466.26C282.616 466.839 282.779 467.511 282.779 468.276C282.779 469.032 282.625 469.699 282.317 470.278C282.009 470.857 281.575 471.305 281.015 471.622C280.465 471.939 279.825 472.098 279.097 472.098C278.061 472.098 277.249 471.767 276.661 471.104V474.716H274.897V468.29C274.897 467.534 275.065 466.867 275.401 466.288C275.737 465.7 276.204 465.247 276.801 464.93C277.408 464.603 278.108 464.44 278.901 464.44ZM278.831 470.614C279.485 470.614 280.017 470.399 280.427 469.97C280.838 469.531 281.043 468.967 281.043 468.276C281.043 467.585 280.838 467.021 280.427 466.582C280.017 466.143 279.485 465.924 278.831 465.924C278.169 465.924 277.637 466.139 277.235 466.568C276.834 466.997 276.633 467.562 276.633 468.262C276.633 468.962 276.834 469.531 277.235 469.97C277.646 470.399 278.178 470.614 278.831 470.614ZM287.862 472.098C287.106 472.098 286.424 471.935 285.818 471.608C285.211 471.281 284.735 470.829 284.39 470.25C284.054 469.662 283.886 468.999 283.886 468.262C283.886 467.525 284.054 466.867 284.39 466.288C284.735 465.709 285.211 465.257 285.818 464.93C286.424 464.603 287.106 464.44 287.862 464.44C288.627 464.44 289.313 464.603 289.92 464.93C290.526 465.257 290.998 465.709 291.334 466.288C291.679 466.867 291.852 467.525 291.852 468.262C291.852 468.999 291.679 469.662 291.334 470.25C290.998 470.829 290.526 471.281 289.92 471.608C289.313 471.935 288.627 472.098 287.862 472.098ZM287.862 470.6C288.506 470.6 289.038 470.385 289.458 469.956C289.878 469.527 290.088 468.962 290.088 468.262C290.088 467.562 289.878 466.997 289.458 466.568C289.038 466.139 288.506 465.924 287.862 465.924C287.218 465.924 286.686 466.139 286.266 466.568C285.855 466.997 285.65 467.562 285.65 468.262C285.65 468.962 285.855 469.527 286.266 469.956C286.686 470.385 287.218 470.6 287.862 470.6ZM299.32 466.008H295.33V472H293.58V464.524H299.32V466.008ZM307.678 464.524V472H306.012V471.048C305.732 471.384 305.382 471.645 304.962 471.832C304.551 472.009 304.103 472.098 303.618 472.098C302.619 472.098 301.831 471.823 301.252 471.272C300.673 470.712 300.384 469.886 300.384 468.794V464.524H302.134V468.556C302.134 469.228 302.283 469.732 302.582 470.068C302.89 470.395 303.329 470.558 303.898 470.558C304.514 470.558 305.004 470.367 305.368 469.984C305.741 469.592 305.928 469.032 305.928 468.304V464.524H307.678ZM320.994 464.524V472H319.328V471.048C319.048 471.384 318.698 471.645 318.278 471.832C317.868 472.009 317.42 472.098 316.934 472.098C315.936 472.098 315.147 471.823 314.568 471.272C313.99 470.712 313.7 469.886 313.7 468.794V464.524H315.45V468.556C315.45 469.228 315.6 469.732 315.898 470.068C316.206 470.395 316.645 470.558 317.214 470.558C317.83 470.558 318.32 470.367 318.684 469.984C319.058 469.592 319.244 469.032 319.244 468.304V464.524H320.994ZM164.838 481.888C165.548 481.888 166.173 482.042 166.714 482.35C167.256 482.649 167.676 483.069 167.974 483.61C168.282 484.151 168.436 484.772 168.436 485.472C168.436 486.191 168.268 486.83 167.932 487.39C167.596 487.941 167.125 488.37 166.518 488.678C165.912 488.986 165.221 489.14 164.446 489.14C163.149 489.14 162.146 488.711 161.436 487.852C160.727 486.993 160.372 485.757 160.372 484.142C160.372 482.639 160.694 481.449 161.338 480.572C161.982 479.695 162.967 479.116 164.292 478.836L167.764 478.094L168.016 479.662L164.866 480.306C163.961 480.493 163.284 480.81 162.836 481.258C162.388 481.706 162.127 482.336 162.052 483.148C162.388 482.747 162.794 482.439 163.27 482.224C163.746 482 164.269 481.888 164.838 481.888ZM164.488 487.726C165.132 487.726 165.65 487.521 166.042 487.11C166.444 486.69 166.644 486.158 166.644 485.514C166.644 484.87 166.444 484.352 166.042 483.96C165.65 483.568 165.132 483.372 164.488 483.372C163.835 483.372 163.308 483.568 162.906 483.96C162.505 484.352 162.304 484.87 162.304 485.514C162.304 486.167 162.505 486.699 162.906 487.11C163.317 487.521 163.844 487.726 164.488 487.726ZM173.658 487.614C174.47 487.614 175.147 487.343 175.688 486.802L176.612 487.88C176.285 488.281 175.865 488.585 175.352 488.79C174.839 488.995 174.26 489.098 173.616 489.098C172.795 489.098 172.071 488.935 171.446 488.608C170.821 488.281 170.335 487.829 169.99 487.25C169.654 486.662 169.486 485.999 169.486 485.262C169.486 484.534 169.649 483.881 169.976 483.302C170.312 482.714 170.769 482.257 171.348 481.93C171.936 481.603 172.599 481.44 173.336 481.44C174.036 481.44 174.671 481.594 175.24 481.902C175.819 482.201 176.276 482.635 176.612 483.204C176.948 483.764 177.116 484.422 177.116 485.178L171.39 486.298C171.567 486.727 171.852 487.054 172.244 487.278C172.636 487.502 173.107 487.614 173.658 487.614ZM173.336 482.84C172.692 482.84 172.169 483.05 171.768 483.47C171.376 483.89 171.18 484.455 171.18 485.164V485.178L175.408 484.366C175.287 483.909 175.039 483.54 174.666 483.26C174.302 482.98 173.859 482.84 173.336 482.84ZM183.155 485.108C183.621 485.239 183.981 485.453 184.233 485.752C184.494 486.041 184.625 486.391 184.625 486.802C184.625 487.259 184.471 487.665 184.163 488.02C183.855 488.365 183.43 488.636 182.889 488.832C182.347 489.028 181.731 489.126 181.041 489.126C180.462 489.126 179.897 489.061 179.347 488.93C178.796 488.79 178.297 488.594 177.849 488.342L178.353 487.04C178.717 487.245 179.127 487.404 179.585 487.516C180.042 487.628 180.499 487.684 180.957 487.684C181.545 487.684 182.002 487.595 182.329 487.418C182.665 487.231 182.833 486.979 182.833 486.662C182.833 486.373 182.702 486.149 182.441 485.99C182.189 485.831 181.829 485.752 181.363 485.752H179.907V484.576H181.223C181.661 484.576 182.002 484.501 182.245 484.352C182.497 484.203 182.623 483.993 182.623 483.722C182.623 483.451 182.473 483.237 182.175 483.078C181.876 482.919 181.465 482.84 180.943 482.84C180.196 482.84 179.407 483.022 178.577 483.386L178.129 482.098C179.109 481.641 180.098 481.412 181.097 481.412C181.731 481.412 182.301 481.501 182.805 481.678C183.309 481.846 183.701 482.089 183.981 482.406C184.27 482.714 184.415 483.069 184.415 483.47C184.415 483.834 184.303 484.161 184.079 484.45C183.855 484.73 183.547 484.949 183.155 485.108ZM189.773 489.098C189.017 489.098 188.335 488.935 187.729 488.608C187.122 488.281 186.646 487.829 186.301 487.25C185.965 486.662 185.797 485.999 185.797 485.262C185.797 484.525 185.965 483.867 186.301 483.288C186.646 482.709 187.122 482.257 187.729 481.93C188.335 481.603 189.017 481.44 189.773 481.44C190.538 481.44 191.224 481.603 191.831 481.93C192.437 482.257 192.909 482.709 193.245 483.288C193.59 483.867 193.763 484.525 193.763 485.262C193.763 485.999 193.59 486.662 193.245 487.25C192.909 487.829 192.437 488.281 191.831 488.608C191.224 488.935 190.538 489.098 189.773 489.098ZM189.773 487.6C190.417 487.6 190.949 487.385 191.369 486.956C191.789 486.527 191.999 485.962 191.999 485.262C191.999 484.562 191.789 483.997 191.369 483.568C190.949 483.139 190.417 482.924 189.773 482.924C189.129 482.924 188.597 483.139 188.177 483.568C187.766 483.997 187.561 484.562 187.561 485.262C187.561 485.962 187.766 486.527 188.177 486.956C188.597 487.385 189.129 487.6 189.773 487.6ZM202.659 481.524V489H200.923V483.008H197.241V489H195.491V481.524H202.659ZM212.301 481.524V489H210.635V488.034C210.345 488.389 209.986 488.655 209.557 488.832C209.137 489.009 208.67 489.098 208.157 489.098C207.429 489.098 206.775 488.939 206.197 488.622C205.627 488.305 205.179 487.857 204.853 487.278C204.535 486.699 204.377 486.027 204.377 485.262C204.377 484.497 204.535 483.829 204.853 483.26C205.179 482.681 205.627 482.233 206.197 481.916C206.775 481.599 207.429 481.44 208.157 481.44C208.642 481.44 209.085 481.524 209.487 481.692C209.897 481.86 210.252 482.107 210.551 482.434V481.524H212.301ZM208.353 487.6C208.997 487.6 209.529 487.385 209.949 486.956C210.369 486.527 210.579 485.962 210.579 485.262C210.579 484.562 210.369 483.997 209.949 483.568C209.529 483.139 208.997 482.924 208.353 482.924C207.709 482.924 207.177 483.139 206.757 483.568C206.346 483.997 206.141 484.562 206.141 485.262C206.141 485.962 206.346 486.527 206.757 486.956C207.177 487.385 207.709 487.6 208.353 487.6ZM218.02 489.098C217.246 489.098 216.55 488.935 215.934 488.608C215.318 488.281 214.838 487.829 214.492 487.25C214.147 486.662 213.974 485.999 213.974 485.262C213.974 484.525 214.147 483.867 214.492 483.288C214.838 482.709 215.314 482.257 215.92 481.93C216.536 481.603 217.236 481.44 218.02 481.44C218.758 481.44 219.402 481.589 219.952 481.888C220.512 482.187 220.932 482.616 221.212 483.176L219.868 483.96C219.654 483.615 219.383 483.358 219.056 483.19C218.739 483.013 218.389 482.924 218.006 482.924C217.353 482.924 216.812 483.139 216.382 483.568C215.953 483.988 215.738 484.553 215.738 485.262C215.738 485.971 215.948 486.541 216.368 486.97C216.798 487.39 217.344 487.6 218.006 487.6C218.389 487.6 218.739 487.516 219.056 487.348C219.383 487.171 219.654 486.909 219.868 486.564L221.212 487.348C220.923 487.908 220.498 488.342 219.938 488.65C219.388 488.949 218.748 489.098 218.02 489.098ZM222.753 481.524H224.503V484.562H228.269V481.524H230.019V489H228.269V486.046H224.503V489H222.753V481.524ZM235.696 489.098C234.94 489.098 234.259 488.935 233.652 488.608C233.046 488.281 232.57 487.829 232.224 487.25C231.888 486.662 231.72 485.999 231.72 485.262C231.72 484.525 231.888 483.867 232.224 483.288C232.57 482.709 233.046 482.257 233.652 481.93C234.259 481.603 234.94 481.44 235.696 481.44C236.462 481.44 237.148 481.603 237.754 481.93C238.361 482.257 238.832 482.709 239.168 483.288C239.514 483.867 239.686 484.525 239.686 485.262C239.686 485.999 239.514 486.662 239.168 487.25C238.832 487.829 238.361 488.281 237.754 488.608C237.148 488.935 236.462 489.098 235.696 489.098ZM235.696 487.6C236.34 487.6 236.872 487.385 237.292 486.956C237.712 486.527 237.922 485.962 237.922 485.262C237.922 484.562 237.712 483.997 237.292 483.568C236.872 483.139 236.34 482.924 235.696 482.924C235.052 482.924 234.52 483.139 234.1 483.568C233.69 483.997 233.484 484.562 233.484 485.262C233.484 485.962 233.69 486.527 234.1 486.956C234.52 487.385 235.052 487.6 235.696 487.6ZM244.817 489.098C244.043 489.098 243.347 488.935 242.731 488.608C242.115 488.281 241.635 487.829 241.289 487.25C240.944 486.662 240.771 485.999 240.771 485.262C240.771 484.525 240.944 483.867 241.289 483.288C241.635 482.709 242.111 482.257 242.717 481.93C243.333 481.603 244.033 481.44 244.817 481.44C245.555 481.44 246.199 481.589 246.749 481.888C247.309 482.187 247.729 482.616 248.009 483.176L246.665 483.96C246.451 483.615 246.18 483.358 245.853 483.19C245.536 483.013 245.186 482.924 244.803 482.924C244.15 482.924 243.609 483.139 243.179 483.568C242.75 483.988 242.535 484.553 242.535 485.262C242.535 485.971 242.745 486.541 243.165 486.97C243.595 487.39 244.141 487.6 244.803 487.6C245.186 487.6 245.536 487.516 245.853 487.348C246.18 487.171 246.451 486.909 246.665 486.564L248.009 487.348C247.72 487.908 247.295 488.342 246.735 488.65C246.185 488.949 245.545 489.098 244.817 489.098ZM258.986 481.44C259.929 481.44 260.675 481.715 261.226 482.266C261.777 482.807 262.052 483.624 262.052 484.716V489H260.302V484.94C260.302 484.287 260.157 483.797 259.868 483.47C259.579 483.134 259.163 482.966 258.622 482.966C258.034 482.966 257.563 483.162 257.208 483.554C256.853 483.937 256.676 484.487 256.676 485.206V489H254.926V484.94C254.926 484.287 254.781 483.797 254.492 483.47C254.203 483.134 253.787 482.966 253.246 482.966C252.649 482.966 252.173 483.157 251.818 483.54C251.473 483.923 251.3 484.478 251.3 485.206V489H249.55V481.524H251.216V482.476C251.496 482.14 251.846 481.883 252.266 481.706C252.686 481.529 253.153 481.44 253.666 481.44C254.226 481.44 254.721 481.547 255.15 481.762C255.589 481.967 255.934 482.275 256.186 482.686C256.494 482.294 256.891 481.991 257.376 481.776C257.861 481.552 258.398 481.44 258.986 481.44ZM267.468 489.196C266.358 489.196 265.508 488.935 264.92 488.412C264.332 487.88 264.038 487.124 264.038 486.144V481.524H265.774V484.212C266.017 484.016 266.334 483.862 266.726 483.75C267.128 483.638 267.562 483.582 268.028 483.582C268.962 483.582 269.69 483.815 270.212 484.282C270.735 484.749 270.996 485.411 270.996 486.27C270.996 487.194 270.684 487.913 270.058 488.426C269.433 488.939 268.57 489.196 267.468 489.196ZM267.482 487.908C268.014 487.908 268.434 487.763 268.742 487.474C269.05 487.185 269.204 486.797 269.204 486.312C269.204 485.845 269.055 485.481 268.756 485.22C268.467 484.949 268.056 484.814 267.524 484.814C267.123 484.814 266.768 484.889 266.46 485.038C266.162 485.187 265.933 485.397 265.774 485.668V486.298C265.774 486.793 265.928 487.185 266.236 487.474C266.544 487.763 266.96 487.908 267.482 487.908Z" fill="#EBF7FF" fill-opacity="0.8"/>
<path d="M167.707 667.62C168.211 667.78 168.603 668.04 168.883 668.4C169.171 668.752 169.315 669.168 169.315 669.648C169.315 670.152 169.151 670.592 168.823 670.968C168.495 671.336 168.055 671.62 167.503 671.82C166.959 672.02 166.363 672.12 165.715 672.12C165.155 672.12 164.591 672.044 164.023 671.892C163.463 671.732 162.943 671.496 162.463 671.184L162.967 670.044C163.335 670.292 163.743 670.484 164.191 670.62C164.639 670.748 165.083 670.812 165.523 670.812C166.155 670.812 166.679 670.688 167.095 670.44C167.519 670.192 167.731 669.852 167.731 669.42C167.731 669.052 167.579 668.772 167.275 668.58C166.971 668.388 166.551 668.292 166.015 668.292H164.059V667.068H165.895C166.359 667.068 166.723 666.972 166.987 666.78C167.251 666.588 167.383 666.328 167.383 666C167.383 665.608 167.203 665.304 166.843 665.088C166.491 664.872 166.039 664.764 165.487 664.764C165.111 664.764 164.723 664.82 164.323 664.932C163.923 665.036 163.547 665.192 163.195 665.4L162.703 664.14C163.135 663.908 163.591 663.736 164.071 663.624C164.559 663.504 165.043 663.444 165.523 663.444C166.147 663.444 166.719 663.54 167.239 663.732C167.767 663.924 168.187 664.2 168.499 664.56C168.811 664.912 168.967 665.328 168.967 665.808C168.967 666.224 168.855 666.588 168.631 666.9C168.407 667.212 168.099 667.452 167.707 667.62ZM177.156 665.592V672H175.728V671.172C175.48 671.476 175.172 671.704 174.804 671.856C174.444 672.008 174.044 672.084 173.604 672.084C172.98 672.084 172.42 671.948 171.924 671.676C171.436 671.404 171.052 671.02 170.772 670.524C170.5 670.028 170.364 669.452 170.364 668.796C170.364 668.14 170.5 667.568 170.772 667.08C171.052 666.584 171.436 666.2 171.924 665.928C172.42 665.656 172.98 665.52 173.604 665.52C174.02 665.52 174.4 665.592 174.744 665.736C175.096 665.88 175.4 666.092 175.656 666.372V665.592H177.156ZM173.772 670.8C174.324 670.8 174.78 670.616 175.14 670.248C175.5 669.88 175.68 669.396 175.68 668.796C175.68 668.196 175.5 667.712 175.14 667.344C174.78 666.976 174.324 666.792 173.772 666.792C173.22 666.792 172.764 666.976 172.404 667.344C172.052 667.712 171.876 668.196 171.876 668.796C171.876 669.396 172.052 669.88 172.404 670.248C172.764 670.616 173.22 670.8 173.772 670.8ZM182.611 665.904C183.219 665.904 183.755 666.036 184.219 666.3C184.683 666.556 185.043 666.916 185.299 667.38C185.563 667.844 185.695 668.376 185.695 668.976C185.695 669.592 185.551 670.14 185.263 670.62C184.975 671.092 184.571 671.46 184.051 671.724C183.531 671.988 182.939 672.12 182.275 672.12C181.163 672.12 180.303 671.752 179.695 671.016C179.087 670.28 178.783 669.22 178.783 667.836C178.783 666.548 179.059 665.528 179.611 664.776C180.163 664.024 181.007 663.528 182.143 663.288L185.119 662.652L185.335 663.996L182.635 664.548C181.859 664.708 181.279 664.98 180.895 665.364C180.511 665.748 180.287 666.288 180.223 666.984C180.511 666.64 180.859 666.376 181.267 666.192C181.675 666 182.123 665.904 182.611 665.904ZM182.311 670.908C182.863 670.908 183.307 670.732 183.643 670.38C183.987 670.02 184.159 669.564 184.159 669.012C184.159 668.46 183.987 668.016 183.643 667.68C183.307 667.344 182.863 667.176 182.311 667.176C181.751 667.176 181.299 667.344 180.955 667.68C180.611 668.016 180.439 668.46 180.439 669.012C180.439 669.572 180.611 670.028 180.955 670.38C181.307 670.732 181.759 670.908 182.311 670.908ZM189.931 672.168C188.963 672.168 188.231 671.944 187.735 671.496C187.247 671.048 187.003 670.4 187.003 669.552V665.592H188.491V667.896C188.675 667.744 188.927 667.616 189.247 667.512C189.567 667.408 189.931 667.356 190.339 667.356C191.123 667.356 191.735 667.556 192.175 667.956C192.615 668.356 192.835 668.924 192.835 669.66C192.835 670.444 192.571 671.06 192.043 671.508C191.523 671.948 190.819 672.168 189.931 672.168ZM193.639 665.592H195.139V672H193.639V665.592ZM189.931 671.064C190.371 671.064 190.711 670.936 190.951 670.68C191.191 670.416 191.311 670.084 191.311 669.684C191.311 669.3 191.187 668.992 190.939 668.76C190.699 668.528 190.355 668.412 189.907 668.412C189.579 668.412 189.291 668.476 189.043 668.604C188.803 668.732 188.619 668.912 188.491 669.144V669.684C188.491 670.116 188.615 670.456 188.863 670.704C189.111 670.944 189.467 671.064 189.931 671.064ZM202.962 665.592V672H201.462V666.864H199.062L199.002 668.136C198.962 668.984 198.882 669.696 198.762 670.272C198.65 670.84 198.454 671.292 198.174 671.628C197.902 671.956 197.526 672.12 197.046 672.12C196.822 672.12 196.546 672.076 196.218 671.988L196.29 670.728C196.402 670.752 196.498 670.764 196.578 670.764C196.882 670.764 197.11 670.644 197.262 670.404C197.414 670.156 197.51 669.864 197.55 669.528C197.598 669.184 197.638 668.696 197.67 668.064L197.778 665.592H202.962ZM211.055 665.592V672H209.627V671.184C209.387 671.472 209.087 671.696 208.727 671.856C208.375 672.008 207.991 672.084 207.575 672.084C206.719 672.084 206.043 671.848 205.547 671.376C205.051 670.896 204.803 670.188 204.803 669.252V665.592H206.303V669.048C206.303 669.624 206.431 670.056 206.687 670.344C206.951 670.624 207.327 670.764 207.815 670.764C208.343 670.764 208.763 670.6 209.075 670.272C209.395 669.936 209.555 669.456 209.555 668.832V665.592H211.055ZM222.541 665.592V672H221.053V666.864H217.897V672H216.397V665.592H222.541ZM230.805 665.592V672H229.377V671.172C229.129 671.476 228.821 671.704 228.453 671.856C228.093 672.008 227.693 672.084 227.253 672.084C226.629 672.084 226.069 671.948 225.573 671.676C225.085 671.404 224.701 671.02 224.421 670.524C224.149 670.028 224.013 669.452 224.013 668.796C224.013 668.14 224.149 667.568 224.421 667.08C224.701 666.584 225.085 666.2 225.573 665.928C226.069 665.656 226.629 665.52 227.253 665.52C227.669 665.52 228.049 665.592 228.393 665.736C228.745 665.88 229.049 666.092 229.305 666.372V665.592H230.805ZM227.421 670.8C227.973 670.8 228.429 670.616 228.789 670.248C229.149 669.88 229.329 669.396 229.329 668.796C229.329 668.196 229.149 667.712 228.789 667.344C228.429 666.976 227.973 666.792 227.421 666.792C226.869 666.792 226.413 666.976 226.053 667.344C225.701 667.712 225.525 668.196 225.525 668.796C225.525 669.396 225.701 669.88 226.053 670.248C226.413 670.616 226.869 670.8 227.421 670.8ZM235.959 665.52C236.623 665.52 237.203 665.656 237.699 665.928C238.203 666.2 238.591 666.584 238.863 667.08C239.143 667.576 239.283 668.152 239.283 668.808C239.283 669.456 239.151 670.028 238.887 670.524C238.623 671.02 238.251 671.404 237.771 671.676C237.299 671.948 236.751 672.084 236.127 672.084C235.239 672.084 234.543 671.8 234.039 671.232V674.328H232.527V668.82C232.527 668.172 232.671 667.6 232.959 667.104C233.247 666.6 233.647 666.212 234.159 665.94C234.679 665.66 235.279 665.52 235.959 665.52ZM235.899 670.812C236.459 670.812 236.915 670.628 237.267 670.26C237.619 669.884 237.795 669.4 237.795 668.808C237.795 668.216 237.619 667.732 237.267 667.356C236.915 666.98 236.459 666.792 235.899 666.792C235.331 666.792 234.875 666.976 234.531 667.344C234.187 667.712 234.015 668.196 234.015 668.796C234.015 669.396 234.187 669.884 234.531 670.26C234.883 670.628 235.339 670.812 235.899 670.812ZM243.639 672.084C242.991 672.084 242.407 671.944 241.887 671.664C241.367 671.384 240.959 670.996 240.663 670.5C240.375 669.996 240.231 669.428 240.231 668.796C240.231 668.164 240.375 667.6 240.663 667.104C240.959 666.608 241.367 666.22 241.887 665.94C242.407 665.66 242.991 665.52 243.639 665.52C244.295 665.52 244.883 665.66 245.403 665.94C245.923 666.22 246.327 666.608 246.615 667.104C246.911 667.6 247.059 668.164 247.059 668.796C247.059 669.428 246.911 669.996 246.615 670.5C246.327 670.996 245.923 671.384 245.403 671.664C244.883 671.944 244.295 672.084 243.639 672.084ZM243.639 670.8C244.191 670.8 244.647 670.616 245.007 670.248C245.367 669.88 245.547 669.396 245.547 668.796C245.547 668.196 245.367 667.712 245.007 667.344C244.647 666.976 244.191 666.792 243.639 666.792C243.087 666.792 242.631 666.976 242.271 667.344C241.919 667.712 241.743 668.196 241.743 668.796C241.743 669.396 241.919 669.88 242.271 670.248C242.631 670.616 243.087 670.8 243.639 670.8ZM254.279 665.592V672H252.779V666.864H250.379L250.319 668.136C250.279 668.984 250.199 669.696 250.079 670.272C249.967 670.84 249.771 671.292 249.491 671.628C249.219 671.956 248.843 672.12 248.363 672.12C248.139 672.12 247.863 672.076 247.535 671.988L247.607 670.728C247.719 670.752 247.815 670.764 247.895 670.764C248.199 670.764 248.427 670.644 248.579 670.404C248.731 670.156 248.827 669.864 248.867 669.528C248.915 669.184 248.955 668.696 248.987 668.064L249.095 665.592H254.279ZM259.095 672.168C258.143 672.168 257.415 671.944 256.911 671.496C256.407 671.04 256.155 670.392 256.155 669.552V665.592H257.643V667.896C257.851 667.728 258.123 667.596 258.459 667.5C258.803 667.404 259.175 667.356 259.575 667.356C260.375 667.356 260.999 667.556 261.447 667.956C261.895 668.356 262.119 668.924 262.119 669.66C262.119 670.452 261.851 671.068 261.315 671.508C260.779 671.948 260.039 672.168 259.095 672.168ZM259.107 671.064C259.563 671.064 259.923 670.94 260.187 670.692C260.451 670.444 260.583 670.112 260.583 669.696C260.583 669.296 260.455 668.984 260.199 668.76C259.951 668.528 259.599 668.412 259.143 668.412C258.799 668.412 258.495 668.476 258.231 668.604C257.975 668.732 257.779 668.912 257.643 669.144V669.684C257.643 670.108 257.775 670.444 258.039 670.692C258.303 670.94 258.659 671.064 259.107 671.064ZM264.576 669.216C264.576 668.784 264.672 668.428 264.864 668.148C265.064 667.86 265.352 667.548 265.728 667.212C266.016 666.956 266.228 666.736 266.364 666.552C266.508 666.36 266.58 666.144 266.58 665.904C266.58 665.568 266.444 665.296 266.172 665.088C265.9 664.88 265.536 664.776 265.08 664.776C264.216 664.776 263.564 665.084 263.124 665.7L261.96 664.944C262.304 664.472 262.748 664.112 263.292 663.864C263.836 663.608 264.476 663.48 265.212 663.48C266.108 663.48 266.82 663.676 267.348 664.068C267.884 664.452 268.152 664.984 268.152 665.664C268.152 665.992 268.096 666.28 267.984 666.528C267.88 666.776 267.752 666.988 267.6 667.164C267.448 667.332 267.248 667.528 267 667.752C266.696 668.024 266.468 668.264 266.316 668.472C266.172 668.68 266.1 668.928 266.1 669.216H264.576ZM265.344 672.084C265.064 672.084 264.832 671.996 264.648 671.82C264.472 671.636 264.384 671.412 264.384 671.148C264.384 670.884 264.472 670.664 264.648 670.488C264.832 670.312 265.064 670.224 265.344 670.224C265.616 670.224 265.84 670.312 266.016 670.488C266.2 670.664 266.292 670.884 266.292 671.148C266.292 671.412 266.2 671.636 266.016 671.82C265.84 671.996 265.616 672.084 265.344 672.084Z" fill="#EBF7FF" fill-opacity="0.8"/>
<path d="M43.6519 427V399H70.7319V427H61.4519V404.32L63.4919 406.32H50.8919L52.9319 404.32V427H43.6519ZM75.6831 427V399H89.1631C91.7765 399 94.0298 399.427 95.9231 400.28C97.8431 401.133 99.3231 402.36 100.363 403.96C101.403 405.533 101.923 407.4 101.923 409.56C101.923 411.72 101.403 413.587 100.363 415.16C99.3231 416.733 97.8431 417.96 95.9231 418.84C94.0298 419.693 91.7765 420.12 89.1631 420.12H80.9231L85.1231 416.08V427H75.6831ZM85.1231 417.12L80.9231 412.84H88.5631C89.8698 412.84 90.8298 412.547 91.4431 411.96C92.0831 411.373 92.4031 410.573 92.4031 409.56C92.4031 408.547 92.0831 407.747 91.4431 407.16C90.8298 406.573 89.8698 406.28 88.5631 406.28H80.9231L85.1231 402V417.12ZM119.415 427.64C117.149 427.64 115.042 427.28 113.095 426.56C111.175 425.84 109.509 424.827 108.095 423.52C106.682 422.187 105.575 420.627 104.775 418.84C104.002 417.053 103.615 415.107 103.615 413C103.615 410.867 104.002 408.92 104.775 407.16C105.575 405.373 106.682 403.827 108.095 402.52C109.509 401.187 111.175 400.16 113.095 399.44C115.042 398.72 117.149 398.36 119.415 398.36C121.709 398.36 123.815 398.72 125.735 399.44C127.655 400.16 129.322 401.187 130.735 402.52C132.149 403.827 133.242 405.373 134.015 407.16C134.815 408.92 135.215 410.867 135.215 413C135.215 415.107 134.815 417.053 134.015 418.84C133.242 420.627 132.149 422.187 130.735 423.52C129.322 424.827 127.655 425.84 125.735 426.56C123.815 427.28 121.709 427.64 119.415 427.64ZM119.415 420C120.295 420 121.109 419.84 121.855 419.52C122.629 419.2 123.295 418.747 123.855 418.16C124.442 417.547 124.895 416.813 125.215 415.96C125.535 415.08 125.695 414.093 125.695 413C125.695 411.907 125.535 410.933 125.215 410.08C124.895 409.2 124.442 408.467 123.855 407.88C123.295 407.267 122.629 406.8 121.855 406.48C121.109 406.16 120.295 406 119.415 406C118.535 406 117.709 406.16 116.935 406.48C116.189 406.8 115.522 407.267 114.935 407.88C114.375 408.467 113.935 409.2 113.615 410.08C113.295 410.933 113.135 411.907 113.135 413C113.135 414.093 113.295 415.08 113.615 415.96C113.935 416.813 114.375 417.547 114.935 418.16C115.522 418.747 116.189 419.2 116.935 419.52C117.709 419.84 118.535 420 119.415 420ZM159.453 425.6V401.56H146.053L145.813 408.36C145.733 410.467 145.599 412.493 145.413 414.44C145.253 416.36 144.986 418.093 144.613 419.64C144.266 421.16 143.786 422.4 143.173 423.36C142.586 424.32 141.813 424.88 140.853 425.04L137.613 424.44C138.679 424.493 139.559 424.107 140.253 423.28C140.973 422.453 141.519 421.293 141.893 419.8C142.293 418.307 142.586 416.56 142.773 414.56C142.959 412.56 143.093 410.4 143.173 408.08L143.493 399H162.373V425.6H159.453ZM136.573 433.28L136.613 424.44H166.573V433.28H163.813V427H139.373L139.333 433.28H136.573ZM172.611 427V399H184.251C187.211 399 189.531 399.613 191.211 400.84C192.917 402.04 193.771 403.813 193.771 406.16C193.771 408.48 192.957 410.24 191.331 411.44C189.704 412.613 187.571 413.2 184.931 413.2L185.611 412.2C188.731 412.2 191.104 412.813 192.731 414.04C194.357 415.267 195.171 417.067 195.171 419.44C195.171 421.84 194.317 423.707 192.611 425.04C190.931 426.347 188.397 427 185.011 427H172.611ZM175.531 424.64H185.011C187.384 424.64 189.184 424.2 190.411 423.32C191.637 422.44 192.251 421.08 192.251 419.24C192.251 417.427 191.637 416.093 190.411 415.24C189.184 414.387 187.384 413.96 185.011 413.96H175.531V424.64ZM175.531 411.68H184.091C186.251 411.68 187.904 411.253 189.051 410.4C190.224 409.52 190.811 408.227 190.811 406.52C190.811 404.813 190.224 403.533 189.051 402.68C187.904 401.8 186.251 401.36 184.091 401.36H175.531V411.68ZM202.572 427V399H205.492V422.2L223.412 399H226.092V427H223.172V403.84L205.252 427H202.572ZM266.86 427L257.54 413.04L260.06 411.6L270.3 427H266.86ZM251.58 414.16V411.56H259.58V414.16H251.58ZM260.18 413.32L257.46 412.84L266.38 399H269.58L260.18 413.32ZM235.22 427H231.78L242.02 411.6L244.54 413.04L235.22 427ZM252.5 427H249.62V399H252.5V427ZM250.5 414.16H242.5V411.56H250.5V414.16ZM241.9 413.32L232.5 399H235.7L244.58 412.84L241.9 413.32ZM277.633 411.52H292.433V414.04H277.633V411.52ZM277.953 424.44H294.793V427H274.993V399H294.193V401.56H277.953V424.44ZM321.841 399H324.761V427H321.841V399ZM304.321 427H301.361V399H304.321V427ZM322.121 414.08H304.001V411.48H322.121V414.08ZM334.212 427V399H337.132V422.2L355.052 399H357.732V427H354.812V403.84L336.892 427H334.212ZM369.821 411.52H384.621V414.04H369.821V411.52ZM370.141 424.44H386.981V427H367.181V399H386.381V401.56H370.141V424.44Z" fill="#EBF7FF"/>
<path d="M190.699 298.469C190.699 291.979 193.259 285.756 197.817 281.167C202.374 276.578 208.554 274 214.999 274C221.444 274 227.625 276.578 232.182 281.167C236.739 285.756 239.299 291.979 239.299 298.469C239.299 304.958 236.739 311.182 232.182 315.771C227.625 320.36 221.444 322.938 214.999 322.938C208.554 322.938 202.374 320.36 197.817 315.771C193.259 311.182 190.699 304.958 190.699 298.469ZM214.999 287.594C216.484 287.594 217.699 286.37 217.699 284.875C217.699 283.38 216.484 282.156 214.999 282.156C206.055 282.156 198.799 289.463 198.799 298.469C198.799 299.964 200.014 301.188 201.499 301.188C202.984 301.188 204.199 299.964 204.199 298.469C204.199 292.471 209.042 287.594 214.999 287.594ZM209.599 355.562V327.882C213.17 328.539 216.829 328.539 220.399 327.882V355.562C220.399 358.57 217.986 361 214.999 361C212.012 361 209.599 358.57 209.599 355.562Z" fill="url(#paint0_linear_320_1244)"/>
<g filter="url(#filter0_dd_320_1244)">
<rect x="89" y="519" width="252" height="44" rx="20" fill="url(#paint1_linear_320_1244)" shape-rendering="crispEdges"/>
<rect x="89.5" y="519.5" width="251" height="43" rx="19.5" stroke="url(#paint2_linear_320_1244)" stroke-opacity="0.6" style="mix-blend-mode:overlay" shape-rendering="crispEdges"/>
<path d="M191.656 546V535.5H196.351C197.531 535.5 198.451 535.735 199.111 536.205C199.771 536.665 200.101 537.33 200.101 538.2C200.101 539.06 199.786 539.725 199.156 540.195C198.526 540.655 197.696 540.885 196.666 540.885L196.936 540.345C198.106 540.345 199.011 540.58 199.651 541.05C200.291 541.52 200.611 542.2 200.611 543.09C200.611 544 200.276 544.715 199.606 545.235C198.936 545.745 197.946 546 196.636 546H191.656ZM193.576 544.5H196.576C197.256 544.5 197.771 544.375 198.121 544.125C198.471 543.865 198.646 543.47 198.646 542.94C198.646 542.41 198.471 542.025 198.121 541.785C197.771 541.535 197.256 541.41 196.576 541.41H193.576V544.5ZM193.576 539.985H196.186C196.816 539.985 197.296 539.86 197.626 539.61C197.956 539.35 198.121 538.98 198.121 538.5C198.121 538 197.956 537.625 197.626 537.375C197.296 537.125 196.816 537 196.186 537H193.576V539.985ZM206.192 546.105C205.372 546.105 204.642 545.93 204.002 545.58C203.362 545.22 202.857 544.73 202.487 544.11C202.117 543.49 201.932 542.785 201.932 541.995C201.932 541.195 202.117 540.49 202.487 539.88C202.857 539.26 203.362 538.775 204.002 538.425C204.642 538.075 205.372 537.9 206.192 537.9C207.022 537.9 207.757 538.075 208.397 538.425C209.047 538.775 209.552 539.255 209.912 539.865C210.282 540.475 210.467 541.185 210.467 541.995C210.467 542.785 210.282 543.49 209.912 544.11C209.552 544.73 209.047 545.22 208.397 545.58C207.757 545.93 207.022 546.105 206.192 546.105ZM206.192 544.5C206.652 544.5 207.062 544.4 207.422 544.2C207.782 544 208.062 543.71 208.262 543.33C208.472 542.95 208.577 542.505 208.577 541.995C208.577 541.475 208.472 541.03 208.262 540.66C208.062 540.28 207.782 539.99 207.422 539.79C207.062 539.59 206.657 539.49 206.207 539.49C205.747 539.49 205.337 539.59 204.977 539.79C204.627 539.99 204.347 540.28 204.137 540.66C203.927 541.03 203.822 541.475 203.822 541.995C203.822 542.505 203.927 542.95 204.137 543.33C204.347 543.71 204.627 544 204.977 544.2C205.337 544.4 205.742 544.5 206.192 544.5ZM212.32 546V537.99H214.195V543.27L218.62 537.99H220.33V546H218.455V540.72L214.045 546H212.32ZM216.205 537.045C215.405 537.045 214.79 536.86 214.36 536.49C213.93 536.11 213.71 535.56 213.7 534.84H214.945C214.955 535.2 215.065 535.485 215.275 535.695C215.495 535.905 215.8 536.01 216.19 536.01C216.57 536.01 216.87 535.905 217.09 535.695C217.32 535.485 217.44 535.2 217.45 534.84H218.725C218.715 535.56 218.49 536.11 218.05 536.49C217.62 536.86 217.005 537.045 216.205 537.045ZM224.517 546V539.13L224.952 539.58H221.697V537.99H229.197V539.58H225.957L226.392 539.13V546H224.517ZM230.557 546V537.99H232.432V543.27L236.857 537.99H238.567V546H236.692V540.72L232.282 546H230.557Z" fill="#EBF7FF"/>
</g>
<g filter="url(#filter1_dd_320_1244)">
<rect x="89" y="585" width="252" height="44" rx="20" fill="#EBF7FF" shape-rendering="crispEdges"/>
<rect x="91.5" y="587.5" width="247" height="39" rx="17.5" stroke="#6DB6FE" style="mix-blend-mode:overlay" stroke-width="5" shape-rendering="crispEdges"/>
<path d="M131.659 610.965L132.289 609.54C132.739 609.85 133.229 610.09 133.759 610.26C134.299 610.42 134.834 610.505 135.364 610.515C135.894 610.525 136.374 610.465 136.804 610.335C137.244 610.205 137.594 610.01 137.854 609.75C138.114 609.49 138.244 609.165 138.244 608.775C138.244 608.305 138.049 607.955 137.659 607.725C137.279 607.485 136.759 607.365 136.099 607.365H133.654V605.835H135.949C136.539 605.835 136.994 605.715 137.314 605.475C137.644 605.235 137.809 604.91 137.809 604.5C137.809 604.16 137.699 603.88 137.479 603.66C137.269 603.44 136.979 603.275 136.609 603.165C136.249 603.055 135.839 603.005 135.379 603.015C134.929 603.015 134.459 603.085 133.969 603.225C133.479 603.355 133.014 603.55 132.574 603.81L131.959 602.235C132.619 601.885 133.309 601.64 134.029 601.5C134.759 601.36 135.464 601.32 136.144 601.38C136.824 601.44 137.434 601.595 137.974 601.845C138.524 602.095 138.964 602.425 139.294 602.835C139.624 603.235 139.789 603.71 139.789 604.26C139.789 604.76 139.654 605.205 139.384 605.595C139.124 605.975 138.764 606.27 138.304 606.48C137.844 606.69 137.309 606.795 136.699 606.795L136.774 606.315C137.464 606.315 138.064 606.435 138.574 606.675C139.094 606.905 139.494 607.225 139.774 607.635C140.064 608.045 140.209 608.52 140.209 609.06C140.209 609.57 140.079 610.025 139.819 610.425C139.559 610.815 139.204 611.145 138.754 611.415C138.304 611.675 137.789 611.87 137.209 612C136.629 612.12 136.019 612.165 135.379 612.135C134.739 612.105 134.099 611.995 133.459 611.805C132.829 611.615 132.229 611.335 131.659 610.965ZM147.085 612V610.38L146.98 610.035V607.2C146.98 606.65 146.815 606.225 146.485 605.925C146.155 605.615 145.655 605.46 144.985 605.46C144.535 605.46 144.09 605.53 143.65 605.67C143.22 605.81 142.855 606.005 142.555 606.255L141.82 604.89C142.25 604.56 142.76 604.315 143.35 604.155C143.95 603.985 144.57 603.9 145.21 603.9C146.37 603.9 147.265 604.18 147.895 604.74C148.535 605.29 148.855 606.145 148.855 607.305V612H147.085ZM144.565 612.105C143.965 612.105 143.44 612.005 142.99 611.805C142.54 611.595 142.19 611.31 141.94 610.95C141.7 610.58 141.58 610.165 141.58 609.705C141.58 609.255 141.685 608.85 141.895 608.49C142.115 608.13 142.47 607.845 142.96 607.635C143.45 607.425 144.1 607.32 144.91 607.32H147.235V608.565H145.045C144.405 608.565 143.975 608.67 143.755 608.88C143.535 609.08 143.425 609.33 143.425 609.63C143.425 609.97 143.56 610.24 143.83 610.44C144.1 610.64 144.475 610.74 144.955 610.74C145.415 610.74 145.825 610.635 146.185 610.425C146.555 610.215 146.82 609.905 146.98 609.495L147.295 610.62C147.115 611.09 146.79 611.455 146.32 611.715C145.86 611.975 145.275 612.105 144.565 612.105ZM155.615 612.105C154.965 612.105 154.37 611.955 153.83 611.655C153.3 611.355 152.875 610.905 152.555 610.305C152.245 609.695 152.09 608.925 152.09 607.995C152.09 607.055 152.24 606.285 152.54 605.685C152.85 605.085 153.27 604.64 153.8 604.35C154.33 604.05 154.935 603.9 155.615 603.9C156.405 603.9 157.1 604.07 157.7 604.41C158.31 604.75 158.79 605.225 159.14 605.835C159.5 606.445 159.68 607.165 159.68 607.995C159.68 608.825 159.5 609.55 159.14 610.17C158.79 610.78 158.31 611.255 157.7 611.595C157.1 611.935 156.405 612.105 155.615 612.105ZM151.175 614.91V603.99H152.96V605.88L152.9 608.01L153.05 610.14V614.91H151.175ZM155.405 610.5C155.855 610.5 156.255 610.4 156.605 610.2C156.965 610 157.25 609.71 157.46 609.33C157.67 608.95 157.775 608.505 157.775 607.995C157.775 607.475 157.67 607.03 157.46 606.66C157.25 606.28 156.965 605.99 156.605 605.79C156.255 605.59 155.855 605.49 155.405 605.49C154.955 605.49 154.55 605.59 154.19 605.79C153.83 605.99 153.545 606.28 153.335 606.66C153.125 607.03 153.02 607.475 153.02 607.995C153.02 608.505 153.125 608.95 153.335 609.33C153.545 609.71 153.83 610 154.19 610.2C154.55 610.4 154.955 610.5 155.405 610.5ZM165.281 612.105C164.391 612.105 163.611 611.93 162.941 611.58C162.281 611.22 161.766 610.73 161.396 610.11C161.036 609.49 160.856 608.785 160.856 607.995C160.856 607.195 161.031 606.49 161.381 605.88C161.741 605.26 162.231 604.775 162.851 604.425C163.481 604.075 164.196 603.9 164.996 603.9C165.776 603.9 166.471 604.07 167.081 604.41C167.691 604.75 168.171 605.23 168.521 605.85C168.871 606.47 169.046 607.2 169.046 608.04C169.046 608.12 169.041 608.21 169.031 608.31C169.031 608.41 169.026 608.505 169.016 608.595H162.341V607.35H168.026L167.291 607.74C167.301 607.28 167.206 606.875 167.006 606.525C166.806 606.175 166.531 605.9 166.181 605.7C165.841 605.5 165.446 605.4 164.996 605.4C164.536 605.4 164.131 605.5 163.781 605.7C163.441 605.9 163.171 606.18 162.971 606.54C162.781 606.89 162.686 607.305 162.686 607.785V608.085C162.686 608.565 162.796 608.99 163.016 609.36C163.236 609.73 163.546 610.015 163.946 610.215C164.346 610.415 164.806 610.515 165.326 610.515C165.776 610.515 166.181 610.445 166.541 610.305C166.901 610.165 167.221 609.945 167.501 609.645L168.506 610.8C168.146 611.22 167.691 611.545 167.141 611.775C166.601 611.995 165.981 612.105 165.281 612.105ZM171.097 612V603.99H177.247V605.58H172.537L172.972 605.16V612H171.097ZM178.612 612V603.99H180.487V609.27L184.912 603.99H186.622V612H184.747V606.72L180.337 612H178.612ZM192.789 612.105C191.949 612.105 191.199 611.93 190.539 611.58C189.889 611.22 189.379 610.73 189.009 610.11C188.639 609.49 188.454 608.785 188.454 607.995C188.454 607.195 188.639 606.49 189.009 605.88C189.379 605.26 189.889 604.775 190.539 604.425C191.199 604.075 191.949 603.9 192.789 603.9C193.569 603.9 194.254 604.06 194.844 604.38C195.444 604.69 195.899 605.15 196.209 605.76L194.769 606.6C194.529 606.22 194.234 605.94 193.884 605.76C193.544 605.58 193.174 605.49 192.774 605.49C192.314 605.49 191.899 605.59 191.529 605.79C191.159 605.99 190.869 606.28 190.659 606.66C190.449 607.03 190.344 607.475 190.344 607.995C190.344 608.515 190.449 608.965 190.659 609.345C190.869 609.715 191.159 610 191.529 610.2C191.899 610.4 192.314 610.5 192.774 610.5C193.174 610.5 193.544 610.41 193.884 610.23C194.234 610.05 194.529 609.77 194.769 609.39L196.209 610.23C195.899 610.83 195.444 611.295 194.844 611.625C194.254 611.945 193.569 612.105 192.789 612.105ZM199.466 612V605.13L199.901 605.58H196.646V603.99H204.146V605.58H200.906L201.341 605.13V612H199.466ZM209.946 612.105C209.296 612.105 208.701 611.955 208.161 611.655C207.631 611.355 207.206 610.905 206.886 610.305C206.576 609.695 206.421 608.925 206.421 607.995C206.421 607.055 206.571 606.285 206.871 605.685C207.181 605.085 207.601 604.64 208.131 604.35C208.661 604.05 209.266 603.9 209.946 603.9C210.736 603.9 211.431 604.07 212.031 604.41C212.641 604.75 213.121 605.225 213.471 605.835C213.831 606.445 214.011 607.165 214.011 607.995C214.011 608.825 213.831 609.55 213.471 610.17C213.121 610.78 212.641 611.255 212.031 611.595C211.431 611.935 210.736 612.105 209.946 612.105ZM205.506 614.91V603.99H207.291V605.88L207.231 608.01L207.381 610.14V614.91H205.506ZM209.736 610.5C210.186 610.5 210.586 610.4 210.936 610.2C211.296 610 211.581 609.71 211.791 609.33C212.001 608.95 212.106 608.505 212.106 607.995C212.106 607.475 212.001 607.03 211.791 606.66C211.581 606.28 211.296 605.99 210.936 605.79C210.586 605.59 210.186 605.49 209.736 605.49C209.286 605.49 208.881 605.59 208.521 605.79C208.161 605.99 207.876 606.28 207.666 606.66C207.456 607.03 207.351 607.475 207.351 607.995C207.351 608.505 207.456 608.95 207.666 609.33C207.876 609.71 208.161 610 208.521 610.2C208.881 610.4 209.286 610.5 209.736 610.5ZM215.877 612V603.99H217.752V609.27L222.177 603.99H223.887V612H222.012V606.72L217.602 612H215.877ZM230.849 612.105C230.199 612.105 229.604 611.955 229.064 611.655C228.534 611.355 228.109 610.905 227.789 610.305C227.479 609.695 227.324 608.925 227.324 607.995C227.324 607.055 227.474 606.285 227.774 605.685C228.084 605.085 228.504 604.64 229.034 604.35C229.564 604.05 230.169 603.9 230.849 603.9C231.639 603.9 232.334 604.07 232.934 604.41C233.544 604.75 234.024 605.225 234.374 605.835C234.734 606.445 234.914 607.165 234.914 607.995C234.914 608.825 234.734 609.55 234.374 610.17C234.024 610.78 233.544 611.255 232.934 611.595C232.334 611.935 231.639 612.105 230.849 612.105ZM226.409 614.91V603.99H228.194V605.88L228.134 608.01L228.284 610.14V614.91H226.409ZM230.639 610.5C231.089 610.5 231.489 610.4 231.839 610.2C232.199 610 232.484 609.71 232.694 609.33C232.904 608.95 233.009 608.505 233.009 607.995C233.009 607.475 232.904 607.03 232.694 606.66C232.484 606.28 232.199 605.99 231.839 605.79C231.489 605.59 231.089 605.49 230.639 605.49C230.189 605.49 229.784 605.59 229.424 605.79C229.064 605.99 228.779 606.28 228.569 606.66C228.359 607.03 228.254 607.475 228.254 607.995C228.254 608.505 228.359 608.95 228.569 609.33C228.779 609.71 229.064 610 229.424 610.2C229.784 610.4 230.189 610.5 230.639 610.5ZM240.351 612.105C239.531 612.105 238.801 611.93 238.161 611.58C237.521 611.22 237.016 610.73 236.646 610.11C236.276 609.49 236.091 608.785 236.091 607.995C236.091 607.195 236.276 606.49 236.646 605.88C237.016 605.26 237.521 604.775 238.161 604.425C238.801 604.075 239.531 603.9 240.351 603.9C241.181 603.9 241.916 604.075 242.556 604.425C243.206 604.775 243.711 605.255 244.071 605.865C244.441 606.475 244.626 607.185 244.626 607.995C244.626 608.785 244.441 609.49 244.071 610.11C243.711 610.73 243.206 611.22 242.556 611.58C241.916 611.93 241.181 612.105 240.351 612.105ZM240.351 610.5C240.811 610.5 241.221 610.4 241.581 610.2C241.941 610 242.221 609.71 242.421 609.33C242.631 608.95 242.736 608.505 242.736 607.995C242.736 607.475 242.631 607.03 242.421 606.66C242.221 606.28 241.941 605.99 241.581 605.79C241.221 605.59 240.816 605.49 240.366 605.49C239.906 605.49 239.496 605.59 239.136 605.79C238.786 605.99 238.506 606.28 238.296 606.66C238.086 607.03 237.981 607.475 237.981 607.995C237.981 608.505 238.086 608.95 238.296 609.33C238.506 609.71 238.786 610 239.136 610.2C239.496 610.4 239.901 610.5 240.351 610.5ZM246.478 612V603.99H250.393C251.363 603.99 252.123 604.17 252.673 604.53C253.233 604.89 253.513 605.4 253.513 606.06C253.513 606.71 253.253 607.22 252.733 607.59C252.213 607.95 251.523 608.13 250.663 608.13L250.888 607.665C251.858 607.665 252.578 607.845 253.048 608.205C253.528 608.555 253.768 609.07 253.768 609.75C253.768 610.46 253.503 611.015 252.973 611.415C252.443 611.805 251.638 612 250.558 612H246.478ZM248.263 610.635H250.408C250.918 610.635 251.303 610.555 251.563 610.395C251.823 610.225 251.953 609.97 251.953 609.63C251.953 609.27 251.833 609.005 251.593 608.835C251.353 608.665 250.978 608.58 250.468 608.58H248.263V610.635ZM248.263 607.335H250.228C250.708 607.335 251.068 607.25 251.308 607.08C251.558 606.9 251.683 606.65 251.683 606.33C251.683 606 251.558 605.755 251.308 605.595C251.068 605.435 250.708 605.355 250.228 605.355H248.263V607.335ZM260.625 612V610.38L260.52 610.035V607.2C260.52 606.65 260.355 606.225 260.025 605.925C259.695 605.615 259.195 605.46 258.525 605.46C258.075 605.46 257.63 605.53 257.19 605.67C256.76 605.81 256.395 606.005 256.095 606.255L255.36 604.89C255.79 604.56 256.3 604.315 256.89 604.155C257.49 603.985 258.11 603.9 258.75 603.9C259.91 603.9 260.805 604.18 261.435 604.74C262.075 605.29 262.395 606.145 262.395 607.305V612H260.625ZM258.105 612.105C257.505 612.105 256.98 612.005 256.53 611.805C256.08 611.595 255.73 611.31 255.48 610.95C255.24 610.58 255.12 610.165 255.12 609.705C255.12 609.255 255.225 608.85 255.435 608.49C255.655 608.13 256.01 607.845 256.5 607.635C256.99 607.425 257.64 607.32 258.45 607.32H260.775V608.565H258.585C257.945 608.565 257.515 608.67 257.295 608.88C257.075 609.08 256.965 609.33 256.965 609.63C256.965 609.97 257.1 610.24 257.37 610.44C257.64 610.64 258.015 610.74 258.495 610.74C258.955 610.74 259.365 610.635 259.725 610.425C260.095 610.215 260.36 609.905 260.52 609.495L260.835 610.62C260.655 611.09 260.33 611.455 259.86 611.715C259.4 611.975 258.815 612.105 258.105 612.105ZM266.38 612V605.13L266.815 605.58H263.56V603.99H271.06V605.58H267.82L268.255 605.13V612H266.38ZM276.44 606.63C277.47 606.63 278.255 606.86 278.795 607.32C279.335 607.78 279.605 608.43 279.605 609.27C279.605 610.14 279.305 610.82 278.705 611.31C278.105 611.79 277.26 612.025 276.17 612.015L272.42 612V603.99H274.295V606.615L276.44 606.63ZM276.005 610.635C276.555 610.645 276.975 610.53 277.265 610.29C277.555 610.05 277.7 609.7 277.7 609.24C277.7 608.78 277.555 608.45 277.265 608.25C276.985 608.04 276.565 607.93 276.005 607.92L274.295 607.905V610.62L276.005 610.635ZM284.898 612.105C284.058 612.105 283.308 611.93 282.648 611.58C281.998 611.22 281.488 610.73 281.118 610.11C280.748 609.49 280.563 608.785 280.563 607.995C280.563 607.195 280.748 606.49 281.118 605.88C281.488 605.26 281.998 604.775 282.648 604.425C283.308 604.075 284.058 603.9 284.898 603.9C285.678 603.9 286.363 604.06 286.953 604.38C287.553 604.69 288.008 605.15 288.318 605.76L286.878 606.6C286.638 606.22 286.343 605.94 285.993 605.76C285.653 605.58 285.283 605.49 284.883 605.49C284.423 605.49 284.008 605.59 283.638 605.79C283.268 605.99 282.978 606.28 282.768 606.66C282.558 607.03 282.453 607.475 282.453 607.995C282.453 608.515 282.558 608.965 282.768 609.345C282.978 609.715 283.268 610 283.638 610.2C284.008 610.4 284.423 610.5 284.883 610.5C285.283 610.5 285.653 610.41 285.993 610.23C286.343 610.05 286.638 609.77 286.878 609.39L288.318 610.23C288.008 610.83 287.553 611.295 286.953 611.625C286.363 611.945 285.678 612.105 284.898 612.105ZM294.834 612V609.27L295.104 609.585H292.704C291.604 609.585 290.739 609.355 290.109 608.895C289.489 608.425 289.179 607.75 289.179 606.87C289.179 605.93 289.509 605.215 290.169 604.725C290.839 604.235 291.729 603.99 292.839 603.99H296.514V612H294.834ZM289.074 612L291.234 608.94H293.154L291.084 612H289.074ZM294.834 608.67V605.07L295.104 605.565H292.899C292.319 605.565 291.869 605.675 291.549 605.895C291.239 606.105 291.084 606.45 291.084 606.93C291.084 607.83 291.669 608.28 292.839 608.28H295.104L294.834 608.67Z" fill="#092948"/>
<rect x="324.5" y="590.5" width="1" height="33" fill="#D9D9D9"/>
</g>
<path d="M0 932L13.8094 726H59.8094L46 932H92L102.764 771.426H148.764L138 932H184L197.101 736.564H243.101L230 932H276L285.277 793.61H331.277L322 932H368L376.923 798.892H422.923L414 932H430" stroke="#4C75F2" stroke-opacity="0.4" stroke-width="2"/>
<path d="M430 0L416.431 152H371.231L384.8 0H339.6L329.023 118.482H283.823L294.4 0H249.2L236.327 144.205H191.127L204 0H158.8L149.684 102.113H104.484L113.6 0H68.4L59.6322 98.2154H14.4322L23.2 0H0" stroke="#4C75F2" stroke-opacity="0.3" stroke-width="2"/>
</g>
<defs>
<filter id="filter0_dd_320_1244" x="59" y="469" width="312" height="144" filterUnits="userSpaceOnUse" color-interpolation-filters="sRGB">
<feFlood flood-opacity="0" result="BackgroundImageFix"/>
<feColorMatrix in="SourceAlpha" type="matrix" values="0 0 0 0 0 0 0 0 0 0 0 0 0 0 0 0 0 0 127 0" result="hardAlpha"/>
<feOffset dy="20"/>
<feGaussianBlur stdDeviation="15"/>
<feComposite in2="hardAlpha" operator="out"/>
<feColorMatrix type="matrix" values="0 0 0 0 0.0627451 0 0 0 0 0.0784314 0 0 0 0 0.109804 0 0 0 1 0"/>
<feBlend mode="normal" in2="BackgroundImageFix" result="effect1_dropShadow_320_1244"/>
<feColorMatrix in="SourceAlpha" type="matrix" values="0 0 0 0 0 0 0 0 0 0 0 0 0 0 0 0 0 0 127 0" result="hardAlpha"/>
<feOffset dy="-20"/>
<feGaussianBlur stdDeviation="15"/>
<feComposite in2="hardAlpha" operator="out"/>
<feColorMatrix type="matrix" values="0 0 0 0 0.167014 0 0 0 0 0.203125 0 0 0 0 0.270833 0 0 0 0.5 0"/>
<feBlend mode="normal" in2="effect1_dropShadow_320_1244" result="effect2_dropShadow_320_1244"/>
<feBlend mode="normal" in="SourceGraphic" in2="effect2_dropShadow_320_1244" result="shape"/>
</filter>
<filter id="filter1_dd_320_1244" x="59" y="535" width="312" height="144" filterUnits="userSpaceOnUse" color-interpolation-filters="sRGB">
<feFlood flood-opacity="0" result="BackgroundImageFix"/>
<feColorMatrix in="SourceAlpha" type="matrix" values="0 0 0 0 0 0 0 0 0 0 0 0 0 0 0 0 0 0 127 0" result="hardAlpha"/>
<feOffset dy="20"/>
<feGaussianBlur stdDeviation="15"/>
<feComposite in2="hardAlpha" operator="out"/>
<feColorMatrix type="matrix" values="0 0 0 0 0.0640972 0 0 0 0 0.0794837 0 0 0 0 0.108333 0 0 0 1 0"/>
<feBlend mode="normal" in2="BackgroundImageFix" result="effect1_dropShadow_320_1244"/>
<feColorMatrix in="SourceAlpha" type="matrix" values="0 0 0 0 0 0 0 0 0 0 0 0 0 0 0 0 0 0 127 0" result="hardAlpha"/>
<feOffset dy="-20"/>
<feGaussianBlur stdDeviation="15"/>
<feComposite in2="hardAlpha" operator="out"/>
<feColorMatrix type="matrix" values="0 0 0 0 0.167014 0 0 0 0 0.203125 0 0 0 0 0.270833 0 0 0 0.5 0"/>
<feBlend mode="normal" in2="effect1_dropShadow_320_1244" result="effect2_dropShadow_320_1244"/>
<feBlend mode="normal" in="SourceGraphic" in2="effect2_dropShadow_320_1244" result="shape"/>
</filter>
<linearGradient id="paint0_linear_320_1244" x1="238.999" y1="274" x2="190.999" y2="361" gradientUnits="userSpaceOnUse">
<stop stop-color="#34C8E8"/>
<stop offset="1" stop-color="#4E4AF2"/>
</linearGradient>
<linearGradient id="paint1_linear_320_1244" x1="101.6" y1="519" x2="108.319" y2="593.63" gradientUnits="userSpaceOnUse">
<stop stop-color="#34C8E8"/>
<stop offset="1" stop-color="#4E4AF2"/>
</linearGradient>
<linearGradient id="paint2_linear_320_1244" x1="89" y1="519" x2="94.2981" y2="583.321" gradientUnits="userSpaceOnUse">
<stop stop-color="white"/>
<stop offset="1"/>
</linearGradient>
<clipPath id="clip0_320_1244">
<rect width="430" height="932" rx="40" fill="white"/>
</clipPath>
</defs>
</svg>
