<svg width="430" height="932" viewBox="0 0 430 932" fill="none" xmlns="http://www.w3.org/2000/svg">
<g clip-path="url(#clip0_318_1425)">
<rect width="430" height="932" rx="40" fill="#4BB1F1"/>
<path d="M1 310C1 271.34 32.3401 240 71 240H361C399.66 240 431 271.34 431 310V932H1V310Z" fill="white"/>
<path d="M38.7095 12.136L37.26 12.942V11.6225L39.3595 10.42H40.081V19H38.7095V12.136ZM44.8845 13.371C45.3568 13.371 45.7988 13.4902 46.2105 13.7285C46.6265 13.9625 46.9645 14.294 47.2245 14.723C47.4845 15.152 47.6145 15.6503 47.6145 16.218C47.6145 16.7857 47.4758 17.2905 47.1985 17.7325C46.9212 18.1745 46.5485 18.5233 46.0805 18.779C45.6168 19.0303 45.1055 19.156 44.5465 19.156C43.9745 19.156 43.4567 19.0325 42.993 18.7855C42.5337 18.5385 42.1675 18.1875 41.8945 17.7325C41.6215 17.2775 41.485 16.7423 41.485 16.127C41.485 15.4727 41.5955 14.9202 41.8165 14.4695C42.0375 14.0145 42.2953 13.605 42.59 13.241L44.865 10.42H46.4835L43.7145 13.7415C43.7968 13.6548 43.9377 13.5725 44.137 13.4945C44.3363 13.4122 44.5855 13.371 44.8845 13.371ZM44.5595 18.012C44.8802 18.012 45.1727 17.934 45.437 17.778C45.7057 17.6177 45.918 17.4053 46.074 17.141C46.2343 16.8723 46.3145 16.5755 46.3145 16.2505C46.3145 15.9255 46.2343 15.6308 46.074 15.3665C45.918 15.0978 45.7057 14.8855 45.437 14.7295C45.1727 14.5735 44.8802 14.4955 44.5595 14.4955C44.2345 14.4955 43.9377 14.5735 43.669 14.7295C43.4003 14.8855 43.1858 15.0978 43.0255 15.3665C42.8695 15.6308 42.7915 15.9255 42.7915 16.2505C42.7915 16.5755 42.8695 16.8723 43.0255 17.141C43.1858 17.4053 43.4003 17.6177 43.669 17.778C43.9377 17.934 44.2345 18.012 44.5595 18.012ZM50.0027 19.156C49.7384 19.156 49.5109 19.0628 49.3202 18.8765C49.1339 18.6858 49.0407 18.4562 49.0407 18.1875C49.0407 17.9188 49.1339 17.6892 49.3202 17.4985C49.5109 17.3078 49.7384 17.2125 50.0027 17.2125C50.2757 17.2125 50.5054 17.3078 50.6917 17.4985C50.8824 17.6892 50.9777 17.9188 50.9777 18.1875C50.9777 18.4562 50.8824 18.6858 50.6917 18.8765C50.5054 19.0628 50.2757 19.156 50.0027 19.156ZM50.0027 15.139C49.7384 15.139 49.5109 15.0458 49.3202 14.8595C49.1339 14.6688 49.0407 14.4392 49.0407 14.1705C49.0407 13.9018 49.1339 13.6722 49.3202 13.4815C49.5109 13.2908 49.7384 13.1955 50.0027 13.1955C50.2757 13.1955 50.5054 13.2908 50.6917 13.4815C50.8824 13.6722 50.9777 13.9018 50.9777 14.1705C50.9777 14.4392 50.8824 14.6688 50.6917 14.8595C50.5054 15.0458 50.2757 15.139 50.0027 15.139ZM52.1355 14.7165C52.1355 13.9582 52.2265 13.2995 52.4085 12.7405C52.5948 12.1815 52.8461 11.72 53.1625 11.356C53.4788 10.9877 53.8341 10.7147 54.2285 10.537C54.6228 10.355 55.0301 10.264 55.4505 10.264C55.8751 10.264 56.2846 10.355 56.679 10.537C57.0776 10.7147 57.433 10.9877 57.745 11.356C58.057 11.72 58.304 12.1815 58.486 12.7405C58.668 13.2995 58.759 13.9582 58.759 14.7165C58.759 15.5008 58.668 16.1725 58.486 16.7315C58.304 17.2905 58.057 17.7498 57.745 18.1095C57.433 18.4648 57.0776 18.7292 56.679 18.9025C56.2846 19.0715 55.8751 19.156 55.4505 19.156C55.0301 19.156 54.6228 19.0715 54.2285 18.9025C53.8341 18.7292 53.4788 18.4648 53.1625 18.1095C52.8461 17.7498 52.5948 17.2905 52.4085 16.7315C52.2265 16.1725 52.1355 15.5008 52.1355 14.7165ZM53.52 14.7165C53.52 15.4358 53.6045 16.036 53.7735 16.517C53.9468 16.9937 54.1786 17.349 54.469 17.583C54.7636 17.8127 55.0908 17.9275 55.4505 17.9275C55.8188 17.9275 56.146 17.8105 56.432 17.5765C56.7223 17.3425 56.952 16.9872 57.121 16.5105C57.29 16.0338 57.3745 15.4358 57.3745 14.7165C57.3745 14.0102 57.29 13.4187 57.121 12.942C56.952 12.4653 56.7223 12.1057 56.432 11.863C56.146 11.616 55.8188 11.4925 55.4505 11.4925C55.0908 11.4925 54.7636 11.616 54.469 11.863C54.1786 12.1057 53.9468 12.4675 53.7735 12.9485C53.6045 13.4252 53.52 14.0145 53.52 14.7165ZM64.4719 10.42V15.9775H65.4534V17.193H64.4719V19H63.1004V17.193H59.5124V16.0815L62.9444 10.42H64.4719ZM63.1004 15.9775V12.3505H63.0939L60.9294 15.9775H63.1004Z" fill="white"/>
<path d="M339.261 20C338.565 20 338 19.5383 338 18.9688L338 14.8437C338 14.2742 338.565 13.8125 339.261 13.8125C339.958 13.8125 340.522 14.2742 340.522 14.8437L340.522 18.9688C340.522 19.5383 339.958 20 339.261 20Z" fill="white"/>
<path d="M342.754 20C342.057 20 341.493 19.5383 341.493 18.9688L341.493 13.4688C341.493 12.8992 342.057 12.4375 342.754 12.4375C343.45 12.4375 344.015 12.8992 344.015 13.4688L344.015 18.9688C344.015 19.5383 343.45 20 342.754 20Z" fill="white"/>
<path d="M346.246 20C345.55 20 344.985 19.5383 344.985 18.9688V11.75C344.985 11.1805 345.55 10.7188 346.246 10.7188C346.943 10.7188 347.507 11.1805 347.507 11.75V18.9688C347.507 19.5383 346.943 20 346.246 20Z" fill="white"/>
<path d="M349.739 20C349.042 20 348.478 19.5383 348.478 18.9688V10.0312C348.478 9.46171 349.042 9 349.739 9C350.435 9 351 9.46171 351 10.0312V18.9688C351 19.5383 350.435 20 349.739 20Z" fill="white"/>
<path d="M356 14.3846C359.409 9.87179 367.25 9.87179 371 14.3846M367.5 16.6154C365.606 14.359 361.25 14.359 359.167 16.6154M363.333 19H362.5" stroke="white" stroke-width="2" stroke-linecap="round"/>
<path d="M377 12.6202C377 12.2856 377.312 12 377.717 12H388.283C388.688 12 389 12.2856 389 12.6202V18.3798C389 18.7144 388.688 19 388.283 19H377.717C377.312 19 377 18.7144 377 18.3798L377 12.6202Z" fill="white"/>
<path fill-rule="evenodd" clip-rule="evenodd" d="M376 11.7974C376 11.3672 376.402 11 376.924 11L390.54 11C391.063 11 391.465 11.3672 391.465 11.7974C391.465 12.2217 391.749 12.5934 392.159 12.7042L392.452 12.7836C392.71 12.8684 393 13.0707 393 13.3897V17.5446C393 17.8637 392.71 18.0659 392.452 18.1508L392.431 18.1577L392.243 18.2006C391.788 18.3043 391.465 18.7089 391.465 19.1757V19.2026C391.465 19.6328 391.063 20 390.54 20H376.924C376.402 20 376 19.6328 376 19.2026L376 11.7974Z" stroke="white"/>
<rect x="37" y="305" width="356" height="41" rx="18" fill="#EFEFEF"/>
<rect x="37" y="419" width="356" height="41" rx="18" fill="#EFEFEF"/>
<path d="M46.78 291H45.16V286.11H40.045V291H38.425V280.29H40.045V284.73H45.16V280.29H46.78V291ZM56.5907 286.95C56.5907 287.62 56.5007 288.215 56.3207 288.735C56.1407 289.255 55.8857 289.695 55.5557 290.055C55.2257 290.415 54.8257 290.69 54.3557 290.88C53.8857 291.06 53.3557 291.15 52.7657 291.15C52.2257 291.15 51.7257 291.06 51.2657 290.88C50.8057 290.69 50.4057 290.415 50.0657 290.055C49.7357 289.695 49.4757 289.255 49.2857 288.735C49.0957 288.215 49.0007 287.615 49.0007 286.935C49.0007 286.045 49.1507 285.29 49.4507 284.67C49.7607 284.05 50.2007 283.58 50.7707 283.26C51.3507 282.93 52.0307 282.765 52.8107 282.765C53.5507 282.765 54.2007 282.93 54.7607 283.26C55.3307 283.58 55.7757 284.05 56.0957 284.67C56.4257 285.29 56.5907 286.05 56.5907 286.95ZM50.6357 286.95C50.6357 287.55 50.7107 288.07 50.8607 288.51C51.0107 288.94 51.2457 289.27 51.5657 289.5C51.8857 289.73 52.2957 289.845 52.7957 289.845C53.2957 289.845 53.7057 289.73 54.0257 289.5C54.3457 289.27 54.5807 288.94 54.7307 288.51C54.8807 288.07 54.9557 287.55 54.9557 286.95C54.9557 286.33 54.8757 285.81 54.7157 285.39C54.5657 284.97 54.3307 284.65 54.0107 284.43C53.7007 284.2 53.2907 284.085 52.7807 284.085C52.0307 284.085 51.4857 284.335 51.1457 284.835C50.8057 285.335 50.6357 286.04 50.6357 286.95ZM65.3113 284.97C65.3113 285.46 65.1613 285.85 64.8613 286.14C64.5713 286.42 64.1813 286.61 63.6913 286.71V286.77C64.2113 286.84 64.6513 287.025 65.0113 287.325C65.3813 287.615 65.5663 288.045 65.5663 288.615C65.5663 288.965 65.5013 289.285 65.3713 289.575C65.2413 289.865 65.0413 290.12 64.7713 290.34C64.5013 290.55 64.1513 290.715 63.7213 290.835C63.3013 290.945 62.7913 291 62.1913 291H58.6063V282.915H62.1913C62.7813 282.915 63.3113 282.98 63.7813 283.11C64.2513 283.24 64.6213 283.455 64.8913 283.755C65.1713 284.055 65.3113 284.46 65.3113 284.97ZM63.9163 288.585C63.9163 288.165 63.7563 287.865 63.4363 287.685C63.1163 287.495 62.6413 287.4 62.0113 287.4H60.1963V289.8H62.0413C62.6313 289.8 63.0913 289.71 63.4213 289.53C63.7513 289.34 63.9163 289.025 63.9163 288.585ZM63.6913 285.15C63.6913 284.8 63.5663 284.545 63.3163 284.385C63.0663 284.225 62.6613 284.145 62.1013 284.145H60.1963V286.185H61.8613C62.4613 286.185 62.9163 286.105 63.2263 285.945C63.5363 285.775 63.6913 285.51 63.6913 285.15ZM67.4833 291V282.915H69.0733V286.17H70.8583C71.5983 286.17 72.2083 286.26 72.6883 286.44C73.1683 286.61 73.5233 286.865 73.7533 287.205C73.9833 287.545 74.0983 287.975 74.0983 288.495C74.0983 289.005 73.9833 289.45 73.7533 289.83C73.5333 290.2 73.1833 290.49 72.7033 290.7C72.2333 290.9 71.6133 291 70.8433 291H67.4833ZM70.7233 289.8C71.2533 289.8 71.6833 289.71 72.0133 289.53C72.3533 289.34 72.5233 289.015 72.5233 288.555C72.5233 288.115 72.3683 287.815 72.0583 287.655C71.7483 287.485 71.3033 287.4 70.7233 287.4H69.0733V289.8H70.7233ZM75.3883 291V282.915H76.9783V291H75.3883ZM86.3657 279.525C86.3257 280.035 86.1957 280.47 85.9757 280.83C85.7657 281.18 85.4407 281.45 85.0007 281.64C84.5707 281.82 84.0057 281.91 83.3057 281.91C82.5857 281.91 82.0107 281.82 81.5807 281.64C81.1607 281.45 80.8557 281.18 80.6657 280.83C80.4757 280.48 80.3607 280.045 80.3207 279.525H81.7757C81.8257 280.075 81.9657 280.44 82.1957 280.62C82.4357 280.8 82.8157 280.89 83.3357 280.89C83.7857 280.89 84.1457 280.795 84.4157 280.605C84.6857 280.405 84.8457 280.045 84.8957 279.525H86.3657ZM80.9807 287.325C80.9807 287.445 80.9757 287.6 80.9657 287.79C80.9557 287.98 80.9457 288.18 80.9357 288.39C80.9257 288.59 80.9107 288.78 80.8907 288.96C80.8807 289.13 80.8707 289.265 80.8607 289.365L85.0157 282.915H86.9507V291H85.4507V286.695C85.4507 286.505 85.4557 286.27 85.4657 285.99C85.4757 285.71 85.4857 285.44 85.4957 285.18C85.5157 284.91 85.5307 284.705 85.5407 284.565L81.4157 291H79.4657V282.915H80.9807V287.325ZM100.342 282.915V291H98.7524V284.205H94.9424V291H93.3524V282.915H100.342ZM105.965 282.765C106.985 282.765 107.745 282.99 108.245 283.44C108.745 283.88 108.995 284.575 108.995 285.525V291H107.87L107.555 289.875H107.495C107.265 290.165 107.025 290.405 106.775 290.595C106.535 290.785 106.255 290.925 105.935 291.015C105.625 291.105 105.245 291.15 104.795 291.15C104.315 291.15 103.88 291.065 103.49 290.895C103.11 290.715 102.81 290.445 102.59 290.085C102.37 289.715 102.26 289.255 102.26 288.705C102.26 287.885 102.57 287.26 103.19 286.83C103.82 286.4 104.775 286.165 106.055 286.125L107.435 286.08V285.63C107.435 285.03 107.3 284.61 107.03 284.37C106.76 284.13 106.38 284.01 105.89 284.01C105.47 284.01 105.07 284.07 104.69 284.19C104.31 284.31 103.95 284.455 103.61 284.625L103.1 283.47C103.48 283.27 103.915 283.105 104.405 282.975C104.905 282.835 105.425 282.765 105.965 282.765ZM106.34 287.145C105.42 287.185 104.78 287.34 104.42 287.61C104.07 287.87 103.895 288.24 103.895 288.72C103.895 289.14 104.02 289.445 104.27 289.635C104.53 289.825 104.855 289.92 105.245 289.92C105.875 289.92 106.395 289.745 106.805 289.395C107.215 289.045 107.42 288.52 107.42 287.82V287.115L106.34 287.145ZM115.478 282.765C116.448 282.765 117.228 283.115 117.818 283.815C118.418 284.515 118.718 285.56 118.718 286.95C118.718 287.86 118.583 288.63 118.313 289.26C118.043 289.89 117.663 290.365 117.173 290.685C116.683 290.995 116.113 291.15 115.463 291.15C115.053 291.15 114.693 291.1 114.383 291C114.073 290.89 113.808 290.75 113.588 290.58C113.378 290.4 113.193 290.21 113.033 290.01H112.928C112.958 290.19 112.983 290.405 113.003 290.655C113.023 290.895 113.033 291.11 113.033 291.3V294.6H111.443V282.915H112.733L112.958 283.995H113.033C113.193 283.775 113.383 283.57 113.603 283.38C113.823 283.19 114.088 283.04 114.398 282.93C114.708 282.82 115.068 282.765 115.478 282.765ZM115.103 284.07C114.603 284.07 114.203 284.17 113.903 284.37C113.603 284.56 113.383 284.85 113.243 285.24C113.113 285.62 113.043 286.105 113.033 286.695V286.935C113.033 287.555 113.098 288.085 113.228 288.525C113.358 288.955 113.573 289.285 113.873 289.515C114.183 289.735 114.603 289.845 115.133 289.845C115.583 289.845 115.948 289.725 116.228 289.485C116.518 289.235 116.733 288.89 116.873 288.45C117.013 288.01 117.083 287.5 117.083 286.92C117.083 286.04 116.923 285.345 116.603 284.835C116.283 284.325 115.783 284.07 115.103 284.07ZM127.87 286.95C127.87 287.62 127.78 288.215 127.6 288.735C127.42 289.255 127.165 289.695 126.835 290.055C126.505 290.415 126.105 290.69 125.635 290.88C125.165 291.06 124.635 291.15 124.045 291.15C123.505 291.15 123.005 291.06 122.545 290.88C122.085 290.69 121.685 290.415 121.345 290.055C121.015 289.695 120.755 289.255 120.565 288.735C120.375 288.215 120.28 287.615 120.28 286.935C120.28 286.045 120.43 285.29 120.73 284.67C121.04 284.05 121.48 283.58 122.05 283.26C122.63 282.93 123.31 282.765 124.09 282.765C124.83 282.765 125.48 282.93 126.04 283.26C126.61 283.58 127.055 284.05 127.375 284.67C127.705 285.29 127.87 286.05 127.87 286.95ZM121.915 286.95C121.915 287.55 121.99 288.07 122.14 288.51C122.29 288.94 122.525 289.27 122.845 289.5C123.165 289.73 123.575 289.845 124.075 289.845C124.575 289.845 124.985 289.73 125.305 289.5C125.625 289.27 125.86 288.94 126.01 288.51C126.16 288.07 126.235 287.55 126.235 286.95C126.235 286.33 126.155 285.81 125.995 285.39C125.845 284.97 125.61 284.65 125.29 284.43C124.98 284.2 124.57 284.085 124.06 284.085C123.31 284.085 122.765 284.335 122.425 284.835C122.085 285.335 121.915 286.04 121.915 286.95ZM136.366 291H134.761V284.19H132.481C132.381 285.43 132.256 286.495 132.106 287.385C131.966 288.265 131.781 288.98 131.551 289.53C131.331 290.08 131.056 290.485 130.726 290.745C130.406 290.995 130.021 291.12 129.571 291.12C129.411 291.12 129.256 291.105 129.106 291.075C128.956 291.055 128.826 291.02 128.716 290.97V289.755C128.786 289.775 128.861 289.795 128.941 289.815C129.031 289.825 129.121 289.83 129.211 289.83C129.411 289.83 129.591 289.75 129.751 289.59C129.921 289.43 130.071 289.18 130.201 288.84C130.341 288.5 130.466 288.06 130.576 287.52C130.696 286.97 130.796 286.315 130.876 285.555C130.966 284.795 131.046 283.915 131.116 282.915H136.366V291ZM142.585 286.17C143.325 286.17 143.935 286.26 144.415 286.44C144.905 286.61 145.27 286.865 145.51 287.205C145.76 287.545 145.885 287.975 145.885 288.495C145.885 289.005 145.77 289.45 145.54 289.83C145.31 290.2 144.95 290.49 144.46 290.7C143.97 290.9 143.34 291 142.57 291H138.85V282.915H140.44V286.17H142.585ZM144.295 288.555C144.295 288.115 144.135 287.815 143.815 287.655C143.505 287.485 143.055 287.4 142.465 287.4H140.44V289.8H142.495C143.025 289.8 143.455 289.705 143.785 289.515C144.125 289.325 144.295 289.005 144.295 288.555Z" fill="black"/>
<path d="M38.425 405V394.29H46.585V405H44.98V395.685H40.045V405H38.425ZM56.4003 400.95C56.4003 401.62 56.3103 402.215 56.1303 402.735C55.9503 403.255 55.6953 403.695 55.3653 404.055C55.0353 404.415 54.6353 404.69 54.1653 404.88C53.6953 405.06 53.1653 405.15 52.5753 405.15C52.0353 405.15 51.5353 405.06 51.0753 404.88C50.6153 404.69 50.2153 404.415 49.8753 404.055C49.5453 403.695 49.2853 403.255 49.0953 402.735C48.9053 402.215 48.8103 401.615 48.8103 400.935C48.8103 400.045 48.9603 399.29 49.2603 398.67C49.5703 398.05 50.0103 397.58 50.5803 397.26C51.1603 396.93 51.8403 396.765 52.6203 396.765C53.3603 396.765 54.0103 396.93 54.5703 397.26C55.1403 397.58 55.5853 398.05 55.9053 398.67C56.2353 399.29 56.4003 400.05 56.4003 400.95ZM50.4453 400.95C50.4453 401.55 50.5203 402.07 50.6703 402.51C50.8203 402.94 51.0553 403.27 51.3753 403.5C51.6953 403.73 52.1053 403.845 52.6053 403.845C53.1053 403.845 53.5153 403.73 53.8353 403.5C54.1553 403.27 54.3903 402.94 54.5403 402.51C54.6903 402.07 54.7653 401.55 54.7653 400.95C54.7653 400.33 54.6853 399.81 54.5253 399.39C54.3753 398.97 54.1403 398.65 53.8203 398.43C53.5103 398.2 53.1003 398.085 52.5903 398.085C51.8403 398.085 51.2953 398.335 50.9553 398.835C50.6153 399.335 50.4453 400.04 50.4453 400.95ZM64.7909 396.915V403.74H65.9759V407.835H64.4909V405H58.9109V407.835H57.4409V403.74H58.0859C58.5159 403.12 58.8759 402.44 59.1659 401.7C59.4559 400.96 59.6759 400.185 59.8259 399.375C59.9859 398.555 60.0809 397.735 60.1109 396.915H64.7909ZM61.4909 398.145C61.4309 398.795 61.3209 399.46 61.1609 400.14C61.0109 400.82 60.8159 401.47 60.5759 402.09C60.3459 402.71 60.0709 403.26 59.7509 403.74H63.2309V398.145H61.4909ZM73.4079 398.19H70.7679V405H69.1929V398.19H66.5679V396.915H73.4079V398.19ZM81.6883 398.97C81.6883 399.46 81.5383 399.85 81.2383 400.14C80.9483 400.42 80.5583 400.61 80.0683 400.71V400.77C80.5883 400.84 81.0283 401.025 81.3883 401.325C81.7583 401.615 81.9433 402.045 81.9433 402.615C81.9433 402.965 81.8783 403.285 81.7483 403.575C81.6183 403.865 81.4183 404.12 81.1483 404.34C80.8783 404.55 80.5283 404.715 80.0983 404.835C79.6783 404.945 79.1683 405 78.5683 405H74.9833V396.915H78.5683C79.1583 396.915 79.6883 396.98 80.1583 397.11C80.6283 397.24 80.9983 397.455 81.2683 397.755C81.5483 398.055 81.6883 398.46 81.6883 398.97ZM80.2933 402.585C80.2933 402.165 80.1333 401.865 79.8133 401.685C79.4933 401.495 79.0183 401.4 78.3883 401.4H76.5733V403.8H78.4183C79.0083 403.8 79.4683 403.71 79.7983 403.53C80.1283 403.34 80.2933 403.025 80.2933 402.585ZM80.0683 399.15C80.0683 398.8 79.9433 398.545 79.6933 398.385C79.4433 398.225 79.0383 398.145 78.4783 398.145H76.5733V400.185H78.2383C78.8383 400.185 79.2933 400.105 79.6033 399.945C79.9133 399.775 80.0683 399.51 80.0683 399.15ZM87.0402 396.765C87.7502 396.765 88.3602 396.915 88.8702 397.215C89.3802 397.505 89.7702 397.925 90.0402 398.475C90.3202 399.025 90.4602 399.675 90.4602 400.425V401.295H85.0302C85.0502 402.125 85.2652 402.76 85.6752 403.2C86.0952 403.64 86.6802 403.86 87.4302 403.86C87.9502 403.86 88.4102 403.815 88.8102 403.725C89.2202 403.625 89.6402 403.48 90.0702 403.29V404.61C89.6702 404.79 89.2602 404.925 88.8402 405.015C88.4302 405.105 87.9402 405.15 87.3702 405.15C86.5902 405.15 85.9002 404.995 85.3002 404.685C84.7002 404.375 84.2302 403.915 83.8902 403.305C83.5602 402.685 83.3952 401.925 83.3952 401.025C83.3952 400.115 83.5452 399.345 83.8452 398.715C84.1552 398.085 84.5802 397.605 85.1202 397.275C85.6702 396.935 86.3102 396.765 87.0402 396.765ZM87.0402 397.995C86.4702 397.995 86.0102 398.18 85.6602 398.55C85.3202 398.92 85.1202 399.445 85.0602 400.125H88.8702C88.8702 399.705 88.8052 399.335 88.6752 399.015C88.5452 398.695 88.3452 398.445 88.0752 398.265C87.8052 398.085 87.4602 397.995 87.0402 397.995ZM96.4792 396.765C97.4492 396.765 98.2292 397.115 98.8192 397.815C99.4192 398.515 99.7192 399.56 99.7192 400.95C99.7192 401.86 99.5842 402.63 99.3142 403.26C99.0442 403.89 98.6642 404.365 98.1742 404.685C97.6842 404.995 97.1142 405.15 96.4642 405.15C96.0542 405.15 95.6942 405.1 95.3842 405C95.0742 404.89 94.8092 404.75 94.5892 404.58C94.3792 404.4 94.1942 404.21 94.0342 404.01H93.9292C93.9592 404.19 93.9842 404.405 94.0042 404.655C94.0242 404.895 94.0342 405.11 94.0342 405.3V408.6H92.4442V396.915H93.7342L93.9592 397.995H94.0342C94.1942 397.775 94.3842 397.57 94.6042 397.38C94.8242 397.19 95.0892 397.04 95.3992 396.93C95.7092 396.82 96.0692 396.765 96.4792 396.765ZM96.1042 398.07C95.6042 398.07 95.2042 398.17 94.9042 398.37C94.6042 398.56 94.3842 398.85 94.2442 399.24C94.1142 399.62 94.0442 400.105 94.0342 400.695V400.935C94.0342 401.555 94.0992 402.085 94.2292 402.525C94.3592 402.955 94.5742 403.285 94.8742 403.515C95.1842 403.735 95.6042 403.845 96.1342 403.845C96.5842 403.845 96.9492 403.725 97.2292 403.485C97.5192 403.235 97.7342 402.89 97.8742 402.45C98.0142 402.01 98.0842 401.5 98.0842 400.92C98.0842 400.04 97.9242 399.345 97.6042 398.835C97.2842 398.325 96.7842 398.07 96.1042 398.07ZM108.121 396.915V403.74H109.306V407.835H107.821V405H102.241V407.835H100.771V403.74H101.416C101.846 403.12 102.206 402.44 102.496 401.7C102.786 400.96 103.006 400.185 103.156 399.375C103.316 398.555 103.411 397.735 103.441 396.915H108.121ZM104.821 398.145C104.761 398.795 104.651 399.46 104.491 400.14C104.341 400.82 104.146 401.47 103.906 402.09C103.676 402.71 103.401 403.26 103.081 403.74H106.561V398.145H104.821ZM112.343 401.325C112.343 401.445 112.338 401.6 112.328 401.79C112.318 401.98 112.308 402.18 112.298 402.39C112.288 402.59 112.273 402.78 112.253 402.96C112.243 403.13 112.233 403.265 112.223 403.365L116.378 396.915H118.313V405H116.813V400.695C116.813 400.505 116.818 400.27 116.828 399.99C116.838 399.71 116.848 399.44 116.858 399.18C116.878 398.91 116.893 398.705 116.903 398.565L112.778 405H110.828V396.915H112.343V401.325ZM126.728 398.19H124.088V405H122.513V398.19H119.888V396.915H126.728V398.19ZM131.337 396.765C132.047 396.765 132.657 396.915 133.167 397.215C133.677 397.505 134.067 397.925 134.337 398.475C134.617 399.025 134.757 399.675 134.757 400.425V401.295H129.327C129.347 402.125 129.562 402.76 129.972 403.2C130.392 403.64 130.977 403.86 131.727 403.86C132.247 403.86 132.707 403.815 133.107 403.725C133.517 403.625 133.937 403.48 134.367 403.29V404.61C133.967 404.79 133.557 404.925 133.137 405.015C132.727 405.105 132.237 405.15 131.667 405.15C130.887 405.15 130.197 404.995 129.597 404.685C128.997 404.375 128.527 403.915 128.187 403.305C127.857 402.685 127.692 401.925 127.692 401.025C127.692 400.115 127.842 399.345 128.142 398.715C128.452 398.085 128.877 397.605 129.417 397.275C129.967 396.935 130.607 396.765 131.337 396.765ZM131.337 397.995C130.767 397.995 130.307 398.18 129.957 398.55C129.617 398.92 129.417 399.445 129.357 400.125H133.167C133.167 399.705 133.102 399.335 132.972 399.015C132.842 398.695 132.642 398.445 132.372 398.265C132.102 398.085 131.757 397.995 131.337 397.995ZM142.228 396.915V400.2H146.218V396.915H147.808V405H146.218V401.475H142.228V405H140.638V396.915H142.228ZM157.416 400.95C157.416 401.62 157.326 402.215 157.146 402.735C156.966 403.255 156.711 403.695 156.381 404.055C156.051 404.415 155.651 404.69 155.181 404.88C154.711 405.06 154.181 405.15 153.591 405.15C153.051 405.15 152.551 405.06 152.091 404.88C151.631 404.69 151.231 404.415 150.891 404.055C150.561 403.695 150.301 403.255 150.111 402.735C149.921 402.215 149.826 401.615 149.826 400.935C149.826 400.045 149.976 399.29 150.276 398.67C150.586 398.05 151.026 397.58 151.596 397.26C152.176 396.93 152.856 396.765 153.636 396.765C154.376 396.765 155.026 396.93 155.586 397.26C156.156 397.58 156.601 398.05 156.921 398.67C157.251 399.29 157.416 400.05 157.416 400.95ZM151.461 400.95C151.461 401.55 151.536 402.07 151.686 402.51C151.836 402.94 152.071 403.27 152.391 403.5C152.711 403.73 153.121 403.845 153.621 403.845C154.121 403.845 154.531 403.73 154.851 403.5C155.171 403.27 155.406 402.94 155.556 402.51C155.706 402.07 155.781 401.55 155.781 400.95C155.781 400.33 155.701 399.81 155.541 399.39C155.391 398.97 155.156 398.65 154.836 398.43C154.526 398.2 154.116 398.085 153.606 398.085C152.856 398.085 152.311 398.335 151.971 398.835C151.631 399.335 151.461 400.04 151.461 400.95ZM166.137 398.97C166.137 399.46 165.987 399.85 165.687 400.14C165.397 400.42 165.007 400.61 164.517 400.71V400.77C165.037 400.84 165.477 401.025 165.837 401.325C166.207 401.615 166.392 402.045 166.392 402.615C166.392 402.965 166.327 403.285 166.197 403.575C166.067 403.865 165.867 404.12 165.597 404.34C165.327 404.55 164.977 404.715 164.547 404.835C164.127 404.945 163.617 405 163.017 405H159.432V396.915H163.017C163.607 396.915 164.137 396.98 164.607 397.11C165.077 397.24 165.447 397.455 165.717 397.755C165.997 398.055 166.137 398.46 166.137 398.97ZM164.742 402.585C164.742 402.165 164.582 401.865 164.262 401.685C163.942 401.495 163.467 401.4 162.837 401.4H161.022V403.8H162.867C163.457 403.8 163.917 403.71 164.247 403.53C164.577 403.34 164.742 403.025 164.742 402.585ZM164.517 399.15C164.517 398.8 164.392 398.545 164.142 398.385C163.892 398.225 163.487 398.145 162.927 398.145H161.022V400.185H162.687C163.287 400.185 163.742 400.105 164.052 399.945C164.362 399.775 164.517 399.51 164.517 399.15ZM168.308 405V396.915H169.898V400.17H171.683C172.423 400.17 173.033 400.26 173.513 400.44C173.993 400.61 174.348 400.865 174.578 401.205C174.808 401.545 174.923 401.975 174.923 402.495C174.923 403.005 174.808 403.45 174.578 403.83C174.358 404.2 174.008 404.49 173.528 404.7C173.058 404.9 172.438 405 171.668 405H168.308ZM171.548 403.8C172.078 403.8 172.508 403.71 172.838 403.53C173.178 403.34 173.348 403.015 173.348 402.555C173.348 402.115 173.193 401.815 172.883 401.655C172.573 401.485 172.128 401.4 171.548 401.4H169.898V403.8H171.548ZM176.213 405V396.915H177.803V405H176.213ZM187.191 393.525C187.151 394.035 187.021 394.47 186.801 394.83C186.591 395.18 186.266 395.45 185.826 395.64C185.396 395.82 184.831 395.91 184.131 395.91C183.411 395.91 182.836 395.82 182.406 395.64C181.986 395.45 181.681 395.18 181.491 394.83C181.301 394.48 181.186 394.045 181.146 393.525H182.601C182.651 394.075 182.791 394.44 183.021 394.62C183.261 394.8 183.641 394.89 184.161 394.89C184.611 394.89 184.971 394.795 185.241 394.605C185.511 394.405 185.671 394.045 185.721 393.525H187.191ZM181.806 401.325C181.806 401.445 181.801 401.6 181.791 401.79C181.781 401.98 181.771 402.18 181.761 402.39C181.751 402.59 181.736 402.78 181.716 402.96C181.706 403.13 181.696 403.265 181.686 403.365L185.841 396.915H187.776V405H186.276V400.695C186.276 400.505 186.281 400.27 186.291 399.99C186.301 399.71 186.311 399.44 186.321 399.18C186.341 398.91 186.356 398.705 186.366 398.565L182.241 405H180.291V396.915H181.806V401.325ZM201.168 396.915V405H199.578V398.205H195.768V405H194.178V396.915H201.168ZM206.79 396.765C207.81 396.765 208.57 396.99 209.07 397.44C209.57 397.88 209.82 398.575 209.82 399.525V405H208.695L208.38 403.875H208.32C208.09 404.165 207.85 404.405 207.6 404.595C207.36 404.785 207.08 404.925 206.76 405.015C206.45 405.105 206.07 405.15 205.62 405.15C205.14 405.15 204.705 405.065 204.315 404.895C203.935 404.715 203.635 404.445 203.415 404.085C203.195 403.715 203.085 403.255 203.085 402.705C203.085 401.885 203.395 401.26 204.015 400.83C204.645 400.4 205.6 400.165 206.88 400.125L208.26 400.08V399.63C208.26 399.03 208.125 398.61 207.855 398.37C207.585 398.13 207.205 398.01 206.715 398.01C206.295 398.01 205.895 398.07 205.515 398.19C205.135 398.31 204.775 398.455 204.435 398.625L203.925 397.47C204.305 397.27 204.74 397.105 205.23 396.975C205.73 396.835 206.25 396.765 206.79 396.765ZM207.165 401.145C206.245 401.185 205.605 401.34 205.245 401.61C204.895 401.87 204.72 402.24 204.72 402.72C204.72 403.14 204.845 403.445 205.095 403.635C205.355 403.825 205.68 403.92 206.07 403.92C206.7 403.92 207.22 403.745 207.63 403.395C208.04 403.045 208.245 402.52 208.245 401.82V401.115L207.165 401.145ZM216.303 396.765C217.273 396.765 218.053 397.115 218.643 397.815C219.243 398.515 219.543 399.56 219.543 400.95C219.543 401.86 219.408 402.63 219.138 403.26C218.868 403.89 218.488 404.365 217.998 404.685C217.508 404.995 216.938 405.15 216.288 405.15C215.878 405.15 215.518 405.1 215.208 405C214.898 404.89 214.633 404.75 214.413 404.58C214.203 404.4 214.018 404.21 213.858 404.01H213.753C213.783 404.19 213.808 404.405 213.828 404.655C213.848 404.895 213.858 405.11 213.858 405.3V408.6H212.268V396.915H213.558L213.783 397.995H213.858C214.018 397.775 214.208 397.57 214.428 397.38C214.648 397.19 214.913 397.04 215.223 396.93C215.533 396.82 215.893 396.765 216.303 396.765ZM215.928 398.07C215.428 398.07 215.028 398.17 214.728 398.37C214.428 398.56 214.208 398.85 214.068 399.24C213.938 399.62 213.868 400.105 213.858 400.695V400.935C213.858 401.555 213.923 402.085 214.053 402.525C214.183 402.955 214.398 403.285 214.698 403.515C215.008 403.735 215.428 403.845 215.958 403.845C216.408 403.845 216.773 403.725 217.053 403.485C217.343 403.235 217.558 402.89 217.698 402.45C217.838 402.01 217.908 401.5 217.908 400.92C217.908 400.04 217.748 399.345 217.428 398.835C217.108 398.325 216.608 398.07 215.928 398.07ZM228.695 400.95C228.695 401.62 228.605 402.215 228.425 402.735C228.245 403.255 227.99 403.695 227.66 404.055C227.33 404.415 226.93 404.69 226.46 404.88C225.99 405.06 225.46 405.15 224.87 405.15C224.33 405.15 223.83 405.06 223.37 404.88C222.91 404.69 222.51 404.415 222.17 404.055C221.84 403.695 221.58 403.255 221.39 402.735C221.2 402.215 221.105 401.615 221.105 400.935C221.105 400.045 221.255 399.29 221.555 398.67C221.865 398.05 222.305 397.58 222.875 397.26C223.455 396.93 224.135 396.765 224.915 396.765C225.655 396.765 226.305 396.93 226.865 397.26C227.435 397.58 227.88 398.05 228.2 398.67C228.53 399.29 228.695 400.05 228.695 400.95ZM222.74 400.95C222.74 401.55 222.815 402.07 222.965 402.51C223.115 402.94 223.35 403.27 223.67 403.5C223.99 403.73 224.4 403.845 224.9 403.845C225.4 403.845 225.81 403.73 226.13 403.5C226.45 403.27 226.685 402.94 226.835 402.51C226.985 402.07 227.06 401.55 227.06 400.95C227.06 400.33 226.98 399.81 226.82 399.39C226.67 398.97 226.435 398.65 226.115 398.43C225.805 398.2 225.395 398.085 224.885 398.085C224.135 398.085 223.59 398.335 223.25 398.835C222.91 399.335 222.74 400.04 222.74 400.95ZM237.191 405H235.586V398.19H233.306C233.206 399.43 233.081 400.495 232.931 401.385C232.791 402.265 232.606 402.98 232.376 403.53C232.156 404.08 231.881 404.485 231.551 404.745C231.231 404.995 230.846 405.12 230.396 405.12C230.236 405.12 230.081 405.105 229.931 405.075C229.781 405.055 229.651 405.02 229.541 404.97V403.755C229.611 403.775 229.686 403.795 229.766 403.815C229.856 403.825 229.946 403.83 230.036 403.83C230.236 403.83 230.416 403.75 230.576 403.59C230.746 403.43 230.896 403.18 231.026 402.84C231.166 402.5 231.291 402.06 231.401 401.52C231.521 400.97 231.621 400.315 231.701 399.555C231.791 398.795 231.871 397.915 231.941 396.915H237.191V405ZM243.411 400.17C244.151 400.17 244.761 400.26 245.241 400.44C245.731 400.61 246.096 400.865 246.336 401.205C246.586 401.545 246.711 401.975 246.711 402.495C246.711 403.005 246.596 403.45 246.366 403.83C246.136 404.2 245.776 404.49 245.286 404.7C244.796 404.9 244.166 405 243.396 405H239.676V396.915H241.266V400.17H243.411ZM245.121 402.555C245.121 402.115 244.961 401.815 244.641 401.655C244.331 401.485 243.881 401.4 243.291 401.4H241.266V403.8H243.321C243.851 403.8 244.281 403.705 244.611 403.515C244.951 403.325 245.121 403.005 245.121 402.555Z" fill="black"/>
<path opacity="0.45" d="M63.364 330.408C62.708 330.408 62.092 330.284 61.516 330.036C60.94 329.796 60.432 329.46 59.992 329.028C59.56 328.588 59.22 328.08 58.972 327.504C58.732 326.928 58.612 326.312 58.612 325.656C58.612 324.992 58.732 324.376 58.972 323.808C59.22 323.232 59.56 322.728 59.992 322.296C60.432 321.856 60.94 321.516 61.516 321.276C62.092 321.028 62.708 320.904 63.364 320.904C64.028 320.904 64.644 321.028 65.212 321.276C65.788 321.516 66.292 321.856 66.724 322.296C67.164 322.728 67.504 323.232 67.744 323.808C67.992 324.376 68.116 324.992 68.116 325.656C68.116 326.312 67.992 326.928 67.744 327.504C67.504 328.08 67.164 328.588 66.724 329.028C66.292 329.46 65.788 329.796 65.212 330.036C64.644 330.284 64.028 330.408 63.364 330.408ZM82.4867 330.408C81.8307 330.408 81.2147 330.284 80.6387 330.036C80.0627 329.796 79.5547 329.46 79.1147 329.028C78.6827 328.588 78.3427 328.08 78.0947 327.504C77.8547 326.928 77.7347 326.312 77.7347 325.656C77.7347 324.992 77.8547 324.376 78.0947 323.808C78.3427 323.232 78.6827 322.728 79.1147 322.296C79.5547 321.856 80.0627 321.516 80.6387 321.276C81.2147 321.028 81.8307 320.904 82.4867 320.904C83.1507 320.904 83.7667 321.028 84.3347 321.276C84.9107 321.516 85.4147 321.856 85.8467 322.296C86.2867 322.728 86.6267 323.232 86.8667 323.808C87.1147 324.376 87.2387 324.992 87.2387 325.656C87.2387 326.312 87.1147 326.928 86.8667 327.504C86.6267 328.08 86.2867 328.588 85.8467 329.028C85.4147 329.46 84.9107 329.796 84.3347 330.036C83.7667 330.284 83.1507 330.408 82.4867 330.408ZM101.609 330.408C100.953 330.408 100.337 330.284 99.7613 330.036C99.1853 329.796 98.6773 329.46 98.2373 329.028C97.8053 328.588 97.4653 328.08 97.2173 327.504C96.9773 326.928 96.8573 326.312 96.8573 325.656C96.8573 324.992 96.9773 324.376 97.2173 323.808C97.4653 323.232 97.8053 322.728 98.2373 322.296C98.6773 321.856 99.1853 321.516 99.7613 321.276C100.337 321.028 100.953 320.904 101.609 320.904C102.273 320.904 102.889 321.028 103.457 321.276C104.033 321.516 104.537 321.856 104.969 322.296C105.409 322.728 105.749 323.232 105.989 323.808C106.237 324.376 106.361 324.992 106.361 325.656C106.361 326.312 106.237 326.928 105.989 327.504C105.749 328.08 105.409 328.588 104.969 329.028C104.537 329.46 104.033 329.796 103.457 330.036C102.889 330.284 102.273 330.408 101.609 330.408ZM120.732 330.408C120.076 330.408 119.46 330.284 118.884 330.036C118.308 329.796 117.8 329.46 117.36 329.028C116.928 328.588 116.588 328.08 116.34 327.504C116.1 326.928 115.98 326.312 115.98 325.656C115.98 324.992 116.1 324.376 116.34 323.808C116.588 323.232 116.928 322.728 117.36 322.296C117.8 321.856 118.308 321.516 118.884 321.276C119.46 321.028 120.076 320.904 120.732 320.904C121.396 320.904 122.012 321.028 122.58 321.276C123.156 321.516 123.66 321.856 124.092 322.296C124.532 322.728 124.872 323.232 125.112 323.808C125.36 324.376 125.484 324.992 125.484 325.656C125.484 326.312 125.36 326.928 125.112 327.504C124.872 328.08 124.532 328.588 124.092 329.028C123.66 329.46 123.156 329.796 122.58 330.036C122.012 330.284 121.396 330.408 120.732 330.408ZM139.855 330.408C139.199 330.408 138.583 330.284 138.007 330.036C137.431 329.796 136.923 329.46 136.483 329.028C136.051 328.588 135.711 328.08 135.463 327.504C135.223 326.928 135.103 326.312 135.103 325.656C135.103 324.992 135.223 324.376 135.463 323.808C135.711 323.232 136.051 322.728 136.483 322.296C136.923 321.856 137.431 321.516 138.007 321.276C138.583 321.028 139.199 320.904 139.855 320.904C140.519 320.904 141.135 321.028 141.703 321.276C142.279 321.516 142.783 321.856 143.215 322.296C143.655 322.728 143.995 323.232 144.235 323.808C144.483 324.376 144.607 324.992 144.607 325.656C144.607 326.312 144.483 326.928 144.235 327.504C143.995 328.08 143.655 328.588 143.215 329.028C142.783 329.46 142.279 329.796 141.703 330.036C141.135 330.284 140.519 330.408 139.855 330.408ZM158.977 330.408C158.321 330.408 157.705 330.284 157.129 330.036C156.553 329.796 156.045 329.46 155.605 329.028C155.173 328.588 154.833 328.08 154.585 327.504C154.345 326.928 154.225 326.312 154.225 325.656C154.225 324.992 154.345 324.376 154.585 323.808C154.833 323.232 155.173 322.728 155.605 322.296C156.045 321.856 156.553 321.516 157.129 321.276C157.705 321.028 158.321 320.904 158.977 320.904C159.641 320.904 160.257 321.028 160.825 321.276C161.401 321.516 161.905 321.856 162.337 322.296C162.777 322.728 163.117 323.232 163.357 323.808C163.605 324.376 163.729 324.992 163.729 325.656C163.729 326.312 163.605 326.928 163.357 327.504C163.117 328.08 162.777 328.588 162.337 329.028C161.905 329.46 161.401 329.796 160.825 330.036C160.257 330.284 159.641 330.408 158.977 330.408ZM178.1 330.408C177.444 330.408 176.828 330.284 176.252 330.036C175.676 329.796 175.168 329.46 174.728 329.028C174.296 328.588 173.956 328.08 173.708 327.504C173.468 326.928 173.348 326.312 173.348 325.656C173.348 324.992 173.468 324.376 173.708 323.808C173.956 323.232 174.296 322.728 174.728 322.296C175.168 321.856 175.676 321.516 176.252 321.276C176.828 321.028 177.444 320.904 178.1 320.904C178.764 320.904 179.38 321.028 179.948 321.276C180.524 321.516 181.028 321.856 181.46 322.296C181.9 322.728 182.24 323.232 182.48 323.808C182.728 324.376 182.852 324.992 182.852 325.656C182.852 326.312 182.728 326.928 182.48 327.504C182.24 328.08 181.9 328.588 181.46 329.028C181.028 329.46 180.524 329.796 179.948 330.036C179.38 330.284 178.764 330.408 178.1 330.408ZM197.223 330.408C196.567 330.408 195.951 330.284 195.375 330.036C194.799 329.796 194.291 329.46 193.851 329.028C193.419 328.588 193.079 328.08 192.831 327.504C192.591 326.928 192.471 326.312 192.471 325.656C192.471 324.992 192.591 324.376 192.831 323.808C193.079 323.232 193.419 322.728 193.851 322.296C194.291 321.856 194.799 321.516 195.375 321.276C195.951 321.028 196.567 320.904 197.223 320.904C197.887 320.904 198.503 321.028 199.071 321.276C199.647 321.516 200.151 321.856 200.583 322.296C201.023 322.728 201.363 323.232 201.603 323.808C201.851 324.376 201.975 324.992 201.975 325.656C201.975 326.312 201.851 326.928 201.603 327.504C201.363 328.08 201.023 328.588 200.583 329.028C200.151 329.46 199.647 329.796 199.071 330.036C198.503 330.284 197.887 330.408 197.223 330.408Z" fill="#27272D"/>
<path opacity="0.45" d="M63.364 444.408C62.708 444.408 62.092 444.284 61.516 444.036C60.94 443.796 60.432 443.46 59.992 443.028C59.56 442.588 59.22 442.08 58.972 441.504C58.732 440.928 58.612 440.312 58.612 439.656C58.612 438.992 58.732 438.376 58.972 437.808C59.22 437.232 59.56 436.728 59.992 436.296C60.432 435.856 60.94 435.516 61.516 435.276C62.092 435.028 62.708 434.904 63.364 434.904C64.028 434.904 64.644 435.028 65.212 435.276C65.788 435.516 66.292 435.856 66.724 436.296C67.164 436.728 67.504 437.232 67.744 437.808C67.992 438.376 68.116 438.992 68.116 439.656C68.116 440.312 67.992 440.928 67.744 441.504C67.504 442.08 67.164 442.588 66.724 443.028C66.292 443.46 65.788 443.796 65.212 444.036C64.644 444.284 64.028 444.408 63.364 444.408ZM82.4867 444.408C81.8307 444.408 81.2147 444.284 80.6387 444.036C80.0627 443.796 79.5547 443.46 79.1147 443.028C78.6827 442.588 78.3427 442.08 78.0947 441.504C77.8547 440.928 77.7347 440.312 77.7347 439.656C77.7347 438.992 77.8547 438.376 78.0947 437.808C78.3427 437.232 78.6827 436.728 79.1147 436.296C79.5547 435.856 80.0627 435.516 80.6387 435.276C81.2147 435.028 81.8307 434.904 82.4867 434.904C83.1507 434.904 83.7667 435.028 84.3347 435.276C84.9107 435.516 85.4147 435.856 85.8467 436.296C86.2867 436.728 86.6267 437.232 86.8667 437.808C87.1147 438.376 87.2387 438.992 87.2387 439.656C87.2387 440.312 87.1147 440.928 86.8667 441.504C86.6267 442.08 86.2867 442.588 85.8467 443.028C85.4147 443.46 84.9107 443.796 84.3347 444.036C83.7667 444.284 83.1507 444.408 82.4867 444.408ZM101.609 444.408C100.953 444.408 100.337 444.284 99.7613 444.036C99.1853 443.796 98.6773 443.46 98.2373 443.028C97.8053 442.588 97.4653 442.08 97.2173 441.504C96.9773 440.928 96.8573 440.312 96.8573 439.656C96.8573 438.992 96.9773 438.376 97.2173 437.808C97.4653 437.232 97.8053 436.728 98.2373 436.296C98.6773 435.856 99.1853 435.516 99.7613 435.276C100.337 435.028 100.953 434.904 101.609 434.904C102.273 434.904 102.889 435.028 103.457 435.276C104.033 435.516 104.537 435.856 104.969 436.296C105.409 436.728 105.749 437.232 105.989 437.808C106.237 438.376 106.361 438.992 106.361 439.656C106.361 440.312 106.237 440.928 105.989 441.504C105.749 442.08 105.409 442.588 104.969 443.028C104.537 443.46 104.033 443.796 103.457 444.036C102.889 444.284 102.273 444.408 101.609 444.408ZM120.732 444.408C120.076 444.408 119.46 444.284 118.884 444.036C118.308 443.796 117.8 443.46 117.36 443.028C116.928 442.588 116.588 442.08 116.34 441.504C116.1 440.928 115.98 440.312 115.98 439.656C115.98 438.992 116.1 438.376 116.34 437.808C116.588 437.232 116.928 436.728 117.36 436.296C117.8 435.856 118.308 435.516 118.884 435.276C119.46 435.028 120.076 434.904 120.732 434.904C121.396 434.904 122.012 435.028 122.58 435.276C123.156 435.516 123.66 435.856 124.092 436.296C124.532 436.728 124.872 437.232 125.112 437.808C125.36 438.376 125.484 438.992 125.484 439.656C125.484 440.312 125.36 440.928 125.112 441.504C124.872 442.08 124.532 442.588 124.092 443.028C123.66 443.46 123.156 443.796 122.58 444.036C122.012 444.284 121.396 444.408 120.732 444.408ZM139.855 444.408C139.199 444.408 138.583 444.284 138.007 444.036C137.431 443.796 136.923 443.46 136.483 443.028C136.051 442.588 135.711 442.08 135.463 441.504C135.223 440.928 135.103 440.312 135.103 439.656C135.103 438.992 135.223 438.376 135.463 437.808C135.711 437.232 136.051 436.728 136.483 436.296C136.923 435.856 137.431 435.516 138.007 435.276C138.583 435.028 139.199 434.904 139.855 434.904C140.519 434.904 141.135 435.028 141.703 435.276C142.279 435.516 142.783 435.856 143.215 436.296C143.655 436.728 143.995 437.232 144.235 437.808C144.483 438.376 144.607 438.992 144.607 439.656C144.607 440.312 144.483 440.928 144.235 441.504C143.995 442.08 143.655 442.588 143.215 443.028C142.783 443.46 142.279 443.796 141.703 444.036C141.135 444.284 140.519 444.408 139.855 444.408ZM158.977 444.408C158.321 444.408 157.705 444.284 157.129 444.036C156.553 443.796 156.045 443.46 155.605 443.028C155.173 442.588 154.833 442.08 154.585 441.504C154.345 440.928 154.225 440.312 154.225 439.656C154.225 438.992 154.345 438.376 154.585 437.808C154.833 437.232 155.173 436.728 155.605 436.296C156.045 435.856 156.553 435.516 157.129 435.276C157.705 435.028 158.321 434.904 158.977 434.904C159.641 434.904 160.257 435.028 160.825 435.276C161.401 435.516 161.905 435.856 162.337 436.296C162.777 436.728 163.117 437.232 163.357 437.808C163.605 438.376 163.729 438.992 163.729 439.656C163.729 440.312 163.605 440.928 163.357 441.504C163.117 442.08 162.777 442.588 162.337 443.028C161.905 443.46 161.401 443.796 160.825 444.036C160.257 444.284 159.641 444.408 158.977 444.408ZM178.1 444.408C177.444 444.408 176.828 444.284 176.252 444.036C175.676 443.796 175.168 443.46 174.728 443.028C174.296 442.588 173.956 442.08 173.708 441.504C173.468 440.928 173.348 440.312 173.348 439.656C173.348 438.992 173.468 438.376 173.708 437.808C173.956 437.232 174.296 436.728 174.728 436.296C175.168 435.856 175.676 435.516 176.252 435.276C176.828 435.028 177.444 434.904 178.1 434.904C178.764 434.904 179.38 435.028 179.948 435.276C180.524 435.516 181.028 435.856 181.46 436.296C181.9 436.728 182.24 437.232 182.48 437.808C182.728 438.376 182.852 438.992 182.852 439.656C182.852 440.312 182.728 440.928 182.48 441.504C182.24 442.08 181.9 442.588 181.46 443.028C181.028 443.46 180.524 443.796 179.948 444.036C179.38 444.284 178.764 444.408 178.1 444.408ZM197.223 444.408C196.567 444.408 195.951 444.284 195.375 444.036C194.799 443.796 194.291 443.46 193.851 443.028C193.419 442.588 193.079 442.08 192.831 441.504C192.591 440.928 192.471 440.312 192.471 439.656C192.471 438.992 192.591 438.376 192.831 437.808C193.079 437.232 193.419 436.728 193.851 436.296C194.291 435.856 194.799 435.516 195.375 435.276C195.951 435.028 196.567 434.904 197.223 434.904C197.887 434.904 198.503 435.028 199.071 435.276C199.647 435.516 200.151 435.856 200.583 436.296C201.023 436.728 201.363 437.232 201.603 437.808C201.851 438.376 201.975 438.992 201.975 439.656C201.975 440.312 201.851 440.928 201.603 441.504C201.363 442.08 201.023 442.588 200.583 443.028C200.151 443.46 199.647 443.796 199.071 444.036C198.503 444.284 197.887 444.408 197.223 444.408Z" fill="#27272D"/>
<path d="M353.814 436C359.317 443.328 368.113 443.551 373.815 436.667C373.993 436.454 374.165 436.231 374.339 436M364.075 441.669V445M369.63 440.201L371.445 443.422M373.812 436.667L376.136 438.834M358.51 440.201L356.695 443.422M354.325 436.667L352 438.834" stroke="black" stroke-width="1.63636" stroke-linecap="round" stroke-linejoin="round"/>
<path d="M353.814 321C359.317 328.328 368.113 328.551 373.815 321.667C373.993 321.454 374.165 321.231 374.339 321M364.075 326.669V330M369.63 325.201L371.445 328.422M373.812 321.667L376.136 323.834M358.51 325.201L356.695 328.422M354.325 321.667L352 323.834" stroke="black" stroke-width="1.63636" stroke-linecap="round" stroke-linejoin="round"/>
<rect x="33" y="669" width="363" height="45" rx="22.5" fill="#6DB6FE"/>
<path d="M147.595 696V685.29H155.905V696H153.985V686.91H149.515V696H147.595ZM165.778 691.92C165.778 692.6 165.688 693.2 165.508 693.72C165.328 694.24 165.068 694.685 164.728 695.055C164.398 695.415 163.988 695.69 163.498 695.88C163.018 696.06 162.483 696.15 161.893 696.15C161.333 696.15 160.818 696.06 160.348 695.88C159.878 695.69 159.468 695.415 159.118 695.055C158.778 694.685 158.513 694.24 158.323 693.72C158.133 693.2 158.038 692.6 158.038 691.92C158.038 691.02 158.193 690.26 158.503 689.64C158.813 689.01 159.258 688.535 159.838 688.215C160.428 687.885 161.123 687.72 161.923 687.72C162.683 687.72 163.348 687.885 163.918 688.215C164.498 688.535 164.953 689.01 165.283 689.64C165.613 690.26 165.778 691.02 165.778 691.92ZM159.973 691.92C159.973 692.49 160.038 692.98 160.168 693.39C160.308 693.79 160.518 694.095 160.798 694.305C161.088 694.515 161.458 694.62 161.908 694.62C162.368 694.62 162.738 694.515 163.018 694.305C163.308 694.095 163.518 693.79 163.648 693.39C163.778 692.98 163.843 692.49 163.843 691.92C163.843 691.34 163.773 690.855 163.633 690.465C163.503 690.065 163.293 689.765 163.003 689.565C162.723 689.355 162.358 689.25 161.908 689.25C161.228 689.25 160.733 689.48 160.423 689.94C160.123 690.4 159.973 691.06 159.973 691.92ZM177.407 687.87V696H175.667V691.56C175.667 691.23 175.672 690.905 175.682 690.585C175.702 690.265 175.722 689.96 175.742 689.67H175.697L173.297 696H171.842L169.442 689.67H169.397C169.427 689.96 169.447 690.265 169.457 690.585C169.467 690.905 169.472 691.25 169.472 691.62V696H167.732V687.87H170.357L172.592 693.765L174.842 687.87H177.407ZM183.102 687.72C183.832 687.72 184.457 687.87 184.977 688.17C185.507 688.46 185.917 688.88 186.207 689.43C186.497 689.97 186.642 690.63 186.642 691.41V692.37H181.272C181.292 693.11 181.497 693.685 181.887 694.095C182.277 694.495 182.817 694.695 183.507 694.695C184.037 694.695 184.507 694.645 184.917 694.545C185.337 694.435 185.767 694.28 186.207 694.08V695.595C185.807 695.785 185.392 695.925 184.962 696.015C184.532 696.105 184.017 696.15 183.417 696.15C182.627 696.15 181.922 696 181.302 695.7C180.692 695.39 180.212 694.925 179.862 694.305C179.522 693.685 179.352 692.915 179.352 691.995C179.352 691.065 179.507 690.285 179.817 689.655C180.137 689.015 180.577 688.535 181.137 688.215C181.697 687.885 182.352 687.72 183.102 687.72ZM183.102 689.115C182.602 689.115 182.192 689.28 181.872 689.61C181.562 689.93 181.377 690.41 181.317 691.05H184.812C184.812 690.67 184.747 690.335 184.617 690.045C184.497 689.755 184.312 689.53 184.062 689.37C183.812 689.2 183.492 689.115 183.102 689.115ZM190.438 687.87V691.095H194.023V687.87H195.913V696H194.023V692.55H190.438V696H188.548V687.87H190.438ZM199.307 696H197.222L199.457 692.715C199.167 692.605 198.892 692.455 198.632 692.265C198.372 692.065 198.162 691.81 198.002 691.5C197.842 691.18 197.762 690.795 197.762 690.345C197.762 689.545 198.052 688.935 198.632 688.515C199.212 688.085 199.967 687.87 200.897 687.87H204.632V696H202.742V692.895H201.227L199.307 696ZM199.607 690.36C199.607 690.74 199.752 691.035 200.042 691.245C200.342 691.445 200.742 691.545 201.242 691.545H202.742V689.265H200.972C200.492 689.265 200.142 689.37 199.922 689.58C199.712 689.79 199.607 690.05 199.607 690.36ZM213.363 689.325H210.693V696H208.818V689.325H206.163V687.87H213.363V689.325ZM218.68 691.08C219.47 691.08 220.12 691.17 220.63 691.35C221.15 691.52 221.535 691.78 221.785 692.13C222.045 692.48 222.175 692.92 222.175 693.45C222.175 693.97 222.055 694.42 221.815 694.8C221.575 695.18 221.2 695.475 220.69 695.685C220.19 695.895 219.53 696 218.71 696H214.915V687.87H216.805V691.08H218.68ZM220.285 693.495C220.285 693.105 220.14 692.835 219.85 692.685C219.56 692.535 219.14 692.46 218.59 692.46H216.805V694.635H218.62C219.11 694.635 219.51 694.55 219.82 694.38C220.13 694.2 220.285 693.905 220.285 693.495ZM234.771 687.87V696H232.881V689.34H229.476V696H227.586V687.87H234.771ZM240.435 687.72C241.485 687.72 242.28 687.95 242.82 688.41C243.37 688.86 243.645 689.57 243.645 690.54V696H242.31L241.935 694.875H241.875C241.645 695.165 241.405 695.41 241.155 695.61C240.915 695.8 240.635 695.935 240.315 696.015C240.005 696.105 239.625 696.15 239.175 696.15C238.695 696.15 238.26 696.06 237.87 695.88C237.49 695.7 237.19 695.425 236.97 695.055C236.75 694.675 236.64 694.2 236.64 693.63C236.64 692.79 236.945 692.16 237.555 691.74C238.175 691.31 239.11 691.075 240.36 691.035L241.77 690.99V690.585C241.77 690.065 241.645 689.695 241.395 689.475C241.145 689.255 240.795 689.145 240.345 689.145C239.935 689.145 239.54 689.205 239.16 689.325C238.78 689.445 238.41 689.585 238.05 689.745L237.45 688.425C237.85 688.215 238.305 688.045 238.815 687.915C239.335 687.785 239.875 687.72 240.435 687.72ZM240.78 692.19C239.95 692.22 239.375 692.365 239.055 692.625C238.735 692.875 238.575 693.215 238.575 693.645C238.575 694.025 238.69 694.3 238.92 694.47C239.15 694.64 239.445 694.725 239.805 694.725C240.355 694.725 240.82 694.57 241.2 694.26C241.58 693.94 241.77 693.47 241.77 692.85V692.16L240.78 692.19ZM250.288 687.72C251.238 687.72 252.003 688.075 252.583 688.785C253.163 689.485 253.453 690.53 253.453 691.92C253.453 692.84 253.318 693.615 253.048 694.245C252.778 694.875 252.403 695.35 251.923 695.67C251.443 695.99 250.883 696.15 250.243 696.15C249.853 696.15 249.508 696.1 249.208 696C248.908 695.89 248.653 695.755 248.443 695.595C248.233 695.425 248.053 695.245 247.903 695.055H247.783C247.823 695.235 247.853 695.44 247.873 695.67C247.893 695.89 247.903 696.1 247.903 696.3V699.6H246.013V687.87H247.543L247.813 688.95H247.903C248.053 688.72 248.233 688.515 248.443 688.335C248.663 688.145 248.923 687.995 249.223 687.885C249.533 687.775 249.888 687.72 250.288 687.72ZM249.748 689.25C249.308 689.25 248.953 689.34 248.683 689.52C248.413 689.69 248.218 689.955 248.098 690.315C247.978 690.675 247.913 691.125 247.903 691.665V691.905C247.903 692.485 247.958 692.975 248.068 693.375C248.188 693.775 248.383 694.08 248.653 694.29C248.933 694.5 249.308 694.605 249.778 694.605C250.178 694.605 250.503 694.495 250.753 694.275C251.013 694.055 251.203 693.745 251.323 693.345C251.453 692.935 251.518 692.45 251.518 691.89C251.518 691.05 251.373 690.4 251.083 689.94C250.803 689.48 250.358 689.25 249.748 689.25ZM262.663 691.92C262.663 692.6 262.573 693.2 262.393 693.72C262.213 694.24 261.953 694.685 261.613 695.055C261.283 695.415 260.873 695.69 260.383 695.88C259.903 696.06 259.368 696.15 258.778 696.15C258.218 696.15 257.703 696.06 257.233 695.88C256.763 695.69 256.353 695.415 256.003 695.055C255.663 694.685 255.398 694.24 255.208 693.72C255.018 693.2 254.923 692.6 254.923 691.92C254.923 691.02 255.078 690.26 255.388 689.64C255.698 689.01 256.143 688.535 256.723 688.215C257.313 687.885 258.008 687.72 258.808 687.72C259.568 687.72 260.233 687.885 260.803 688.215C261.383 688.535 261.838 689.01 262.168 689.64C262.498 690.26 262.663 691.02 262.663 691.92ZM256.858 691.92C256.858 692.49 256.923 692.98 257.053 693.39C257.193 693.79 257.403 694.095 257.683 694.305C257.973 694.515 258.343 694.62 258.793 694.62C259.253 694.62 259.623 694.515 259.903 694.305C260.193 694.095 260.403 693.79 260.533 693.39C260.663 692.98 260.728 692.49 260.728 691.92C260.728 691.34 260.658 690.855 260.518 690.465C260.388 690.065 260.178 689.765 259.888 689.565C259.608 689.355 259.243 689.25 258.793 689.25C258.113 689.25 257.618 689.48 257.308 689.94C257.008 690.4 256.858 691.06 256.858 691.92ZM271.487 696H269.597V689.325H267.422C267.322 690.555 267.197 691.6 267.047 692.46C266.897 693.32 266.712 694.025 266.492 694.575C266.272 695.115 265.997 695.51 265.667 695.76C265.347 696.01 264.957 696.135 264.497 696.135C264.287 696.135 264.092 696.12 263.912 696.09C263.732 696.06 263.577 696.01 263.447 695.94V694.455C263.537 694.485 263.632 694.515 263.732 694.545C263.832 694.565 263.937 694.575 264.047 694.575C264.217 694.575 264.372 694.51 264.512 694.38C264.662 694.24 264.797 694.015 264.917 693.705C265.047 693.385 265.167 692.965 265.277 692.445C265.387 691.925 265.482 691.29 265.562 690.54C265.652 689.78 265.732 688.89 265.802 687.87H271.487V696ZM277.684 691.08C278.474 691.08 279.124 691.17 279.634 691.35C280.154 691.52 280.539 691.78 280.789 692.13C281.049 692.48 281.179 692.92 281.179 693.45C281.179 693.97 281.059 694.42 280.819 694.8C280.579 695.18 280.204 695.475 279.694 695.685C279.194 695.895 278.534 696 277.714 696H273.919V687.87H275.809V691.08H277.684ZM279.289 693.495C279.289 693.105 279.144 692.835 278.854 692.685C278.564 692.535 278.144 692.46 277.594 692.46H275.809V694.635H277.624C278.114 694.635 278.514 694.55 278.824 694.38C279.134 694.2 279.289 693.905 279.289 693.495Z" fill="white"/>
<path d="M119.847 158.52C118.867 158.52 117.997 158.7 117.237 159.06C116.477 159.42 115.827 159.94 115.287 160.62C114.767 161.3 114.367 162.12 114.087 163.08C113.827 164.04 113.697 165.12 113.697 166.32C113.697 167.94 113.917 169.33 114.357 170.49C114.797 171.63 115.467 172.51 116.367 173.13C117.287 173.75 118.437 174.06 119.817 174.06C120.737 174.06 121.617 173.97 122.457 173.79C123.317 173.59 124.217 173.33 125.157 173.01V176.28C124.277 176.64 123.387 176.9 122.487 177.06C121.607 177.22 120.587 177.3 119.427 177.3C117.227 177.3 115.407 176.85 113.967 175.95C112.527 175.03 111.457 173.75 110.757 172.11C110.057 170.45 109.707 168.51 109.707 166.29C109.707 164.67 109.927 163.19 110.367 161.85C110.827 160.51 111.477 159.35 112.317 158.37C113.177 157.39 114.237 156.63 115.497 156.09C116.757 155.55 118.207 155.28 119.847 155.28C120.927 155.28 121.987 155.41 123.027 155.67C124.087 155.91 125.077 156.25 125.997 156.69L124.677 159.84C123.917 159.5 123.127 159.2 122.307 158.94C121.507 158.66 120.687 158.52 119.847 158.52ZM148.759 160.74V177H145.279V168.12C145.279 167.46 145.289 166.81 145.309 166.17C145.349 165.53 145.389 164.92 145.429 164.34H145.339L140.539 177H137.629L132.829 164.34H132.739C132.799 164.92 132.839 165.53 132.859 166.17C132.879 166.81 132.889 167.5 132.889 168.24V177H129.409V160.74H134.659L139.129 172.53L143.629 160.74H148.759ZM160.149 160.44C161.609 160.44 162.859 160.74 163.899 161.34C164.959 161.92 165.779 162.76 166.359 163.86C166.939 164.94 167.229 166.26 167.229 167.82V169.74H156.489C156.529 171.22 156.939 172.37 157.719 173.19C158.499 173.99 159.579 174.39 160.959 174.39C162.019 174.39 162.959 174.29 163.779 174.09C164.619 173.87 165.479 173.56 166.359 173.16V176.19C165.559 176.57 164.729 176.85 163.869 177.03C163.009 177.21 161.979 177.3 160.779 177.3C159.199 177.3 157.789 177 156.549 176.4C155.329 175.78 154.369 174.85 153.669 173.61C152.989 172.37 152.649 170.83 152.649 168.99C152.649 167.13 152.959 165.57 153.579 164.31C154.219 163.03 155.099 162.07 156.219 161.43C157.339 160.77 158.649 160.44 160.149 160.44ZM160.149 163.23C159.149 163.23 158.329 163.56 157.689 164.22C157.069 164.86 156.699 165.82 156.579 167.1H163.569C163.569 166.34 163.439 165.67 163.179 165.09C162.939 164.51 162.569 164.06 162.069 163.74C161.569 163.4 160.929 163.23 160.149 163.23ZM174.82 160.74V167.19H181.99V160.74H185.77V177H181.99V170.1H174.82V177H171.04V160.74H174.82ZM197.12 160.44C199.22 160.44 200.81 160.9 201.89 161.82C202.99 162.72 203.54 164.14 203.54 166.08V177H200.87L200.12 174.75H200C199.54 175.33 199.06 175.82 198.56 176.22C198.08 176.6 197.52 176.87 196.88 177.03C196.26 177.21 195.5 177.3 194.6 177.3C193.64 177.3 192.77 177.12 191.99 176.76C191.23 176.4 190.63 175.85 190.19 175.11C189.75 174.35 189.53 173.4 189.53 172.26C189.53 170.58 190.14 169.32 191.36 168.48C192.6 167.62 194.47 167.15 196.97 167.07L199.79 166.98V166.17C199.79 165.13 199.54 164.39 199.04 163.95C198.54 163.51 197.84 163.29 196.94 163.29C196.12 163.29 195.33 163.41 194.57 163.65C193.81 163.89 193.07 164.17 192.35 164.49L191.15 161.85C191.95 161.43 192.86 161.09 193.88 160.83C194.92 160.57 196 160.44 197.12 160.44ZM197.81 169.38C196.15 169.44 195 169.73 194.36 170.25C193.72 170.75 193.4 171.43 193.4 172.29C193.4 173.05 193.63 173.6 194.09 173.94C194.55 174.28 195.14 174.45 195.86 174.45C196.96 174.45 197.89 174.14 198.65 173.52C199.41 172.88 199.79 171.94 199.79 170.7V169.32L197.81 169.38ZM229.795 160.74V177H226.015V163.68H219.205V177H215.425V160.74H229.795ZM241.124 160.44C243.224 160.44 244.814 160.9 245.894 161.82C246.994 162.72 247.544 164.14 247.544 166.08V177H244.874L244.124 174.75H244.004C243.544 175.33 243.064 175.82 242.564 176.22C242.084 176.6 241.524 176.87 240.884 177.03C240.264 177.21 239.504 177.3 238.604 177.3C237.644 177.3 236.774 177.12 235.994 176.76C235.234 176.4 234.634 175.85 234.194 175.11C233.754 174.35 233.534 173.4 233.534 172.26C233.534 170.58 234.144 169.32 235.364 168.48C236.604 167.62 238.474 167.15 240.974 167.07L243.794 166.98V166.17C243.794 165.13 243.544 164.39 243.044 163.95C242.544 163.51 241.844 163.29 240.944 163.29C240.124 163.29 239.334 163.41 238.574 163.65C237.814 163.89 237.074 164.17 236.354 164.49L235.154 161.85C235.954 161.43 236.864 161.09 237.884 160.83C238.924 160.57 240.004 160.44 241.124 160.44ZM241.814 169.38C240.154 169.44 239.004 169.73 238.364 170.25C237.724 170.75 237.404 171.43 237.404 172.29C237.404 173.05 237.634 173.6 238.094 173.94C238.554 174.28 239.144 174.45 239.864 174.45C240.964 174.45 241.894 174.14 242.654 173.52C243.414 172.88 243.794 171.94 243.794 170.7V169.32L241.814 169.38ZM260.831 160.44C262.731 160.44 264.261 161.15 265.421 162.57C266.581 163.97 267.161 166.06 267.161 168.84C267.161 170.68 266.891 172.23 266.351 173.49C265.811 174.75 265.061 175.7 264.101 176.34C263.141 176.98 262.021 177.3 260.741 177.3C259.961 177.3 259.271 177.2 258.671 177C258.071 176.78 257.561 176.51 257.141 176.19C256.721 175.85 256.361 175.49 256.061 175.11H255.821C255.901 175.47 255.961 175.88 256.001 176.34C256.041 176.78 256.061 177.2 256.061 177.6V184.2H252.281V160.74H255.341L255.881 162.9H256.061C256.361 162.44 256.721 162.03 257.141 161.67C257.581 161.29 258.101 160.99 258.701 160.77C259.321 160.55 260.031 160.44 260.831 160.44ZM259.751 163.5C258.871 163.5 258.161 163.68 257.621 164.04C257.081 164.38 256.691 164.91 256.451 165.63C256.211 166.35 256.081 167.25 256.061 168.33V168.81C256.061 169.97 256.171 170.95 256.391 171.75C256.631 172.55 257.021 173.16 257.561 173.58C258.121 174 258.871 174.21 259.811 174.21C260.611 174.21 261.261 173.99 261.761 173.55C262.281 173.11 262.661 172.49 262.901 171.69C263.161 170.87 263.291 169.9 263.291 168.78C263.291 167.1 263.001 165.8 262.421 164.88C261.861 163.96 260.971 163.5 259.751 163.5ZM285.58 168.84C285.58 170.2 285.4 171.4 285.04 172.44C284.68 173.48 284.16 174.37 283.48 175.11C282.82 175.83 282 176.38 281.02 176.76C280.06 177.12 278.99 177.3 277.81 177.3C276.69 177.3 275.66 177.12 274.72 176.76C273.78 176.38 272.96 175.83 272.26 175.11C271.58 174.37 271.05 173.48 270.67 172.44C270.29 171.4 270.1 170.2 270.1 168.84C270.1 167.04 270.41 165.52 271.03 164.28C271.65 163.02 272.54 162.07 273.7 161.43C274.88 160.77 276.27 160.44 277.87 160.44C279.39 160.44 280.72 160.77 281.86 161.43C283.02 162.07 283.93 163.02 284.59 164.28C285.25 165.52 285.58 167.04 285.58 168.84ZM273.97 168.84C273.97 169.98 274.1 170.96 274.36 171.78C274.64 172.58 275.06 173.19 275.62 173.61C276.2 174.03 276.94 174.24 277.84 174.24C278.76 174.24 279.5 174.03 280.06 173.61C280.64 173.19 281.06 172.58 281.32 171.78C281.58 170.96 281.71 169.98 281.71 168.84C281.71 167.68 281.57 166.71 281.29 165.93C281.03 165.13 280.61 164.53 280.03 164.13C279.47 163.71 278.74 163.5 277.84 163.5C276.48 163.5 275.49 163.96 274.87 164.88C274.27 165.8 273.97 167.12 273.97 168.84ZM303.228 177H299.448V163.65H295.098C294.898 166.11 294.648 168.2 294.348 169.92C294.048 171.64 293.678 173.05 293.238 174.15C292.798 175.23 292.248 176.02 291.588 176.52C290.948 177.02 290.168 177.27 289.248 177.27C288.828 177.27 288.438 177.24 288.078 177.18C287.718 177.12 287.408 177.02 287.148 176.88V173.91C287.328 173.97 287.518 174.03 287.718 174.09C287.918 174.13 288.128 174.15 288.348 174.15C288.688 174.15 288.998 174.02 289.278 173.76C289.578 173.48 289.848 173.03 290.088 172.41C290.348 171.77 290.588 170.93 290.808 169.89C291.028 168.85 291.218 167.58 291.378 166.08C291.558 164.56 291.718 162.78 291.858 160.74H303.228V177ZM310.011 177H305.841L310.311 170.43C309.731 170.21 309.181 169.91 308.661 169.53C308.141 169.13 307.721 168.62 307.401 168C307.081 167.36 306.921 166.59 306.921 165.69C306.921 164.09 307.501 162.87 308.661 162.03C309.821 161.17 311.331 160.74 313.191 160.74H320.661V177H316.881V170.79H313.851L310.011 177ZM310.611 165.72C310.611 166.48 310.901 167.07 311.481 167.49C312.081 167.89 312.881 168.09 313.881 168.09H316.881V163.53H313.341C312.381 163.53 311.681 163.74 311.241 164.16C310.821 164.58 310.611 165.1 310.611 165.72Z" fill="white"/>
<path d="M154.336 111.088V99.6416H163.714V111.088H160.604V102.175H157.446V111.088H154.336ZM170.147 99.6416C171.601 99.6416 172.686 99.9569 173.402 100.587C174.129 101.218 174.492 102.116 174.492 103.281C174.492 103.805 174.417 104.307 174.268 104.788C174.118 105.258 173.872 105.686 173.53 106.07C173.199 106.444 172.755 106.744 172.199 106.968C171.644 107.182 170.96 107.289 170.147 107.289H169.282V111.088H166.187V99.6416H170.147ZM170.083 102.143H169.282V104.772H169.891C170.158 104.772 170.404 104.729 170.628 104.644C170.863 104.547 171.05 104.398 171.189 104.195C171.328 103.981 171.398 103.703 171.398 103.361C171.398 102.998 171.291 102.704 171.077 102.479C170.863 102.255 170.532 102.143 170.083 102.143ZM187.026 105.349C187.026 106.236 186.919 107.043 186.706 107.77C186.492 108.486 186.161 109.106 185.712 109.629C185.263 110.153 184.686 110.554 183.98 110.832C183.286 111.11 182.447 111.249 181.463 111.249C180.501 111.249 179.668 111.11 178.962 110.832C178.268 110.554 177.69 110.153 177.231 109.629C176.782 109.106 176.445 108.486 176.221 107.77C176.007 107.043 175.9 106.231 175.9 105.333C175.9 104.147 176.098 103.115 176.493 102.239C176.889 101.352 177.498 100.668 178.321 100.187C179.144 99.7057 180.197 99.4652 181.479 99.4652C182.783 99.4652 183.841 99.711 184.654 100.203C185.477 100.684 186.075 101.368 186.449 102.255C186.834 103.131 187.026 104.163 187.026 105.349ZM179.155 105.349C179.155 106.033 179.229 106.626 179.379 107.128C179.539 107.62 179.791 108 180.133 108.267C180.475 108.534 180.918 108.668 181.463 108.668C182.03 108.668 182.479 108.534 182.81 108.267C183.152 108 183.398 107.62 183.547 107.128C183.697 106.626 183.772 106.033 183.772 105.349C183.772 104.312 183.601 103.495 183.259 102.896C182.917 102.298 182.324 101.998 181.479 101.998C180.923 101.998 180.475 102.137 180.133 102.415C179.791 102.682 179.539 103.067 179.379 103.569C179.229 104.061 179.155 104.654 179.155 105.349ZM197.461 99.6416V109.581H198.936V114.199H197.269V111.088H189.605V114.199H187.954V109.581H188.836C189.189 108.94 189.531 108.235 189.862 107.465C190.193 106.685 190.487 105.867 190.744 105.012C191 104.147 191.214 103.265 191.385 102.367C191.567 101.459 191.695 100.55 191.77 99.6416H197.461ZM193.229 101.149C193.175 101.758 193.068 102.431 192.908 103.169C192.748 103.895 192.55 104.644 192.315 105.413C192.09 106.183 191.834 106.931 191.545 107.658C191.267 108.374 190.974 109.015 190.664 109.581H195.746V101.149H193.229ZM204.161 99.6416C205.133 99.6416 205.946 99.7324 206.598 99.9141C207.26 100.096 207.757 100.4 208.089 100.828C208.431 101.245 208.602 101.801 208.602 102.495C208.602 102.944 208.521 103.345 208.361 103.698C208.201 104.04 207.966 104.328 207.656 104.563C207.356 104.788 206.982 104.937 206.533 105.012V105.092C206.993 105.167 207.405 105.306 207.768 105.509C208.131 105.702 208.42 105.985 208.634 106.359C208.847 106.733 208.954 107.219 208.954 107.818C208.954 108.513 208.789 109.106 208.457 109.597C208.137 110.078 207.672 110.447 207.062 110.704C206.464 110.96 205.748 111.088 204.914 111.088H200.81V99.6416H204.161ZM204.449 104.419C205.347 104.419 205.962 104.275 206.293 103.986C206.635 103.698 206.806 103.27 206.806 102.704C206.806 102.127 206.603 101.715 206.197 101.469C205.791 101.223 205.144 101.1 204.257 101.1H202.541V104.419H204.449ZM202.541 105.83V109.646H204.642C205.572 109.646 206.218 109.464 206.582 109.1C206.945 108.737 207.127 108.256 207.127 107.658C207.127 107.294 207.046 106.974 206.886 106.696C206.726 106.418 206.453 106.204 206.069 106.054C205.694 105.905 205.181 105.83 204.529 105.83H202.541ZM211.347 99.6416H212.934V105.702C212.934 105.969 212.929 106.263 212.918 106.583C212.918 106.904 212.913 107.219 212.902 107.529C212.891 107.839 212.875 108.117 212.854 108.363C212.843 108.598 212.833 108.774 212.822 108.892H212.886L218.882 99.6416H220.87V111.088H219.283V105.076C219.283 104.788 219.288 104.478 219.299 104.147C219.31 103.805 219.32 103.473 219.331 103.153C219.352 102.832 219.368 102.554 219.379 102.319C219.39 102.073 219.4 101.897 219.411 101.79H219.347L213.335 111.088H211.347V99.6416ZM226.837 105.189L222.572 99.6416H224.432L228.616 105.189V99.6416H230.252V105.189L234.436 99.6416H236.296L232.031 105.173L236.472 111.088H234.532L230.252 105.285V111.088H228.616V105.285L224.32 111.088H222.396L226.837 105.189ZM244.454 111.088H238.009V99.6416H244.454V101.117H239.741V104.387H244.165V105.846H239.741V109.597H244.454V111.088ZM255.863 111.088H254.132V105.862H248.665V111.088H246.933V99.6416H248.665V104.387H254.132V99.6416H255.863V111.088ZM258.942 99.6416H260.529V105.702C260.529 105.969 260.524 106.263 260.513 106.583C260.513 106.904 260.508 107.219 260.497 107.529C260.486 107.839 260.47 108.117 260.449 108.363C260.438 108.598 260.428 108.774 260.417 108.892H260.481L266.477 99.6416H268.465V111.088H266.878V105.076C266.878 104.788 266.883 104.478 266.894 104.147C266.904 103.805 266.915 103.473 266.926 103.153C266.947 102.832 266.963 102.554 266.974 102.319C266.985 102.073 266.995 101.897 267.006 101.79H266.942L260.93 111.088H258.942V99.6416ZM277.943 111.088H271.498V99.6416H277.943V101.117H273.229V104.387H277.654V105.846H273.229V109.597H277.943V111.088Z" fill="#092948"/>
<g clip-path="url(#clip1_318_1425)">
<path d="M206.186 59.807C206.186 57.2061 207.212 54.7116 209.038 52.8724C210.865 51.0332 213.342 50 215.925 50C218.508 50 220.985 51.0332 222.812 52.8724C224.638 54.7116 225.664 57.2061 225.664 59.807C225.664 62.408 224.638 64.9025 222.812 66.7417C220.985 68.5809 218.508 69.6141 215.925 69.6141C213.342 69.6141 210.865 68.5809 209.038 66.7417C207.212 64.9025 206.186 62.408 206.186 59.807ZM215.925 55.4484C216.52 55.4484 217.007 54.958 217.007 54.3587C217.007 53.7594 216.52 53.269 215.925 53.269C212.34 53.269 209.432 56.1975 209.432 59.807C209.432 60.4064 209.919 60.8967 210.514 60.8967C211.109 60.8967 211.596 60.4064 211.596 59.807C211.596 57.403 213.537 55.4484 215.925 55.4484ZM213.761 82.6902V71.5959C215.192 71.8593 216.658 71.8593 218.089 71.5959V82.6902C218.089 83.8956 217.122 84.8695 215.925 84.8695C214.728 84.8695 213.761 83.8956 213.761 82.6902Z" fill="white"/>
</g>
</g>
<defs>
<clipPath id="clip0_318_1425">
<rect width="430" height="932" rx="40" fill="white"/>
</clipPath>
<clipPath id="clip1_318_1425">
<rect width="21.7183" height="34.7493" fill="white" transform="translate(205.104 50)"/>
</clipPath>
</defs>
</svg>
