<svg width="430" height="932" viewBox="0 0 430 932" fill="none" xmlns="http://www.w3.org/2000/svg">
<rect width="430" height="932" rx="40" fill="#4BB1F1"/>
<path d="M38.7095 12.136L37.26 12.942V11.6225L39.3595 10.42H40.081V19H38.7095V12.136ZM44.8845 13.371C45.3568 13.371 45.7988 13.4902 46.2105 13.7285C46.6265 13.9625 46.9645 14.294 47.2245 14.723C47.4845 15.152 47.6145 15.6503 47.6145 16.218C47.6145 16.7857 47.4758 17.2905 47.1985 17.7325C46.9212 18.1745 46.5485 18.5233 46.0805 18.779C45.6168 19.0303 45.1055 19.156 44.5465 19.156C43.9745 19.156 43.4567 19.0325 42.993 18.7855C42.5337 18.5385 42.1675 18.1875 41.8945 17.7325C41.6215 17.2775 41.485 16.7423 41.485 16.127C41.485 15.4727 41.5955 14.9202 41.8165 14.4695C42.0375 14.0145 42.2953 13.605 42.59 13.241L44.865 10.42H46.4835L43.7145 13.7415C43.7968 13.6548 43.9377 13.5725 44.137 13.4945C44.3363 13.4122 44.5855 13.371 44.8845 13.371ZM44.5595 18.012C44.8802 18.012 45.1727 17.934 45.437 17.778C45.7057 17.6177 45.918 17.4053 46.074 17.141C46.2343 16.8723 46.3145 16.5755 46.3145 16.2505C46.3145 15.9255 46.2343 15.6308 46.074 15.3665C45.918 15.0978 45.7057 14.8855 45.437 14.7295C45.1727 14.5735 44.8802 14.4955 44.5595 14.4955C44.2345 14.4955 43.9377 14.5735 43.669 14.7295C43.4003 14.8855 43.1858 15.0978 43.0255 15.3665C42.8695 15.6308 42.7915 15.9255 42.7915 16.2505C42.7915 16.5755 42.8695 16.8723 43.0255 17.141C43.1858 17.4053 43.4003 17.6177 43.669 17.778C43.9377 17.934 44.2345 18.012 44.5595 18.012ZM50.0027 19.156C49.7384 19.156 49.5109 19.0628 49.3202 18.8765C49.1339 18.6858 49.0407 18.4562 49.0407 18.1875C49.0407 17.9188 49.1339 17.6892 49.3202 17.4985C49.5109 17.3078 49.7384 17.2125 50.0027 17.2125C50.2757 17.2125 50.5054 17.3078 50.6917 17.4985C50.8824 17.6892 50.9777 17.9188 50.9777 18.1875C50.9777 18.4562 50.8824 18.6858 50.6917 18.8765C50.5054 19.0628 50.2757 19.156 50.0027 19.156ZM50.0027 15.139C49.7384 15.139 49.5109 15.0458 49.3202 14.8595C49.1339 14.6688 49.0407 14.4392 49.0407 14.1705C49.0407 13.9018 49.1339 13.6722 49.3202 13.4815C49.5109 13.2908 49.7384 13.1955 50.0027 13.1955C50.2757 13.1955 50.5054 13.2908 50.6917 13.4815C50.8824 13.6722 50.9777 13.9018 50.9777 14.1705C50.9777 14.4392 50.8824 14.6688 50.6917 14.8595C50.5054 15.0458 50.2757 15.139 50.0027 15.139ZM52.1355 14.7165C52.1355 13.9582 52.2265 13.2995 52.4085 12.7405C52.5948 12.1815 52.8461 11.72 53.1625 11.356C53.4788 10.9877 53.8341 10.7147 54.2285 10.537C54.6228 10.355 55.0301 10.264 55.4505 10.264C55.8751 10.264 56.2846 10.355 56.679 10.537C57.0776 10.7147 57.433 10.9877 57.745 11.356C58.057 11.72 58.304 12.1815 58.486 12.7405C58.668 13.2995 58.759 13.9582 58.759 14.7165C58.759 15.5008 58.668 16.1725 58.486 16.7315C58.304 17.2905 58.057 17.7498 57.745 18.1095C57.433 18.4648 57.0776 18.7292 56.679 18.9025C56.2846 19.0715 55.8751 19.156 55.4505 19.156C55.0301 19.156 54.6228 19.0715 54.2285 18.9025C53.8341 18.7292 53.4788 18.4648 53.1625 18.1095C52.8461 17.7498 52.5948 17.2905 52.4085 16.7315C52.2265 16.1725 52.1355 15.5008 52.1355 14.7165ZM53.52 14.7165C53.52 15.4358 53.6045 16.036 53.7735 16.517C53.9468 16.9937 54.1786 17.349 54.469 17.583C54.7636 17.8127 55.0908 17.9275 55.4505 17.9275C55.8188 17.9275 56.146 17.8105 56.432 17.5765C56.7223 17.3425 56.952 16.9872 57.121 16.5105C57.29 16.0338 57.3745 15.4358 57.3745 14.7165C57.3745 14.0102 57.29 13.4187 57.121 12.942C56.952 12.4653 56.7223 12.1057 56.432 11.863C56.146 11.616 55.8188 11.4925 55.4505 11.4925C55.0908 11.4925 54.7636 11.616 54.469 11.863C54.1786 12.1057 53.9468 12.4675 53.7735 12.9485C53.6045 13.4252 53.52 14.0145 53.52 14.7165ZM64.4719 10.42V15.9775H65.4534V17.193H64.4719V19H63.1004V17.193H59.5124V16.0815L62.9444 10.42H64.4719ZM63.1004 15.9775V12.3505H63.0939L60.9294 15.9775H63.1004Z" fill="white"/>
<path d="M339.261 20C338.565 20 338 19.5383 338 18.9688L338 14.8437C338 14.2742 338.565 13.8125 339.261 13.8125C339.958 13.8125 340.522 14.2742 340.522 14.8437L340.522 18.9688C340.522 19.5383 339.958 20 339.261 20Z" fill="white"/>
<path d="M342.754 20C342.057 20 341.493 19.5383 341.493 18.9688L341.493 13.4688C341.493 12.8992 342.057 12.4375 342.754 12.4375C343.45 12.4375 344.015 12.8992 344.015 13.4688L344.015 18.9688C344.015 19.5383 343.45 20 342.754 20Z" fill="white"/>
<path d="M346.246 20C345.55 20 344.985 19.5383 344.985 18.9688V11.75C344.985 11.1805 345.55 10.7188 346.246 10.7188C346.943 10.7188 347.507 11.1805 347.507 11.75V18.9688C347.507 19.5383 346.943 20 346.246 20Z" fill="white"/>
<path d="M349.739 20C349.042 20 348.478 19.5383 348.478 18.9688V10.0312C348.478 9.46171 349.042 9 349.739 9C350.435 9 351 9.46171 351 10.0312V18.9688C351 19.5383 350.435 20 349.739 20Z" fill="white"/>
<path d="M356 14.3846C359.409 9.87179 367.25 9.87179 371 14.3846M367.5 16.6154C365.606 14.359 361.25 14.359 359.167 16.6154M363.333 19H362.5" stroke="white" stroke-width="2" stroke-linecap="round"/>
<path d="M377 12.6202C377 12.2856 377.312 12 377.717 12H388.283C388.688 12 389 12.2856 389 12.6202V18.3798C389 18.7144 388.688 19 388.283 19H377.717C377.312 19 377 18.7144 377 18.3798L377 12.6202Z" fill="white"/>
<path fill-rule="evenodd" clip-rule="evenodd" d="M376 11.7974C376 11.3672 376.402 11 376.924 11L390.54 11C391.063 11 391.465 11.3672 391.465 11.7974C391.465 12.2217 391.749 12.5934 392.159 12.7042L392.452 12.7836C392.71 12.8684 393 13.0707 393 13.3897V17.5446C393 17.8637 392.71 18.0659 392.452 18.1508L392.431 18.1577L392.243 18.2006C391.788 18.3043 391.465 18.7089 391.465 19.1757V19.2026C391.465 19.6328 391.063 20 390.54 20H376.924C376.402 20 376 19.6328 376 19.2026L376 11.7974Z" stroke="white"/>
<path d="M108.784 544V529.72H119.864V544H117.304V531.88H111.344V544H108.784ZM127.669 532.96C129.069 532.96 130.129 533.267 130.849 533.88C131.582 534.48 131.949 535.427 131.949 536.72V544H130.169L129.669 542.5H129.589C129.282 542.887 128.962 543.213 128.629 543.48C128.309 543.733 127.935 543.913 127.509 544.02C127.095 544.14 126.589 544.2 125.989 544.2C125.349 544.2 124.769 544.08 124.249 543.84C123.742 543.6 123.342 543.233 123.049 542.74C122.755 542.233 122.609 541.6 122.609 540.84C122.609 539.72 123.015 538.88 123.829 538.32C124.655 537.747 125.902 537.433 127.569 537.38L129.449 537.32V536.78C129.449 536.087 129.282 535.593 128.949 535.3C128.615 535.007 128.149 534.86 127.549 534.86C127.002 534.86 126.475 534.94 125.969 535.1C125.462 535.26 124.969 535.447 124.489 535.66L123.689 533.9C124.222 533.62 124.829 533.393 125.509 533.22C126.202 533.047 126.922 532.96 127.669 532.96ZM128.129 538.92C127.022 538.96 126.255 539.153 125.829 539.5C125.402 539.833 125.189 540.287 125.189 540.86C125.189 541.367 125.342 541.733 125.649 541.96C125.955 542.187 126.349 542.3 126.829 542.3C127.562 542.3 128.182 542.093 128.689 541.68C129.195 541.253 129.449 540.627 129.449 539.8V538.88L128.129 538.92ZM140.806 532.96C142.073 532.96 143.093 533.433 143.866 534.38C144.64 535.313 145.026 536.707 145.026 538.56C145.026 539.787 144.846 540.82 144.486 541.66C144.126 542.5 143.626 543.133 142.986 543.56C142.346 543.987 141.6 544.2 140.746 544.2C140.226 544.2 139.766 544.133 139.366 544C138.966 543.853 138.626 543.673 138.346 543.46C138.066 543.233 137.826 542.993 137.626 542.74H137.466C137.52 542.98 137.56 543.253 137.586 543.56C137.613 543.853 137.626 544.133 137.626 544.4V548.8H135.106V533.16H137.146L137.506 534.6H137.626C137.826 534.293 138.066 534.02 138.346 533.78C138.64 533.527 138.986 533.327 139.386 533.18C139.8 533.033 140.273 532.96 140.806 532.96ZM140.086 535C139.5 535 139.026 535.12 138.666 535.36C138.306 535.587 138.046 535.94 137.886 536.42C137.726 536.9 137.64 537.5 137.626 538.22V538.54C137.626 539.313 137.7 539.967 137.846 540.5C138.006 541.033 138.266 541.44 138.626 541.72C139 542 139.5 542.14 140.126 542.14C140.66 542.14 141.093 541.993 141.426 541.7C141.773 541.407 142.026 540.993 142.186 540.46C142.36 539.913 142.446 539.267 142.446 538.52C142.446 537.4 142.253 536.533 141.866 535.92C141.493 535.307 140.9 535 140.086 535ZM157.306 538.56C157.306 539.467 157.186 540.267 156.946 540.96C156.706 541.653 156.359 542.247 155.906 542.74C155.466 543.22 154.919 543.587 154.266 543.84C153.626 544.08 152.913 544.2 152.126 544.2C151.379 544.2 150.693 544.08 150.066 543.84C149.439 543.587 148.893 543.22 148.426 542.74C147.973 542.247 147.619 541.653 147.366 540.96C147.113 540.267 146.986 539.467 146.986 538.56C146.986 537.36 147.193 536.347 147.606 535.52C148.019 534.68 148.613 534.047 149.386 533.62C150.173 533.18 151.099 532.96 152.166 532.96C153.179 532.96 154.066 533.18 154.826 533.62C155.599 534.047 156.206 534.68 156.646 535.52C157.086 536.347 157.306 537.36 157.306 538.56ZM149.566 538.56C149.566 539.32 149.653 539.973 149.826 540.52C150.013 541.053 150.293 541.46 150.666 541.74C151.053 542.02 151.546 542.16 152.146 542.16C152.759 542.16 153.253 542.02 153.626 541.74C154.013 541.46 154.293 541.053 154.466 540.52C154.639 539.973 154.726 539.32 154.726 538.56C154.726 537.787 154.633 537.14 154.446 536.62C154.273 536.087 153.993 535.687 153.606 535.42C153.233 535.14 152.746 535 152.146 535C151.239 535 150.579 535.307 150.166 535.92C149.766 536.533 149.566 537.413 149.566 538.56ZM169.071 544H166.551V535.1H163.651C163.518 536.74 163.351 538.133 163.151 539.28C162.951 540.427 162.704 541.367 162.411 542.1C162.118 542.82 161.751 543.347 161.311 543.68C160.884 544.013 160.364 544.18 159.751 544.18C159.471 544.18 159.211 544.16 158.971 544.12C158.731 544.08 158.524 544.013 158.351 543.92V541.94C158.471 541.98 158.598 542.02 158.731 542.06C158.864 542.087 159.004 542.1 159.151 542.1C159.378 542.1 159.584 542.013 159.771 541.84C159.971 541.653 160.151 541.353 160.311 540.94C160.484 540.513 160.644 539.953 160.791 539.26C160.938 538.567 161.064 537.72 161.171 536.72C161.291 535.707 161.398 534.52 161.491 533.16H169.071V544ZM177.333 537.44C178.387 537.44 179.253 537.56 179.933 537.8C180.627 538.027 181.14 538.373 181.473 538.84C181.82 539.307 181.993 539.893 181.993 540.6C181.993 541.293 181.833 541.893 181.513 542.4C181.193 542.907 180.693 543.3 180.013 543.58C179.347 543.86 178.467 544 177.373 544H172.313V533.16H174.833V537.44H177.333ZM179.473 540.66C179.473 540.14 179.28 539.78 178.893 539.58C178.507 539.38 177.947 539.28 177.213 539.28H174.833V542.18H177.253C177.907 542.18 178.44 542.067 178.853 541.84C179.267 541.6 179.473 541.207 179.473 540.66ZM188.588 537.5C188.588 535.9 188.768 534.547 189.128 533.44C189.501 532.32 190.081 531.427 190.868 530.76C191.655 530.093 192.681 529.64 193.948 529.4C194.708 529.253 195.468 529.127 196.228 529.02C197.001 528.913 197.761 528.807 198.508 528.7L198.848 530.9C198.501 530.94 198.121 530.993 197.708 531.06C197.308 531.113 196.895 531.167 196.468 531.22C196.055 531.273 195.655 531.333 195.268 531.4C194.881 531.467 194.535 531.52 194.228 531.56C193.761 531.653 193.341 531.787 192.968 531.96C192.608 532.12 192.301 532.353 192.048 532.66C191.795 532.953 191.595 533.34 191.448 533.82C191.315 534.287 191.228 534.873 191.188 535.58H191.328C191.501 535.327 191.735 535.073 192.028 534.82C192.335 534.567 192.708 534.353 193.148 534.18C193.588 533.993 194.088 533.9 194.648 533.9C195.541 533.9 196.301 534.087 196.928 534.46C197.568 534.833 198.055 535.38 198.388 536.1C198.721 536.807 198.888 537.673 198.888 538.7C198.888 539.913 198.668 540.933 198.228 541.76C197.788 542.573 197.181 543.187 196.408 543.6C195.635 544 194.735 544.2 193.708 544.2C192.935 544.2 192.228 544.053 191.588 543.76C190.961 543.467 190.421 543.04 189.968 542.48C189.515 541.907 189.168 541.207 188.928 540.38C188.701 539.54 188.588 538.58 188.588 537.5ZM193.868 542.14C194.361 542.14 194.788 542.04 195.148 541.84C195.508 541.627 195.788 541.287 195.988 540.82C196.188 540.34 196.288 539.707 196.288 538.92C196.288 537.973 196.121 537.22 195.788 536.66C195.455 536.1 194.895 535.82 194.108 535.82C193.615 535.82 193.161 535.933 192.748 536.16C192.348 536.387 192.008 536.647 191.728 536.94C191.448 537.22 191.255 537.46 191.148 537.66C191.148 538.233 191.188 538.787 191.268 539.32C191.361 539.853 191.508 540.333 191.708 540.76C191.921 541.187 192.201 541.527 192.548 541.78C192.908 542.02 193.348 542.14 193.868 542.14ZM201.474 544V533.16H203.994V537.44H205.934C206.987 537.44 207.847 537.56 208.514 537.8C209.194 538.027 209.694 538.373 210.014 538.84C210.347 539.307 210.514 539.893 210.514 540.6C210.514 541.293 210.36 541.893 210.054 542.4C209.747 542.907 209.26 543.3 208.594 543.58C207.927 543.86 207.054 544 205.974 544H201.474ZM205.814 542.18C206.454 542.18 206.98 542.067 207.394 541.84C207.807 541.6 208.014 541.207 208.014 540.66C208.014 540.14 207.82 539.78 207.434 539.58C207.06 539.38 206.514 539.28 205.794 539.28H203.994V542.18H205.814ZM212.174 544V533.16H214.694V544H212.174ZM227.098 544H224.578V535.1H221.678C221.545 536.74 221.378 538.133 221.178 539.28C220.978 540.427 220.732 541.367 220.438 542.1C220.145 542.82 219.778 543.347 219.338 543.68C218.912 544.013 218.392 544.18 217.778 544.18C217.498 544.18 217.238 544.16 216.998 544.12C216.758 544.08 216.552 544.013 216.378 543.92V541.94C216.498 541.98 216.625 542.02 216.758 542.06C216.892 542.087 217.032 542.1 217.178 542.1C217.405 542.1 217.612 542.013 217.798 541.84C217.998 541.653 218.178 541.353 218.338 540.94C218.512 540.513 218.672 539.953 218.818 539.26C218.965 538.567 219.092 537.72 219.198 536.72C219.318 535.707 219.425 534.52 219.518 533.16H227.098V544ZM233.486 533.16H236.226L238.386 539.28C238.48 539.547 238.56 539.807 238.626 540.06C238.706 540.3 238.773 540.547 238.826 540.8C238.88 541.053 238.92 541.307 238.946 541.56H239.026C239.08 541.227 239.16 540.86 239.266 540.46C239.386 540.06 239.506 539.667 239.626 539.28L241.706 533.16H244.426L239.806 545.44C239.54 546.147 239.2 546.753 238.786 547.26C238.386 547.767 237.906 548.147 237.346 548.4C236.8 548.667 236.18 548.8 235.486 548.8C235.166 548.8 234.88 548.78 234.626 548.74C234.386 548.713 234.173 548.68 233.986 548.64V546.64C234.133 546.667 234.306 546.693 234.506 546.72C234.72 546.747 234.94 546.76 235.166 546.76C235.58 546.76 235.933 546.673 236.226 546.5C236.533 546.34 236.786 546.113 236.986 545.82C237.2 545.527 237.373 545.2 237.506 544.84L237.826 543.96L233.486 533.16ZM250.424 544.2C249.397 544.2 248.504 544.007 247.744 543.62C246.997 543.22 246.417 542.613 246.004 541.8C245.604 540.973 245.404 539.92 245.404 538.64C245.404 537.307 245.624 536.227 246.064 535.4C246.517 534.56 247.137 533.947 247.924 533.56C248.71 533.16 249.61 532.96 250.624 532.96C251.304 532.96 251.91 533.027 252.444 533.16C252.977 533.293 253.43 533.453 253.804 533.64L253.064 535.62C252.65 535.46 252.237 535.327 251.824 535.22C251.41 535.1 251.01 535.04 250.624 535.04C250.024 535.04 249.524 535.173 249.124 535.44C248.737 535.707 248.45 536.107 248.264 536.64C248.077 537.16 247.984 537.82 247.984 538.62C247.984 539.393 248.077 540.04 248.264 540.56C248.464 541.08 248.757 541.473 249.144 541.74C249.53 541.993 250.01 542.12 250.584 542.12C251.197 542.12 251.737 542.047 252.204 541.9C252.67 541.753 253.11 541.553 253.524 541.3V543.48C253.11 543.733 252.664 543.913 252.184 544.02C251.717 544.14 251.13 544.2 250.424 544.2ZM265.643 533.16V544H263.123V535.12H258.583V544H256.063V533.16H265.643ZM273.236 532.96C274.209 532.96 275.043 533.16 275.736 533.56C276.443 533.947 276.989 534.507 277.376 535.24C277.763 535.96 277.956 536.84 277.956 537.88V539.16H270.796C270.823 540.147 271.096 540.913 271.616 541.46C272.136 541.993 272.856 542.26 273.776 542.26C274.483 542.26 275.109 542.193 275.656 542.06C276.216 541.913 276.789 541.707 277.376 541.44V543.46C276.843 543.713 276.289 543.9 275.716 544.02C275.143 544.14 274.456 544.2 273.656 544.2C272.603 544.2 271.663 544 270.836 543.6C270.023 543.187 269.383 542.567 268.916 541.74C268.463 540.913 268.236 539.887 268.236 538.66C268.236 537.42 268.443 536.38 268.856 535.54C269.283 534.687 269.869 534.047 270.616 533.62C271.363 533.18 272.236 532.96 273.236 532.96ZM273.236 534.82C272.569 534.82 272.023 535.04 271.596 535.48C271.183 535.907 270.936 536.547 270.856 537.4H275.516C275.516 536.893 275.429 536.447 275.256 536.06C275.096 535.673 274.849 535.373 274.516 535.16C274.183 534.933 273.756 534.82 273.236 534.82ZM296.097 533.16V544H280.497V533.16H283.017V542.04H287.037V533.16H289.557V542.04H293.577V533.16H296.097ZM301.865 533.16V537.46H306.645V533.16H309.165V544H306.645V539.4H301.865V544H299.345V533.16H301.865ZM322.091 538.56C322.091 539.467 321.971 540.267 321.731 540.96C321.491 541.653 321.144 542.247 320.691 542.74C320.251 543.22 319.704 543.587 319.051 543.84C318.411 544.08 317.698 544.2 316.911 544.2C316.164 544.2 315.478 544.08 314.851 543.84C314.224 543.587 313.678 543.22 313.211 542.74C312.758 542.247 312.404 541.653 312.151 540.96C311.898 540.267 311.771 539.467 311.771 538.56C311.771 537.36 311.978 536.347 312.391 535.52C312.804 534.68 313.398 534.047 314.171 533.62C314.958 533.18 315.884 532.96 316.951 532.96C317.964 532.96 318.851 533.18 319.611 533.62C320.384 534.047 320.991 534.68 321.431 535.52C321.871 536.347 322.091 537.36 322.091 538.56ZM314.351 538.56C314.351 539.32 314.438 539.973 314.611 540.52C314.798 541.053 315.078 541.46 315.451 541.74C315.838 542.02 316.331 542.16 316.931 542.16C317.544 542.16 318.038 542.02 318.411 541.74C318.798 541.46 319.078 541.053 319.251 540.52C319.424 539.973 319.511 539.32 319.511 538.56C319.511 537.787 319.418 537.14 319.231 536.62C319.058 536.087 318.778 535.687 318.391 535.42C318.018 535.14 317.531 535 316.931 535C316.024 535 315.364 535.307 314.951 535.92C314.551 536.533 314.351 537.413 314.351 538.56ZM176.71 564.56C176.71 565.467 176.59 566.267 176.35 566.96C176.11 567.653 175.763 568.247 175.31 568.74C174.87 569.22 174.323 569.587 173.67 569.84C173.03 570.08 172.317 570.2 171.53 570.2C170.783 570.2 170.097 570.08 169.47 569.84C168.843 569.587 168.297 569.22 167.83 568.74C167.377 568.247 167.023 567.653 166.77 566.96C166.517 566.267 166.39 565.467 166.39 564.56C166.39 563.36 166.597 562.347 167.01 561.52C167.423 560.68 168.017 560.047 168.79 559.62C169.577 559.18 170.503 558.96 171.57 558.96C172.583 558.96 173.47 559.18 174.23 559.62C175.003 560.047 175.61 560.68 176.05 561.52C176.49 562.347 176.71 563.36 176.71 564.56ZM168.97 564.56C168.97 565.32 169.057 565.973 169.23 566.52C169.417 567.053 169.697 567.46 170.07 567.74C170.457 568.02 170.95 568.16 171.55 568.16C172.163 568.16 172.657 568.02 173.03 567.74C173.417 567.46 173.697 567.053 173.87 566.52C174.043 565.973 174.13 565.32 174.13 564.56C174.13 563.787 174.037 563.14 173.85 562.62C173.677 562.087 173.397 561.687 173.01 561.42C172.637 561.14 172.15 561 171.55 561C170.643 561 169.983 561.307 169.57 561.92C169.17 562.533 168.97 563.413 168.97 564.56ZM178.695 563.5C178.695 561.9 178.875 560.547 179.235 559.44C179.609 558.32 180.189 557.427 180.975 556.76C181.762 556.093 182.789 555.64 184.055 555.4C184.815 555.253 185.575 555.127 186.335 555.02C187.109 554.913 187.869 554.807 188.615 554.7L188.955 556.9C188.609 556.94 188.229 556.993 187.815 557.06C187.415 557.113 187.002 557.167 186.575 557.22C186.162 557.273 185.762 557.333 185.375 557.4C184.989 557.467 184.642 557.52 184.335 557.56C183.869 557.653 183.449 557.787 183.075 557.96C182.715 558.12 182.409 558.353 182.155 558.66C181.902 558.953 181.702 559.34 181.555 559.82C181.422 560.287 181.335 560.873 181.295 561.58H181.435C181.609 561.327 181.842 561.073 182.135 560.82C182.442 560.567 182.815 560.353 183.255 560.18C183.695 559.993 184.195 559.9 184.755 559.9C185.649 559.9 186.409 560.087 187.035 560.46C187.675 560.833 188.162 561.38 188.495 562.1C188.829 562.807 188.995 563.673 188.995 564.7C188.995 565.913 188.775 566.933 188.335 567.76C187.895 568.573 187.289 569.187 186.515 569.6C185.742 570 184.842 570.2 183.815 570.2C183.042 570.2 182.335 570.053 181.695 569.76C181.069 569.467 180.529 569.04 180.075 568.48C179.622 567.907 179.275 567.207 179.035 566.38C178.809 565.54 178.695 564.58 178.695 563.5ZM183.975 568.14C184.469 568.14 184.895 568.04 185.255 567.84C185.615 567.627 185.895 567.287 186.095 566.82C186.295 566.34 186.395 565.707 186.395 564.92C186.395 563.973 186.229 563.22 185.895 562.66C185.562 562.1 185.002 561.82 184.215 561.82C183.722 561.82 183.269 561.933 182.855 562.16C182.455 562.387 182.115 562.647 181.835 562.94C181.555 563.22 181.362 563.46 181.255 563.66C181.255 564.233 181.295 564.787 181.375 565.32C181.469 565.853 181.615 566.333 181.815 566.76C182.029 567.187 182.309 567.527 182.655 567.78C183.015 568.02 183.455 568.14 183.975 568.14ZM194.101 559.16V563.46H198.881V559.16H201.401V570H198.881V565.4H194.101V570H191.581V559.16H194.101ZM214.327 564.56C214.327 565.467 214.207 566.267 213.967 566.96C213.727 567.653 213.381 568.247 212.927 568.74C212.487 569.22 211.941 569.587 211.287 569.84C210.647 570.08 209.934 570.2 209.147 570.2C208.401 570.2 207.714 570.08 207.087 569.84C206.461 569.587 205.914 569.22 205.447 568.74C204.994 568.247 204.641 567.653 204.387 566.96C204.134 566.267 204.007 565.467 204.007 564.56C204.007 563.36 204.214 562.347 204.627 561.52C205.041 560.68 205.634 560.047 206.407 559.62C207.194 559.18 208.121 558.96 209.187 558.96C210.201 558.96 211.087 559.18 211.847 559.62C212.621 560.047 213.227 560.68 213.667 561.52C214.107 562.347 214.327 563.36 214.327 564.56ZM206.587 564.56C206.587 565.32 206.674 565.973 206.847 566.52C207.034 567.053 207.314 567.46 207.687 567.74C208.074 568.02 208.567 568.16 209.167 568.16C209.781 568.16 210.274 568.02 210.647 567.74C211.034 567.46 211.314 567.053 211.487 566.52C211.661 565.973 211.747 565.32 211.747 564.56C211.747 563.787 211.654 563.14 211.467 562.62C211.294 562.087 211.014 561.687 210.627 561.42C210.254 561.14 209.767 561 209.167 561C208.261 561 207.601 561.307 207.187 561.92C206.787 562.533 206.587 563.413 206.587 564.56ZM226.213 561.96C226.213 562.573 226.019 563.08 225.633 563.48C225.259 563.88 224.726 564.14 224.033 564.26V564.34C224.766 564.433 225.366 564.687 225.833 565.1C226.313 565.5 226.553 566.06 226.553 566.78C226.553 567.247 226.459 567.68 226.273 568.08C226.099 568.467 225.826 568.807 225.453 569.1C225.093 569.38 224.619 569.6 224.033 569.76C223.446 569.92 222.739 570 221.913 570H216.933V559.16H221.893C222.719 559.16 223.453 559.247 224.093 559.42C224.746 559.593 225.259 559.887 225.633 560.3C226.019 560.7 226.213 561.253 226.213 561.96ZM223.933 566.68C223.933 566.187 223.739 565.833 223.353 565.62C222.979 565.393 222.413 565.28 221.653 565.28H219.453V568.18H221.713C222.393 568.18 222.933 568.067 223.333 567.84C223.733 567.613 223.933 567.227 223.933 566.68ZM223.653 562.18C223.653 561.78 223.499 561.487 223.193 561.3C222.886 561.113 222.419 561.02 221.793 561.02H219.453V563.46H221.453C222.173 563.46 222.719 563.36 223.093 563.16C223.466 562.96 223.653 562.633 223.653 562.18ZM238.28 570H235.76V561.1H232.86C232.727 562.74 232.56 564.133 232.36 565.28C232.16 566.427 231.913 567.367 231.62 568.1C231.327 568.82 230.96 569.347 230.52 569.68C230.093 570.013 229.573 570.18 228.96 570.18C228.68 570.18 228.42 570.16 228.18 570.12C227.94 570.08 227.733 570.013 227.56 569.92V567.94C227.68 567.98 227.807 568.02 227.94 568.06C228.073 568.087 228.213 568.1 228.36 568.1C228.587 568.1 228.793 568.013 228.98 567.84C229.18 567.653 229.36 567.353 229.52 566.94C229.693 566.513 229.853 565.953 230 565.26C230.147 564.567 230.273 563.72 230.38 562.72C230.5 561.707 230.607 560.52 230.7 559.16H238.28V570ZM245.882 558.96C246.856 558.96 247.689 559.16 248.382 559.56C249.089 559.947 249.636 560.507 250.022 561.24C250.409 561.96 250.602 562.84 250.602 563.88V565.16H243.442C243.469 566.147 243.742 566.913 244.262 567.46C244.782 567.993 245.502 568.26 246.422 568.26C247.129 568.26 247.756 568.193 248.302 568.06C248.862 567.913 249.436 567.707 250.022 567.44V569.46C249.489 569.713 248.936 569.9 248.362 570.02C247.789 570.14 247.102 570.2 246.302 570.2C245.249 570.2 244.309 570 243.482 569.6C242.669 569.187 242.029 568.567 241.562 567.74C241.109 566.913 240.882 565.887 240.882 564.66C240.882 563.42 241.089 562.38 241.502 561.54C241.929 560.687 242.516 560.047 243.262 559.62C244.009 559.18 244.882 558.96 245.882 558.96ZM245.882 560.82C245.216 560.82 244.669 561.04 244.242 561.48C243.829 561.907 243.582 562.547 243.502 563.4H248.162C248.162 562.893 248.076 562.447 247.902 562.06C247.742 561.673 247.496 561.373 247.162 561.16C246.829 560.933 246.402 560.82 245.882 560.82ZM255.663 559.16V563.46H260.443V559.16H262.963V570H260.443V565.4H255.663V570H253.143V559.16H255.663Z" fill="white"/>
<path fill-rule="evenodd" clip-rule="evenodd" d="M254.083 437.657C255.219 438.794 255.858 440.336 255.858 441.943C255.858 443.551 255.219 445.092 254.083 446.229L208.642 491.67C208.042 492.27 207.329 492.747 206.544 493.072C205.759 493.397 204.918 493.564 204.069 493.564C203.22 493.564 202.379 493.397 201.594 493.072C200.809 492.747 200.096 492.27 199.496 491.67L176.919 469.097C176.34 468.538 175.878 467.869 175.561 467.129C175.243 466.39 175.076 465.594 175.069 464.789C175.062 463.984 175.215 463.186 175.52 462.441C175.825 461.696 176.275 461.019 176.844 460.45C177.413 459.88 178.09 459.43 178.835 459.125C179.58 458.82 180.379 458.667 181.184 458.674C181.989 458.681 182.784 458.848 183.524 459.166C184.263 459.484 184.932 459.946 185.492 460.525L204.067 479.1L245.506 437.657C246.069 437.094 246.738 436.647 247.474 436.342C248.209 436.037 248.998 435.88 249.794 435.88C250.591 435.88 251.38 436.037 252.115 436.342C252.851 436.647 253.52 437.094 254.083 437.657Z" fill="white"/>
<path d="M375.501 85.7748L367.538 93.7373C367.24 94.0352 366.861 94.1842 366.401 94.1842C365.94 94.1842 365.561 94.0352 365.263 93.7373C364.965 93.4394 364.816 93.0602 364.816 92.5998C364.816 92.1394 364.965 91.7602 365.263 91.4623L373.226 83.4998L365.263 75.5373C364.965 75.2394 364.816 74.8602 364.816 74.3998C364.816 73.9394 364.965 73.5602 365.263 73.2623C365.561 72.9644 365.94 72.8154 366.401 72.8154C366.861 72.8154 367.24 72.9644 367.538 73.2623L375.501 81.2248L383.463 73.2623C383.761 72.9644 384.14 72.8154 384.601 72.8154C385.061 72.8154 385.44 72.9644 385.738 73.2623C386.036 73.5602 386.185 73.9394 386.185 74.3998C386.185 74.8602 386.036 75.2394 385.738 75.5373L377.776 83.4998L385.738 91.4623C386.036 91.7602 386.185 92.1394 386.185 92.5998C386.185 93.0602 386.036 93.4394 385.738 93.7373C385.44 94.0352 385.061 94.1842 384.601 94.1842C384.14 94.1842 383.761 94.0352 383.463 93.7373L375.501 85.7748Z" fill="white"/>
</svg>
