<svg width="430" height="932" viewBox="0 0 430 932" fill="none" xmlns="http://www.w3.org/2000/svg">
<g clip-path="url(#clip0_318_1397)">
<rect width="430" height="932" rx="40" fill="#4BB1F1"/>
<path d="M1 363C1 324.34 32.3401 293 71 293H361C399.66 293 431 324.34 431 363V932H1V363Z" fill="white"/>
<path d="M102.124 862H101.37V857.476H96.0789V862H95.3249V852.718H96.0789V856.8H101.37V852.718H102.124V862ZM107.007 854.967C107.787 854.967 108.368 855.158 108.749 855.539C109.131 855.92 109.321 856.527 109.321 857.359V862H108.762L108.632 860.83H108.593C108.429 861.09 108.238 861.32 108.021 861.519C107.813 861.71 107.558 861.861 107.254 861.974C106.96 862.078 106.596 862.13 106.162 862.13C105.729 862.13 105.352 862.056 105.031 861.909C104.711 861.753 104.464 861.532 104.29 861.246C104.117 860.96 104.03 860.609 104.03 860.193C104.03 859.508 104.312 858.988 104.875 858.633C105.439 858.269 106.258 858.061 107.332 858.009L108.593 857.957V857.463C108.593 856.778 108.455 856.297 108.177 856.02C107.909 855.734 107.506 855.591 106.968 855.591C106.613 855.591 106.271 855.639 105.941 855.734C105.621 855.821 105.296 855.946 104.966 856.111L104.732 855.526C105.053 855.361 105.408 855.227 105.798 855.123C106.188 855.019 106.591 854.967 107.007 854.967ZM107.41 858.555C106.535 858.598 105.881 858.754 105.447 859.023C105.014 859.283 104.797 859.677 104.797 860.206C104.797 860.631 104.932 860.956 105.2 861.181C105.469 861.398 105.833 861.506 106.292 861.506C107.029 861.506 107.592 861.302 107.982 860.895C108.381 860.488 108.585 859.916 108.593 859.179V858.503L107.41 858.555ZM118.93 855.084L115.953 858.464L119.164 862H118.293L115.16 858.503V862H114.458V858.503L111.325 862H110.454L113.665 858.464L110.675 855.084H111.52L114.458 858.451V855.084H115.16V858.451L118.098 855.084H118.93ZM127.258 855.084V862H126.569V857.138C126.569 856.956 126.574 856.778 126.582 856.605C126.591 856.423 126.6 856.237 126.608 856.046H126.582L124.125 862H123.488L121.057 856.033H121.018C121.036 856.224 121.044 856.41 121.044 856.592C121.044 856.774 121.044 856.969 121.044 857.177V862H120.368V855.084H121.369L123.8 861.09L126.257 855.084H127.258ZM130.059 859.907C130.059 859.994 130.059 860.093 130.059 860.206C130.059 860.319 130.055 860.436 130.046 860.557C130.046 860.67 130.042 860.782 130.033 860.895C130.025 860.999 130.02 861.099 130.02 861.194L134.063 855.084H134.973V862H134.271V857.177C134.271 857.047 134.271 856.904 134.271 856.748C134.271 856.592 134.276 856.436 134.284 856.28C134.293 856.124 134.297 855.99 134.297 855.877L130.254 862H129.357V855.084H130.059V859.907ZM141.739 855.721H139.412V862H138.684V855.721H136.37V855.084H141.739V855.721ZM145.631 854.954C146.229 854.954 146.723 855.093 147.113 855.37C147.511 855.639 147.81 856.011 148.01 856.488C148.218 856.965 148.322 857.515 148.322 858.139V858.633H143.382C143.382 859.56 143.594 860.267 144.019 860.752C144.452 861.237 145.063 861.48 145.852 861.48C146.285 861.48 146.662 861.445 146.983 861.376C147.303 861.307 147.654 861.185 148.036 861.012V861.688C147.689 861.844 147.347 861.957 147.009 862.026C146.671 862.095 146.276 862.13 145.826 862.13C145.141 862.13 144.556 861.987 144.071 861.701C143.594 861.415 143.23 861.008 142.979 860.479C142.736 859.942 142.615 859.318 142.615 858.607C142.615 857.896 142.732 857.268 142.966 856.722C143.2 856.176 143.542 855.747 143.993 855.435C144.443 855.114 144.989 854.954 145.631 854.954ZM145.631 855.578C144.989 855.578 144.474 855.79 144.084 856.215C143.694 856.631 143.464 857.233 143.395 858.022H147.555C147.555 857.537 147.485 857.112 147.347 856.748C147.208 856.384 146.996 856.098 146.71 855.89C146.432 855.682 146.073 855.578 145.631 855.578ZM150.918 860.492L149.566 863.898H148.942L149.904 860.492H150.918ZM156.629 857.437C156.629 857.992 156.763 858.395 157.032 858.646C157.309 858.897 157.717 859.023 158.254 859.023C158.713 859.023 159.129 858.949 159.502 858.802C159.883 858.655 160.252 858.46 160.607 858.217V855.084H161.335V862H160.607V858.828C160.226 859.088 159.844 859.292 159.463 859.439C159.09 859.578 158.644 859.647 158.124 859.647C157.396 859.647 156.841 859.461 156.46 859.088C156.079 858.707 155.888 858.182 155.888 857.515V855.084H156.629V857.437ZM168.094 855.721H165.767V862H165.039V855.721H162.725V855.084H168.094V855.721ZM175.158 858.542C175.158 859.079 175.089 859.569 174.95 860.011C174.82 860.444 174.621 860.821 174.352 861.142C174.092 861.454 173.767 861.697 173.377 861.87C172.987 862.043 172.541 862.13 172.038 862.13C171.561 862.13 171.132 862.048 170.751 861.883C170.378 861.71 170.058 861.467 169.789 861.155C169.52 860.834 169.317 860.453 169.178 860.011C169.039 859.569 168.97 859.079 168.97 858.542C168.97 857.788 169.091 857.147 169.334 856.618C169.585 856.081 169.945 855.669 170.413 855.383C170.89 855.097 171.453 854.954 172.103 854.954C172.762 854.954 173.316 855.106 173.767 855.409C174.226 855.704 174.573 856.12 174.807 856.657C175.041 857.194 175.158 857.823 175.158 858.542ZM169.737 858.542C169.737 859.131 169.819 859.651 169.984 860.102C170.149 860.544 170.404 860.886 170.751 861.129C171.098 861.372 171.531 861.493 172.051 861.493C172.588 861.493 173.03 861.372 173.377 861.129C173.724 860.878 173.979 860.531 174.144 860.089C174.309 859.638 174.391 859.123 174.391 858.542C174.391 857.961 174.313 857.45 174.157 857.008C174.001 856.566 173.754 856.219 173.416 855.968C173.078 855.717 172.636 855.591 172.09 855.591C171.301 855.591 170.712 855.851 170.322 856.371C169.932 856.891 169.737 857.615 169.737 858.542ZM176.664 857.853C176.664 856.952 176.738 856.18 176.885 855.539C177.032 854.898 177.258 854.373 177.561 853.966C177.873 853.55 178.259 853.242 178.718 853.043C179.186 852.783 179.728 852.584 180.343 852.445C180.967 852.298 181.66 852.176 182.423 852.081L182.54 852.731C182.15 852.774 181.777 852.826 181.422 852.887C181.067 852.948 180.733 853.017 180.421 853.095C180.118 853.164 179.84 853.242 179.589 853.329C179.346 853.416 179.134 853.515 178.952 853.628C178.727 853.741 178.523 853.892 178.341 854.083C178.168 854.274 178.016 854.508 177.886 854.785C177.765 855.062 177.665 855.383 177.587 855.747C177.509 856.111 177.461 856.518 177.444 856.969H177.496C177.652 856.709 177.851 856.475 178.094 856.267C178.337 856.05 178.618 855.881 178.939 855.76C179.268 855.63 179.628 855.565 180.018 855.565C180.599 855.565 181.088 855.691 181.487 855.942C181.886 856.185 182.185 856.54 182.384 857.008C182.592 857.467 182.696 858.031 182.696 858.698C182.696 859.4 182.579 860.011 182.345 860.531C182.12 861.042 181.782 861.437 181.331 861.714C180.889 861.991 180.343 862.13 179.693 862.13C179.173 862.13 178.722 862.026 178.341 861.818C177.96 861.601 177.643 861.302 177.392 860.921C177.141 860.531 176.954 860.076 176.833 859.556C176.72 859.036 176.664 858.468 176.664 857.853ZM179.745 861.493C180.239 861.493 180.642 861.389 180.954 861.181C181.275 860.964 181.513 860.652 181.669 860.245C181.834 859.829 181.916 859.331 181.916 858.75C181.916 857.918 181.747 857.285 181.409 856.852C181.08 856.419 180.581 856.202 179.914 856.202C179.524 856.202 179.169 856.276 178.848 856.423C178.536 856.57 178.259 856.77 178.016 857.021C177.773 857.264 177.574 857.528 177.418 857.814C177.418 858.282 177.453 858.737 177.522 859.179C177.591 859.612 177.708 860.007 177.873 860.362C178.046 860.709 178.285 860.986 178.588 861.194C178.9 861.393 179.286 861.493 179.745 861.493ZM184.569 862V855.084H185.31V857.983H187.559C188.114 857.983 188.569 858.061 188.924 858.217C189.28 858.364 189.54 858.585 189.704 858.88C189.878 859.166 189.964 859.513 189.964 859.92C189.964 860.353 189.873 860.726 189.691 861.038C189.518 861.35 189.245 861.588 188.872 861.753C188.5 861.918 188.023 862 187.442 862H184.569ZM187.364 861.376C187.988 861.376 188.456 861.263 188.768 861.038C189.08 860.804 189.236 860.44 189.236 859.946C189.236 859.487 189.089 859.153 188.794 858.945C188.5 858.728 188.058 858.62 187.468 858.62H185.31V861.376H187.364ZM191.082 862V855.084H191.823V862H191.082ZM198.386 859.907C198.386 859.994 198.386 860.093 198.386 860.206C198.386 860.319 198.381 860.436 198.373 860.557C198.373 860.67 198.368 860.782 198.36 860.895C198.351 860.999 198.347 861.099 198.347 861.194L202.39 855.084H203.3V862H202.598V857.177C202.598 857.047 202.598 856.904 202.598 856.748C202.598 856.592 202.602 856.436 202.611 856.28C202.619 856.124 202.624 855.99 202.624 855.877L198.581 862H197.684V855.084H198.386V859.907ZM208.362 862.13C207.686 862.13 207.109 861.991 206.633 861.714C206.165 861.428 205.805 861.021 205.554 860.492C205.311 859.963 205.19 859.326 205.19 858.581C205.19 857.801 205.328 857.142 205.606 856.605C205.892 856.068 206.282 855.66 206.776 855.383C207.27 855.097 207.85 854.954 208.518 854.954C208.847 854.954 209.155 854.989 209.441 855.058C209.735 855.119 209.995 855.201 210.221 855.305L210.026 855.929C209.792 855.834 209.54 855.76 209.272 855.708C209.003 855.647 208.747 855.617 208.505 855.617C207.95 855.617 207.482 855.738 207.101 855.981C206.728 856.215 206.442 856.553 206.243 856.995C206.052 857.437 205.957 857.966 205.957 858.581C205.957 859.153 206.039 859.66 206.204 860.102C206.377 860.535 206.641 860.873 206.997 861.116C207.352 861.359 207.807 861.48 208.362 861.48C208.7 861.48 209.016 861.445 209.311 861.376C209.614 861.307 209.891 861.216 210.143 861.103V861.779C209.917 861.874 209.657 861.957 209.363 862.026C209.068 862.095 208.734 862.13 208.362 862.13ZM217.352 855.084V862H216.611V855.734H212.516V862H211.775V855.084H217.352ZM225.431 858.542C225.431 859.079 225.362 859.569 225.223 860.011C225.093 860.444 224.894 860.821 224.625 861.142C224.365 861.454 224.04 861.697 223.65 861.87C223.26 862.043 222.814 862.13 222.311 862.13C221.835 862.13 221.406 862.048 221.024 861.883C220.652 861.71 220.331 861.467 220.062 861.155C219.794 860.834 219.59 860.453 219.451 860.011C219.313 859.569 219.243 859.079 219.243 858.542C219.243 857.788 219.365 857.147 219.607 856.618C219.859 856.081 220.218 855.669 220.686 855.383C221.163 855.097 221.726 854.954 222.376 854.954C223.035 854.954 223.59 855.106 224.04 855.409C224.5 855.704 224.846 856.12 225.08 856.657C225.314 857.194 225.431 857.823 225.431 858.542ZM220.01 858.542C220.01 859.131 220.093 859.651 220.257 860.102C220.422 860.544 220.678 860.886 221.024 861.129C221.371 861.372 221.804 861.493 222.324 861.493C222.862 861.493 223.304 861.372 223.65 861.129C223.997 860.878 224.253 860.531 224.417 860.089C224.582 859.638 224.664 859.123 224.664 858.542C224.664 857.961 224.586 857.45 224.43 857.008C224.274 856.566 224.027 856.219 223.689 855.968C223.351 855.717 222.909 855.591 222.363 855.591C221.575 855.591 220.985 855.851 220.595 856.371C220.205 856.891 220.01 857.615 220.01 858.542ZM232.189 862H231.448V855.721H229.108C229.022 856.813 228.922 857.758 228.809 858.555C228.697 859.352 228.549 860.011 228.367 860.531C228.194 861.051 227.973 861.437 227.704 861.688C227.444 861.939 227.128 862.065 226.755 862.065C226.643 862.065 226.543 862.061 226.456 862.052C226.37 862.043 226.296 862.03 226.235 862.013V861.415C226.287 861.432 226.344 861.445 226.404 861.454C226.465 861.463 226.543 861.467 226.638 861.467C226.846 861.467 227.033 861.385 227.197 861.22C227.371 861.055 227.522 860.808 227.652 860.479C227.782 860.15 227.895 859.734 227.99 859.231C228.094 858.72 228.181 858.122 228.25 857.437C228.328 856.744 228.398 855.959 228.458 855.084H232.189V862ZM237.595 857.983C238.149 857.983 238.604 858.061 238.96 858.217C239.324 858.364 239.592 858.585 239.766 858.88C239.948 859.166 240.039 859.513 240.039 859.92C240.039 860.353 239.943 860.726 239.753 861.038C239.571 861.35 239.289 861.588 238.908 861.753C238.535 861.918 238.058 862 237.478 862H234.475V855.084H235.216V857.983H237.595ZM239.298 859.946C239.298 859.487 239.146 859.153 238.843 858.945C238.539 858.728 238.093 858.62 237.504 858.62H235.216V861.376H237.426C238.05 861.376 238.518 861.259 238.83 861.025C239.142 860.791 239.298 860.431 239.298 859.946ZM243.564 854.954C244.05 854.954 244.466 855.028 244.812 855.175C245.159 855.314 245.423 855.517 245.605 855.786C245.787 856.046 245.878 856.367 245.878 856.748C245.878 857.147 245.77 857.476 245.553 857.736C245.337 857.996 245.033 858.182 244.643 858.295V858.321C244.955 858.399 245.22 858.516 245.436 858.672C245.662 858.828 245.831 859.023 245.943 859.257C246.065 859.482 246.125 859.751 246.125 860.063C246.125 860.479 246.017 860.843 245.8 861.155C245.592 861.467 245.285 861.71 244.877 861.883C244.479 862.048 243.993 862.13 243.421 862.13C243.109 862.13 242.815 862.108 242.537 862.065C242.26 862.03 242.009 861.978 241.783 861.909C241.567 861.84 241.376 861.762 241.211 861.675V860.973C241.523 861.129 241.861 861.259 242.225 861.363C242.589 861.458 242.984 861.506 243.408 861.506C243.79 861.506 244.128 861.454 244.422 861.35C244.726 861.237 244.96 861.073 245.124 860.856C245.298 860.639 245.384 860.362 245.384 860.024C245.384 859.703 245.306 859.443 245.15 859.244C244.994 859.045 244.765 858.902 244.461 858.815C244.167 858.72 243.794 858.672 243.343 858.672H242.42V858.048H243.252C243.833 858.048 244.297 857.948 244.643 857.749C244.99 857.55 245.163 857.229 245.163 856.787C245.163 856.397 245.02 856.102 244.734 855.903C244.457 855.695 244.054 855.591 243.525 855.591C243.153 855.591 242.819 855.634 242.524 855.721C242.23 855.799 241.922 855.912 241.601 856.059L241.341 855.448C241.671 855.292 242.013 855.171 242.368 855.084C242.732 854.997 243.131 854.954 243.564 854.954ZM253.691 858.542C253.691 859.079 253.622 859.569 253.483 860.011C253.353 860.444 253.154 860.821 252.885 861.142C252.625 861.454 252.3 861.697 251.91 861.87C251.52 862.043 251.074 862.13 250.571 862.13C250.095 862.13 249.666 862.048 249.284 861.883C248.912 861.71 248.591 861.467 248.322 861.155C248.054 860.834 247.85 860.453 247.711 860.011C247.573 859.569 247.503 859.079 247.503 858.542C247.503 857.788 247.625 857.147 247.867 856.618C248.119 856.081 248.478 855.669 248.946 855.383C249.423 855.097 249.986 854.954 250.636 854.954C251.295 854.954 251.85 855.106 252.3 855.409C252.76 855.704 253.106 856.12 253.34 856.657C253.574 857.194 253.691 857.823 253.691 858.542ZM248.27 858.542C248.27 859.131 248.353 859.651 248.517 860.102C248.682 860.544 248.938 860.886 249.284 861.129C249.631 861.372 250.064 861.493 250.584 861.493C251.122 861.493 251.564 861.372 251.91 861.129C252.257 860.878 252.513 860.531 252.677 860.089C252.842 859.638 252.924 859.123 252.924 858.542C252.924 857.961 252.846 857.45 252.69 857.008C252.534 856.566 252.287 856.219 251.949 855.968C251.611 855.717 251.169 855.591 250.623 855.591C249.835 855.591 249.245 855.851 248.855 856.371C248.465 856.891 248.27 857.615 248.27 858.542ZM260.826 856.774C260.826 857.207 260.709 857.55 260.475 857.801C260.241 858.052 259.934 858.226 259.552 858.321V858.36C260.003 858.429 260.371 858.598 260.657 858.867C260.943 859.127 261.086 859.513 261.086 860.024C261.086 860.327 261.034 860.6 260.93 860.843C260.826 861.086 260.67 861.294 260.462 861.467C260.254 861.64 259.99 861.775 259.669 861.87C259.349 861.957 258.967 862 258.525 862H255.574V855.084H258.46C258.972 855.084 259.401 855.149 259.747 855.279C260.103 855.4 260.371 855.587 260.553 855.838C260.735 856.089 260.826 856.401 260.826 856.774ZM260.319 860.024C260.319 859.547 260.155 859.205 259.825 858.997C259.505 858.789 259.019 858.685 258.369 858.685H256.315V861.376H258.421C259.054 861.376 259.526 861.268 259.838 861.051C260.159 860.834 260.319 860.492 260.319 860.024ZM260.072 856.852C260.072 856.488 259.947 856.211 259.695 856.02C259.444 855.821 259.015 855.721 258.408 855.721H256.315V858.048H258.317C258.915 858.048 259.357 857.948 259.643 857.749C259.929 857.55 260.072 857.251 260.072 856.852ZM265.407 854.967C266.187 854.967 266.768 855.158 267.149 855.539C267.53 855.92 267.721 856.527 267.721 857.359V862H267.162L267.032 860.83H266.993C266.828 861.09 266.638 861.32 266.421 861.519C266.213 861.71 265.957 861.861 265.654 861.974C265.359 862.078 264.995 862.13 264.562 862.13C264.129 862.13 263.752 862.056 263.431 861.909C263.11 861.753 262.863 861.532 262.69 861.246C262.517 860.96 262.43 860.609 262.43 860.193C262.43 859.508 262.712 858.988 263.275 858.633C263.838 858.269 264.657 858.061 265.732 858.009L266.993 857.957V857.463C266.993 856.778 266.854 856.297 266.577 856.02C266.308 855.734 265.905 855.591 265.368 855.591C265.013 855.591 264.67 855.639 264.341 855.734C264.02 855.821 263.695 855.946 263.366 856.111L263.132 855.526C263.453 855.361 263.808 855.227 264.198 855.123C264.588 855.019 264.991 854.967 265.407 854.967ZM265.81 858.555C264.935 858.598 264.28 858.754 263.847 859.023C263.414 859.283 263.197 859.677 263.197 860.206C263.197 860.631 263.331 860.956 263.6 861.181C263.869 861.398 264.233 861.506 264.692 861.506C265.429 861.506 265.992 861.302 266.382 860.895C266.781 860.488 266.984 859.916 266.993 859.179V858.503L265.81 858.555ZM274.405 855.721H272.078V862H271.35V855.721H269.036V855.084H274.405V855.721ZM278.931 857.983C279.485 857.983 279.94 858.061 280.296 858.217C280.66 858.364 280.928 858.585 281.102 858.88C281.284 859.166 281.375 859.513 281.375 859.92C281.375 860.353 281.279 860.726 281.089 861.038C280.907 861.35 280.625 861.588 280.244 861.753C279.871 861.918 279.394 862 278.814 862H275.811V855.084H276.552V857.983H278.931ZM280.634 859.946C280.634 859.487 280.482 859.153 280.179 858.945C279.875 858.728 279.429 858.62 278.84 858.62H276.552V861.376H278.762C279.386 861.376 279.854 861.259 280.166 861.025C280.478 860.791 280.634 860.431 280.634 859.946ZM292.42 855.084V862H291.679V855.734H287.584V862H286.843V855.084H292.42ZM295.416 859.907C295.416 859.994 295.416 860.093 295.416 860.206C295.416 860.319 295.411 860.436 295.403 860.557C295.403 860.67 295.398 860.782 295.39 860.895C295.381 860.999 295.377 861.099 295.377 861.194L299.42 855.084H300.33V862H299.628V857.177C299.628 857.047 299.628 856.904 299.628 856.748C299.628 856.592 299.632 856.436 299.641 856.28C299.649 856.124 299.654 855.99 299.654 855.877L295.611 862H294.714V855.084H295.416V859.907ZM303.364 855.084V858.087H307.602V855.084H308.343V862H307.602V858.724H303.364V862H302.623V855.084H303.364ZM314.937 856.8V857.567H309.88V856.8H314.937ZM321.197 855.084H322.042L318.948 858.438L322.237 862H321.34L318.116 858.503V862H317.375V855.084H318.116V858.451L321.197 855.084ZM329.051 858.542C329.051 859.079 328.981 859.569 328.843 860.011C328.713 860.444 328.513 860.821 328.245 861.142C327.985 861.454 327.66 861.697 327.27 861.87C326.88 862.043 326.433 862.13 325.931 862.13C325.454 862.13 325.025 862.048 324.644 861.883C324.271 861.71 323.95 861.467 323.682 861.155C323.413 860.834 323.209 860.453 323.071 860.011C322.932 859.569 322.863 859.079 322.863 858.542C322.863 857.788 322.984 857.147 323.227 856.618C323.478 856.081 323.838 855.669 324.306 855.383C324.782 855.097 325.346 854.954 325.996 854.954C326.654 854.954 327.209 855.106 327.66 855.409C328.119 855.704 328.466 856.12 328.7 856.657C328.934 857.194 329.051 857.823 329.051 858.542ZM323.63 858.542C323.63 859.131 323.712 859.651 323.877 860.102C324.041 860.544 324.297 860.886 324.644 861.129C324.99 861.372 325.424 861.493 325.944 861.493C326.481 861.493 326.923 861.372 327.27 861.129C327.616 860.878 327.872 860.531 328.037 860.089C328.201 859.638 328.284 859.123 328.284 858.542C328.284 857.961 328.206 857.45 328.05 857.008C327.894 856.566 327.647 856.219 327.309 855.968C326.971 855.717 326.529 855.591 325.983 855.591C325.194 855.591 324.605 855.851 324.215 856.371C323.825 856.891 323.63 857.615 323.63 858.542ZM335.731 855.084V861.363H336.68V864.353H335.952V862H330.765V864.353H330.05V861.363H330.531C330.921 860.817 331.246 860.215 331.506 859.556C331.766 858.897 331.965 858.191 332.104 857.437C332.242 856.683 332.316 855.899 332.325 855.084H335.731ZM333.001 855.695C332.966 856.423 332.879 857.129 332.741 857.814C332.602 858.49 332.416 859.127 332.182 859.725C331.948 860.323 331.662 860.869 331.324 861.363H335.016V855.695H333.001Z" fill="#093030"/>
<path d="M91.5729 624.72H93.8929V631.98C93.8929 632.313 93.8862 632.687 93.8729 633.1C93.8729 633.5 93.8662 633.893 93.8529 634.28C93.8396 634.667 93.8196 635.007 93.7929 635.3C93.7796 635.593 93.7662 635.8 93.7529 635.92H93.8329L100.913 624.72H103.913V639H101.593V631.8C101.593 631.44 101.6 631.047 101.613 630.62C101.626 630.193 101.64 629.78 101.653 629.38C101.68 628.98 101.7 628.633 101.713 628.34C101.74 628.033 101.76 627.82 101.773 627.7H101.693L94.5929 639H91.5729V624.72ZM111.748 639.2C110.721 639.2 109.828 639.007 109.068 638.62C108.321 638.22 107.741 637.613 107.328 636.8C106.928 635.973 106.728 634.92 106.728 633.64C106.728 632.307 106.948 631.227 107.388 630.4C107.841 629.56 108.461 628.947 109.248 628.56C110.035 628.16 110.935 627.96 111.948 627.96C112.628 627.96 113.235 628.027 113.768 628.16C114.301 628.293 114.755 628.453 115.128 628.64L114.388 630.62C113.975 630.46 113.561 630.327 113.148 630.22C112.735 630.1 112.335 630.04 111.948 630.04C111.348 630.04 110.848 630.173 110.448 630.44C110.061 630.707 109.775 631.107 109.588 631.64C109.401 632.16 109.308 632.82 109.308 633.62C109.308 634.393 109.401 635.04 109.588 635.56C109.788 636.08 110.081 636.473 110.468 636.74C110.855 636.993 111.335 637.12 111.908 637.12C112.521 637.12 113.061 637.047 113.528 636.9C113.995 636.753 114.435 636.553 114.848 636.3V638.48C114.435 638.733 113.988 638.913 113.508 639.02C113.041 639.14 112.455 639.2 111.748 639.2ZM126.968 628.16V639H124.448V630.12H119.908V639H117.388V628.16H126.968ZM139.88 633.56C139.88 634.467 139.76 635.267 139.52 635.96C139.28 636.653 138.933 637.247 138.48 637.74C138.04 638.22 137.493 638.587 136.84 638.84C136.2 639.08 135.487 639.2 134.7 639.2C133.953 639.2 133.267 639.08 132.64 638.84C132.013 638.587 131.467 638.22 131 637.74C130.547 637.247 130.193 636.653 129.94 635.96C129.687 635.267 129.56 634.467 129.56 633.56C129.56 632.36 129.767 631.347 130.18 630.52C130.593 629.68 131.187 629.047 131.96 628.62C132.747 628.18 133.673 627.96 134.74 627.96C135.753 627.96 136.64 628.18 137.4 628.62C138.173 629.047 138.78 629.68 139.22 630.52C139.66 631.347 139.88 632.36 139.88 633.56ZM132.14 633.56C132.14 634.32 132.227 634.973 132.4 635.52C132.587 636.053 132.867 636.46 133.24 636.74C133.627 637.02 134.12 637.16 134.72 637.16C135.333 637.16 135.827 637.02 136.2 636.74C136.587 636.46 136.867 636.053 137.04 635.52C137.213 634.973 137.3 634.32 137.3 633.56C137.3 632.787 137.207 632.14 137.02 631.62C136.847 631.087 136.567 630.687 136.18 630.42C135.807 630.14 135.32 630 134.72 630C133.813 630 133.153 630.307 132.74 630.92C132.34 631.533 132.14 632.413 132.14 633.56ZM151.645 639H149.125V630.1H146.225C146.092 631.74 145.925 633.133 145.725 634.28C145.525 635.427 145.279 636.367 144.985 637.1C144.692 637.82 144.325 638.347 143.885 638.68C143.459 639.013 142.939 639.18 142.325 639.18C142.045 639.18 141.785 639.16 141.545 639.12C141.305 639.08 141.099 639.013 140.925 638.92V636.94C141.045 636.98 141.172 637.02 141.305 637.06C141.439 637.087 141.579 637.1 141.725 637.1C141.952 637.1 142.159 637.013 142.345 636.84C142.545 636.653 142.725 636.353 142.885 635.94C143.059 635.513 143.219 634.953 143.365 634.26C143.512 633.567 143.639 632.72 143.745 631.72C143.865 630.707 143.972 629.52 144.065 628.16H151.645V639ZM159.908 632.44C160.961 632.44 161.828 632.56 162.508 632.8C163.201 633.027 163.714 633.373 164.048 633.84C164.394 634.307 164.568 634.893 164.568 635.6C164.568 636.293 164.408 636.893 164.088 637.4C163.768 637.907 163.268 638.3 162.588 638.58C161.921 638.86 161.041 639 159.948 639H154.888V628.16H157.408V632.44H159.908ZM162.048 635.66C162.048 635.14 161.854 634.78 161.468 634.58C161.081 634.38 160.521 634.28 159.788 634.28H157.408V637.18H159.828C160.481 637.18 161.014 637.067 161.428 636.84C161.841 636.6 162.048 636.207 162.048 635.66ZM170.556 627.96C171.356 627.96 172.083 628.067 172.736 628.28C173.39 628.493 173.91 628.813 174.296 629.24C174.683 629.653 174.876 630.18 174.876 630.82C174.876 631.473 174.683 631.993 174.296 632.38C173.923 632.767 173.41 633.047 172.756 633.22V633.32C173.21 633.427 173.616 633.58 173.976 633.78C174.35 633.98 174.643 634.247 174.856 634.58C175.083 634.913 175.196 635.353 175.196 635.9C175.196 636.5 175.016 637.053 174.656 637.56C174.296 638.053 173.743 638.453 172.996 638.76C172.25 639.053 171.29 639.2 170.116 639.2C169.556 639.2 169.03 639.173 168.536 639.12C168.043 639.067 167.59 638.993 167.176 638.9C166.776 638.793 166.423 638.667 166.116 638.52V636.38C166.57 636.593 167.116 636.787 167.756 636.96C168.41 637.133 169.103 637.22 169.836 637.22C170.383 637.22 170.87 637.173 171.296 637.08C171.736 636.987 172.083 636.833 172.336 636.62C172.603 636.407 172.736 636.12 172.736 635.76C172.736 635.413 172.623 635.133 172.396 634.92C172.17 634.693 171.83 634.527 171.376 634.42C170.923 634.313 170.343 634.26 169.636 634.26H168.376V632.44H169.496C170.456 632.44 171.21 632.347 171.756 632.16C172.303 631.96 172.576 631.607 172.576 631.1C172.576 630.7 172.39 630.4 172.016 630.2C171.643 629.987 171.063 629.88 170.276 629.88C169.73 629.88 169.183 629.94 168.636 630.06C168.09 630.167 167.543 630.333 166.996 630.56L166.216 628.74C166.816 628.5 167.47 628.313 168.176 628.18C168.883 628.033 169.676 627.96 170.556 627.96ZM176.002 628.16H178.742L180.902 634.28C180.995 634.547 181.075 634.807 181.142 635.06C181.222 635.3 181.289 635.547 181.342 635.8C181.395 636.053 181.435 636.307 181.462 636.56H181.542C181.595 636.227 181.675 635.86 181.782 635.46C181.902 635.06 182.022 634.667 182.142 634.28L184.222 628.16H186.942L182.322 640.44C182.055 641.147 181.715 641.753 181.302 642.26C180.902 642.767 180.422 643.147 179.862 643.4C179.315 643.667 178.695 643.8 178.002 643.8C177.682 643.8 177.395 643.78 177.142 643.74C176.902 643.713 176.689 643.68 176.502 643.64V641.64C176.649 641.667 176.822 641.693 177.022 641.72C177.235 641.747 177.455 641.76 177.682 641.76C178.095 641.76 178.449 641.673 178.742 641.5C179.049 641.34 179.302 641.113 179.502 640.82C179.715 640.527 179.889 640.2 180.022 639.84L180.342 638.96L176.002 628.16ZM198.339 623.56C198.273 624.24 198.086 624.833 197.779 625.34C197.486 625.833 197.026 626.213 196.399 626.48C195.773 626.747 194.946 626.88 193.919 626.88C192.853 626.88 192.013 626.747 191.399 626.48C190.799 626.213 190.366 625.84 190.099 625.36C189.833 624.867 189.673 624.267 189.619 623.56H191.899C191.966 624.28 192.153 624.767 192.459 625.02C192.766 625.26 193.266 625.38 193.959 625.38C194.546 625.38 195.019 625.253 195.379 625C195.753 624.733 195.973 624.253 196.039 623.56H198.339ZM190.979 633.32C190.979 633.507 190.966 633.747 190.939 634.04C190.926 634.32 190.913 634.62 190.899 634.94C190.886 635.247 190.866 635.527 190.839 635.78C190.826 636.02 190.813 636.2 190.799 636.32L196.099 628.16H199.139V639H196.719V633.9C196.719 633.593 196.726 633.24 196.739 632.84C196.766 632.44 196.793 632.06 196.819 631.7C196.846 631.327 196.866 631.047 196.879 630.86L191.599 639H188.559V628.16H190.979V633.32ZM210.808 630.1H207.248V639H204.748V630.1H201.208V628.16H210.808V630.1ZM217.041 627.96C218.014 627.96 218.847 628.16 219.541 628.56C220.247 628.947 220.794 629.507 221.181 630.24C221.567 630.96 221.761 631.84 221.761 632.88V634.16H214.601C214.627 635.147 214.901 635.913 215.421 636.46C215.941 636.993 216.661 637.26 217.581 637.26C218.287 637.26 218.914 637.193 219.461 637.06C220.021 636.913 220.594 636.707 221.181 636.44V638.46C220.647 638.713 220.094 638.9 219.521 639.02C218.947 639.14 218.261 639.2 217.461 639.2C216.407 639.2 215.467 639 214.641 638.6C213.827 638.187 213.187 637.567 212.721 636.74C212.267 635.913 212.041 634.887 212.041 633.66C212.041 632.42 212.247 631.38 212.661 630.54C213.087 629.687 213.674 629.047 214.421 628.62C215.167 628.18 216.041 627.96 217.041 627.96ZM217.041 629.82C216.374 629.82 215.827 630.04 215.401 630.48C214.987 630.907 214.741 631.547 214.661 632.4H219.321C219.321 631.893 219.234 631.447 219.061 631.06C218.901 630.673 218.654 630.373 218.321 630.16C217.987 629.933 217.561 629.82 217.041 629.82ZM238.747 633.56C238.747 634.467 238.627 635.267 238.387 635.96C238.147 636.653 237.801 637.247 237.347 637.74C236.907 638.22 236.361 638.587 235.707 638.84C235.067 639.08 234.354 639.2 233.567 639.2C232.821 639.2 232.134 639.08 231.507 638.84C230.881 638.587 230.334 638.22 229.867 637.74C229.414 637.247 229.061 636.653 228.807 635.96C228.554 635.267 228.427 634.467 228.427 633.56C228.427 632.36 228.634 631.347 229.047 630.52C229.461 629.68 230.054 629.047 230.827 628.62C231.614 628.18 232.541 627.96 233.607 627.96C234.621 627.96 235.507 628.18 236.267 628.62C237.041 629.047 237.647 629.68 238.087 630.52C238.527 631.347 238.747 632.36 238.747 633.56ZM231.007 633.56C231.007 634.32 231.094 634.973 231.267 635.52C231.454 636.053 231.734 636.46 232.107 636.74C232.494 637.02 232.987 637.16 233.587 637.16C234.201 637.16 234.694 637.02 235.067 636.74C235.454 636.46 235.734 636.053 235.907 635.52C236.081 634.973 236.167 634.32 236.167 633.56C236.167 632.787 236.074 632.14 235.887 631.62C235.714 631.087 235.434 630.687 235.047 630.42C234.674 630.14 234.187 630 233.587 630C232.681 630 232.021 630.307 231.607 630.92C231.207 631.533 231.007 632.413 231.007 633.56ZM249.577 630.1H246.017V639H243.517V630.1H239.977V628.16H249.577V630.1ZM261.225 628.16V639H258.705V630.12H254.165V639H251.645V628.16H261.225ZM268.818 627.96C269.791 627.96 270.625 628.16 271.318 628.56C272.025 628.947 272.571 629.507 272.958 630.24C273.345 630.96 273.538 631.84 273.538 632.88V634.16H266.378C266.405 635.147 266.678 635.913 267.198 636.46C267.718 636.993 268.438 637.26 269.358 637.26C270.065 637.26 270.691 637.193 271.238 637.06C271.798 636.913 272.371 636.707 272.958 636.44V638.46C272.425 638.713 271.871 638.9 271.298 639.02C270.725 639.14 270.038 639.2 269.238 639.2C268.185 639.2 267.245 639 266.418 638.6C265.605 638.187 264.965 637.567 264.498 636.74C264.045 635.913 263.818 634.887 263.818 633.66C263.818 632.42 264.025 631.38 264.438 630.54C264.865 629.687 265.451 629.047 266.198 628.62C266.945 628.18 267.818 627.96 268.818 627.96ZM268.818 629.82C268.151 629.82 267.605 630.04 267.178 630.48C266.765 630.907 266.518 631.547 266.438 632.4H271.098C271.098 631.893 271.011 631.447 270.838 631.06C270.678 630.673 270.431 630.373 270.098 630.16C269.765 629.933 269.338 629.82 268.818 629.82ZM278.279 632.12C278.279 632.64 278.419 633.033 278.699 633.3C278.979 633.567 279.372 633.7 279.879 633.7C280.492 633.7 281.052 633.62 281.559 633.46C282.079 633.3 282.599 633.093 283.119 632.84V628.16H285.639V639H283.119V634.5C282.599 634.793 282.046 635.047 281.459 635.26C280.872 635.473 280.186 635.58 279.399 635.58C278.279 635.58 277.392 635.293 276.739 634.72C276.086 634.133 275.759 633.293 275.759 632.2V628.16H278.279V632.12ZM293.192 627.96C294.592 627.96 295.652 628.267 296.372 628.88C297.105 629.48 297.472 630.427 297.472 631.72V639H295.692L295.192 637.5H295.112C294.805 637.887 294.485 638.213 294.152 638.48C293.832 638.733 293.459 638.913 293.032 639.02C292.619 639.14 292.112 639.2 291.512 639.2C290.872 639.2 290.292 639.08 289.772 638.84C289.265 638.6 288.865 638.233 288.572 637.74C288.279 637.233 288.132 636.6 288.132 635.84C288.132 634.72 288.539 633.88 289.352 633.32C290.179 632.747 291.425 632.433 293.092 632.38L294.972 632.32V631.78C294.972 631.087 294.805 630.593 294.472 630.3C294.139 630.007 293.672 629.86 293.072 629.86C292.525 629.86 291.999 629.94 291.492 630.1C290.985 630.26 290.492 630.447 290.012 630.66L289.212 628.9C289.745 628.62 290.352 628.393 291.032 628.22C291.725 628.047 292.445 627.96 293.192 627.96ZM293.652 633.92C292.545 633.96 291.779 634.153 291.352 634.5C290.925 634.833 290.712 635.287 290.712 635.86C290.712 636.367 290.865 636.733 291.172 636.96C291.479 637.187 291.872 637.3 292.352 637.3C293.085 637.3 293.705 637.093 294.212 636.68C294.719 636.253 294.972 635.627 294.972 634.8V633.88L293.652 633.92ZM309.05 630.1H305.49V639H302.99V630.1H299.45V628.16H309.05V630.1ZM320.603 633.56C320.603 634.467 320.483 635.267 320.243 635.96C320.003 636.653 319.656 637.247 319.203 637.74C318.763 638.22 318.216 638.587 317.563 638.84C316.923 639.08 316.209 639.2 315.423 639.2C314.676 639.2 313.989 639.08 313.363 638.84C312.736 638.587 312.189 638.22 311.723 637.74C311.269 637.247 310.916 636.653 310.663 635.96C310.409 635.267 310.283 634.467 310.283 633.56C310.283 632.36 310.489 631.347 310.903 630.52C311.316 629.68 311.909 629.047 312.683 628.62C313.469 628.18 314.396 627.96 315.463 627.96C316.476 627.96 317.363 628.18 318.123 628.62C318.896 629.047 319.503 629.68 319.943 630.52C320.383 631.347 320.603 632.36 320.603 633.56ZM312.863 633.56C312.863 634.32 312.949 634.973 313.123 635.52C313.309 636.053 313.589 636.46 313.963 636.74C314.349 637.02 314.843 637.16 315.443 637.16C316.056 637.16 316.549 637.02 316.923 636.74C317.309 636.46 317.589 636.053 317.763 635.52C317.936 634.973 318.023 634.32 318.023 633.56C318.023 632.787 317.929 632.14 317.743 631.62C317.569 631.087 317.289 630.687 316.903 630.42C316.529 630.14 316.043 630 315.443 630C314.536 630 313.876 630.307 313.463 630.92C313.063 631.533 312.863 632.413 312.863 633.56ZM330.048 628.16H332.828L328.408 633.36L333.208 639H330.328L325.728 633.5V639H323.208V628.16H325.728V633.42L330.048 628.16ZM132.661 650.16V661H130.141V652.12H125.601V661H123.081V650.16H132.661ZM140.213 649.96C141.613 649.96 142.673 650.267 143.393 650.88C144.127 651.48 144.493 652.427 144.493 653.72V661H142.713L142.213 659.5H142.133C141.827 659.887 141.507 660.213 141.173 660.48C140.853 660.733 140.48 660.913 140.053 661.02C139.64 661.14 139.133 661.2 138.533 661.2C137.893 661.2 137.313 661.08 136.793 660.84C136.287 660.6 135.887 660.233 135.593 659.74C135.3 659.233 135.153 658.6 135.153 657.84C135.153 656.72 135.56 655.88 136.373 655.32C137.2 654.747 138.447 654.433 140.113 654.38L141.993 654.32V653.78C141.993 653.087 141.827 652.593 141.493 652.3C141.16 652.007 140.693 651.86 140.093 651.86C139.547 651.86 139.02 651.94 138.513 652.1C138.007 652.26 137.513 652.447 137.033 652.66L136.233 650.9C136.767 650.62 137.373 650.393 138.053 650.22C138.747 650.047 139.467 649.96 140.213 649.96ZM140.673 655.92C139.567 655.96 138.8 656.153 138.373 656.5C137.947 656.833 137.733 657.287 137.733 657.86C137.733 658.367 137.887 658.733 138.193 658.96C138.5 659.187 138.893 659.3 139.373 659.3C140.107 659.3 140.727 659.093 141.233 658.68C141.74 658.253 141.993 657.627 141.993 656.8V655.88L140.673 655.92ZM156.811 661H154.291V652.1H151.391C151.258 653.74 151.091 655.133 150.891 656.28C150.691 657.427 150.445 658.367 150.151 659.1C149.858 659.82 149.491 660.347 149.051 660.68C148.625 661.013 148.105 661.18 147.491 661.18C147.211 661.18 146.951 661.16 146.711 661.12C146.471 661.08 146.265 661.013 146.091 660.92V658.94C146.211 658.98 146.338 659.02 146.471 659.06C146.605 659.087 146.745 659.1 146.891 659.1C147.118 659.1 147.325 659.013 147.511 658.84C147.711 658.653 147.891 658.353 148.051 657.94C148.225 657.513 148.385 656.953 148.531 656.26C148.678 655.567 148.805 654.72 148.911 653.72C149.031 652.707 149.138 651.52 149.231 650.16H156.811V661ZM165.074 654.44C166.127 654.44 166.994 654.56 167.674 654.8C168.367 655.027 168.88 655.373 169.214 655.84C169.56 656.307 169.734 656.893 169.734 657.6C169.734 658.293 169.574 658.893 169.254 659.4C168.934 659.907 168.434 660.3 167.754 660.58C167.087 660.86 166.207 661 165.114 661H160.054V650.16H162.574V654.44H165.074ZM167.214 657.66C167.214 657.14 167.02 656.78 166.634 656.58C166.247 656.38 165.687 656.28 164.954 656.28H162.574V659.18H164.994C165.647 659.18 166.18 659.067 166.594 658.84C167.007 658.6 167.214 658.207 167.214 657.66ZM183.583 664.84H181.263V661H172.183V650.16H174.703V659.04H179.503V650.16H182.023V659.1H183.583V664.84ZM189.842 649.96C191.242 649.96 192.302 650.267 193.022 650.88C193.756 651.48 194.122 652.427 194.122 653.72V661H192.342L191.842 659.5H191.762C191.456 659.887 191.136 660.213 190.802 660.48C190.482 660.733 190.109 660.913 189.682 661.02C189.269 661.14 188.762 661.2 188.162 661.2C187.522 661.2 186.942 661.08 186.422 660.84C185.916 660.6 185.516 660.233 185.222 659.74C184.929 659.233 184.782 658.6 184.782 657.84C184.782 656.72 185.189 655.88 186.002 655.32C186.829 654.747 188.076 654.433 189.742 654.38L191.622 654.32V653.78C191.622 653.087 191.456 652.593 191.122 652.3C190.789 652.007 190.322 651.86 189.722 651.86C189.176 651.86 188.649 651.94 188.142 652.1C187.636 652.26 187.142 652.447 186.662 652.66L185.862 650.9C186.396 650.62 187.002 650.393 187.682 650.22C188.376 650.047 189.096 649.96 189.842 649.96ZM190.302 655.92C189.196 655.96 188.429 656.153 188.002 656.5C187.576 656.833 187.362 657.287 187.362 657.86C187.362 658.367 187.516 658.733 187.822 658.96C188.129 659.187 188.522 659.3 189.002 659.3C189.736 659.3 190.356 659.093 190.862 658.68C191.369 658.253 191.622 657.627 191.622 656.8V655.88L190.302 655.92ZM211.166 650.16V659.08H212.746V664.84H210.426V661H203.046V664.84H200.746V659.08H201.646C202.179 658.307 202.626 657.44 202.986 656.48C203.346 655.507 203.626 654.48 203.826 653.4C204.026 652.32 204.159 651.24 204.226 650.16H211.166ZM206.366 652.08C206.286 652.92 206.152 653.76 205.966 654.6C205.779 655.427 205.546 656.22 205.266 656.98C204.986 657.74 204.652 658.44 204.266 659.08H208.666V652.08H206.366ZM223.862 661H221.342V652.1H218.442C218.309 653.74 218.142 655.133 217.942 656.28C217.742 657.427 217.495 658.367 217.202 659.1C216.909 659.82 216.542 660.347 216.102 660.68C215.675 661.013 215.155 661.18 214.542 661.18C214.262 661.18 214.002 661.16 213.762 661.12C213.522 661.08 213.315 661.013 213.142 660.92V658.94C213.262 658.98 213.389 659.02 213.522 659.06C213.655 659.087 213.795 659.1 213.942 659.1C214.169 659.1 214.375 659.013 214.562 658.84C214.762 658.653 214.942 658.353 215.102 657.94C215.275 657.513 215.435 656.953 215.582 656.26C215.729 655.567 215.855 654.72 215.962 653.72C216.082 652.707 216.189 651.52 216.282 650.16H223.862V661ZM228.384 661H225.604L228.584 656.62C228.198 656.473 227.831 656.273 227.484 656.02C227.138 655.753 226.858 655.413 226.644 655C226.431 654.573 226.324 654.06 226.324 653.46C226.324 652.393 226.711 651.58 227.484 651.02C228.258 650.447 229.264 650.16 230.504 650.16H235.484V661H232.964V656.86H230.944L228.384 661ZM228.784 653.48C228.784 653.987 228.978 654.38 229.364 654.66C229.764 654.927 230.298 655.06 230.964 655.06H232.964V652.02H230.604C229.964 652.02 229.498 652.16 229.204 652.44C228.924 652.72 228.784 653.067 228.784 653.48ZM252.752 652.96C252.752 653.573 252.558 654.08 252.172 654.48C251.798 654.88 251.265 655.14 250.572 655.26V655.34C251.305 655.433 251.905 655.687 252.372 656.1C252.852 656.5 253.092 657.06 253.092 657.78C253.092 658.247 252.998 658.68 252.812 659.08C252.638 659.467 252.365 659.807 251.992 660.1C251.632 660.38 251.158 660.6 250.572 660.76C249.985 660.92 249.278 661 248.452 661H243.472V650.16H248.432C249.258 650.16 249.992 650.247 250.632 650.42C251.285 650.593 251.798 650.887 252.172 651.3C252.558 651.7 252.752 652.253 252.752 652.96ZM250.472 657.68C250.472 657.187 250.278 656.833 249.892 656.62C249.518 656.393 248.952 656.28 248.192 656.28H245.992V659.18H248.252C248.932 659.18 249.472 659.067 249.872 658.84C250.272 658.613 250.472 658.227 250.472 657.68ZM250.192 653.18C250.192 652.78 250.038 652.487 249.732 652.3C249.425 652.113 248.958 652.02 248.332 652.02H245.992V654.46H247.992C248.712 654.46 249.258 654.36 249.632 654.16C250.005 653.96 250.192 653.633 250.192 653.18ZM257.999 655.46L254.419 650.16H257.279L259.639 653.84L261.999 650.16H264.859L261.239 655.46L265.039 661H262.179L259.639 657.06L257.099 661H254.239L257.999 655.46ZM276.14 655.56C276.14 656.467 276.02 657.267 275.78 657.96C275.54 658.653 275.193 659.247 274.74 659.74C274.3 660.22 273.753 660.587 273.1 660.84C272.46 661.08 271.747 661.2 270.96 661.2C270.213 661.2 269.527 661.08 268.9 660.84C268.273 660.587 267.727 660.22 267.26 659.74C266.807 659.247 266.453 658.653 266.2 657.96C265.947 657.267 265.82 656.467 265.82 655.56C265.82 654.36 266.027 653.347 266.44 652.52C266.853 651.68 267.447 651.047 268.22 650.62C269.007 650.18 269.933 649.96 271 649.96C272.013 649.96 272.9 650.18 273.66 650.62C274.433 651.047 275.04 651.68 275.48 652.52C275.92 653.347 276.14 654.36 276.14 655.56ZM268.4 655.56C268.4 656.32 268.487 656.973 268.66 657.52C268.847 658.053 269.127 658.46 269.5 658.74C269.887 659.02 270.38 659.16 270.98 659.16C271.593 659.16 272.087 659.02 272.46 658.74C272.847 658.46 273.127 658.053 273.3 657.52C273.473 656.973 273.56 656.32 273.56 655.56C273.56 654.787 273.467 654.14 273.28 653.62C273.107 653.087 272.827 652.687 272.44 652.42C272.067 652.14 271.58 652 270.98 652C270.073 652 269.413 652.307 269 652.92C268.6 653.533 268.4 654.413 268.4 655.56ZM287.865 650.16V659.08H289.445V664.84H287.125V661H279.745V664.84H277.445V659.08H278.345C278.878 658.307 279.325 657.44 279.685 656.48C280.045 655.507 280.325 654.48 280.525 653.4C280.725 652.32 280.858 651.24 280.925 650.16H287.865ZM283.065 652.08C282.985 652.92 282.852 653.76 282.665 654.6C282.478 655.427 282.245 656.22 281.965 656.98C281.685 657.74 281.352 658.44 280.965 659.08H285.365V652.08H283.065ZM295.721 649.96C297.121 649.96 298.181 650.267 298.901 650.88C299.635 651.48 300.001 652.427 300.001 653.72V661H298.221L297.721 659.5H297.641C297.335 659.887 297.015 660.213 296.681 660.48C296.361 660.733 295.988 660.913 295.561 661.02C295.148 661.14 294.641 661.2 294.041 661.2C293.401 661.2 292.821 661.08 292.301 660.84C291.795 660.6 291.395 660.233 291.101 659.74C290.808 659.233 290.661 658.6 290.661 657.84C290.661 656.72 291.068 655.88 291.881 655.32C292.708 654.747 293.955 654.433 295.621 654.38L297.501 654.32V653.78C297.501 653.087 297.335 652.593 297.001 652.3C296.668 652.007 296.201 651.86 295.601 651.86C295.055 651.86 294.528 651.94 294.021 652.1C293.515 652.26 293.021 652.447 292.541 652.66L291.741 650.9C292.275 650.62 292.881 650.393 293.561 650.22C294.255 650.047 294.975 649.96 295.721 649.96ZM296.181 655.92C295.075 655.96 294.308 656.153 293.881 656.5C293.455 656.833 293.241 657.287 293.241 657.86C293.241 658.367 293.395 658.733 293.701 658.96C294.008 659.187 294.401 659.3 294.881 659.3C295.615 659.3 296.235 659.093 296.741 658.68C297.248 658.253 297.501 657.627 297.501 656.8V655.88L296.181 655.92Z" fill="#020202"/>
<circle cx="215.352" cy="471.5" r="97.5" fill="#4BB1F1"/>
<path d="M204.442 471.35C207.213 480.55 224.725 507.23 246.007 512.75M237.694 523.1C221.068 517.925 204.259 505.197 194.466 483.425C182.828 457.55 209.43 447.2 219.405 469.625C223.242 478.25 229.381 487.737 247.669 497.225C265.958 506.712 277.596 478.25 260.97 469.625C236.762 457.067 231.043 420.98 196.129 428.225C147.084 438.403 157.889 505.85 182.828 524.825M255.982 483.425C226.056 473.075 226.78 430.034 194.466 443.75C157.889 459.275 184.491 521.375 217.743 530M222.73 417.875C241.019 419.6 246.007 438.575 265.958 455.825" stroke="#E9F6FE" stroke-width="3" stroke-linecap="round" stroke-linejoin="round"/>
<path d="M38.5611 12.136L37.1116 12.942V11.6225L39.2111 10.42H39.9326V19H38.5611V12.136ZM44.7361 13.371C45.2084 13.371 45.6504 13.4902 46.0621 13.7285C46.4781 13.9625 46.8161 14.294 47.0761 14.723C47.3361 15.152 47.4661 15.6503 47.4661 16.218C47.4661 16.7857 47.3274 17.2905 47.0501 17.7325C46.7727 18.1745 46.4001 18.5233 45.9321 18.779C45.4684 19.0303 44.9571 19.156 44.3981 19.156C43.8261 19.156 43.3082 19.0325 42.8446 18.7855C42.3852 18.5385 42.0191 18.1875 41.7461 17.7325C41.4731 17.2775 41.3366 16.7423 41.3366 16.127C41.3366 15.4727 41.4471 14.9202 41.6681 14.4695C41.8891 14.0145 42.1469 13.605 42.4416 13.241L44.7166 10.42H46.3351L43.5661 13.7415C43.6484 13.6548 43.7892 13.5725 43.9886 13.4945C44.1879 13.4122 44.4371 13.371 44.7361 13.371ZM44.4111 18.012C44.7317 18.012 45.0242 17.934 45.2886 17.778C45.5572 17.6177 45.7696 17.4053 45.9256 17.141C46.0859 16.8723 46.1661 16.5755 46.1661 16.2505C46.1661 15.9255 46.0859 15.6308 45.9256 15.3665C45.7696 15.0978 45.5572 14.8855 45.2886 14.7295C45.0242 14.5735 44.7317 14.4955 44.4111 14.4955C44.0861 14.4955 43.7892 14.5735 43.5206 14.7295C43.2519 14.8855 43.0374 15.0978 42.8771 15.3665C42.7211 15.6308 42.6431 15.9255 42.6431 16.2505C42.6431 16.5755 42.7211 16.8723 42.8771 17.141C43.0374 17.4053 43.2519 17.6177 43.5206 17.778C43.7892 17.934 44.0861 18.012 44.4111 18.012ZM49.8543 19.156C49.59 19.156 49.3625 19.0628 49.1718 18.8765C48.9855 18.6858 48.8923 18.4562 48.8923 18.1875C48.8923 17.9188 48.9855 17.6892 49.1718 17.4985C49.3625 17.3078 49.59 17.2125 49.8543 17.2125C50.1273 17.2125 50.357 17.3078 50.5433 17.4985C50.734 17.6892 50.8293 17.9188 50.8293 18.1875C50.8293 18.4562 50.734 18.6858 50.5433 18.8765C50.357 19.0628 50.1273 19.156 49.8543 19.156ZM49.8543 15.139C49.59 15.139 49.3625 15.0458 49.1718 14.8595C48.9855 14.6688 48.8923 14.4392 48.8923 14.1705C48.8923 13.9018 48.9855 13.6722 49.1718 13.4815C49.3625 13.2908 49.59 13.1955 49.8543 13.1955C50.1273 13.1955 50.357 13.2908 50.5433 13.4815C50.734 13.6722 50.8293 13.9018 50.8293 14.1705C50.8293 14.4392 50.734 14.6688 50.5433 14.8595C50.357 15.0458 50.1273 15.139 49.8543 15.139ZM51.987 14.7165C51.987 13.9582 52.078 13.2995 52.26 12.7405C52.4463 12.1815 52.6977 11.72 53.014 11.356C53.3303 10.9877 53.6857 10.7147 54.08 10.537C54.4743 10.355 54.8817 10.264 55.302 10.264C55.7267 10.264 56.1362 10.355 56.5305 10.537C56.9292 10.7147 57.2845 10.9877 57.5965 11.356C57.9085 11.72 58.1555 12.1815 58.3375 12.7405C58.5195 13.2995 58.6105 13.9582 58.6105 14.7165C58.6105 15.5008 58.5195 16.1725 58.3375 16.7315C58.1555 17.2905 57.9085 17.7498 57.5965 18.1095C57.2845 18.4648 56.9292 18.7292 56.5305 18.9025C56.1362 19.0715 55.7267 19.156 55.302 19.156C54.8817 19.156 54.4743 19.0715 54.08 18.9025C53.6857 18.7292 53.3303 18.4648 53.014 18.1095C52.6977 17.7498 52.4463 17.2905 52.26 16.7315C52.078 16.1725 51.987 15.5008 51.987 14.7165ZM53.3715 14.7165C53.3715 15.4358 53.456 16.036 53.625 16.517C53.7983 16.9937 54.0302 17.349 54.3205 17.583C54.6152 17.8127 54.9423 17.9275 55.302 17.9275C55.6703 17.9275 55.9975 17.8105 56.2835 17.5765C56.5738 17.3425 56.8035 16.9872 56.9725 16.5105C57.1415 16.0338 57.226 15.4358 57.226 14.7165C57.226 14.0102 57.1415 13.4187 56.9725 12.942C56.8035 12.4653 56.5738 12.1057 56.2835 11.863C55.9975 11.616 55.6703 11.4925 55.302 11.4925C54.9423 11.4925 54.6152 11.616 54.3205 11.863C54.0302 12.1057 53.7983 12.4675 53.625 12.9485C53.456 13.4252 53.3715 14.0145 53.3715 14.7165ZM64.3235 10.42V15.9775H65.305V17.193H64.3235V19H62.952V17.193H59.364V16.0815L62.796 10.42H64.3235ZM62.952 15.9775V12.3505H62.9455L60.781 15.9775H62.952Z" fill="white"/>
<path d="M339.113 20C338.416 20 337.852 19.5383 337.852 18.9688L337.852 14.8437C337.852 14.2742 338.416 13.8125 339.113 13.8125C339.809 13.8125 340.374 14.2742 340.374 14.8437L340.374 18.9688C340.374 19.5383 339.809 20 339.113 20Z" fill="white"/>
<path d="M342.605 20C341.909 20 341.344 19.5383 341.344 18.9688L341.344 13.4688C341.344 12.8992 341.909 12.4375 342.605 12.4375C343.302 12.4375 343.866 12.8992 343.866 13.4688L343.866 18.9688C343.866 19.5383 343.302 20 342.605 20Z" fill="white"/>
<path d="M346.098 20C345.401 20 344.837 19.5383 344.837 18.9688V11.75C344.837 11.1805 345.401 10.7188 346.098 10.7188C346.794 10.7188 347.359 11.1805 347.359 11.75V18.9688C347.359 19.5383 346.794 20 346.098 20Z" fill="white"/>
<path d="M349.59 20C348.894 20 348.329 19.5383 348.329 18.9688V10.0312C348.329 9.46171 348.894 9 349.59 9C350.287 9 350.852 9.46171 350.852 10.0312V18.9688C350.852 19.5383 350.287 20 349.59 20Z" fill="white"/>
<path d="M355.852 14.3846C359.261 9.87179 367.102 9.87179 370.852 14.3846M367.352 16.6154C365.458 14.359 361.102 14.359 359.018 16.6154M363.185 19H362.352" stroke="white" stroke-width="2" stroke-linecap="round"/>
<path d="M376.852 12.6202C376.852 12.2856 377.163 12 377.569 12H388.134C388.54 12 388.852 12.2856 388.852 12.6202V18.3798C388.852 18.7144 388.54 19 388.134 19H377.569C377.163 19 376.852 18.7144 376.852 18.3798L376.852 12.6202Z" fill="white"/>
<path fill-rule="evenodd" clip-rule="evenodd" d="M375.852 11.7974C375.852 11.3672 376.253 11 376.776 11L390.392 11C390.914 11 391.316 11.3672 391.316 11.7974C391.316 12.2217 391.601 12.5934 392.01 12.7042L392.304 12.7836C392.562 12.8684 392.852 13.0707 392.852 13.3897V17.5446C392.852 17.8637 392.562 18.0659 392.304 18.1508L392.283 18.1577L392.094 18.2006C391.639 18.3043 391.316 18.7089 391.316 19.1757V19.2026C391.316 19.6328 390.914 20 390.392 20H376.776C376.253 20 375.852 19.6328 375.852 19.2026L375.852 11.7974Z" stroke="white"/>
<path d="M82.4851 195.58C84.3451 195.58 85.9051 195.76 87.1651 196.12C88.4251 196.46 89.3651 197.02 89.9851 197.8C90.6251 198.58 90.9451 199.63 90.9451 200.95C90.9451 201.77 90.8051 202.51 90.5251 203.17C90.2451 203.83 89.8351 204.37 89.2951 204.79C88.7751 205.21 88.1251 205.49 87.3451 205.63V205.78C88.1451 205.92 88.8551 206.18 89.4751 206.56C90.1151 206.92 90.6151 207.45 90.9751 208.15C91.3551 208.83 91.5451 209.73 91.5451 210.85C91.5451 212.15 91.2351 213.26 90.6151 214.18C89.9951 215.1 89.1051 215.8 87.9451 216.28C86.8051 216.76 85.4451 217 83.8651 217H76.0351V195.58H82.4851ZM82.9951 204.31C84.5151 204.31 85.5551 204.07 86.1151 203.59C86.6951 203.11 86.9851 202.4 86.9851 201.46C86.9851 200.5 86.6451 199.81 85.9651 199.39C85.2851 198.97 84.1951 198.76 82.6951 198.76H79.8751V204.31H82.9951ZM79.8751 207.4V213.79H83.3551C84.9151 213.79 85.9951 213.49 86.5951 212.89C87.2151 212.29 87.5251 211.49 87.5251 210.49C87.5251 209.85 87.3951 209.3 87.1351 208.84C86.8751 208.38 86.4251 208.03 85.7851 207.79C85.1451 207.53 84.2751 207.4 83.1751 207.4H79.8751ZM99.107 208.69L93.737 200.74H98.027L101.567 206.26L105.107 200.74H109.397L103.967 208.69L109.667 217H105.377L101.567 211.09L97.757 217H93.467L99.107 208.69ZM126.318 208.84C126.318 210.2 126.138 211.4 125.778 212.44C125.418 213.48 124.898 214.37 124.218 215.11C123.558 215.83 122.738 216.38 121.758 216.76C120.798 217.12 119.728 217.3 118.548 217.3C117.428 217.3 116.398 217.12 115.458 216.76C114.518 216.38 113.698 215.83 112.998 215.11C112.318 214.37 111.788 213.48 111.408 212.44C111.028 211.4 110.838 210.2 110.838 208.84C110.838 207.04 111.148 205.52 111.768 204.28C112.388 203.02 113.278 202.07 114.438 201.43C115.618 200.77 117.008 200.44 118.608 200.44C120.128 200.44 121.458 200.77 122.598 201.43C123.758 202.07 124.668 203.02 125.328 204.28C125.988 205.52 126.318 207.04 126.318 208.84ZM114.708 208.84C114.708 209.98 114.838 210.96 115.098 211.78C115.378 212.58 115.798 213.19 116.358 213.61C116.938 214.03 117.678 214.24 118.578 214.24C119.498 214.24 120.238 214.03 120.798 213.61C121.378 213.19 121.798 212.58 122.058 211.78C122.318 210.96 122.448 209.98 122.448 208.84C122.448 207.68 122.308 206.71 122.028 205.93C121.768 205.13 121.348 204.53 120.768 204.13C120.208 203.71 119.478 203.5 118.578 203.5C117.218 203.5 116.228 203.96 115.608 204.88C115.008 205.8 114.708 207.12 114.708 208.84ZM143.906 200.74V214.12H146.276V222.76H142.796V217H131.726V222.76H128.276V214.12H129.626C130.426 212.96 131.096 211.66 131.636 210.22C132.176 208.76 132.596 207.22 132.896 205.6C133.196 203.98 133.396 202.36 133.496 200.74H143.906ZM136.706 203.62C136.586 204.88 136.386 206.14 136.106 207.4C135.826 208.64 135.476 209.83 135.056 210.97C134.636 212.11 134.136 213.16 133.556 214.12H140.156V203.62H136.706ZM170.729 200.74V217H166.949V203.68H160.139V217H156.359V200.74H170.729ZM190.097 208.84C190.097 210.2 189.917 211.4 189.557 212.44C189.197 213.48 188.677 214.37 187.997 215.11C187.337 215.83 186.517 216.38 185.537 216.76C184.577 217.12 183.507 217.3 182.327 217.3C181.207 217.3 180.177 217.12 179.237 216.76C178.297 216.38 177.477 215.83 176.777 215.11C176.097 214.37 175.567 213.48 175.187 212.44C174.807 211.4 174.617 210.2 174.617 208.84C174.617 207.04 174.927 205.52 175.547 204.28C176.167 203.02 177.057 202.07 178.217 201.43C179.397 200.77 180.787 200.44 182.387 200.44C183.907 200.44 185.237 200.77 186.377 201.43C187.537 202.07 188.447 203.02 189.107 204.28C189.767 205.52 190.097 207.04 190.097 208.84ZM178.487 208.84C178.487 209.98 178.617 210.96 178.877 211.78C179.157 212.58 179.577 213.19 180.137 213.61C180.717 214.03 181.457 214.24 182.357 214.24C183.277 214.24 184.017 214.03 184.577 213.61C185.157 213.19 185.577 212.58 185.837 211.78C186.097 210.96 186.227 209.98 186.227 208.84C186.227 207.68 186.087 206.71 185.807 205.93C185.547 205.13 185.127 204.53 184.547 204.13C183.987 203.71 183.257 203.5 182.357 203.5C180.997 203.5 180.007 203.96 179.387 204.88C178.787 205.8 178.487 207.12 178.487 208.84ZM215.674 208.84C215.674 210.2 215.494 211.4 215.134 212.44C214.774 213.48 214.254 214.37 213.574 215.11C212.914 215.83 212.094 216.38 211.114 216.76C210.154 217.12 209.084 217.3 207.904 217.3C206.784 217.3 205.754 217.12 204.814 216.76C203.874 216.38 203.054 215.83 202.354 215.11C201.674 214.37 201.144 213.48 200.764 212.44C200.384 211.4 200.194 210.2 200.194 208.84C200.194 207.04 200.504 205.52 201.124 204.28C201.744 203.02 202.634 202.07 203.794 201.43C204.974 200.77 206.364 200.44 207.964 200.44C209.484 200.44 210.814 200.77 211.954 201.43C213.114 202.07 214.024 203.02 214.684 204.28C215.344 205.52 215.674 207.04 215.674 208.84ZM204.064 208.84C204.064 209.98 204.194 210.96 204.454 211.78C204.734 212.58 205.154 213.19 205.714 213.61C206.294 214.03 207.034 214.24 207.934 214.24C208.854 214.24 209.594 214.03 210.154 213.61C210.734 213.19 211.154 212.58 211.414 211.78C211.674 210.96 211.804 209.98 211.804 208.84C211.804 207.68 211.664 206.71 211.384 205.93C211.124 205.13 210.704 204.53 210.124 204.13C209.564 203.71 208.834 203.5 207.934 203.5C206.574 203.5 205.584 203.96 204.964 204.88C204.364 205.8 204.064 207.12 204.064 208.84ZM231.918 203.65H226.578V217H222.828V203.65H217.518V200.74H231.918V203.65ZM249.391 200.74V217H245.611V203.68H238.801V217H235.021V200.74H249.391ZM260.78 200.44C262.24 200.44 263.49 200.74 264.53 201.34C265.59 201.92 266.41 202.76 266.99 203.86C267.57 204.94 267.86 206.26 267.86 207.82V209.74H257.12C257.16 211.22 257.57 212.37 258.35 213.19C259.13 213.99 260.21 214.39 261.59 214.39C262.65 214.39 263.59 214.29 264.41 214.09C265.25 213.87 266.11 213.56 266.99 213.16V216.19C266.19 216.57 265.36 216.85 264.5 217.03C263.64 217.21 262.61 217.3 261.41 217.3C259.83 217.3 258.42 217 257.18 216.4C255.96 215.78 255 214.85 254.3 213.61C253.62 212.37 253.28 210.83 253.28 208.99C253.28 207.13 253.59 205.57 254.21 204.31C254.85 203.03 255.73 202.07 256.85 201.43C257.97 200.77 259.28 200.44 260.78 200.44ZM260.78 203.23C259.78 203.23 258.96 203.56 258.32 204.22C257.7 204.86 257.33 205.82 257.21 207.1H264.2C264.2 206.34 264.07 205.67 263.81 205.09C263.57 204.51 263.2 204.06 262.7 203.74C262.2 203.4 261.56 203.23 260.78 203.23ZM274.971 206.68C274.971 207.46 275.181 208.05 275.601 208.45C276.021 208.85 276.611 209.05 277.371 209.05C278.291 209.05 279.131 208.93 279.891 208.69C280.671 208.45 281.451 208.14 282.231 207.76V200.74H286.011V217H282.231V210.25C281.451 210.69 280.621 211.07 279.741 211.39C278.861 211.71 277.831 211.87 276.651 211.87C274.971 211.87 273.641 211.44 272.661 210.58C271.681 209.7 271.191 208.44 271.191 206.8V200.74H274.971V206.68ZM297.341 200.44C299.441 200.44 301.031 200.9 302.111 201.82C303.211 202.72 303.761 204.14 303.761 206.08V217H301.091L300.341 214.75H300.221C299.761 215.33 299.281 215.82 298.781 216.22C298.301 216.6 297.741 216.87 297.101 217.03C296.481 217.21 295.721 217.3 294.821 217.3C293.861 217.3 292.991 217.12 292.211 216.76C291.451 216.4 290.851 215.85 290.411 215.11C289.971 214.35 289.751 213.4 289.751 212.26C289.751 210.58 290.361 209.32 291.581 208.48C292.821 207.62 294.691 207.15 297.191 207.07L300.011 206.98V206.17C300.011 205.13 299.761 204.39 299.261 203.95C298.761 203.51 298.061 203.29 297.161 203.29C296.341 203.29 295.551 203.41 294.791 203.65C294.031 203.89 293.291 204.17 292.571 204.49L291.371 201.85C292.171 201.43 293.081 201.09 294.101 200.83C295.141 200.57 296.221 200.44 297.341 200.44ZM298.031 209.38C296.371 209.44 295.221 209.73 294.581 210.25C293.941 210.75 293.621 211.43 293.621 212.29C293.621 213.05 293.851 213.6 294.311 213.94C294.771 214.28 295.361 214.45 296.081 214.45C297.181 214.45 298.111 214.14 298.871 213.52C299.631 212.88 300.011 211.94 300.011 210.7V209.32L298.031 209.38ZM321.127 203.65H315.787V217H312.037V203.65H306.727V200.74H321.127V203.65ZM334.49 200.74H338.66L332.03 208.54L339.23 217H334.91L328.01 208.75V217H324.23V200.74H328.01V208.63L334.49 200.74ZM339.349 200.74H343.459L346.699 209.92C346.839 210.32 346.959 210.71 347.059 211.09C347.179 211.45 347.279 211.82 347.359 212.2C347.439 212.58 347.499 212.96 347.539 213.34H347.659C347.739 212.84 347.859 212.29 348.019 211.69C348.199 211.09 348.379 210.5 348.559 209.92L351.679 200.74H355.759L348.829 219.16C348.429 220.22 347.919 221.13 347.299 221.89C346.699 222.65 345.979 223.22 345.139 223.6C344.319 224 343.389 224.2 342.349 224.2C341.869 224.2 341.439 224.17 341.059 224.11C340.699 224.07 340.379 224.02 340.099 223.96V220.96C340.319 221 340.579 221.04 340.879 221.08C341.199 221.12 341.529 221.14 341.869 221.14C342.489 221.14 343.019 221.01 343.459 220.75C343.919 220.51 344.299 220.17 344.599 219.73C344.919 219.29 345.179 218.8 345.379 218.26L345.859 216.94L339.349 200.74Z" fill="white"/>
<path d="M153.336 151.088V139.642H162.714V151.088H159.604V142.175H156.446V151.088H153.336ZM169.147 139.642C170.601 139.642 171.686 139.957 172.402 140.587C173.129 141.218 173.492 142.116 173.492 143.281C173.492 143.805 173.417 144.307 173.268 144.788C173.118 145.258 172.872 145.686 172.53 146.07C172.199 146.444 171.755 146.744 171.199 146.968C170.644 147.182 169.96 147.289 169.147 147.289H168.282V151.088H165.187V139.642H169.147ZM169.083 142.143H168.282V144.772H168.891C169.158 144.772 169.404 144.729 169.628 144.644C169.863 144.547 170.05 144.398 170.189 144.195C170.328 143.981 170.398 143.703 170.398 143.361C170.398 142.998 170.291 142.704 170.077 142.479C169.863 142.255 169.532 142.143 169.083 142.143ZM186.026 145.349C186.026 146.236 185.919 147.043 185.706 147.77C185.492 148.486 185.161 149.106 184.712 149.629C184.263 150.153 183.686 150.554 182.98 150.832C182.286 151.11 181.447 151.249 180.463 151.249C179.501 151.249 178.668 151.11 177.962 150.832C177.268 150.554 176.69 150.153 176.231 149.629C175.782 149.106 175.445 148.486 175.221 147.77C175.007 147.043 174.9 146.231 174.9 145.333C174.9 144.147 175.098 143.115 175.493 142.239C175.889 141.352 176.498 140.668 177.321 140.187C178.144 139.706 179.197 139.465 180.479 139.465C181.783 139.465 182.841 139.711 183.654 140.203C184.477 140.684 185.075 141.368 185.449 142.255C185.834 143.131 186.026 144.163 186.026 145.349ZM178.155 145.349C178.155 146.033 178.229 146.626 178.379 147.128C178.539 147.62 178.791 148 179.133 148.267C179.475 148.534 179.918 148.668 180.463 148.668C181.03 148.668 181.479 148.534 181.81 148.267C182.152 148 182.398 147.62 182.547 147.128C182.697 146.626 182.772 146.033 182.772 145.349C182.772 144.312 182.601 143.495 182.259 142.896C181.917 142.298 181.324 141.998 180.479 141.998C179.923 141.998 179.475 142.137 179.133 142.415C178.791 142.682 178.539 143.067 178.379 143.569C178.229 144.061 178.155 144.654 178.155 145.349ZM196.461 139.642V149.581H197.936V154.199H196.269V151.088H188.605V154.199H186.954V149.581H187.836C188.189 148.94 188.531 148.235 188.862 147.465C189.193 146.685 189.487 145.867 189.744 145.012C190 144.147 190.214 143.265 190.385 142.367C190.567 141.459 190.695 140.55 190.77 139.642H196.461ZM192.229 141.149C192.175 141.758 192.068 142.431 191.908 143.169C191.748 143.895 191.55 144.644 191.315 145.413C191.09 146.183 190.834 146.931 190.545 147.658C190.267 148.374 189.974 149.015 189.664 149.581H194.746V141.149H192.229ZM203.161 139.642C204.133 139.642 204.946 139.732 205.598 139.914C206.26 140.096 206.757 140.4 207.089 140.828C207.431 141.245 207.602 141.801 207.602 142.495C207.602 142.944 207.521 143.345 207.361 143.698C207.201 144.04 206.966 144.328 206.656 144.563C206.356 144.788 205.982 144.937 205.533 145.012V145.092C205.993 145.167 206.405 145.306 206.768 145.509C207.131 145.702 207.42 145.985 207.634 146.359C207.847 146.733 207.954 147.219 207.954 147.818C207.954 148.513 207.789 149.106 207.457 149.597C207.137 150.078 206.672 150.447 206.062 150.704C205.464 150.96 204.748 151.088 203.914 151.088H199.81V139.642H203.161ZM203.449 144.419C204.347 144.419 204.962 144.275 205.293 143.986C205.635 143.698 205.806 143.27 205.806 142.704C205.806 142.127 205.603 141.715 205.197 141.469C204.791 141.223 204.144 141.1 203.257 141.1H201.541V144.419H203.449ZM201.541 145.83V149.646H203.642C204.572 149.646 205.218 149.464 205.582 149.1C205.945 148.737 206.127 148.256 206.127 147.658C206.127 147.294 206.046 146.974 205.886 146.696C205.726 146.418 205.453 146.204 205.069 146.054C204.694 145.905 204.181 145.83 203.529 145.83H201.541ZM210.347 139.642H211.934V145.702C211.934 145.969 211.929 146.263 211.918 146.583C211.918 146.904 211.913 147.219 211.902 147.529C211.891 147.839 211.875 148.117 211.854 148.363C211.843 148.598 211.833 148.774 211.822 148.892H211.886L217.882 139.642H219.87V151.088H218.283V145.076C218.283 144.788 218.288 144.478 218.299 144.147C218.31 143.805 218.32 143.473 218.331 143.153C218.352 142.832 218.368 142.554 218.379 142.319C218.39 142.073 218.4 141.897 218.411 141.79H218.347L212.335 151.088H210.347V139.642ZM225.837 145.189L221.572 139.642H223.432L227.616 145.189V139.642H229.252V145.189L233.436 139.642H235.296L231.031 145.173L235.472 151.088H233.532L229.252 145.285V151.088H227.616V145.285L223.32 151.088H221.396L225.837 145.189ZM243.454 151.088H237.009V139.642H243.454V141.117H238.741V144.387H243.165V145.846H238.741V149.597H243.454V151.088ZM254.863 151.088H253.132V145.862H247.665V151.088H245.933V139.642H247.665V144.387H253.132V139.642H254.863V151.088ZM257.942 139.642H259.529V145.702C259.529 145.969 259.524 146.263 259.513 146.583C259.513 146.904 259.508 147.219 259.497 147.529C259.486 147.839 259.47 148.117 259.449 148.363C259.438 148.598 259.428 148.774 259.417 148.892H259.481L265.477 139.642H267.465V151.088H265.878V145.076C265.878 144.788 265.883 144.478 265.894 144.147C265.904 143.805 265.915 143.473 265.926 143.153C265.947 142.832 265.963 142.554 265.974 142.319C265.985 142.073 265.995 141.897 266.006 141.79H265.942L259.93 151.088H257.942V139.642ZM276.943 151.088H270.498V139.642H276.943V141.117H272.229V144.387H276.654V145.846H272.229V149.597H276.943V151.088Z" fill="#092948"/>
<g clip-path="url(#clip1_318_1397)">
<path d="M205.186 99.807C205.186 97.2061 206.212 94.7116 208.038 92.8724C209.865 91.0332 212.342 90 214.925 90C217.508 90 219.985 91.0332 221.812 92.8724C223.638 94.7116 224.664 97.2061 224.664 99.807C224.664 102.408 223.638 104.902 221.812 106.742C219.985 108.581 217.508 109.614 214.925 109.614C212.342 109.614 209.865 108.581 208.038 106.742C206.212 104.902 205.186 102.408 205.186 99.807ZM214.925 95.4484C215.52 95.4484 216.007 94.958 216.007 94.3587C216.007 93.7594 215.52 93.269 214.925 93.269C211.34 93.269 208.432 96.1975 208.432 99.807C208.432 100.406 208.919 100.897 209.514 100.897C210.109 100.897 210.596 100.406 210.596 99.807C210.596 97.403 212.537 95.4484 214.925 95.4484ZM212.761 122.69V111.596C214.192 111.859 215.658 111.859 217.089 111.596V122.69C217.089 123.896 216.122 124.869 214.925 124.869C213.728 124.869 212.761 123.896 212.761 122.69Z" fill="white"/>
</g>
<rect x="33.5" y="794.5" width="362" height="44" rx="22" fill="white" stroke="#6DB6FE"/>
<path d="M126.325 810.29H128.065V815.735C128.065 815.985 128.06 816.265 128.05 816.575C128.05 816.875 128.045 817.17 128.035 817.46C128.025 817.75 128.01 818.005 127.99 818.225C127.98 818.445 127.97 818.6 127.96 818.69H128.02L133.33 810.29H135.58V821H133.84V815.6C133.84 815.33 133.845 815.035 133.855 814.715C133.865 814.395 133.875 814.085 133.885 813.785C133.905 813.485 133.92 813.225 133.93 813.005C133.95 812.775 133.965 812.615 133.975 812.525H133.915L128.59 821H126.325V810.29ZM141.457 821.15C140.687 821.15 140.017 821.005 139.447 820.715C138.887 820.415 138.452 819.96 138.142 819.35C137.842 818.73 137.692 817.94 137.692 816.98C137.692 815.98 137.857 815.17 138.187 814.55C138.527 813.92 138.992 813.46 139.582 813.17C140.172 812.87 140.847 812.72 141.607 812.72C142.117 812.72 142.572 812.77 142.972 812.87C143.372 812.97 143.712 813.09 143.992 813.23L143.437 814.715C143.127 814.595 142.817 814.495 142.507 814.415C142.197 814.325 141.897 814.28 141.607 814.28C141.157 814.28 140.782 814.38 140.482 814.58C140.192 814.78 139.977 815.08 139.837 815.48C139.697 815.87 139.627 816.365 139.627 816.965C139.627 817.545 139.697 818.03 139.837 818.42C139.987 818.81 140.207 819.105 140.497 819.305C140.787 819.495 141.147 819.59 141.577 819.59C142.037 819.59 142.442 819.535 142.792 819.425C143.142 819.315 143.472 819.165 143.782 818.975V820.61C143.472 820.8 143.137 820.935 142.777 821.015C142.427 821.105 141.987 821.15 141.457 821.15ZM152.871 812.87V821H150.981V814.34H147.576V821H145.686V812.87H152.871ZM162.556 816.92C162.556 817.6 162.466 818.2 162.286 818.72C162.106 819.24 161.846 819.685 161.506 820.055C161.176 820.415 160.766 820.69 160.276 820.88C159.796 821.06 159.261 821.15 158.671 821.15C158.111 821.15 157.596 821.06 157.126 820.88C156.656 820.69 156.246 820.415 155.896 820.055C155.556 819.685 155.291 819.24 155.101 818.72C154.911 818.2 154.816 817.6 154.816 816.92C154.816 816.02 154.971 815.26 155.281 814.64C155.591 814.01 156.036 813.535 156.616 813.215C157.206 812.885 157.901 812.72 158.701 812.72C159.461 812.72 160.126 812.885 160.696 813.215C161.276 813.535 161.731 814.01 162.061 814.64C162.391 815.26 162.556 816.02 162.556 816.92ZM156.751 816.92C156.751 817.49 156.816 817.98 156.946 818.39C157.086 818.79 157.296 819.095 157.576 819.305C157.866 819.515 158.236 819.62 158.686 819.62C159.146 819.62 159.516 819.515 159.796 819.305C160.086 819.095 160.296 818.79 160.426 818.39C160.556 817.98 160.621 817.49 160.621 816.92C160.621 816.34 160.551 815.855 160.411 815.465C160.281 815.065 160.071 814.765 159.781 814.565C159.501 814.355 159.136 814.25 158.686 814.25C158.006 814.25 157.511 814.48 157.201 814.94C156.901 815.4 156.751 816.06 156.751 816.92ZM171.379 821H169.489V814.325H167.314C167.214 815.555 167.089 816.6 166.939 817.46C166.789 818.32 166.604 819.025 166.384 819.575C166.164 820.115 165.889 820.51 165.559 820.76C165.239 821.01 164.849 821.135 164.389 821.135C164.179 821.135 163.984 821.12 163.804 821.09C163.624 821.06 163.469 821.01 163.339 820.94V819.455C163.429 819.485 163.524 819.515 163.624 819.545C163.724 819.565 163.829 819.575 163.939 819.575C164.109 819.575 164.264 819.51 164.404 819.38C164.554 819.24 164.689 819.015 164.809 818.705C164.939 818.385 165.059 817.965 165.169 817.445C165.279 816.925 165.374 816.29 165.454 815.54C165.544 814.78 165.624 813.89 165.694 812.87H171.379V821ZM177.576 816.08C178.366 816.08 179.016 816.17 179.526 816.35C180.046 816.52 180.431 816.78 180.681 817.13C180.941 817.48 181.071 817.92 181.071 818.45C181.071 818.97 180.951 819.42 180.711 819.8C180.471 820.18 180.096 820.475 179.586 820.685C179.086 820.895 178.426 821 177.606 821H173.811V812.87H175.701V816.08H177.576ZM179.181 818.495C179.181 818.105 179.036 817.835 178.746 817.685C178.456 817.535 178.036 817.46 177.486 817.46H175.701V819.635H177.516C178.006 819.635 178.406 819.55 178.716 819.38C179.026 819.2 179.181 818.905 179.181 818.495ZM185.563 812.72C186.163 812.72 186.708 812.8 187.198 812.96C187.688 813.12 188.078 813.36 188.368 813.68C188.658 813.99 188.803 814.385 188.803 814.865C188.803 815.355 188.658 815.745 188.368 816.035C188.088 816.325 187.703 816.535 187.213 816.665V816.74C187.553 816.82 187.858 816.935 188.128 817.085C188.408 817.235 188.628 817.435 188.788 817.685C188.958 817.935 189.043 818.265 189.043 818.675C189.043 819.125 188.908 819.54 188.638 819.92C188.368 820.29 187.953 820.59 187.393 820.82C186.833 821.04 186.113 821.15 185.233 821.15C184.813 821.15 184.418 821.13 184.048 821.09C183.678 821.05 183.338 820.995 183.028 820.925C182.728 820.845 182.463 820.75 182.233 820.64V819.035C182.573 819.195 182.983 819.34 183.463 819.47C183.953 819.6 184.473 819.665 185.023 819.665C185.433 819.665 185.798 819.63 186.118 819.56C186.448 819.49 186.708 819.375 186.898 819.215C187.098 819.055 187.198 818.84 187.198 818.57C187.198 818.31 187.113 818.1 186.943 817.94C186.773 817.77 186.518 817.645 186.178 817.565C185.838 817.485 185.403 817.445 184.873 817.445H183.928V816.08H184.768C185.488 816.08 186.053 816.01 186.463 815.87C186.873 815.72 187.078 815.455 187.078 815.075C187.078 814.775 186.938 814.55 186.658 814.4C186.378 814.24 185.943 814.16 185.353 814.16C184.943 814.16 184.533 814.205 184.123 814.295C183.713 814.375 183.303 814.5 182.893 814.67L182.308 813.305C182.758 813.125 183.248 812.985 183.778 812.885C184.308 812.775 184.903 812.72 185.563 812.72ZM198.122 816.92C198.122 817.6 198.032 818.2 197.852 818.72C197.672 819.24 197.412 819.685 197.072 820.055C196.742 820.415 196.332 820.69 195.842 820.88C195.362 821.06 194.827 821.15 194.237 821.15C193.677 821.15 193.162 821.06 192.692 820.88C192.222 820.69 191.812 820.415 191.462 820.055C191.122 819.685 190.857 819.24 190.667 818.72C190.477 818.2 190.382 817.6 190.382 816.92C190.382 816.02 190.537 815.26 190.847 814.64C191.157 814.01 191.602 813.535 192.182 813.215C192.772 812.885 193.467 812.72 194.267 812.72C195.027 812.72 195.692 812.885 196.262 813.215C196.842 813.535 197.297 814.01 197.627 814.64C197.957 815.26 198.122 816.02 198.122 816.92ZM192.317 816.92C192.317 817.49 192.382 817.98 192.512 818.39C192.652 818.79 192.862 819.095 193.142 819.305C193.432 819.515 193.802 819.62 194.252 819.62C194.712 819.62 195.082 819.515 195.362 819.305C195.652 819.095 195.862 818.79 195.992 818.39C196.122 817.98 196.187 817.49 196.187 816.92C196.187 816.34 196.117 815.855 195.977 815.465C195.847 815.065 195.637 814.765 195.347 814.565C195.067 814.355 194.702 814.25 194.252 814.25C193.572 814.25 193.077 814.48 192.767 814.94C192.467 815.4 192.317 816.06 192.317 816.92ZM207.036 814.97C207.036 815.43 206.891 815.81 206.601 816.11C206.321 816.41 205.921 816.605 205.401 816.695V816.755C205.951 816.825 206.401 817.015 206.751 817.325C207.111 817.625 207.291 818.045 207.291 818.585C207.291 818.935 207.221 819.26 207.081 819.56C206.951 819.85 206.746 820.105 206.466 820.325C206.196 820.535 205.841 820.7 205.401 820.82C204.961 820.94 204.431 821 203.811 821H200.076V812.87H203.796C204.416 812.87 204.966 812.935 205.446 813.065C205.936 813.195 206.321 813.415 206.601 813.725C206.891 814.025 207.036 814.44 207.036 814.97ZM205.326 818.51C205.326 818.14 205.181 817.875 204.891 817.715C204.611 817.545 204.186 817.46 203.616 817.46H201.966V819.635H203.661C204.171 819.635 204.576 819.55 204.876 819.38C205.176 819.21 205.326 818.92 205.326 818.51ZM205.116 815.135C205.116 814.835 205.001 814.615 204.771 814.475C204.541 814.335 204.191 814.265 203.721 814.265H201.966V816.095H203.466C204.006 816.095 204.416 816.02 204.696 815.87C204.976 815.72 205.116 815.475 205.116 815.135ZM212.456 812.72C213.506 812.72 214.301 812.95 214.841 813.41C215.391 813.86 215.666 814.57 215.666 815.54V821H214.331L213.956 819.875H213.896C213.666 820.165 213.426 820.41 213.176 820.61C212.936 820.8 212.656 820.935 212.336 821.015C212.026 821.105 211.646 821.15 211.196 821.15C210.716 821.15 210.281 821.06 209.891 820.88C209.511 820.7 209.211 820.425 208.991 820.055C208.771 819.675 208.661 819.2 208.661 818.63C208.661 817.79 208.966 817.16 209.576 816.74C210.196 816.31 211.131 816.075 212.381 816.035L213.791 815.99V815.585C213.791 815.065 213.666 814.695 213.416 814.475C213.166 814.255 212.816 814.145 212.366 814.145C211.956 814.145 211.561 814.205 211.181 814.325C210.801 814.445 210.431 814.585 210.071 814.745L209.471 813.425C209.871 813.215 210.326 813.045 210.836 812.915C211.356 812.785 211.896 812.72 212.456 812.72ZM212.801 817.19C211.971 817.22 211.396 817.365 211.076 817.625C210.756 817.875 210.596 818.215 210.596 818.645C210.596 819.025 210.711 819.3 210.941 819.47C211.171 819.64 211.466 819.725 211.826 819.725C212.376 819.725 212.841 819.57 213.221 819.26C213.601 818.94 213.791 818.47 213.791 817.85V817.16L212.801 817.19ZM224.35 814.325H221.68V821H219.805V814.325H217.15V812.87H224.35V814.325ZM229.666 816.08C230.456 816.08 231.106 816.17 231.616 816.35C232.136 816.52 232.521 816.78 232.771 817.13C233.031 817.48 233.161 817.92 233.161 818.45C233.161 818.97 233.041 819.42 232.801 819.8C232.561 820.18 232.186 820.475 231.676 820.685C231.176 820.895 230.516 821 229.696 821H225.901V812.87H227.791V816.08H229.666ZM231.271 818.495C231.271 818.105 231.126 817.835 230.836 817.685C230.546 817.535 230.126 817.46 229.576 817.46H227.791V819.635H229.606C230.096 819.635 230.496 819.55 230.806 819.38C231.116 819.2 231.271 818.905 231.271 818.495ZM245.757 812.87V821H243.867V814.34H240.462V821H238.572V812.87H245.757ZM249.996 816.74C249.996 816.88 249.986 817.06 249.966 817.28C249.956 817.49 249.946 817.715 249.936 817.955C249.926 818.185 249.911 818.395 249.891 818.585C249.881 818.765 249.871 818.9 249.861 818.99L253.836 812.87H256.116V821H254.301V817.175C254.301 816.945 254.306 816.68 254.316 816.38C254.336 816.08 254.356 815.795 254.376 815.525C254.396 815.245 254.411 815.035 254.421 814.895L250.461 821H248.181V812.87H249.996V816.74ZM260.442 812.87V816.095H264.027V812.87H265.917V821H264.027V817.55H260.442V821H258.552V812.87H260.442ZM274.562 814.76V816.53H268.202V814.76H274.562ZM282.227 812.87H284.312L280.997 816.77L284.597 821H282.437L278.987 816.875V821H277.097V812.87H278.987V816.815L282.227 812.87ZM292.839 816.92C292.839 817.6 292.749 818.2 292.569 818.72C292.389 819.24 292.129 819.685 291.789 820.055C291.459 820.415 291.049 820.69 290.559 820.88C290.079 821.06 289.544 821.15 288.954 821.15C288.394 821.15 287.879 821.06 287.409 820.88C286.939 820.69 286.529 820.415 286.179 820.055C285.839 819.685 285.574 819.24 285.384 818.72C285.194 818.2 285.099 817.6 285.099 816.92C285.099 816.02 285.254 815.26 285.564 814.64C285.874 814.01 286.319 813.535 286.899 813.215C287.489 812.885 288.184 812.72 288.984 812.72C289.744 812.72 290.409 812.885 290.979 813.215C291.559 813.535 292.014 814.01 292.344 814.64C292.674 815.26 292.839 816.02 292.839 816.92ZM287.034 816.92C287.034 817.49 287.099 817.98 287.229 818.39C287.369 818.79 287.579 819.095 287.859 819.305C288.149 819.515 288.519 819.62 288.969 819.62C289.429 819.62 289.799 819.515 290.079 819.305C290.369 819.095 290.579 818.79 290.709 818.39C290.839 817.98 290.904 817.49 290.904 816.92C290.904 816.34 290.834 815.855 290.694 815.465C290.564 815.065 290.354 814.765 290.064 814.565C289.784 814.355 289.419 814.25 288.969 814.25C288.289 814.25 287.794 814.48 287.484 814.94C287.184 815.4 287.034 816.06 287.034 816.92ZM301.633 812.87V819.56H302.818V823.88H301.078V821H295.543V823.88H293.818V819.56H294.493C294.893 818.98 295.228 818.33 295.498 817.61C295.768 816.88 295.978 816.11 296.128 815.3C296.278 814.49 296.378 813.68 296.428 812.87H301.633ZM298.033 814.31C297.973 814.94 297.873 815.57 297.733 816.2C297.593 816.82 297.418 817.415 297.208 817.985C296.998 818.555 296.748 819.08 296.458 819.56H299.758V814.31H298.033Z" fill="#000306"/>
</g>
<defs>
<clipPath id="clip0_318_1397">
<rect width="430" height="932" rx="40" fill="white"/>
</clipPath>
<clipPath id="clip1_318_1397">
<rect width="21.7183" height="34.7493" fill="white" transform="translate(204.104 90)"/>
</clipPath>
</defs>
</svg>
