<svg width="144" height="144" viewBox="0 0 144 144" fill="none" xmlns="http://www.w3.org/2000/svg">
<rect width="144" height="144" rx="20" fill="#EBF7FF"/>
<path d="M48 52.4688C48 45.9792 50.5602 39.7555 55.1173 35.1667C59.6744 30.578 65.8552 28 72.3 28C78.7448 28 84.9256 30.578 89.4827 35.1667C94.0398 39.7555 96.6 45.9792 96.6 52.4688C96.6 58.9583 94.0398 65.182 89.4827 69.7708C84.9256 74.3596 78.7448 76.9375 72.3 76.9375C65.8552 76.9375 59.6744 74.3596 55.1173 69.7708C50.5602 65.182 48 58.9583 48 52.4688ZM72.3 41.5938C73.785 41.5938 75 40.3703 75 38.875C75 37.3797 73.785 36.1562 72.3 36.1562C63.3563 36.1562 56.1 43.4629 56.1 52.4688C56.1 53.9641 57.315 55.1875 58.8 55.1875C60.285 55.1875 61.5 53.9641 61.5 52.4688C61.5 46.4705 66.3431 41.5938 72.3 41.5938ZM66.9 109.562V81.8822C70.4704 82.5393 74.1296 82.5393 77.7 81.8822V109.562C77.7 112.57 75.2869 115 72.3 115C69.3131 115 66.9 112.57 66.9 109.562Z" fill="url(#paint0_linear_1_6899)"/>
<defs>
<linearGradient id="paint0_linear_1_6899" x1="96.2998" y1="28" x2="48.2998" y2="115" gradientUnits="userSpaceOnUse">
<stop offset="0.1" stop-color="#62A744"/>
<stop offset="1" stop-color="#3A95E0"/>
</linearGradient>
</defs>
</svg>
