<svg width="115" height="106" viewBox="0 0 115 106" fill="none" xmlns="http://www.w3.org/2000/svg">
<path d="M58.5 93.125C58.569 93.125 58.625 93.069 58.625 93C58.625 92.931 58.569 92.875 58.5 92.875V93V93.125ZM1 93V93.125H58.5V93V92.875H1V93Z" fill="url(#paint0_linear_653_190)"/>
<path d="M64.672 100.368C64.176 100.368 63.76 100.224 63.424 99.936C63.104 99.664 62.944 99.272 62.944 98.76C62.944 98.632 62.976 98.44 63.04 98.184C63.12 97.912 63.216 97.664 63.328 97.44C63.456 97.2 63.592 97.08 63.736 97.08C63.832 97.08 63.88 97.144 63.88 97.272C63.88 97.416 63.8 97.6 63.64 97.824C63.48 98.032 63.4 98.304 63.4 98.64C63.4 98.944 63.488 99.176 63.664 99.336C63.84 99.496 64.072 99.576 64.36 99.576C65.096 99.576 65.904 99.416 66.784 99.096C67.68 98.776 68.56 98.352 69.424 97.824C70.288 97.296 71.056 96.712 71.728 96.072C72.416 95.416 72.912 94.752 73.216 94.08C73.328 93.856 73.384 93.648 73.384 93.456C73.384 93.104 73.232 92.888 72.928 92.808C72.624 92.712 72.344 92.664 72.088 92.664C71.112 92.664 70.088 92.72 69.016 92.832C67.944 92.944 66.872 93 65.8 93C65.304 93 64.824 92.928 64.36 92.784C63.912 92.64 63.536 92.4 63.232 92.064C62.944 91.728 62.8 91.272 62.8 90.696C62.8 89.992 63.024 89.288 63.472 88.584C63.92 87.88 64.48 87.216 65.152 86.592C65.84 85.968 66.552 85.424 67.288 84.96C68.04 84.48 68.704 84.12 69.28 83.88C69.84 83.656 70.392 83.472 70.936 83.328C71.496 83.184 72.072 83.112 72.664 83.112H73C73.592 83.112 74.176 83.2 74.752 83.376C75.328 83.552 75.808 83.848 76.192 84.264C76.576 84.664 76.768 85.208 76.768 85.896C76.768 86.024 76.744 86.24 76.696 86.544C76.664 86.832 76.6 87.104 76.504 87.36C76.408 87.6 76.272 87.72 76.096 87.72C76.016 87.72 75.976 87.672 75.976 87.576C75.976 87.368 76.016 87.16 76.096 86.952C76.176 86.744 76.216 86.536 76.216 86.328C76.216 85.752 76.048 85.28 75.712 84.912C75.376 84.544 74.96 84.272 74.464 84.096C73.968 83.92 73.464 83.832 72.952 83.832C72.312 83.832 71.592 83.952 70.792 84.192C69.992 84.432 69.192 84.768 68.392 85.2C67.592 85.632 66.848 86.144 66.16 86.736C65.488 87.312 64.944 87.936 64.528 88.608C64.112 89.28 63.904 89.976 63.904 90.696C63.904 91.048 64.008 91.352 64.216 91.608C64.44 91.848 64.712 92.032 65.032 92.16C65.368 92.288 65.688 92.352 65.992 92.352C67.064 92.352 68.12 92.272 69.16 92.112C70.216 91.936 71.264 91.848 72.304 91.848C72.608 91.848 72.912 91.888 73.216 91.968C73.52 92.032 73.768 92.168 73.96 92.376C74.168 92.568 74.272 92.848 74.272 93.216C74.272 93.888 74.04 94.568 73.576 95.256C73.112 95.928 72.512 96.576 71.776 97.2C71.04 97.808 70.232 98.352 69.352 98.832C68.488 99.312 67.64 99.688 66.808 99.96C65.992 100.232 65.28 100.368 64.672 100.368ZM78.5614 98.592C78.2094 98.592 77.9294 98.472 77.7214 98.232C77.5134 97.976 77.3534 97.664 77.2414 97.296C77.1454 96.912 77.0814 96.536 77.0494 96.168C77.0174 95.784 77.0014 95.472 77.0014 95.232C77.0014 94.368 77.0334 93.496 77.0974 92.616C77.1774 91.736 77.2574 90.864 77.3374 90C77.0654 90.112 76.8014 90.24 76.5454 90.384C76.3054 90.528 76.0814 90.712 75.8734 90.936C75.8414 90.968 75.8014 91 75.7534 91.032C75.7214 91.064 75.6734 91.08 75.6094 91.08C75.4974 91.08 75.3854 91.024 75.2734 90.912C75.1774 90.8 75.1294 90.688 75.1294 90.576C75.1294 90.432 75.2254 90.288 75.4174 90.144C75.6094 89.984 75.8414 89.84 76.1134 89.712C76.4014 89.568 76.6654 89.448 76.9054 89.352C77.1614 89.256 77.3374 89.192 77.4334 89.16C77.4494 89.032 77.4814 88.792 77.5294 88.44C77.5934 88.072 77.6654 87.664 77.7454 87.216C77.8254 86.752 77.9134 86.312 78.0094 85.896C78.1214 85.464 78.2334 85.112 78.3454 84.84C78.4574 84.552 78.5694 84.408 78.6814 84.408C78.7934 84.408 78.9054 84.448 79.0174 84.528C79.1294 84.608 79.1854 84.704 79.1854 84.816C79.1854 84.864 79.1454 85.064 79.0654 85.416C78.9854 85.768 78.8814 86.184 78.7534 86.664C78.6414 87.128 78.5374 87.568 78.4414 87.984C78.3614 88.4 78.3054 88.688 78.2734 88.848C78.9774 88.64 79.6494 88.472 80.2894 88.344C80.9454 88.216 81.6334 88.152 82.3534 88.152C82.4174 88.152 82.5374 88.152 82.7134 88.152C82.8894 88.152 83.0574 88.16 83.2174 88.176C83.3934 88.192 83.4814 88.224 83.4814 88.272C83.3214 88.336 83.1454 88.384 82.9534 88.416C82.7774 88.448 82.6014 88.472 82.4254 88.488C81.6574 88.552 80.9294 88.696 80.2414 88.92C79.5694 89.144 78.8814 89.392 78.1774 89.664C78.0654 90.576 77.9694 91.504 77.8894 92.448C77.8094 93.376 77.7694 94.296 77.7694 95.208C77.7694 95.384 77.7774 95.624 77.7934 95.928C77.8094 96.216 77.8414 96.512 77.8894 96.816C77.9374 97.104 78.0174 97.352 78.1294 97.56C78.2414 97.768 78.4014 97.872 78.6094 97.872C78.8814 97.872 79.1614 97.72 79.4494 97.416C79.7374 97.096 80.0254 96.712 80.3134 96.264C80.6014 95.8 80.8654 95.336 81.1054 94.872C81.3454 94.408 81.5534 94.016 81.7294 93.696C81.9214 93.376 82.0494 93.208 82.1134 93.192V93.264C82.1134 93.504 82.0334 93.84 81.8734 94.272C81.7134 94.704 81.4974 95.168 81.2254 95.664C80.9694 96.144 80.6814 96.608 80.3614 97.056C80.0574 97.504 79.7454 97.872 79.4254 98.16C79.1214 98.448 78.8334 98.592 78.5614 98.592ZM82.6248 98.448C82.3688 98.448 82.1608 98.344 82.0008 98.136C81.8568 97.928 81.7448 97.672 81.6648 97.368C81.5848 97.048 81.5288 96.744 81.4968 96.456C81.4808 96.152 81.4728 95.912 81.4728 95.736C81.4728 95.576 81.4728 95.416 81.4728 95.256C81.4888 95.096 81.5048 94.936 81.5208 94.776C81.5848 94.28 81.6728 93.792 81.7848 93.312C81.8968 92.816 81.9848 92.32 82.0488 91.824C82.0808 91.568 82.1048 91.32 82.1208 91.08C82.1368 90.84 82.1528 90.592 82.1688 90.336C82.1848 90.256 82.2088 90.184 82.2408 90.12C82.2728 90.04 82.3368 90 82.4328 90C82.6088 90 82.7128 90.08 82.7448 90.24C82.7928 90.384 82.8168 90.52 82.8168 90.648C82.8168 91.224 82.7608 91.792 82.6488 92.352C82.5368 92.912 82.4248 93.472 82.3128 94.032C82.2008 94.592 82.1448 95.16 82.1448 95.736C82.1448 95.8 82.1448 95.944 82.1448 96.168C82.1608 96.376 82.1848 96.608 82.2168 96.864C82.2488 97.104 82.2968 97.312 82.3608 97.488C82.4408 97.664 82.5368 97.752 82.6488 97.752C82.7928 97.752 82.9768 97.584 83.2008 97.248C83.4408 96.912 83.6808 96.512 83.9208 96.048C84.1768 95.568 84.4008 95.128 84.5928 94.728C84.8008 94.312 84.9368 94.032 85.0008 93.888C85.2248 93.392 85.3688 92.936 85.4328 92.52C85.5128 92.104 85.5688 91.72 85.6008 91.368C85.6328 91 85.7128 90.64 85.8408 90.288C85.9208 90.096 86.0408 90 86.2008 90C86.4408 90 86.5608 90.144 86.5608 90.432C86.5608 90.928 86.5048 91.528 86.3928 92.232C86.2808 92.92 86.2248 93.6 86.2248 94.272V94.8C86.2248 94.912 86.2248 95.088 86.2248 95.328C86.2248 95.552 86.2408 95.792 86.2728 96.048C86.3208 96.304 86.3848 96.52 86.4648 96.696C86.5608 96.872 86.6968 96.96 86.8728 96.96C87.0808 96.96 87.2888 96.84 87.4968 96.6C87.7048 96.36 87.8968 96.08 88.0728 95.76C88.2648 95.44 88.4248 95.16 88.5528 94.92C88.6808 94.68 88.7768 94.56 88.8408 94.56C88.9368 94.56 88.9848 94.624 88.9848 94.752C88.9848 94.896 88.9048 95.128 88.7448 95.448C88.6008 95.752 88.4088 96.072 88.1688 96.408C87.9448 96.744 87.7048 97.032 87.4488 97.272C87.2088 97.512 87.0008 97.632 86.8248 97.632C86.4568 97.632 86.1768 97.48 85.9848 97.176C85.8088 96.872 85.6808 96.496 85.6008 96.048C85.5368 95.6 85.5048 95.168 85.5048 94.752C85.5048 94.32 85.5048 93.984 85.5048 93.744C85.4408 93.936 85.3368 94.224 85.1928 94.608C85.0488 94.976 84.8808 95.384 84.6888 95.832C84.4968 96.264 84.2888 96.68 84.0648 97.08C83.8408 97.48 83.6008 97.808 83.3448 98.064C83.1048 98.32 82.8648 98.448 82.6248 98.448ZM95.1743 98.928C94.8703 98.928 94.6143 98.784 94.4063 98.496C94.2143 98.192 94.0623 97.816 93.9503 97.368C93.8543 96.92 93.7823 96.456 93.7343 95.976C93.7023 95.48 93.6863 95.04 93.6863 94.656C93.6863 94.48 93.6863 94.328 93.6863 94.2C93.6863 94.056 93.6943 93.936 93.7103 93.84C93.5663 94.144 93.3663 94.568 93.1103 95.112C92.8703 95.656 92.5903 96.2 92.2703 96.744C91.9503 97.288 91.6063 97.752 91.2383 98.136C90.8703 98.52 90.4943 98.712 90.1103 98.712C89.6143 98.712 89.2783 98.52 89.1023 98.136C88.9423 97.736 88.8623 97.336 88.8623 96.936C88.8623 96.392 88.9423 95.768 89.1023 95.064C89.2783 94.36 89.4943 93.768 89.7503 93.288C89.8463 93.096 89.9903 92.84 90.1823 92.52C90.3743 92.2 90.5903 91.88 90.8303 91.56C91.0863 91.224 91.3423 90.944 91.5983 90.72C91.8703 90.496 92.1263 90.384 92.3663 90.384C92.7183 90.384 92.9583 90.512 93.0863 90.768C93.2303 91.008 93.3023 91.28 93.3023 91.584C93.3023 91.792 93.1823 91.896 92.9423 91.896C92.8303 91.896 92.7663 91.832 92.7503 91.704C92.7503 91.56 92.7343 91.424 92.7023 91.296C92.6703 91.168 92.5583 91.104 92.3663 91.104C92.0783 91.104 91.7983 91.264 91.5263 91.584C91.2543 91.904 90.9983 92.32 90.7583 92.832C90.5343 93.328 90.3343 93.848 90.1583 94.392C89.9823 94.936 89.8463 95.44 89.7503 95.904C89.6543 96.368 89.6063 96.72 89.6063 96.96C89.6063 97.136 89.6303 97.368 89.6783 97.656C89.7423 97.928 89.9023 98.064 90.1583 98.064C90.3023 98.064 90.4703 97.976 90.6623 97.8C90.8703 97.624 91.0703 97.408 91.2623 97.152C91.4703 96.88 91.6543 96.624 91.8143 96.384C91.9743 96.144 92.0863 95.968 92.1503 95.856C92.5983 94.976 92.9503 94.168 93.2063 93.432C93.4623 92.68 93.6703 91.952 93.8303 91.248C93.9903 90.544 94.1423 89.808 94.2863 89.04C94.4303 88.272 94.6063 87.432 94.8143 86.52C94.8463 86.376 94.9103 86.136 95.0063 85.8C95.1183 85.464 95.2543 85.16 95.4143 84.888C95.5903 84.6 95.7823 84.456 95.9903 84.456C96.1503 84.456 96.2463 84.536 96.2783 84.696C96.3263 84.856 96.3503 84.992 96.3503 85.104C96.3503 85.36 96.2943 85.736 96.1823 86.232C96.0863 86.712 95.9663 87.232 95.8223 87.792C95.6783 88.352 95.5263 88.88 95.3663 89.376C95.2223 89.856 95.1023 90.224 95.0063 90.48C94.9423 90.64 94.8703 90.816 94.7903 91.008C94.7103 91.2 94.6543 91.384 94.6223 91.56C94.5103 92.056 94.4383 92.608 94.4063 93.216C94.3903 93.824 94.3823 94.392 94.3823 94.92C94.3823 95.048 94.3823 95.296 94.3823 95.664C94.3983 96.016 94.4303 96.4 94.4783 96.816C94.5423 97.216 94.6223 97.56 94.7183 97.848C94.8303 98.136 94.9823 98.28 95.1743 98.28C95.3983 98.28 95.6143 98.128 95.8223 97.824C96.0463 97.504 96.2543 97.144 96.4463 96.744C96.6543 96.328 96.8383 95.968 96.9983 95.664C97.1583 95.344 97.2863 95.184 97.3823 95.184C97.5423 95.184 97.6223 95.28 97.6223 95.472C97.6223 95.616 97.5263 95.88 97.3343 96.264C97.1583 96.632 96.9263 97.024 96.6383 97.44C96.3663 97.84 96.0943 98.192 95.8223 98.496C95.5663 98.784 95.3503 98.928 95.1743 98.928ZM99.2969 89.568C99.1849 89.568 99.0809 89.544 98.9849 89.496C98.8889 89.432 98.8409 89.344 98.8409 89.232C98.8409 89.104 98.8969 88.912 99.0089 88.656C99.1209 88.384 99.2649 88.112 99.4409 87.84C99.6169 87.568 99.8009 87.336 99.9929 87.144C100.201 86.952 100.385 86.856 100.545 86.856C100.673 86.856 100.737 86.936 100.737 87.096C100.737 87.288 100.633 87.44 100.425 87.552C100.297 87.632 100.185 87.784 100.089 88.008C100.009 88.232 99.9369 88.464 99.8729 88.704C99.8249 88.944 99.7769 89.136 99.7289 89.28C99.6809 89.472 99.5369 89.568 99.2969 89.568ZM98.8169 98.76C98.4489 98.76 98.1769 98.608 98.0009 98.304C97.8249 97.984 97.7129 97.624 97.6649 97.224C97.6169 96.808 97.5929 96.472 97.5929 96.216C97.5929 96.056 97.6089 95.76 97.6409 95.328C97.6889 94.896 97.7449 94.416 97.8089 93.888C97.8889 93.344 97.9769 92.816 98.0729 92.304C98.1849 91.792 98.3129 91.368 98.4569 91.032C98.6009 90.696 98.7529 90.528 98.9129 90.528C99.0409 90.528 99.1529 90.568 99.2489 90.648C99.3449 90.728 99.3929 90.832 99.3929 90.96C99.3929 91.152 99.3369 91.456 99.2249 91.872C99.1129 92.288 98.9769 92.76 98.8169 93.288C98.6729 93.816 98.5369 94.352 98.4089 94.896C98.2969 95.424 98.2409 95.904 98.2409 96.336C98.2409 96.448 98.2489 96.64 98.2649 96.912C98.2969 97.184 98.3529 97.44 98.4329 97.68C98.5129 97.904 98.6409 98.016 98.8169 98.016C99.0569 98.016 99.3209 97.84 99.6089 97.488C99.8969 97.136 100.185 96.704 100.473 96.192C100.777 95.664 101.057 95.144 101.313 94.632C101.569 94.104 101.785 93.664 101.961 93.312C102.137 92.96 102.257 92.784 102.321 92.784C102.401 92.784 102.449 92.816 102.465 92.88C102.497 92.928 102.513 92.984 102.513 93.048C102.513 93.256 102.425 93.592 102.249 94.056C102.073 94.504 101.841 95 101.553 95.544C101.265 96.072 100.953 96.584 100.617 97.08C100.281 97.56 99.9529 97.96 99.6329 98.28C99.3129 98.6 99.0409 98.76 98.8169 98.76ZM103.467 99.384C103.163 99.384 102.907 99.272 102.699 99.048C102.507 98.824 102.355 98.552 102.243 98.232C102.131 97.896 102.051 97.56 102.003 97.224C101.971 96.888 101.955 96.608 101.955 96.384C101.955 96.144 101.979 95.76 102.027 95.232C102.091 94.688 102.187 94.088 102.315 93.432C102.443 92.776 102.603 92.144 102.795 91.536C102.987 90.912 103.211 90.392 103.467 89.976C103.739 89.56 104.051 89.336 104.403 89.304C104.451 89.16 104.523 89.04 104.619 88.944C104.715 88.832 104.843 88.776 105.003 88.776C105.323 88.776 105.603 88.912 105.843 89.184C106.083 89.456 106.283 89.792 106.443 90.192C106.603 90.592 106.723 90.984 106.803 91.368C106.899 91.752 106.947 92.064 106.947 92.304C106.947 93.04 106.875 93.768 106.73 94.488L106.923 94.512C107.387 94.512 107.747 94.44 108.003 94.296C108.259 94.152 108.459 94.016 108.603 93.888C108.747 93.744 108.867 93.672 108.963 93.672C109.059 93.672 109.107 93.728 109.107 93.84C109.107 94.032 109.003 94.208 108.795 94.368C108.603 94.512 108.363 94.648 108.075 94.776C107.787 94.888 107.507 94.968 107.235 95.016C106.963 95.064 106.755 95.072 106.611 95.04C106.531 95.376 106.395 95.792 106.203 96.288C106.027 96.768 105.803 97.248 105.531 97.728C105.275 98.192 104.971 98.584 104.619 98.904C104.267 99.224 103.883 99.384 103.467 99.384ZM106.083 94.008C106.179 93.448 106.227 92.88 106.227 92.304C106.227 92.176 106.195 91.96 106.131 91.656C106.083 91.336 106.003 91 105.891 90.648C105.795 90.296 105.675 89.992 105.531 89.736C105.387 89.48 105.235 89.352 105.075 89.352C104.995 89.352 104.931 89.416 104.883 89.544C104.851 89.656 104.827 89.784 104.811 89.928C104.811 90.072 104.811 90.168 104.811 90.216C104.811 90.856 104.907 91.528 105.099 92.232C105.307 92.92 105.635 93.512 106.083 94.008ZM103.539 98.76C103.779 98.76 104.027 98.6 104.283 98.28C104.539 97.944 104.779 97.544 105.003 97.08C105.243 96.6 105.443 96.144 105.603 95.712C105.763 95.28 105.867 94.96 105.915 94.752C105.307 94.336 104.851 93.776 104.547 93.072C104.259 92.368 104.115 91.648 104.115 90.912C104.115 90.592 104.139 90.288 104.187 90C103.851 90.576 103.571 91.256 103.347 92.04C103.123 92.824 102.955 93.624 102.843 94.44C102.747 95.256 102.699 96 102.699 96.672C102.699 96.832 102.715 97.08 102.747 97.416C102.795 97.752 102.883 98.064 103.011 98.352C103.139 98.624 103.315 98.76 103.539 98.76Z" fill="#181B1F"/>
<path d="M53.73 79.3859L53.72 79.1259C54.34 78.9859 54.21 78.8259 54.42 78.2659C54.63 77.7059 54.74 76.4259 54.74 74.4359V66.9359C54.74 66.4259 54.63 65.6059 54.42 65.3359C54.21 65.0659 54.17 64.8359 53.7 64.7059V64.4759C53.71 64.4759 53.94 64.4859 54.06 64.4859C54.98 64.5059 55.09 64.5059 55.46 64.5059C56.15 64.5059 56.15 64.5159 56.87 64.4759C56.89 64.4759 56.91 64.5059 56.92 64.5059C57.02 64.4959 57.07 64.5159 57.09 64.5159L57.11 64.4959L57.14 64.6959C56.68 64.8159 56.74 64.9759 56.55 65.3059C56.34 65.6859 56.25 66.4359 56.25 66.9659V74.5959C56.25 76.4659 56.36 77.6059 56.52 78.1959C56.68 78.7859 56.55 78.9559 57.18 79.1159V79.3859C56.61 79.3659 56.95 79.3959 56.51 79.3859C56.07 79.3759 55.68 79.3859 55.36 79.3859C54.96 79.3859 55.29 79.3759 54.89 79.3859C54.5 79.3959 54.16 79.3659 53.73 79.3859Z" fill="#101820"/>
<path d="M15.18 79.3759C14.51 79.3759 14.11 79.3959 13.44 79.4559V79.3059C13.81 79.1359 14.04 78.8759 14.26 78.5559C14.45 78.2959 14.62 77.2859 14.62 77.0959L14.43 66.6159C14.43 66.4459 14.2 66.3959 14.12 66.5559L8.41 79.3459H8.17L1.64 66.2359C1.59 66.1259 2.1 66.4859 2.1 66.6159L2.14 76.2659C2.29 77.9059 2.48999 78.3359 2.57999 78.4859C2.73999 78.8059 2.91 79.0759 3.16 79.2459C3.24 79.2959 3.3 79.3559 3.36 79.4559C2.78 79.4459 2.67999 79.4459 2.07999 79.4459C1.28999 79.4459 0.79 79.4059 0 79.4559L0.0199966 79.3259C0.429997 79.1159 0.679996 78.9159 0.979996 78.5759C1.35 78.1059 1.32999 76.5859 1.32999 76.1759L1.52 66.7659C1.52 66.5459 1.15 65.7559 0.790001 65.2659C0.670001 65.0859 0.459994 64.8759 0.329994 64.7559C0.259994 64.6859 0.209999 64.5959 0.209999 64.4959C0.979999 64.5259 1.41 64.5459 1.99 64.5559H2.66C3.06 64.5559 3.42 64.7859 3.59 65.1459L8.98 76.9159L13.98 65.5259C14.26 64.9259 14.87 64.5559 15.53 64.5859H15.54C16.1 64.5859 16.44 64.5859 16.98 64.5059V64.6759C16.89 64.7359 16.72 64.7859 16.44 65.2759C16.23 65.6359 16.14 66.1359 16.14 66.2859L16.46 77.1159C16.5 77.7359 16.87 78.4859 16.98 78.6359C17.19 78.9159 17.37 79.1459 17.69 79.3259L17.71 79.4759C16.74 79.3759 16.15 79.3759 15.18 79.3759Z" fill="#101820"/>
<path d="M33.79 79.3759C33 79.3759 32.71 79.3559 31.94 79.4059V79.2559C32.33 79.0859 32.38 78.8659 32.49 78.4559C32.62 77.9659 32.34 77.3859 32.23 77.2359L29.91 72.1559H24.23L22.17 76.6559C21.91 77.2059 21.87 77.4859 21.94 77.9459C21.96 78.0859 22 78.2259 22.07 78.3559C22.28 78.7459 22.49 79.1859 22.91 79.2759V79.4259C22.16 79.3659 21.92 79.3759 21.13 79.3759C20.32 79.3759 19.86 79.3759 19.07 79.4559V79.3059C19.44 79.0259 19.67 78.8159 19.99 78.4859C20.63 77.8459 21.26 76.6459 21.32 76.5559L27.69 64.0359L34.31 76.9359C34.57 77.4959 34.8 77.8159 35.21 78.3059C35.59 78.7559 35.88 78.9659 36.39 79.3159V79.4659C35.38 79.3759 34.8 79.3759 33.79 79.3759ZM27.02 66.4059L24.47 71.6759H29.68L27.02 66.4059Z" fill="#101820"/>
<path d="M73.9 79.3859C73.11 79.3859 72.63 79.4059 71.86 79.4659V79.3159C72.25 79.1459 72.5 78.8859 72.61 78.4759C72.74 77.9859 72.46 77.4059 72.35 77.2559L70.03 72.1759H64.35L62.29 76.6759C61.99 77.3159 61.88 77.9359 62.25 78.5159C62.49 78.9459 62.77 79.2059 63.26 79.3259V79.4759C62.51 79.4159 62.04 79.3959 61.25 79.3959C60.44 79.3959 59.98 79.3959 59.19 79.4759V79.3259C59.56 79.0459 59.79 78.8359 60.11 78.5059C60.75 77.8659 61.38 76.6659 61.44 76.5759L67.81 64.0559L74.43 76.9559C74.69 77.5159 74.92 77.8359 75.33 78.3259C75.71 78.7759 76 78.9859 76.51 79.3359V79.4859C75.49 79.3859 74.91 79.3859 73.9 79.3859ZM67.13 66.4059L64.58 71.6759H69.79L67.13 66.4059Z" fill="#101820"/>
<path d="M92.09 65.3259C91.96 65.4759 91.65 66.7459 91.65 68.3259L91.57 79.1959C91.57 79.3059 91.48 79.3859 91.38 79.3859C91.32 79.3859 91.27 79.3659 91.23 79.3159C89.81 77.6959 89.08 77.0559 87.6 75.4459C84.45 72.0359 79.32 65.8259 79.32 65.9959L79.65 76.2459C79.67 77.3359 80.06 78.4559 80.17 78.6059C80.45 78.9459 80.72 79.1059 81.11 79.2559C81.18 79.2859 81.22 79.3459 81.23 79.4159V79.4459C80.57 79.3859 80.16 79.3659 79.51 79.3659C78.72 79.3659 78.25 79.3859 77.49 79.4459V79.4159C77.49 79.3459 77.53 79.2759 77.59 79.2459C77.92 79.0759 78.13 78.8959 78.41 78.6059C78.8 78.1359 78.99 76.6359 78.99 76.2259L78.81 66.4059C78.81 65.9459 78.42 65.4259 78.27 65.2459L78.26 65.2359C78.08 65.0559 77.84 64.8059 77.71 64.6959C77.67 64.6559 77.64 64.6059 77.64 64.5459V64.4759C78.28 64.5559 78.67 64.5559 79.33 64.5559C79.58 64.5559 79.79 64.5559 80 64.5359C80.42 64.5159 80.82 64.6959 81.08 65.0259C81.23 65.2259 81.39 65.4159 81.58 65.6559C82.05 66.2559 91.04 76.3959 91.04 76.1759L90.98 68.3359C90.98 67.9259 90.52 65.8459 90.13 65.3759C89.89 65.0859 89.68 64.8759 89.36 64.6959C89.3 64.6659 89.26 64.5959 89.26 64.5259V64.4759C89.99 64.5559 90.44 64.5659 91.19 64.5659C91.81 64.5659 92.2 64.5459 92.84 64.4759V64.5359C92.84 64.6059 92.8 64.6659 92.74 64.7059C92.51 64.8459 92.39 64.9259 92.09 65.3259Z" fill="#101820"/>
<path d="M107.64 79.0659C107.57 79.2959 107.36 79.4559 107.11 79.4559H99.36C98.46 79.4559 97.94 79.3759 97.04 79.3759C95.97 79.3759 95.34 79.3759 94.29 79.4559V79.3859C94.29 79.3359 94.32 79.2959 94.36 79.2859C94.73 79.1359 94.96 78.9559 95.2 78.6159C95.57 78.2059 95.56 76.6259 95.56 76.4459L95.46 66.2159C95.46 66.0059 95.29 65.5559 95.07 65.2259C94.91 64.9559 94.71 64.7759 94.61 64.6959C94.58 64.6759 94.57 64.6459 94.57 64.6059C94.57 64.5459 94.62 64.4959 94.68 64.4959H105.68C106.09 64.4959 106.46 64.7559 106.58 65.1559L107.11 66.7859C107.14 66.8659 107.07 66.9459 106.99 66.9259H106.97C106.95 66.9259 106.92 66.9159 106.91 66.8959L106.73 66.7159C105.89 65.8759 105.46 65.7759 104.58 65.4059C103.53 64.9759 100.32 64.9759 97.61 64.9759H97.37C97.31 64.9759 97.26 65.0259 97.26 65.0859L97.36 71.4959C97.36 71.5559 97.41 71.6059 97.47 71.6059H101.87C102.77 71.6059 103.57 71.6059 104.21 71.1959C104.64 70.8859 104.9 70.6059 105.13 70.1159C105.15 70.0759 105.19 70.0559 105.23 70.0559H105.24C105.31 70.0559 105.36 70.1159 105.35 70.1759C105.3 70.7859 105.29 71.2059 105.29 71.8359C105.29 72.4859 105.31 72.8559 105.35 73.4559C105.36 73.5159 105.3 73.5759 105.24 73.5759H105.22C105.18 73.5759 105.14 73.5559 105.12 73.5259C104.85 73.1059 104.62 72.8159 103.99 72.4759C103.52 72.2159 102.96 72.1159 101.86 72.1159H97.53C97.47 72.1159 97.42 72.1659 97.42 72.2359L97.57 77.1059C97.64 79.0759 98.6 78.9259 100.43 78.9659C103.25 79.0259 105.13 78.6659 106.44 77.9959C107.22 77.5959 107.79 77.0859 108.23 76.4859C108.25 76.4659 108.27 76.4459 108.3 76.4459C108.38 76.4359 108.45 76.5059 108.43 76.5859L107.64 79.0659Z" fill="#101820"/>
<path d="M49.05 79.4859C49.05 79.4759 49.05 79.4659 49.04 79.4559C48.85 78.9859 48.68 78.2859 48.5 77.5059C48.47 77.3959 48.45 77.2759 48.42 77.1659C48.04 75.5259 47.62 73.6759 46.93 73.0659C45.94 72.1859 44.2 72.6959 40.92 72.6959H40.51C40.38 72.6959 40.28 72.8059 40.29 72.9259L40.49 77.0059C40.51 77.6259 40.7 78.4259 40.8 78.5859C41.11 79.0459 41.29 79.1859 41.44 79.2559C41.52 79.2959 41.56 79.3659 41.56 79.4559V79.4659C40.9 79.4059 40.51 79.3859 39.86 79.3859C39.05 79.3859 38.58 79.4059 37.77 79.4659V79.4359C37.77 79.3659 37.8 79.2959 37.86 79.2559C38.13 79.0759 38.3 78.8559 38.49 78.5459C38.49 78.5359 38.5 78.5259 38.5 78.5259C38.65 78.2159 38.83 77.2059 38.83 77.0159L38.81 66.8559C38.81 66.3259 38.71 65.8659 38.47 65.3559C38.37 65.1359 38.18 64.8659 38.11 64.7659C38.09 64.7459 38.08 64.7159 38.08 64.6859V64.6759C38.08 64.6059 38.14 64.5459 38.21 64.5459H44.1C46.66 64.5459 49.93 64.9559 49.9 68.2859C49.88 70.4959 46.92 72.0359 45.53 72.3459C45.51 72.3459 45.49 72.3559 45.48 72.3559H45.34H45.76C46.25 72.3559 47.03 72.4859 47.49 72.6459C48.24 72.9059 48.84 73.1459 49.31 74.0759C50.14 75.7159 50.25 78.2659 50.85 78.9159C51.1 79.1759 51.27 79.2759 51.53 79.4759C51.58 79.5159 51.62 79.5859 51.62 79.6559V79.7059H49.26C49.16 79.6859 49.06 79.6059 49.05 79.4859ZM41.86 65.1059H40.36C40.24 65.1059 40.14 65.2059 40.14 65.3259L40.12 71.9059C40.12 72.0259 40.22 72.1259 40.34 72.1259H44.16C46.72 72.1259 48 70.5459 47.9 68.1459C47.74 65.0859 46.17 65.1059 41.86 65.1059Z" fill="#101820"/>
<path d="M99.69 61.5659C99.66 61.4359 99.7 61.2959 99.8 61.1859C100.1 60.8559 101 59.8659 101.39 59.1959C101.87 58.3859 102.04 57.9559 102.14 57.7559C102.24 57.5559 102.32 57.3859 102.42 57.3659C102.52 57.3459 102.8 57.1959 103.08 58.1059C103.36 59.0159 103.34 59.2959 102.95 59.6959C102.58 60.0759 100.9 61.4159 100.15 61.7659C100.04 61.8159 99.92 61.8159 99.82 61.7459C99.77 61.7259 99.71 61.6659 99.69 61.5659Z" fill="#101820"/>
<path d="M50.63 11.9359C50.52 11.8259 50.36 11.6459 50.24 11.4259C50.34 11.6059 50.5 11.7759 50.63 11.9359Z" fill="black"/>
<path d="M52.18 10.9659C51.79 11.2659 51.36 11.5959 51.08 11.8059C51.07 11.8059 51.05 11.8159 51.04 11.8159C51.47 11.2959 51.83 10.8559 52.21 10.3959C52.26 10.5959 52.25 10.7859 52.18 10.9659Z" fill="black"/>
<path d="M53.2 10.2359C53.2 10.2359 53.19 10.2359 53.18 10.2459V10.2259C53.19 10.2259 53.19 10.2259 53.2 10.2359Z" fill="black"/>
<path d="M54.67 11.3059C53.84 11.3659 53.2 10.8759 53.19 10.2359V10.2159C53.2 10.2159 53.2 10.2259 53.21 10.2259C53.68 10.5859 54.13 10.9159 54.67 11.3059Z" fill="black"/>
<path d="M54.89 10.4559C54.89 10.4559 54.89 10.4459 54.9 10.4459C54.91 10.4559 54.9 10.4559 54.89 10.4559Z" fill="black"/>
<path d="M55.28 13.3259C55.23 13.3559 55.17 13.3859 55.11 13.4159C54.9 12.8759 54.57 12.0859 54.55 12.0159C54.53 11.9159 54.54 11.9459 54.54 11.9459C54.54 11.9459 54.72 12.3659 54.84 12.5359C54.92 12.6359 55.1 12.9759 55.28 13.3259Z" fill="black"/>
<path d="M54.9 10.4359C54.9 10.4359 54.9 10.4459 54.89 10.4459C54.9 10.4559 54.91 10.4559 54.9 10.4359Z" fill="black"/>
<path d="M34.52 40.0159C34.53 40.0059 34.53 40.0059 34.52 40.0159L34.53 40.0059C34.53 39.9959 34.53 40.0059 34.52 40.0159ZM36.74 12.8059L36.37 12.8859L36.42 12.8959L36.95 12.7959C36.88 12.8059 36.81 12.8059 36.74 12.8059ZM48.91 49.4859L49.03 49.4359V49.4259C48.97 49.4559 48.92 49.4759 48.91 49.4859ZM49.62 49.1659C49.62 49.1759 49.63 49.1759 49.63 49.1859L49.72 49.1459C49.69 49.1459 49.66 49.1559 49.62 49.1659ZM52.65 31.9659C52.65 31.4759 52.54 30.1359 52.54 30.1359C52.49 29.5359 52.27 27.6959 52.16 27.9159C52.05 28.1359 52.35 29.7459 52.27 30.3759C52.19 31.0059 52.54 34.1559 52.63 33.7359C52.7 33.3259 52.65 32.4559 52.65 31.9659ZM54.59 21.7859C54.59 21.7859 54.26 23.0459 54.37 23.5359C54.48 24.0259 54.97 22.7659 54.97 22.3359C54.98 21.8959 54.59 21.7859 54.59 21.7859ZM56.42 15.5359C56.23 14.8359 55.82 14.4459 55.6 13.9859C55.51 13.7959 55.39 13.5559 55.28 13.3259C55.1 12.9759 54.93 12.6359 54.85 12.5259C54.73 12.3559 54.55 11.9359 54.55 11.9359C54.55 11.9359 54.54 11.9159 54.56 12.0059C54.58 12.0759 54.91 12.8659 55.12 13.4059C55.19 13.5959 55.25 13.7459 55.27 13.8359C55.37 14.1759 55.68 14.3859 55.8 14.6859C55.92 14.9859 56.07 15.4559 56.19 15.6259C56.31 15.7959 56.45 16.3959 56.49 16.5159C56.53 16.6359 56.72 16.6959 56.8 16.6959C56.88 16.6959 56.98 16.6359 56.98 16.6359C56.98 16.6359 56.6 16.2259 56.42 15.5359ZM53.2 10.2359C53.19 10.2359 53.19 10.2259 53.18 10.2259V10.2459C53.19 10.8859 53.83 11.3759 54.66 11.3159C54.13 10.9159 53.68 10.5859 53.2 10.2359ZM52.49 9.45591C52.47 9.44591 52.45 9.44591 52.42 9.43591C52.47 9.46591 52.51 9.48591 52.55 9.51591C52.55 9.48591 52.56 9.46591 52.57 9.44591C52.54 9.45591 52.51 9.45591 52.49 9.45591ZM58.45 14.2459C58.95 14.1059 59.44 13.9659 59.94 13.8259C59.14 14.0159 58.25 14.2359 58.25 14.2359C58.25 14.2359 58.09 14.5859 58.25 14.5459C58.3 14.5359 58.62 14.4359 59.03 14.3059C58.85 14.3559 58.68 14.4059 58.5 14.4559C58.48 14.3859 58.47 14.3159 58.45 14.2459ZM60.03 45.4659C60.1 45.4459 60.17 45.4159 60.23 45.3759C60.16 45.4159 60.1 45.4459 60.03 45.4659ZM60.98 13.6059C60.8 13.6359 60.53 13.6959 60.24 13.7559C60.25 13.8059 60.27 13.8559 60.28 13.9059C60.87 13.7059 61.29 13.5559 60.98 13.6059Z" fill="black"/>
<path d="M65.08 24.3859C64.92 24.7059 64.6 24.8459 64.21 24.7759C63.8 24.6959 63.39 24.6659 62.9 24.6059C63.54 25.4759 64.14 26.3059 64.76 27.1459C63.86 27.8259 63.02 28.4259 61.97 28.5459C61.71 28.5759 61.32 28.4159 61.15 28.2059C60.74 27.6959 60.43 27.1059 59.96 26.5459C59.98 26.7259 59.94 26.9559 60.04 27.0659C60.66 27.6959 60.44 28.4259 60.28 29.1159C60.02 30.2359 59.72 31.3359 59.42 32.4459C59.37 32.6259 59.27 32.8159 59.13 32.9359C59.02 33.0359 58.82 33.0959 58.67 33.0759C58.59 33.0659 58.49 32.8459 58.48 32.7159C58.39 31.8259 58.36 30.9159 58.24 30.0359C58.14 29.3159 57.92 28.6159 57.77 27.9059C57.56 26.9059 57.91 26.0459 58.51 25.2959C58.63 25.1459 59.07 25.2659 59.4 25.2659C59.34 25.0559 59.24 24.7359 59.15 24.4259C59.05 24.0859 59.1 23.8359 59.41 23.5859C59.73 23.3259 59.93 22.9259 60.23 22.6359C60.33 22.5359 60.62 22.5059 60.75 22.5759C61.31 22.9059 62.13 22.8759 62.58 22.3659C62.88 22.0159 63.2 21.9859 63.54 22.1759C64.08 22.4759 64.63 22.7859 65.11 23.1759C65.52 23.5159 65.27 24.0059 65.08 24.3859Z" fill="white"/>
<path d="M42.39 23.5659C42.24 23.8359 42.13 24.0859 41.98 24.2959C41.44 25.0659 40.91 25.8259 40.34 26.5659C40.22 26.7159 39.96 26.7559 39.76 26.8459C39.71 26.6559 39.63 26.4659 39.61 26.2659C39.57 25.8859 39.59 25.5059 39.54 25.1259C39.46 24.5459 39.11 24.3259 38.53 24.3959C37.84 24.4859 37.15 24.5659 36.45 24.6159C36.08 24.6459 36.02 24.3459 36.15 24.1059C36.76 22.9959 37.36 21.8759 38.05 20.8159C38.48 20.1559 39.92 19.7559 40.57 20.0559C40.82 20.1759 41.06 20.4759 41.13 20.7359C41.28 21.2659 41.45 21.6959 42.07 21.8059C42.2 21.8259 42.37 22.0559 42.38 22.2059C42.43 22.6759 42.4 23.1359 42.39 23.5659Z" fill="white"/>
<path d="M48.08 25.1359C47.81 26.0059 47.47 26.8459 47.1 27.6859C46.93 28.0759 46.69 28.4559 46.41 28.7759C46.28 28.9259 45.96 29.0259 45.75 28.9959C45.27 28.9259 44.79 28.7759 44.32 28.6359C43.47 28.3859 43.29 27.9559 43.71 27.1959C44.14 26.4159 44.57 25.6359 45.07 24.7259C44.31 24.9659 43.66 25.1659 42.98 25.3759C42.92 25.2259 42.88 25.1459 42.85 25.0559C42.7 24.6559 42.25 24.3059 42.62 23.7959C43.1 23.1359 43.68 22.6459 44.53 22.5559C44.61 22.5459 44.71 22.5959 44.79 22.6259C45.12 22.7559 45.45 22.8859 45.77 23.0359C45.95 23.1159 46.1 23.2359 46.29 23.3459C46.46 23.1759 46.65 22.9959 46.89 22.7659C47.3 23.1859 47.77 23.5259 48.03 23.9759C48.21 24.2859 48.19 24.7859 48.08 25.1359Z" fill="white"/>
<path d="M70.77 23.2559C70.23 23.4659 69.73 23.6259 69.12 23.3959C68.57 23.1859 68.13 23.5859 68.11 24.2059C68.1 24.7859 68.13 25.3659 68.15 25.9459C68.1 25.9859 68.06 26.0259 68.01 26.0659C67.63 25.7359 67.23 25.4259 66.89 25.0659C66.44 24.5959 66.03 24.0859 65.6 23.5959C65.06 22.9859 64.98 22.2059 64.89 21.4559C64.87 21.2959 65.2 21.0159 65.42 20.9259C65.71 20.8059 65.86 20.6859 65.83 20.3559C65.73 19.1859 66.55 19.0359 67.35 19.1259C68.43 19.2559 69.27 19.7359 69.76 20.8059C70.04 21.4159 70.51 21.9459 70.94 22.4759C71.31 22.9259 71.29 23.0559 70.77 23.2559Z" fill="white"/>
<path d="M35.23 25.6659C34.74 27.0259 34 28.2359 33.11 29.3659C32.84 29.7059 32.55 29.6859 32.3 29.3659C32.04 29.0359 31.76 28.6959 31.61 28.3159C31.49 28.0059 31.51 27.6259 31.55 27.2859C31.62 26.6859 31.73 26.0759 31.89 25.4959C32.02 25.0159 32.17 24.5059 32.42 24.0859C32.82 23.4159 33.32 22.8059 33.79 22.1759C33.87 22.0659 33.97 21.9659 34.07 21.8959C34.85 21.3659 35.36 21.5859 35.38 22.5359C35.4 23.5759 35.59 24.6359 35.23 25.6659Z" fill="white"/>
<path d="M75.66 26.6959C75.59 26.8659 75.45 27.0159 75.36 27.1859C75.03 27.7959 74.7 27.8359 74.27 27.2759C73.42 26.1759 72.51 25.1159 71.97 23.8159C71.85 23.5159 71.86 23.1559 71.82 22.8259C71.74 22.1859 71.61 21.5559 71.6 20.9159C71.59 20.3759 71.93 20.1959 72.56 20.2459C72.96 20.6659 73.36 21.0859 73.76 21.4959C73.97 21.7159 74.2 21.9059 74.39 22.1359C74.66 22.4659 75.01 22.7859 75.14 23.1759C75.45 24.0559 75.67 24.9659 75.87 25.8759C75.93 26.1259 75.77 26.4359 75.66 26.6959Z" fill="white"/>
<path d="M50.09 27.8259C50.06 28.3759 50.07 28.9359 49.99 29.4859C49.95 29.7659 49.71 30.0159 49.63 30.2959C49.55 30.6059 49.54 30.9459 49.54 31.2759C49.54 31.7659 49.6 32.2559 49.6 32.7459C49.6 32.8359 49.43 33.0259 49.4 33.0059C49.24 32.9559 49.02 32.8759 48.95 32.7459C48.64 32.1159 48.35 31.4759 48.09 30.8159C47.82 30.1259 47.6 29.4159 47.37 28.7059C47.32 28.5459 47.24 28.3459 47.29 28.2059C47.66 27.1559 48.07 26.1159 48.46 25.0659C49.46 25.4459 50.15 26.7259 50.09 27.8259Z" fill="white"/>
<path d="M69.28 41.4659C69.02 41.4259 68.7 41.6259 68.45 41.7859C68.26 41.9059 68.14 42.1459 67.99 42.3359C67.92 42.3359 67.84 42.3359 67.77 42.3359C67.55 41.8859 67.3 41.4359 67.13 40.9659C66.95 40.4659 66.83 39.9359 66.72 39.4159C66.59 38.7759 66.91 38.1959 67.5 37.8959C67.62 37.8359 67.75 37.7959 67.86 37.7159C68.56 37.2259 68.75 37.2559 69.05 38.0559C69.39 38.9459 69.7 39.8459 69.96 40.7659C70.15 41.4459 69.96 41.5759 69.28 41.4659Z" fill="white"/>
<path d="M41.86 40.0659C41.68 40.9959 41.35 41.9059 41.06 42.8159C41.04 42.8959 40.94 42.9459 40.84 43.0459C40.68 42.9159 40.51 42.8259 40.39 42.6859C40.04 42.2759 39.65 42.1759 39.16 42.4359C38.73 42.6559 38.56 42.4459 38.64 42.0459C38.84 41.0159 39.04 39.9759 39.33 38.9659C39.5 38.3759 39.82 38.3159 40.39 38.5859C40.72 38.7459 41.11 38.8359 41.35 39.0759C41.61 39.3259 41.92 39.7759 41.86 40.0659Z" fill="white"/>
<path d="M66.45 45.9059C66.36 45.9659 66.09 45.8559 65.94 45.7559C65.18 45.2459 65.12 45.2559 64.51 45.9159C64.4 46.0359 64.18 46.2159 64.12 46.1759C63.98 46.0959 63.81 45.9059 63.8 45.7459C63.74 44.9359 63.73 44.1159 63.72 43.6259C64.04 42.5859 64.66 42.1159 65.4 42.1259C65.81 42.1259 66.18 42.2759 66.27 42.7259C66.44 43.6059 66.57 44.4959 66.68 45.3759C66.71 45.5459 66.58 45.8059 66.45 45.9059Z" fill="white"/>
<path d="M31.17 24.7959C31.05 24.9759 30.97 25.1059 30.87 25.2159C30.37 25.7659 29.9 26.3359 29.36 26.8559C29.18 27.0259 28.79 27.2059 28.62 27.1159C28.4 27.0159 28.21 26.6659 28.17 26.3959C28.09 25.8559 28.12 25.2959 28.12 24.7459C28.12 24.6459 28.18 24.5159 28.25 24.4459C28.83 23.8959 29.39 23.3159 30.02 22.8359C30.48 22.4759 30.91 22.7259 30.98 23.2959C31.05 23.7959 31.11 24.3059 31.17 24.7959Z" fill="white"/>
<path d="M45.21 46.5159C44.99 46.3759 44.88 46.3159 44.77 46.2359C44.01 45.7059 44 45.6959 43.23 46.2359C42.84 46.5059 42.6 46.3759 42.51 45.9759C42.31 44.9959 42.48 44.0359 42.84 43.1259C42.91 42.9459 43.3 42.7759 43.53 42.7859C44.33 42.8359 44.96 43.1959 45.19 44.0259C45.41 44.8159 45.49 45.6159 45.21 46.5159Z" fill="white"/>
<path d="M62.18 44.8859C61.3 44.2459 60.88 44.9159 60.37 45.2859C60.34 45.3059 60.31 45.3259 60.28 45.3459C60.26 45.3559 60.25 45.3659 60.23 45.3759C60.17 45.4159 60.1 45.4459 60.03 45.4659C60 45.4759 59.96 45.4859 59.92 45.4859C59.44 44.7959 59.48 43.1059 60.1 42.5459C60.57 42.1259 61.15 41.8259 61.73 41.5559C62.11 41.3759 62.46 41.6759 62.51 42.0259C62.64 42.9759 62.62 43.9259 62.18 44.8859Z" fill="white"/>
<path d="M78.72 24.0259C78.72 24.3159 78.61 24.6759 78.42 24.8859C78.34 24.9759 77.88 24.8059 77.67 24.6559C77.11 24.2559 76.6 23.7959 76.07 23.3559C75.64 22.9959 75.45 21.3259 75.84 20.9259C75.98 20.7759 76.3 20.7959 76.59 20.7359C77.2 21.2259 77.79 21.6759 78.36 22.1459C78.45 22.2159 78.49 22.3759 78.51 22.5059C78.6 23.0059 78.71 23.5159 78.72 24.0259Z" fill="white"/>
<path d="M49.47 45.1059C49.43 45.2059 49.14 45.3359 49.06 45.2859C48.49 44.9259 47.93 44.6459 47.23 44.9159C47.16 44.9459 46.9 44.7559 46.88 44.6459C46.74 43.8859 46.57 43.1159 46.55 42.3459C46.53 41.8359 46.99 41.7159 47.82 42.0159C47.92 42.0559 48.12 42.1359 48.31 42.2259C49.42 42.7759 49.9 43.9459 49.47 45.1059Z" fill="white"/>
<path d="M31 21.0859C30.96 21.1959 30.83 21.3059 30.71 21.3459C30.15 21.5259 29.59 21.7459 29.01 21.8359C28.08 21.9759 28.08 21.9359 27.21 20.9859C27.62 20.5059 27.98 19.9459 28.47 19.5259C28.78 19.2659 29.26 19.1259 29.68 19.0859C29.97 19.0559 30.38 19.1959 30.57 19.4059C30.96 19.8659 31.21 20.4359 31 21.0859Z" fill="white"/>
<path d="M21.15 18.2259C21.09 18.6659 21.05 19.0359 21 19.4059C20.98 19.5859 21 19.8159 20.9 19.9359C20.34 20.5759 19.59 20.9059 18.75 21.0159C18.59 21.0359 18.29 20.8559 18.24 20.6959C17.85 19.5959 18.39 18.3859 19.45 17.8959C19.71 17.7759 19.99 17.7159 20.27 17.6359C20.54 17.5559 20.74 17.5459 20.81 17.9159C20.84 18.0559 21.08 18.1659 21.15 18.2259Z" fill="white"/>
<path d="M30.26 17.9659C30.36 17.6859 30.47 17.4059 30.57 17.1259C30.73 16.6359 31.16 16.2159 30.82 15.5859C30.72 15.4059 31.03 14.7859 31.28 14.6659C31.88 14.3959 32.52 14.6259 32.71 15.0159C32.85 15.3159 33.06 15.6159 33.09 15.9259C33.23 17.5159 31.85 18.5259 30.26 17.9659Z" fill="white"/>
<path d="M73.03 39.9759C72.65 39.6159 72.26 39.7459 71.86 40.1259C71.76 40.2159 71.48 40.2159 71.35 40.1459C70.85 39.8659 70.43 38.8559 70.58 38.4059C70.74 37.9059 71.85 37.1359 72.35 37.1959C72.51 37.2159 72.69 37.3059 72.8 37.4159C73.4 37.9659 73.78 38.6359 73.85 39.4559C73.89 39.9959 73.64 40.1759 73.03 39.9759Z" fill="white"/>
<path d="M37.08 40.8259C37 40.8859 36.96 41.0159 36.92 41.1159C36.76 41.4559 36.51 41.4959 36.32 41.1959C36.09 40.8259 35.85 40.8959 35.56 41.0459C35.53 41.0659 35.49 41.0859 35.45 41.0859C35.14 41.1059 34.84 41.1259 34.53 41.1459C34.52 40.8259 34.49 40.5059 34.49 40.1859C34.49 40.1359 34.5 40.0959 34.51 40.0559C34.51 40.0459 34.52 40.0259 34.52 40.0159V40.0059C34.52 39.9959 34.53 39.9959 34.53 39.9959C34.53 39.9859 34.53 39.9859 34.53 39.9759C34.55 39.8859 34.57 39.7959 34.59 39.7059C34.61 39.6259 34.63 39.5559 34.66 39.4759C34.7 39.3259 34.76 39.1959 34.82 39.0659C34.84 39.0259 34.86 38.9959 34.88 38.9659C34.89 38.9459 34.9 38.9359 34.91 38.9159C34.94 38.8659 34.98 38.8259 35.02 38.7859C35.06 38.7459 35.11 38.7059 35.15 38.6659C35.18 38.6459 35.21 38.6259 35.25 38.6059C35.28 38.5859 35.32 38.5659 35.36 38.5559C35.46 38.5159 35.57 38.4859 35.7 38.4659C36.13 38.4059 37.27 38.9659 37.46 39.4559C37.67 39.9759 37.59 40.4759 37.08 40.8259Z" fill="white"/>
<path d="M78.87 19.1559C78.08 19.9459 76.44 20.1459 75.55 19.5259C75.38 19.4059 75.28 19.0959 75.26 18.8659C75.18 17.7359 75.97 17.1359 77.03 17.4959C77.89 17.7759 78.52 18.3159 78.87 19.1559Z" fill="white"/>
<path d="M75.42 16.2059C75.34 16.9159 75.14 16.9559 74.07 16.6659C72.68 16.5359 72.4 14.6459 72.96 13.8759C73.16 13.5959 73.71 13.4759 74.1 13.4559C74.48 13.4459 74.9 14.1159 74.77 14.4959C74.63 14.8959 74.84 15.0759 75.03 15.3459C75.21 15.5959 75.45 15.9359 75.42 16.2059Z" fill="white"/>
<path d="M20.5 24.0259C20.5 25.2159 19.75 25.8759 18.82 26.4159C18.71 26.4859 18.58 26.5459 18.46 26.5859C17.95 26.7259 17.63 26.5059 17.61 25.9759C17.6 25.8059 17.62 25.6359 17.65 25.4659C17.68 25.3159 17.73 25.1759 17.77 25.0259C18.11 24.0359 18.86 23.4759 19.88 23.3859C20.42 23.3359 20.5 23.6059 20.5 24.0259Z" fill="white"/>
<path d="M12.37 23.6859C12.13 24.5859 11.86 25.4859 11.55 26.3659C11.39 26.8259 11.14 27.2659 10.86 27.6659C10.76 27.8159 10.49 27.8459 10.3 27.9359C10.25 27.7459 10.15 27.5459 10.17 27.3659C10.21 26.9459 10.32 26.5359 10.4 26.1259C10.45 26.1259 10.5 26.1359 10.55 26.1359C10.56 25.5559 10.59 24.9759 10.59 24.3959C10.58 23.9359 11.11 23.0059 11.56 22.8759C11.76 22.8159 12.08 22.8759 12.22 23.0059C12.34 23.1559 12.42 23.4759 12.37 23.6859Z" fill="white"/>
<path d="M87.94 23.1859C87.83 23.3259 87.33 23.2859 87.08 23.1759C86.32 22.8359 85.65 22.3559 85.4 21.4859C85.36 21.3559 85.3 21.2159 85.32 21.0959C85.49 20.3559 85.47 20.1459 86.62 20.5059C87.2 20.7759 87.96 21.2359 88.14 22.1959C88.2 22.5259 88.13 22.9559 87.94 23.1859Z" fill="white"/>
<path d="M86.22 18.0359C86.03 17.9959 85.85 17.9159 85.67 17.8659C84.56 17.5359 84.04 16.7559 84.14 15.5659C84.15 15.4059 84.13 15.2359 84.12 14.8859C84.91 15.2359 85.61 15.5159 86.27 15.8759C86.46 15.9859 86.56 16.3259 86.63 16.5859C86.71 16.8759 86.7 17.1859 86.76 17.4859C86.86 17.9359 86.67 18.1459 86.22 18.0359Z" fill="white"/>
<path d="M95.18 23.7259C94.99 23.7359 94.75 23.8159 94.65 23.7359C94.33 23.4759 93.95 23.2059 93.78 22.8459C93.32 21.8659 92.94 20.8559 92.57 19.8359C92.5 19.6459 92.61 19.3859 92.64 19.1559C92.85 19.1959 93.1 19.1659 93.27 19.2759C93.79 19.6159 94.14 20.0659 94.18 20.7559C94.2 21.1659 94.48 21.5659 94.63 21.9759C94.81 22.4359 94.98 22.9059 95.14 23.3659C95.16 23.4459 95.16 23.5259 95.18 23.7259Z" fill="white"/>
<path d="M75.01 32.0559C74.42 32.4059 74.45 33.1559 73.99 33.5959C73.26 33.5459 72.81 33.0659 72.49 32.4559C72.42 32.3259 72.51 31.9559 72.62 31.9059C73.11 31.6859 73.37 31.2859 73.61 30.8459C73.82 30.4459 74.14 30.3859 74.43 30.7059C74.69 30.9859 74.88 31.3459 75.07 31.6859C75.12 31.7859 75.08 32.0159 75.01 32.0559Z" fill="white"/>
<path d="M25.63 25.5459C25.54 25.5459 25.44 25.5159 25.37 25.4659C25.06 25.2559 24.83 24.1359 25.01 23.7459C25.24 23.2659 26.1 22.8659 26.67 23.0359C26.73 23.0859 26.88 23.1859 26.96 23.3259C27.41 24.1759 26.59 25.5559 25.63 25.5459Z" fill="white"/>
<path d="M27.27 32.2059C26.95 33.0959 26.77 33.1459 26 32.5759C25.83 32.4559 25.64 32.3159 25.45 32.2859C24.85 32.1959 24.94 31.8459 25.09 31.4559C25.3 30.9059 26.02 30.4159 26.4 30.5659C27.45 30.9959 27.55 31.5059 27.27 32.2059Z" fill="white"/>
<path d="M35.76 34.6359C35.7 34.7559 35.61 34.8559 35.52 34.9559C34.95 35.6859 34.7 35.6859 34.19 34.9259C34.1 34.8059 34.04 34.6559 33.95 34.5459C33.78 34.3159 33.42 34.0759 33.44 33.8859C33.5 33.4659 33.76 33.0759 33.93 32.6759C34.53 33.0859 35.02 33.4459 35.54 33.7559C35.93 33.9959 35.93 34.2859 35.76 34.6359Z" fill="white"/>
<path d="M83.64 27.9159C83.3 27.7859 82.75 26.5859 82.87 26.2159C82.95 25.9859 83.03 25.7259 83.18 25.5459C83.33 25.3759 83.57 25.2859 83.75 25.1759C84.41 25.5859 84.89 25.9859 85.03 26.6559C85.11 26.9759 83.93 28.0259 83.64 27.9159Z" fill="white"/>
<path d="M82.42 29.2059C81.94 29.6059 81.35 29.9759 80.75 30.1359C80.38 30.2359 79.92 29.1259 80.07 28.6059C80.2 28.1459 80.93 27.7359 81.37 27.8759C81.85 28.0259 82.64 29.0159 82.42 29.2059Z" fill="white"/>
<path d="M81.46 21.9059C81.43 21.9959 81.41 22.0859 81.38 22.1859C81.16 22.9959 81.14 23.0059 80.32 22.8059C79.7 22.6559 79.12 21.6659 79.29 21.0359C79.32 20.9359 79.39 20.8159 79.48 20.7559C79.99 20.4259 80.46 20.6159 80.92 20.8959C81.29 21.1359 81.61 21.3959 81.46 21.9059Z" fill="white"/>
<path d="M47.13 31.1659C47.14 31.4659 47.1 31.7759 47.08 32.0759C47.06 32.5159 46.83 32.6759 46.38 32.7059C45.95 32.7259 45.87 32.4259 45.86 32.1759C45.84 31.7159 45.84 31.2259 45.97 30.7859C46.17 30.1359 46.49 29.5259 46.76 28.8959C46.86 28.9159 46.95 28.9459 47.04 28.9659C47.09 29.7059 47.12 30.4359 47.13 31.1659Z" fill="white"/>
<path d="M24.06 29.1059C24.04 29.5659 23.89 30.0259 23.73 30.4659C23.68 30.6059 23.36 30.7659 23.24 30.7259C23.08 30.6659 23 30.4159 22.89 30.2359C22.88 30.2259 22.88 30.2159 22.88 30.2059C22.87 30.1659 22.87 30.1159 22.87 30.1059C22.52 30.0959 22.23 30.0959 21.93 30.0859C22.01 29.7559 22.07 29.4059 22.18 29.0859C22.24 28.9159 22.37 28.7559 22.49 28.6059C22.85 28.1959 23.2 28.2659 23.41 28.8059C23.86 28.4159 24.07 28.7159 24.06 29.1059Z" fill="white"/>
<path d="M25.82 18.3459C25.54 18.7559 25.44 19.2959 25.26 19.7759C25.2 19.9459 25.13 20.1059 25.03 20.3359C23.88 19.2259 24.64 16.9759 25.86 16.7259C26.21 17.2759 26.21 17.7759 25.82 18.3459Z" fill="white"/>
<path d="M61.58 32.1859C61.37 32.1559 61.07 31.9259 61.04 31.7459C60.9 30.9259 60.84 30.0959 60.76 29.2559C60.75 29.1259 60.83 28.9959 60.87 28.8559C60.94 28.8359 61 28.8159 61.07 28.7959C61.49 29.6059 61.99 30.3859 62.3 31.2359C62.52 31.8659 62.15 32.2759 61.58 32.1859Z" fill="white"/>
<path d="M81.13 17.4559C81.11 17.6159 80.91 17.7459 80.8 17.8959C80.65 17.7359 80.47 17.5959 80.36 17.4159C80.23 17.1959 80.21 16.9159 80.08 16.7059C79.78 16.2359 79.44 15.7859 79.14 15.3459C79.32 15.0959 79.45 14.9159 79.58 14.7259C80.78 15.2959 81.3 16.1859 81.13 17.4559Z" fill="white"/>
<path d="M16.28 29.9959C16.3 30.5259 15.6 30.9559 15.21 30.8359C14.75 30.6959 14.33 30.0759 14.44 29.6959C14.56 29.2659 15.39 28.6359 15.59 28.8459C15.9 29.1559 16.27 29.5959 16.28 29.9959Z" fill="white"/>
<path d="M18.9 22.4659C18.67 22.9359 18.36 23.3559 18.07 23.8059C17.58 23.3159 17.2 22.9259 16.74 22.4559C17.15 22.2159 17.64 21.8959 18.16 21.6559C18.34 21.5759 18.7 21.6459 18.83 21.7859C18.96 21.9259 18.99 22.2759 18.9 22.4659Z" fill="white"/>
<path d="M91.5 26.2359C91.34 26.7859 90.93 27.1359 90.55 27.0359C89.98 26.8859 89.64 26.3759 89.79 25.8859C89.97 25.3059 90.4 24.9659 90.78 25.0859C91.27 25.2459 91.62 25.8059 91.5 26.2359Z" fill="white"/>
<path d="M79.02 31.6959C78.89 31.8559 78.78 32.0359 78.66 32.2059C78.45 32.5059 78.26 32.8759 77.81 32.6559C77.38 32.4359 77.28 32.0359 77.35 31.5259C77.59 31.2659 77.79 30.9259 78.08 30.7759C78.28 30.6659 78.67 30.7359 78.88 30.8659C79.17 31.0459 79.3 31.3659 79.02 31.6959Z" fill="white"/>
<path d="M13.14 29.2559C13 29.7359 12.43 30.1659 12.09 30.0559C11.69 29.9259 11.36 29.2559 11.38 28.6959C11.69 28.4959 11.97 28.2059 12.31 28.1059C12.54 28.0359 13.21 29.0259 13.14 29.2559Z" fill="white"/>
<path d="M94.03 25.5859C93.87 26.0359 93.58 26.1759 93.14 26.0059C92.66 25.8259 92.43 25.2859 92.64 24.7459C92.75 24.3959 92.88 23.9659 93.47 24.1859C93.97 24.3759 94.22 25.0359 94.03 25.5859Z" fill="white"/>
<path d="M16.81 24.9259C16.39 25.6259 15.81 25.7759 15.24 25.9059C15.14 25.9259 14.85 25.6659 14.87 25.5759C14.99 25.0159 15.16 24.4659 15.34 23.9259C15.38 23.8159 15.58 23.6959 15.7 23.7059C15.79 23.7059 15.89 23.8959 15.95 24.0259C16.01 24.1459 16.04 24.2859 16.05 24.4159C16.1 24.7859 16.2 25.0959 16.81 24.9259Z" fill="white"/>
<path d="M20 30.3859C19.84 30.8659 19.27 31.1159 18.52 30.8959C18.44 30.7559 18.14 30.4959 18.14 30.2259C18.13 29.7859 18.82 29.3259 19.17 29.4159C19.67 29.5359 20.11 30.0559 20 30.3859Z" fill="white"/>
<path d="M88.35 26.9659C88.24 27.3659 87.67 27.5959 86.94 27.3659C86.84 27.1659 86.51 26.7959 86.55 26.4859C86.59 26.1859 86.89 25.7359 87.42 25.8759C87.89 25.9959 88.43 26.6359 88.35 26.9659Z" fill="white"/>
<path d="M30.14 35.0659C29.89 34.8259 29.71 34.6059 29.49 34.4259C28.98 34.0059 28.91 33.7459 29.25 33.2759C29.33 33.1659 29.53 33.0759 29.66 33.0859C30.04 33.1259 30.74 33.9759 30.76 34.3559C30.78 34.8359 30.59 35.0259 30.14 35.0659Z" fill="white"/>
<path d="M69.91 31.0159C69.55 31.1759 69.19 31.4359 68.82 31.4659C68.48 31.4959 67.98 30.5559 68.18 30.2759C68.35 30.0259 68.71 29.9059 69.12 29.6459C69.44 30.2059 69.68 30.6059 69.91 31.0159Z" fill="white"/>
<path d="M88.18 19.1859C87.99 19.7159 87.84 20.1259 87.67 20.6059C87.21 20.2059 86.66 19.8559 86.56 19.1659C86.49 18.6659 86.68 18.4959 87.14 18.6659C87.54 18.8059 87.91 19.0459 88.18 19.1859Z" fill="white"/>
<path d="M25.7 15.6759C25.46 15.9259 25.23 16.1859 24.97 16.4059C24.7 16.6359 24.41 16.8759 24.1 17.0359C23.94 17.1259 23.7 17.0659 23.5 17.0659C23.49 16.8359 23.39 16.5259 23.5 16.3959C24.04 15.7859 24.76 15.5259 25.56 15.5159C25.61 15.5759 25.65 15.6259 25.7 15.6759Z" fill="white"/>
<path d="M90.47 22.4159C90.07 22.2859 89.66 22.1659 89.27 22.0159C89.17 21.9759 89.12 21.8059 89.12 21.7959C89.27 21.2659 89.4 20.8259 89.56 20.2659C89.77 20.5459 90 20.8459 90.21 21.1459C90.27 21.2359 90.32 21.3559 90.34 21.4659C90.4 21.7759 90.44 22.0959 90.47 22.4159Z" fill="white"/>
<path d="M40.21 31.8059C40.07 32.4259 39.54 32.7159 38.79 32.4859C38.76 32.4059 38.61 32.1959 38.66 32.0459C38.8 31.4959 39.5 31.1059 40.01 31.2959C40.13 31.3359 40.25 31.6459 40.21 31.8059Z" fill="white"/>
<path d="M81.69 14.8459C81.59 14.9659 81.19 14.9959 81.02 14.8959C80.44 14.5759 79.91 14.1859 79.36 13.8159C79.39 13.7259 79.43 13.6459 79.46 13.5559C80.11 13.7459 80.76 13.9059 81.4 14.1259C81.73 14.2459 81.94 14.5359 81.69 14.8459Z" fill="white"/>
<path d="M52.51 12.2159C52.32 13.0859 52.11 13.9559 51.86 14.8059C51.78 15.0859 51.56 15.3359 51.41 15.5959C51.35 15.5659 51.3 15.5459 51.24 15.5159C51.34 15.1759 51.42 14.8359 51.54 14.5059C51.8 13.7659 52.09 13.0459 52 12.2359C51.98 12.0859 52.18 11.9159 52.28 11.7559C52.35 11.9259 52.53 12.0959 52.51 12.2159Z" fill="white"/>
<path d="M48.44 13.9759C48.11 14.2159 46.7 14.0059 45.1 13.5659C45.11 13.5159 45.12 13.4659 45.13 13.4159C46.21 13.6059 47.28 13.7859 48.44 13.9759Z" fill="white"/>
<path d="M52.18 10.9659C52.03 11.3659 51.63 11.6959 51.08 11.8059C51.07 11.8059 51.05 11.8159 51.04 11.8159C51.47 11.2959 51.83 10.8559 52.21 10.3959C52.26 10.5959 52.25 10.7859 52.18 10.9659Z" fill="white"/>
<path d="M54.67 11.3059C53.84 11.3659 53.2 10.8759 53.19 10.2359V10.2159C53.2 10.2159 53.2 10.2259 53.21 10.2259C53.68 10.5859 54.13 10.9159 54.67 11.3059Z" fill="white"/>
<path d="M52.2 22.8759C52.11 22.7259 52.02 22.6459 52 22.5559C51.96 22.3259 51.96 22.0959 51.95 21.8659C51.95 21.8559 52.14 21.8359 52.14 21.8459C52.22 22.0859 52.29 22.3259 52.34 22.5759C52.35 22.6459 52.27 22.7359 52.2 22.8759Z" fill="white"/>
<path d="M49.72 49.1459L49.63 49.1859L49.4 49.2859L49.02 49.4459L48.9 49.4959C48.92 49.4859 48.96 49.4659 49.02 49.4359C49.06 49.4159 49.1 49.3959 49.15 49.3659C49.3 49.2959 49.47 49.2159 49.61 49.1759C49.66 49.1559 49.69 49.1459 49.72 49.1459Z" fill="#221F1F"/>
<path d="M49.63 49.1859C49.63 49.1959 49.64 49.1959 49.64 49.2059C49.56 49.2359 49.48 49.2559 49.4 49.2859C49.32 49.3159 49.24 49.3359 49.16 49.3559C49.31 49.2859 49.48 49.2059 49.62 49.1659C49.66 49.1559 49.69 49.1459 49.72 49.1459L49.63 49.1859Z" fill="black"/>
<path d="M48.16 10.2959L48.05 10.3259L48.06 10.3159L48.16 10.2959Z" fill="black"/>
<path d="M36.95 12.7959L36.42 12.8959L36.37 12.8859L36.74 12.8059C36.81 12.8059 36.88 12.8059 36.95 12.7959Z" fill="black"/>
<path d="M48.16 10.2959L48.05 10.3259L48.06 10.3159L48.16 10.2959Z" fill="black"/>
<path d="M97.57 23.4359C97.13 22.5759 96.71 21.6759 96.1 20.9359C95.26 19.9159 94.35 18.9259 93.31 18.1159C91.17 16.4159 88.66 15.3959 86.09 14.5359C81.49 13.0059 76.76 12.2559 71.9 12.2859C67.04 12.3159 62.22 12.7359 57.45 13.7259C56.93 13.8359 56.35 14.0159 55.86 13.3459C55.77 13.1959 55.66 13.0359 55.54 12.8759C55.38 12.5759 54.78 11.9959 55.21 11.3359C55.67 10.6259 55.11 9.71591 55.11 9.71591C55 9.58591 54.88 9.48591 54.76 9.39591C55.04 9.16591 56.15 8.24591 56.37 8.05591C56.62 7.83591 58.34 6.33591 58.64 6.11591C58.94 5.89591 61.76 3.46591 62.03 3.29591C62.3 3.13591 64.05 1.62591 64.52 1.40591C64.99 1.18591 65.75 0.525912 66.65 0.525912C67.55 0.525912 67.66 0.745911 67.75 0.745911C67.84 0.745911 68.24 0.585911 68.05 0.415911C67.86 0.255911 66.79 -0.434089 65.45 0.415911C64.11 1.26591 54.9 9.18591 54.51 9.23591L54.52 9.24591C53.7 8.83591 52.77 9.18591 52.56 9.45591C52.55 9.46591 52.54 9.49591 52.54 9.52591C52.5 9.49591 52.45 9.46591 52.41 9.44591C52.29 9.37591 52.15 9.32591 52 9.29591C51.69 9.17591 50.51 8.72591 50.31 8.62591C50.08 8.51591 46.97 7.42591 46.66 7.33591C46.35 7.25591 41.87 5.76591 41.71 5.70591C41.55 5.64591 39.58 4.81591 39.58 4.81591C39.58 4.81591 38.13 3.85591 37.83 3.93591C37.53 4.01591 37.69 4.37591 37.91 4.45591C38.13 4.53591 40.45 5.42591 40.81 5.56591C41.14 5.69591 50.22 8.68591 51.68 9.26591C51.41 9.28591 51.11 9.39591 50.77 9.64591C49.96 10.2359 49.99 10.8559 50.2 11.3259C50.2 11.3259 50.2 11.3359 50.21 11.3359C50.22 11.3659 50.24 11.3859 50.25 11.4159C50.35 11.5959 50.51 11.7659 50.64 11.9259C50.67 11.9559 50.69 11.9959 50.71 12.0259C50.71 12.0359 50.72 12.0359 50.72 12.0459C50.96 12.3859 51.03 12.5359 50.79 12.9259C50.44 13.4859 49.91 13.4659 49.41 13.4459C48.83 13.4259 48.53 13.3859 48.39 13.2059C48.4 12.6059 48.41 10.4159 48.29 10.3259C48.22 10.2759 48.14 10.2659 48.07 10.3159L48.18 10.2959L48.06 10.3259L48.07 10.3159L36.75 12.8059C36.82 12.8059 36.89 12.7959 36.96 12.7959L36.43 12.8959L36.38 12.8859L36.75 12.8059C35.58 12.8559 34.41 12.9359 33.25 13.0459C31.58 13.1959 29.91 13.5159 28.27 13.8859C26.48 14.2859 24.69 14.7359 22.95 15.3259C20.28 16.2259 17.72 17.4259 15.28 18.8659C12.8 20.3359 10.56 22.0959 8.81 24.4059C7.82 25.7159 7.01 27.1159 7.04 28.8559C7.05 29.5059 7.57 30.1259 8.07 29.9459C8.7 29.7159 8.88 30.1359 9.04 30.5259C9.36 31.2659 9.99999 31.6259 10.84 31.5259C11.01 31.5059 11.23 31.6259 11.38 31.7359C12.17 32.3459 13 32.7059 14.03 32.3559C14.2 32.2959 14.51 32.3559 14.63 32.4859C15.49 33.3659 16.84 33.5459 17.83 32.8959C17.95 32.8159 18.1 32.7959 18.26 32.7459C18.37 33.5359 19 33.6859 19.54 33.7559C20.17 33.8259 20.92 34.0759 21.38 33.2759C21.44 33.1759 21.74 33.1659 21.91 33.1959C22.01 33.2159 22.09 33.3959 22.15 33.5259C22.21 33.6659 22.18 33.8459 22.26 33.9559C22.84 34.7159 24.28 34.9959 25.15 34.4759C25.41 34.7059 25.79 34.8859 25.95 35.1859C26.55 36.2959 27.95 36.7459 28.99 36.5959C29.75 36.4759 30.37 36.7859 30.44 37.5659C30.51 38.3759 31.07 38.7559 31.58 39.1959C32.24 39.7659 32.68 40.3859 32.67 41.3359C32.66 41.9359 32.8 42.6059 33.08 43.1359C33.27 43.4959 33.9 43.9859 34.15 43.8959C34.92 43.6359 35.19 44.2459 35.66 44.5059C35.76 44.5659 35.81 44.8159 35.8 44.9659C35.73 45.9659 36.5 47.0659 37.48 47.3159C37.82 47.4059 38.08 47.3659 38.22 46.9959C38.36 46.6359 38.61 46.5659 38.96 46.7559C39.16 46.8659 39.38 46.9459 39.58 47.0559C39.94 47.2659 40.22 47.5759 40.01 47.9959C39.74 48.5359 39.93 49.0259 40.13 49.4859C40.36 50.0259 40.68 50.5359 41 51.0359C41.09 51.1759 41.3 51.2859 41.47 51.3059C42.13 51.3759 43.19 50.7259 43.24 50.0759C43.29 49.2759 43.68 49.2559 44.29 49.3259C45.01 49.3959 45.09 49.4859 44.86 50.1559C45.31 50.6459 46.49 50.8559 47.07 50.5059C47.7 50.1259 48.2 49.4859 49.03 49.4859C49.03 49.4859 49.03 49.4659 49.04 49.4259L48.92 49.4759C48.94 49.4659 48.98 49.4459 49.04 49.4159C49.04 49.4059 49.04 49.4059 49.04 49.3959H49.01C49.06 49.3859 49.11 49.3659 49.17 49.3559C49.32 49.2859 49.49 49.2059 49.63 49.1659C49.67 49.1559 49.7 49.1459 49.73 49.1459L49.64 49.1859C49.64 49.1959 49.65 49.1959 49.65 49.2059C49.76 49.4259 49.95 49.4759 50.22 49.2559C50.59 48.9559 50.98 48.5859 51.17 48.1559C51.63 47.0759 52.05 45.9759 52.34 44.8359C52.63 43.7059 52.66 42.5059 53.75 41.7659C54.03 41.5759 54.34 41.4159 54.62 41.2159C55.12 40.8459 55.45 40.9759 55.6 41.6059C55.68 41.9559 55.76 42.3259 55.9 42.6559C56.19 43.3859 56.66 43.5459 57.15 43.0859C57.66 43.4959 58.14 43.3159 58.64 42.9159C58.64 43.1159 58.65 43.2959 58.56 43.3859C58.03 43.9059 57.86 44.5959 57.63 45.2659C57.58 45.4059 57.49 45.5459 57.39 45.6559C56.72 46.4159 57.05 47.5759 58 47.8359C58.36 47.9359 58.74 47.9859 59.19 48.0859C59.21 48.2359 59.22 48.4659 59.29 48.6759C59.34 48.8359 59.47 48.9759 59.56 49.1259C59.66 49.0159 59.83 48.9159 59.87 48.7859C60.05 48.0759 60.65 48.3959 61.06 48.3459C61.16 48.3359 61.44 48.8459 61.44 49.1159C61.44 49.6659 61.77 49.9059 62.14 50.2059C62.4 49.3259 62.63 48.5159 62.87 47.7059C62.92 47.7159 62.97 47.7259 63.01 47.7459C63.39 48.5459 63.78 49.3459 64.16 50.1459C64.22 50.1259 64.28 50.1059 64.35 50.0959C64.44 49.8959 64.61 49.6859 64.61 49.4859C64.61 49.1559 64.65 48.8459 65.01 48.8659C65.42 48.8859 65.96 48.5259 66.22 49.2359C66.37 49.6359 66.67 49.9859 66.96 50.3159C67.26 50.6459 67.59 50.6359 67.87 50.2359C68.13 49.8559 68.46 49.5059 68.64 49.0959C68.88 48.5259 69.16 47.9159 69.15 47.3159C69.14 46.5859 69.59 45.6859 70.33 45.5659C70.45 45.5459 70.59 45.7359 70.73 45.8059C70.9 45.8859 71.1 46.0359 71.24 45.9959C71.89 45.8059 72.12 45.3859 71.95 44.7359C71.83 44.2659 71.95 44.1059 72.42 44.2559C72.88 44.3959 72.87 44.1859 72.82 43.8059C72.79 43.5459 72.89 43.2059 73.06 42.9959C73.27 42.7359 73.6 42.5759 73.89 42.3559C74.02 42.4759 74.15 42.5759 74.26 42.6759C75.25 42.0959 75.62 41.1259 75.4 39.7659C75.25 38.8559 75.68 37.9859 76.48 37.5259C76.59 37.4659 76.68 37.3459 76.73 37.2259C76.91 36.7459 77.05 36.2459 77.25 35.7759C77.39 35.4459 77.61 35.1459 77.82 34.8459C77.98 34.6159 78.21 34.4359 78.35 34.1959C78.61 33.7459 78.92 33.6459 79.4 33.8859C79.52 33.9459 79.71 33.9759 79.83 33.9259C80.72 33.6159 81.48 33.1259 81.87 32.2159C82.08 31.7159 82.45 31.5459 82.97 31.7059C83.81 31.9759 85.02 31.2159 85.16 30.3159C85.24 29.8459 85.68 29.6359 86.05 29.8959C86.82 30.4259 88.23 29.9459 88.55 28.9959C88.96 29.1159 89.34 29.3359 89.7 29.3059C90.41 29.2459 91.07 28.9859 91.53 28.3659C91.62 28.2459 91.87 28.1359 92.02 28.1659C92.99 28.3559 93.71 27.9359 94.35 27.2759C94.46 27.1559 94.72 27.1359 94.91 27.1459C95.52 27.1659 96.19 26.5759 96.32 25.9859C96.37 25.7459 96.64 25.4059 96.84 25.3859C97.52 25.3159 97.75 25.1659 97.74 24.4759C97.73 24.1059 97.72 23.7259 97.57 23.4359ZM10.86 27.6659C10.76 27.8159 10.49 27.8459 10.3 27.9359C10.25 27.7459 10.15 27.5459 10.17 27.3659C10.21 26.9459 10.32 26.5359 10.4 26.1259C10.45 26.1259 10.5 26.1359 10.55 26.1359C10.56 25.5559 10.59 24.9759 10.59 24.3959C10.58 23.9359 11.11 23.0059 11.56 22.8759C11.76 22.8159 12.08 22.8759 12.22 23.0059C12.36 23.1559 12.44 23.4759 12.39 23.6859C12.15 24.5859 11.88 25.4859 11.57 26.3659C11.38 26.8259 11.13 27.2559 10.86 27.6659ZM13.14 29.2559C13 29.7359 12.43 30.1659 12.09 30.0559C11.69 29.9259 11.36 29.2559 11.38 28.6959C11.69 28.4959 11.97 28.2059 12.31 28.1059C12.54 28.0359 13.21 29.0259 13.14 29.2559ZM15.21 30.8359C14.75 30.6959 14.33 30.0759 14.44 29.6959C14.56 29.2659 15.39 28.6359 15.59 28.8459C15.9 29.1659 16.26 29.6059 16.28 29.9959C16.3 30.5259 15.6 30.9559 15.21 30.8359ZM15.24 25.9059C15.14 25.9259 14.85 25.6659 14.87 25.5759C14.99 25.0159 15.16 24.4659 15.34 23.9259C15.38 23.8159 15.58 23.6959 15.7 23.7059C15.79 23.7059 15.89 23.8959 15.95 24.0259C16.01 24.1459 16.04 24.2859 16.05 24.4159C16.1 24.7959 16.2 25.1059 16.81 24.9359C16.39 25.6259 15.81 25.7759 15.24 25.9059ZM16.74 22.4559C17.15 22.2159 17.64 21.8959 18.16 21.6559C18.34 21.5759 18.7 21.6459 18.83 21.7859C18.96 21.9259 18.99 22.2859 18.9 22.4659C18.67 22.9359 18.36 23.3559 18.07 23.8059C17.59 23.3059 17.2 22.9159 16.74 22.4559ZM20 30.3859C19.84 30.8659 19.27 31.1159 18.52 30.8959C18.44 30.7559 18.14 30.4959 18.14 30.2259C18.13 29.7859 18.82 29.3259 19.17 29.4159C19.67 29.5359 20.11 30.0559 20 30.3859ZM18.82 26.4159C18.71 26.4859 18.58 26.5459 18.46 26.5859C17.95 26.7259 17.63 26.5059 17.61 25.9759C17.6 25.8059 17.62 25.6359 17.65 25.4659C17.68 25.3159 17.73 25.1759 17.77 25.0259C18.11 24.0359 18.86 23.4759 19.88 23.3859C20.41 23.3359 20.49 23.6159 20.5 24.0259C20.5 25.2159 19.75 25.8759 18.82 26.4159ZM21 19.4059C20.98 19.5859 21 19.8159 20.9 19.9359C20.34 20.5759 19.59 20.9059 18.75 21.0159C18.59 21.0359 18.29 20.8559 18.24 20.6959C17.85 19.5959 18.39 18.3859 19.45 17.8959C19.71 17.7759 19.99 17.7159 20.27 17.6359C20.54 17.5559 20.74 17.5459 20.81 17.9159C20.84 18.0559 21.07 18.1659 21.14 18.2259C21.09 18.6559 21.05 19.0259 21 19.4059ZM48.44 13.9759C48.11 14.2159 46.7 14.0059 45.1 13.5659C45.11 13.5159 45.12 13.4659 45.13 13.4159C46.21 13.6059 47.28 13.7859 48.44 13.9759ZM47.86 10.6759L47.89 10.6659C47.89 10.6859 47.88 10.7159 47.88 10.7459C47.74 11.0759 47.45 12.9159 47.42 13.1459C47.25 13.2059 47.03 13.1559 46.82 13.1359C44.45 12.8659 42.08 12.7359 39.71 12.7459L47.89 10.6759H47.86ZM30.57 17.1259C30.73 16.6359 31.16 16.2159 30.82 15.5859C30.72 15.4059 31.03 14.7859 31.28 14.6659C31.88 14.3959 32.52 14.6259 32.71 15.0159C32.85 15.3159 33.06 15.6159 33.09 15.9259C33.23 17.5159 31.85 18.5159 30.26 17.9559C30.36 17.6859 30.47 17.4159 30.57 17.1259ZM24.06 29.1059C24.04 29.5659 23.89 30.0259 23.73 30.4659C23.68 30.6059 23.36 30.7659 23.24 30.7259C23.08 30.6659 23 30.4159 22.89 30.2359C22.88 30.2259 22.88 30.2159 22.88 30.2059C22.87 30.1659 22.87 30.1159 22.87 30.1059C22.52 30.0959 22.23 30.0959 21.93 30.0859C22.01 29.7559 22.07 29.4059 22.18 29.0859C22.24 28.9159 22.37 28.7559 22.49 28.6059C22.85 28.1959 23.2 28.2659 23.41 28.8059C23.86 28.4159 24.07 28.7159 24.06 29.1059ZM23.5 17.0759C23.49 16.8459 23.39 16.5359 23.5 16.4059C24.04 15.7959 24.76 15.5359 25.56 15.5259C25.6 15.5759 25.65 15.6259 25.7 15.6759C25.46 15.9259 25.23 16.1859 24.97 16.4059C24.7 16.6359 24.41 16.8759 24.1 17.0359C23.94 17.1259 23.71 17.0759 23.5 17.0759ZM25.86 16.7259C26.21 17.2759 26.21 17.7759 25.81 18.3459C25.53 18.7559 25.43 19.2959 25.25 19.7759C25.19 19.9459 25.12 20.1059 25.02 20.3359C23.88 19.2259 24.64 16.9759 25.86 16.7259ZM25.01 23.7459C25.24 23.2659 26.1 22.8659 26.67 23.0359C26.73 23.0859 26.88 23.1859 26.96 23.3259C27.42 24.1759 26.6 25.5459 25.64 25.5459C25.55 25.5459 25.45 25.5159 25.38 25.4659C25.05 25.2559 24.82 24.1359 25.01 23.7459ZM27.27 32.2059C26.95 33.0959 26.77 33.1459 26 32.5759C25.83 32.4559 25.64 32.3159 25.45 32.2859C24.85 32.1959 24.94 31.8459 25.09 31.4559C25.3 30.9059 26.02 30.4159 26.4 30.5659C27.45 30.9959 27.55 31.5059 27.27 32.2059ZM27.21 20.9859C27.62 20.5059 27.98 19.9459 28.47 19.5259C28.78 19.2659 29.26 19.1259 29.68 19.0859C29.97 19.0559 30.38 19.1959 30.57 19.4059C30.97 19.8659 31.23 20.4359 31.01 21.0859C30.97 21.1959 30.84 21.3059 30.72 21.3459C30.16 21.5259 29.6 21.7459 29.02 21.8359C28.08 21.9759 28.07 21.9359 27.21 20.9859ZM30.14 35.0659C29.89 34.8259 29.71 34.6059 29.49 34.4259C28.98 34.0059 28.91 33.7459 29.25 33.2759C29.33 33.1659 29.53 33.0759 29.66 33.0859C30.04 33.1259 30.74 33.9759 30.76 34.3559C30.78 34.8359 30.59 35.0259 30.14 35.0659ZM30.87 25.2159C30.37 25.7659 29.9 26.3359 29.36 26.8559C29.18 27.0259 28.79 27.2059 28.62 27.1159C28.4 27.0159 28.21 26.6659 28.17 26.3959C28.09 25.8559 28.12 25.2959 28.12 24.7459C28.12 24.6459 28.18 24.5159 28.25 24.4459C28.83 23.8959 29.39 23.3159 30.02 22.8359C30.48 22.4759 30.91 22.7259 30.98 23.2959C31.04 23.8059 31.1 24.3159 31.16 24.7959C31.05 24.9759 30.97 25.1059 30.87 25.2159ZM33.11 29.3659C32.84 29.7059 32.55 29.6859 32.3 29.3659C32.04 29.0359 31.76 28.6959 31.61 28.3159C31.49 28.0059 31.51 27.6259 31.55 27.2859C31.62 26.6859 31.73 26.0759 31.89 25.4959C32.02 25.0159 32.17 24.5059 32.42 24.0859C32.82 23.4159 33.32 22.8059 33.79 22.1759C33.87 22.0659 33.97 21.9659 34.07 21.8959C34.85 21.3659 35.36 21.5859 35.38 22.5359C35.4 23.5759 35.59 24.6359 35.23 25.6559C34.73 27.0259 34 28.2359 33.11 29.3659ZM33.94 34.5459C33.77 34.3159 33.41 34.0759 33.43 33.8859C33.49 33.4659 33.75 33.0759 33.92 32.6759C34.52 33.0859 35.01 33.4459 35.53 33.7559C35.92 33.9959 35.92 34.2859 35.75 34.6259C35.69 34.7459 35.6 34.8459 35.51 34.9459C34.94 35.6759 34.69 35.6759 34.18 34.9159C34.1 34.8059 34.03 34.6659 33.94 34.5459ZM37.08 40.8259C37 40.8859 36.96 41.0159 36.92 41.1159C36.76 41.4559 36.51 41.4959 36.32 41.1959C36.09 40.8259 35.85 40.8959 35.56 41.0459C35.53 41.0659 35.49 41.0859 35.45 41.0859C35.14 41.1059 34.84 41.1259 34.53 41.1459C34.52 40.8259 34.49 40.5059 34.49 40.1859C34.49 40.1359 34.5 40.0959 34.51 40.0559C34.51 40.0459 34.52 40.0259 34.52 40.0159V40.0059C34.52 39.9959 34.53 39.9959 34.53 39.9959C34.53 39.9859 34.53 39.9859 34.53 39.9759C34.55 39.8859 34.57 39.7959 34.59 39.7059C34.61 39.6259 34.63 39.5559 34.66 39.4759C34.7 39.3259 34.76 39.1959 34.82 39.0659C34.84 39.0259 34.86 38.9959 34.88 38.9659C34.89 38.9459 34.9 38.9359 34.91 38.9159C34.94 38.8659 34.98 38.8259 35.02 38.7859C35.06 38.7459 35.11 38.7059 35.15 38.6659C35.18 38.6459 35.21 38.6259 35.25 38.6059C35.28 38.5859 35.32 38.5659 35.36 38.5559C35.46 38.5159 35.57 38.4859 35.7 38.4659C36.13 38.4059 37.27 38.9659 37.46 39.4559C37.67 39.9759 37.59 40.4759 37.08 40.8259ZM41.86 40.0659C41.68 40.9959 41.35 41.9059 41.06 42.8159C41.04 42.8959 40.94 42.9459 40.84 43.0459C40.68 42.9159 40.51 42.8259 40.39 42.6859C40.04 42.2759 39.65 42.1759 39.16 42.4359C38.73 42.6559 38.56 42.4459 38.64 42.0459C38.84 41.0159 39.04 39.9759 39.33 38.9659C39.5 38.3759 39.82 38.3159 40.39 38.5859C40.72 38.7459 41.11 38.8359 41.35 39.0759C41.61 39.3259 41.92 39.7759 41.86 40.0659ZM38.65 32.0359C38.79 31.4859 39.49 31.0959 40 31.2859C40.12 31.3259 40.24 31.6459 40.21 31.7959C40.07 32.4159 39.54 32.7059 38.79 32.4759C38.76 32.4059 38.61 32.1959 38.65 32.0359ZM42.39 23.5659C42.24 23.8359 42.13 24.0859 41.98 24.2959C41.44 25.0659 40.91 25.8259 40.34 26.5659C40.22 26.7159 39.96 26.7559 39.76 26.8459C39.71 26.6559 39.63 26.4659 39.61 26.2659C39.57 25.8859 39.59 25.5059 39.54 25.1259C39.46 24.5459 39.11 24.3259 38.53 24.3959C37.84 24.4859 37.15 24.5659 36.45 24.6159C36.08 24.6459 36.02 24.3459 36.15 24.1059C36.76 22.9959 37.36 21.8759 38.05 20.8159C38.48 20.1559 39.92 19.7559 40.57 20.0559C40.82 20.1759 41.06 20.4759 41.13 20.7359C41.28 21.2659 41.45 21.6959 42.07 21.8059C42.2 21.8259 42.37 22.0559 42.38 22.2059C42.43 22.6759 42.4 23.1359 42.39 23.5659ZM45.21 46.5159C44.99 46.3759 44.88 46.3159 44.77 46.2359C44.01 45.7059 44 45.6959 43.23 46.2359C42.84 46.5059 42.6 46.3759 42.51 45.9759C42.31 44.9959 42.48 44.0359 42.84 43.1259C42.91 42.9459 43.3 42.7759 43.53 42.7859C44.33 42.8359 44.96 43.1959 45.19 44.0259C45.41 44.8159 45.49 45.6159 45.21 46.5159ZM45.76 28.9959C45.28 28.9259 44.8 28.7759 44.33 28.6359C43.48 28.3859 43.3 27.9559 43.72 27.1959C44.15 26.4159 44.58 25.6359 45.08 24.7259C44.32 24.9659 43.67 25.1659 42.99 25.3759C42.93 25.2259 42.89 25.1459 42.86 25.0559C42.71 24.6559 42.26 24.3059 42.63 23.7959C43.11 23.1359 43.69 22.6459 44.54 22.5559C44.62 22.5459 44.72 22.5959 44.8 22.6259C45.13 22.7559 45.46 22.8859 45.78 23.0359C45.96 23.1159 46.11 23.2359 46.3 23.3459C46.47 23.1759 46.66 22.9959 46.9 22.7659C47.31 23.1859 47.78 23.5259 48.04 23.9759C48.21 24.2659 48.19 24.7659 48.08 25.1159C47.81 25.9859 47.47 26.8259 47.1 27.6659C46.93 28.0559 46.69 28.4359 46.41 28.7559C46.28 28.9259 45.97 29.0259 45.76 28.9959ZM45.87 32.1759C45.85 31.7159 45.85 31.2259 45.98 30.7859C46.18 30.1359 46.5 29.5259 46.77 28.8959C46.87 28.9159 46.96 28.9459 47.05 28.9659C47.08 29.6959 47.11 30.4259 47.12 31.1559C47.13 31.4559 47.09 31.7659 47.07 32.0659C47.05 32.5059 46.82 32.6659 46.37 32.6959C45.96 32.7359 45.88 32.4359 45.87 32.1759ZM49.47 45.1059C49.43 45.2059 49.14 45.3359 49.06 45.2859C48.49 44.9259 47.93 44.6459 47.23 44.9159C47.16 44.9459 46.9 44.7559 46.88 44.6459C46.74 43.8859 46.57 43.1159 46.55 42.3459C46.53 41.8359 46.99 41.7159 47.82 42.0159C47.92 42.0559 48.12 42.1359 48.31 42.2259C49.42 42.7759 49.9 43.9459 49.47 45.1059ZM50.09 27.8259C50.06 28.3759 50.07 28.9359 49.99 29.4859C49.95 29.7659 49.71 30.0159 49.63 30.2959C49.55 30.6059 49.54 30.9459 49.54 31.2759C49.54 31.7659 49.6 32.2559 49.6 32.7459C49.6 32.8359 49.43 33.0259 49.4 33.0059C49.24 32.9559 49.02 32.8759 48.95 32.7459C48.64 32.1159 48.35 31.4759 48.09 30.8159C47.82 30.1259 47.6 29.4159 47.37 28.7059C47.32 28.5459 47.24 28.3459 47.29 28.2059C47.66 27.1559 48.07 26.1159 48.46 25.0659C49.46 25.4459 50.15 26.7259 50.09 27.8259ZM54.9 10.4359C54.91 10.4459 54.91 10.4559 54.89 10.4459C54.89 10.4459 54.9 10.4459 54.9 10.4359ZM51.09 11.8059C51.08 11.8059 51.06 11.8159 51.05 11.8159C51.48 11.2959 51.84 10.8559 52.22 10.3959C52.27 10.5859 52.26 10.7859 52.19 10.9659C52.04 11.3659 51.64 11.6959 51.09 11.8059ZM51.4 15.6059C51.34 15.5759 51.29 15.5559 51.23 15.5259C51.33 15.1859 51.41 14.8459 51.53 14.5159C51.79 13.7759 52.08 13.0559 51.99 12.2459C51.97 12.0959 52.17 11.9259 52.27 11.7659C52.36 11.9159 52.54 12.0859 52.51 12.2159C52.32 13.0859 52.11 13.9559 51.86 14.8059C51.77 15.0959 51.55 15.3359 51.4 15.6059ZM51.95 21.8659C51.95 21.8559 52.14 21.8359 52.14 21.8459C52.22 22.0859 52.29 22.3259 52.34 22.5759C52.35 22.6459 52.27 22.7259 52.2 22.8759C52.11 22.7259 52.02 22.6459 52 22.5559C51.96 22.3259 51.96 22.0959 51.95 21.8659ZM52.62 33.7359C52.54 34.1459 52.18 30.9959 52.26 30.3759C52.34 29.7459 52.04 28.1359 52.15 27.9159C52.26 27.6959 52.48 29.5259 52.53 30.1359C52.53 30.1359 52.64 31.4759 52.64 31.9659C52.65 32.4559 52.7 33.3259 52.62 33.7359ZM53.18 10.2459V10.2259C53.19 10.2259 53.19 10.2359 53.2 10.2359C53.68 10.5859 54.13 10.9159 54.67 11.3059C53.83 11.3659 53.2 10.8759 53.18 10.2459ZM54.37 23.5359C54.26 23.0459 54.59 21.7859 54.59 21.7859C54.59 21.7859 54.97 21.8959 54.97 22.3359C54.98 22.7659 54.48 24.0259 54.37 23.5359ZM56.79 16.7159C56.71 16.7159 56.52 16.6559 56.48 16.5359C56.43 16.4159 56.3 15.8159 56.18 15.6459C56.06 15.4859 55.91 15.0159 55.79 14.7059C55.67 14.4059 55.36 14.1959 55.26 13.8559C55.23 13.7659 55.18 13.6059 55.11 13.4259C54.9 12.8859 54.57 12.0959 54.55 12.0259C54.53 11.9259 54.54 11.9559 54.54 11.9559C54.54 11.9559 54.72 12.3759 54.84 12.5459C54.91 12.6459 55.09 12.9859 55.27 13.3459C55.39 13.5759 55.5 13.8159 55.59 14.0059C55.81 14.4659 56.22 14.8559 56.41 15.5559C56.59 16.2459 56.97 16.6759 56.97 16.6759C56.97 16.6759 56.88 16.7159 56.79 16.7159ZM79.46 13.5659C80.11 13.7559 80.76 13.9159 81.4 14.1359C81.72 14.2459 81.94 14.5359 81.69 14.8459C81.59 14.9659 81.19 14.9959 81.02 14.8959C80.44 14.5759 79.91 14.1859 79.36 13.8159C79.4 13.7359 79.43 13.6459 79.46 13.5659ZM79.58 14.7259C80.78 15.2959 81.3 16.1759 81.12 17.4559C81.1 17.6159 80.9 17.7459 80.79 17.8959C80.64 17.7359 80.46 17.5959 80.35 17.4159C80.22 17.1959 80.2 16.9159 80.07 16.7059C79.77 16.2359 79.43 15.7859 79.13 15.3459C79.32 15.0959 79.45 14.9159 79.58 14.7259ZM77.03 17.4959C77.89 17.7759 78.52 18.3159 78.87 19.1559C78.08 19.9459 76.44 20.1459 75.55 19.5259C75.38 19.4059 75.28 19.0959 75.26 18.8659C75.18 17.7359 75.97 17.1359 77.03 17.4959ZM72.96 13.8759C73.16 13.5959 73.71 13.4759 74.1 13.4559C74.48 13.4459 74.9 14.1159 74.77 14.4959C74.63 14.8959 74.84 15.0759 75.03 15.3459C75.21 15.5959 75.45 15.9359 75.42 16.2059C75.34 16.9159 75.14 16.9559 74.07 16.6659C72.68 16.5359 72.4 14.6459 72.96 13.8759ZM58.25 14.2459C58.25 14.2459 59.13 14.0159 59.94 13.8359C60.04 13.8059 60.14 13.7759 60.24 13.7559V13.7659C60.53 13.6959 60.8 13.6459 60.98 13.6159C61.28 13.5659 60.87 13.7159 60.28 13.9159C60.28 13.9359 60.29 13.9459 60.29 13.9659C59.87 14.0859 59.46 14.1959 59.04 14.3159H59.03C58.62 14.4459 58.3 14.5459 58.25 14.5559C58.09 14.5959 58.25 14.2459 58.25 14.2459ZM62.18 44.8859C61.3 44.2459 60.88 44.9159 60.37 45.2859C60.34 45.3059 60.31 45.3259 60.28 45.3459C60.26 45.3559 60.25 45.3659 60.23 45.3759C60.17 45.4159 60.1 45.4459 60.03 45.4659C60 45.4759 59.96 45.4859 59.92 45.4859C59.44 44.7959 59.48 43.1059 60.1 42.5459C60.57 42.1259 61.15 41.8259 61.73 41.5559C62.11 41.3759 62.46 41.6759 62.51 42.0259C62.64 42.9759 62.62 43.9259 62.18 44.8859ZM60.87 28.8559C60.94 28.8359 61 28.8159 61.07 28.7959C61.49 29.6059 61.99 30.3859 62.3 31.2359C62.53 31.8659 62.15 32.2759 61.59 32.1859C61.38 32.1559 61.08 31.9259 61.05 31.7459C60.91 30.9259 60.85 30.0959 60.77 29.2559C60.75 29.1259 60.83 28.9959 60.87 28.8559ZM61.95 28.5459C61.69 28.5759 61.3 28.4159 61.13 28.2059C60.72 27.6959 60.41 27.1059 59.94 26.5459C59.96 26.7259 59.92 26.9559 60.02 27.0659C60.64 27.6959 60.42 28.4259 60.26 29.1159C60 30.2359 59.7 31.3359 59.4 32.4459C59.35 32.6259 59.25 32.8159 59.11 32.9359C59 33.0359 58.8 33.0959 58.65 33.0759C58.57 33.0659 58.47 32.8459 58.46 32.7159C58.37 31.8259 58.34 30.9159 58.22 30.0359C58.12 29.3159 57.9 28.6159 57.75 27.9059C57.54 26.9059 57.89 26.0459 58.49 25.2959C58.61 25.1459 59.05 25.2659 59.38 25.2659C59.32 25.0559 59.22 24.7359 59.13 24.4259C59.03 24.0859 59.08 23.8359 59.39 23.5859C59.71 23.3259 59.91 22.9259 60.21 22.6359C60.31 22.5359 60.6 22.5059 60.73 22.5759C61.29 22.9059 62.11 22.8759 62.56 22.3659C62.86 22.0159 63.18 21.9859 63.52 22.1759C64.06 22.4759 64.61 22.7859 65.09 23.1759C65.52 23.5259 65.26 24.0159 65.08 24.3959C64.92 24.7159 64.6 24.8559 64.21 24.7859C63.8 24.7059 63.39 24.6759 62.9 24.6159C63.54 25.4859 64.14 26.3159 64.76 27.1559C63.85 27.8159 63 28.4159 61.95 28.5459ZM66.45 45.9059C66.36 45.9659 66.09 45.8559 65.94 45.7559C65.18 45.2459 65.12 45.2559 64.51 45.9159C64.4 46.0359 64.18 46.2159 64.12 46.1759C63.98 46.0959 63.81 45.9059 63.8 45.7459C63.74 44.9359 63.73 44.1159 63.72 43.6259C64.04 42.5859 64.66 42.1159 65.4 42.1259C65.81 42.1259 66.18 42.2759 66.27 42.7259C66.44 43.6059 66.57 44.4959 66.68 45.3759C66.71 45.5459 66.58 45.8059 66.45 45.9059ZM69.28 41.4659C69.02 41.4259 68.7 41.6259 68.45 41.7859C68.26 41.9059 68.14 42.1459 67.99 42.3359C67.92 42.3359 67.84 42.3359 67.77 42.3359C67.55 41.8859 67.3 41.4359 67.13 40.9659C66.95 40.4659 66.83 39.9359 66.72 39.4159C66.59 38.7759 66.91 38.1959 67.5 37.8959C67.62 37.8359 67.75 37.7959 67.86 37.7159C68.56 37.2259 68.75 37.2559 69.05 38.0559C69.39 38.9459 69.7 39.8459 69.96 40.7659C70.15 41.4459 69.96 41.5759 69.28 41.4659ZM68.18 30.2759C68.35 30.0259 68.71 29.9059 69.12 29.6459C69.44 30.2059 69.67 30.6159 69.91 31.0259C69.55 31.1859 69.19 31.4459 68.82 31.4759C68.48 31.4859 67.98 30.5559 68.18 30.2759ZM69.12 23.3959C68.57 23.1859 68.13 23.5859 68.11 24.2059C68.1 24.7859 68.13 25.3659 68.15 25.9459C68.1 25.9859 68.06 26.0259 68.01 26.0659C67.63 25.7359 67.23 25.4259 66.89 25.0659C66.44 24.5959 66.03 24.0859 65.6 23.5959C65.06 22.9859 64.98 22.2059 64.89 21.4559C64.87 21.2959 65.2 21.0159 65.42 20.9259C65.71 20.8059 65.86 20.6859 65.83 20.3559C65.73 19.1859 66.55 19.0359 67.35 19.1259C68.43 19.2559 69.27 19.7359 69.76 20.8059C70.04 21.4159 70.51 21.9459 70.94 22.4759C71.3 22.9159 71.28 23.0459 70.75 23.2459C70.22 23.4759 69.73 23.6259 69.12 23.3959ZM73.03 39.9759C72.65 39.6159 72.26 39.7459 71.86 40.1259C71.76 40.2159 71.48 40.2159 71.35 40.1459C70.85 39.8659 70.43 38.8559 70.58 38.4059C70.74 37.9059 71.85 37.1359 72.35 37.1959C72.51 37.2159 72.69 37.3059 72.8 37.4159C73.4 37.9659 73.78 38.6359 73.85 39.4559C73.89 39.9959 73.64 40.1759 73.03 39.9759ZM75.01 32.0559C74.42 32.4059 74.45 33.1559 73.99 33.5959C73.26 33.5459 72.81 33.0659 72.49 32.4559C72.42 32.3259 72.51 31.9559 72.62 31.9059C73.11 31.6859 73.37 31.2859 73.61 30.8459C73.82 30.4459 74.14 30.3859 74.43 30.7059C74.69 30.9859 74.88 31.3459 75.07 31.6859C75.12 31.7859 75.08 32.0159 75.01 32.0559ZM75.66 26.6959C75.59 26.8659 75.45 27.0159 75.36 27.1859C75.03 27.7959 74.7 27.8359 74.27 27.2759C73.42 26.1759 72.51 25.1159 71.97 23.8159C71.85 23.5159 71.86 23.1559 71.82 22.8259C71.74 22.1859 71.61 21.5559 71.6 20.9159C71.59 20.3759 71.93 20.1959 72.56 20.2459C72.96 20.6659 73.36 21.0859 73.76 21.4959C73.97 21.7159 74.2 21.9059 74.39 22.1359C74.66 22.4659 75.01 22.7859 75.14 23.1759C75.45 24.0559 75.67 24.9659 75.87 25.8759C75.93 26.1259 75.77 26.4359 75.66 26.6959ZM76.07 23.3559C75.64 22.9959 75.45 21.3259 75.84 20.9259C75.98 20.7759 76.3 20.7959 76.59 20.7359C77.2 21.2259 77.79 21.6759 78.36 22.1459C78.45 22.2159 78.49 22.3759 78.51 22.5059C78.6 23.0159 78.71 23.5259 78.72 24.0359C78.72 24.3259 78.61 24.6859 78.42 24.8959C78.34 24.9859 77.88 24.8159 77.67 24.6659C77.11 24.2459 76.59 23.7959 76.07 23.3559ZM79.02 31.6959C78.89 31.8559 78.78 32.0359 78.66 32.2059C78.45 32.5059 78.26 32.8759 77.81 32.6559C77.38 32.4359 77.28 32.0359 77.35 31.5259C77.59 31.2659 77.79 30.9259 78.08 30.7759C78.28 30.6659 78.67 30.7359 78.88 30.8659C79.17 31.0459 79.3 31.3659 79.02 31.6959ZM79.3 21.0359C79.33 20.9359 79.4 20.8159 79.49 20.7559C80 20.4259 80.47 20.6159 80.93 20.8959C81.3 21.1259 81.62 21.3959 81.47 21.9059C81.44 21.9959 81.42 22.0859 81.39 22.1859C81.17 22.9959 81.15 23.0059 80.33 22.8059C79.71 22.6559 79.13 21.6659 79.3 21.0359ZM82.42 29.2059C81.94 29.6059 81.35 29.9759 80.75 30.1359C80.38 30.2359 79.92 29.1259 80.07 28.6059C80.2 28.1459 80.93 27.7359 81.37 27.8759C81.85 28.0259 82.64 29.0159 82.42 29.2059ZM87.13 18.6559C87.54 18.8059 87.91 19.0459 88.18 19.1859C87.99 19.7159 87.84 20.1259 87.67 20.6059C87.21 20.2059 86.66 19.8559 86.56 19.1659C86.48 18.6559 86.67 18.4859 87.13 18.6559ZM83.64 27.9159C83.3 27.7859 82.75 26.5859 82.87 26.2159C82.95 25.9859 83.03 25.7259 83.18 25.5459C83.33 25.3759 83.57 25.2859 83.75 25.1759C84.41 25.5859 84.89 25.9859 85.03 26.6559C85.11 26.9759 83.93 28.0259 83.64 27.9159ZM84.14 15.5659C84.15 15.4059 84.13 15.2359 84.12 14.8859C84.91 15.2359 85.61 15.5159 86.27 15.8759C86.46 15.9859 86.56 16.3259 86.63 16.5859C86.71 16.8759 86.7 17.1859 86.76 17.4859C86.86 17.9459 86.67 18.1559 86.22 18.0459C86.03 18.0059 85.85 17.9259 85.67 17.8759C84.56 17.5359 84.04 16.7559 84.14 15.5659ZM85.39 21.4959C85.35 21.3659 85.29 21.2259 85.31 21.1059C85.48 20.3659 85.46 20.1559 86.61 20.5159C87.19 20.7859 87.95 21.2459 88.13 22.2059C88.19 22.5159 88.12 22.9459 87.93 23.1859C87.82 23.3259 87.32 23.2859 87.07 23.1759C86.32 22.8359 85.65 22.3559 85.39 21.4959ZM88.35 26.9659C88.24 27.3659 87.67 27.5959 86.94 27.3659C86.84 27.1659 86.51 26.7959 86.55 26.4859C86.59 26.1859 86.89 25.7359 87.42 25.8759C87.89 25.9959 88.43 26.6359 88.35 26.9659ZM89.27 22.0059C89.17 21.9659 89.12 21.7959 89.12 21.7859C89.27 21.2559 89.4 20.8159 89.56 20.2559C89.77 20.5359 90 20.8359 90.21 21.1359C90.27 21.2259 90.32 21.3459 90.34 21.4559C90.39 21.7759 90.43 22.0959 90.46 22.4059C90.07 22.2859 89.67 22.1659 89.27 22.0059ZM91.5 26.2359C91.34 26.7859 90.93 27.1359 90.55 27.0359C89.98 26.8859 89.64 26.3759 89.79 25.8859C89.97 25.3059 90.4 24.9659 90.78 25.0859C91.27 25.2459 91.62 25.8059 91.5 26.2359ZM94.03 25.5859C93.87 26.0359 93.58 26.1759 93.14 26.0059C92.66 25.8259 92.43 25.2859 92.64 24.7459C92.75 24.3959 92.88 23.9659 93.47 24.1859C93.97 24.3759 94.22 25.0359 94.03 25.5859ZM94.65 23.7359C94.33 23.4759 93.95 23.2059 93.78 22.8459C93.32 21.8659 92.94 20.8559 92.57 19.8359C92.5 19.6459 92.61 19.3859 92.64 19.1559C92.85 19.1959 93.1 19.1659 93.27 19.2759C93.79 19.6159 94.14 20.0659 94.18 20.7559C94.2 21.1659 94.48 21.5659 94.63 21.9759C94.81 22.4359 94.98 22.9059 95.14 23.3659C95.17 23.4359 95.16 23.5159 95.19 23.7159C94.99 23.7359 94.75 23.8259 94.65 23.7359Z" fill="#101820"/>
<path d="M48.16 10.2959L48.05 10.3259L48.06 10.3159L48.16 10.2959Z" fill="black"/>
<path d="M56.98 16.6559C56.98 16.6559 56.88 16.7159 56.8 16.7159C56.72 16.7159 56.53 16.6559 56.49 16.5359C56.44 16.4159 56.31 15.8159 56.19 15.6459C56.07 15.4859 55.92 15.0159 55.8 14.7059C55.68 14.4059 55.37 14.1959 55.27 13.8559C55.24 13.7659 55.19 13.6059 55.12 13.4259C54.91 12.8859 54.58 12.0959 54.56 12.0259C54.54 11.9259 54.55 11.9559 54.55 11.9559C54.55 11.9559 54.73 12.3759 54.85 12.5459C54.92 12.6459 55.1 12.9859 55.28 13.3459C55.4 13.5759 55.51 13.8159 55.6 14.0059C55.82 14.4659 56.23 14.8559 56.42 15.5559C56.6 16.2259 56.98 16.6559 56.98 16.6559Z" fill="#FCFCFC"/>
<path d="M54.98 22.3259C54.98 22.7659 54.49 24.0259 54.38 23.5259C54.27 23.0359 54.6 21.7759 54.6 21.7759C54.6 21.7759 54.98 21.8959 54.98 22.3259Z" fill="#FCFCFC"/>
<path d="M52.62 33.7359C52.54 34.1459 52.18 30.9959 52.26 30.3759C52.34 29.7459 52.04 28.1359 52.15 27.9159C52.26 27.6959 52.48 29.5259 52.53 30.1359C52.53 30.1359 52.64 31.4759 52.64 31.9659C52.65 32.4559 52.7 33.3259 52.62 33.7359Z" fill="#FCFCFC"/>
<path d="M60.28 13.9059C59.89 14.0359 59.43 14.1859 59.04 14.3059H59.03C58.62 14.4359 58.3 14.5359 58.25 14.5459C58.09 14.5859 58.25 14.2359 58.25 14.2359C58.25 14.2359 59.13 14.0059 59.94 13.8259C60.04 13.8059 60.14 13.7759 60.24 13.7559C60.53 13.6859 60.8 13.6359 60.98 13.6059C61.29 13.5559 60.87 13.7059 60.28 13.9059Z" fill="#FCFCFC"/>
<defs>
<linearGradient id="paint0_linear_653_190" x1="1" y1="93.5" x2="58.5" y2="93.5" gradientUnits="userSpaceOnUse">
<stop/>
<stop offset="1" stop-opacity="0"/>
</linearGradient>
</defs>
</svg>
