<svg width="40" height="40" viewBox="0 0 40 40" fill="none" xmlns="http://www.w3.org/2000/svg">
<circle cx="20" cy="20" r="20" fill="#00CA89"/>
<path fill-rule="evenodd" clip-rule="evenodd" d="M31.3969 17.1493H30.9587V18.332H31.123V17.8094H31.3969L31.6435 18.332H31.8352L31.5887 17.7819C31.753 17.7544 31.8626 17.6444 31.8626 17.4794C31.89 17.2594 31.7256 17.1493 31.3969 17.1493ZM31.3695 17.2868C31.5887 17.2868 31.6982 17.3419 31.6982 17.5069C31.6982 17.6719 31.5887 17.7269 31.3695 17.7269H31.1504V17.2868H31.3695Z" fill="white"/>
<path fill-rule="evenodd" clip-rule="evenodd" d="M31.3695 16.7368C31.0956 16.7368 30.8491 16.8468 30.6573 17.0393C30.4656 17.2594 30.356 17.5069 30.356 17.7819C30.356 18.057 30.4656 18.3045 30.6573 18.4971C30.8491 18.7171 31.0956 18.7996 31.3695 18.7996C31.6435 18.7996 31.89 18.6896 32.1091 18.4971C32.3008 18.3045 32.4104 18.057 32.4104 17.7819C32.4104 17.5069 32.3008 17.2594 32.1091 17.0668C31.9174 16.8468 31.6435 16.7368 31.3695 16.7368ZM32.2735 17.7544C32.2735 18.002 32.1639 18.222 31.9995 18.387C31.8352 18.5521 31.5887 18.6621 31.3421 18.6621C31.123 18.6621 30.8764 18.5521 30.7121 18.387C30.5478 18.222 30.4382 17.9745 30.4382 17.7544C30.4382 17.5069 30.5478 17.2868 30.7121 17.0943C30.8764 16.9293 31.0956 16.8468 31.3421 16.8468C31.5887 16.8468 31.8078 16.9293 31.9995 17.0943C32.1913 17.2868 32.2735 17.5344 32.2735 17.7544Z" fill="white"/>
<path d="M24.8776 28.6738L24.4941 29.4715C24.3572 29.3339 24.2202 29.2514 24.1106 29.1964C24.0011 29.1414 23.8915 29.1139 23.8093 29.1139C23.7601 29.1139 23.7144 29.1175 23.6735 29.1246C23.6314 29.1319 23.5944 29.143 23.564 29.1578C23.5417 29.1687 23.5228 29.1815 23.508 29.1964C23.4745 29.23 23.441 29.2739 23.42 29.3281C23.4067 29.3626 23.3984 29.4012 23.3984 29.444C23.3984 29.4846 23.4051 29.5252 23.4216 29.5593C23.4387 29.5944 23.4663 29.6226 23.508 29.6365C23.5628 29.6915 23.6997 29.7465 23.8641 29.774C24.3024 29.884 24.6037 30.0491 24.7954 30.2416C24.9598 30.4616 25.0693 30.7092 25.0693 31.0392C25.0693 31.4243 24.9324 31.7269 24.6859 31.9469C24.4393 32.167 24.0832 32.277 23.6449 32.277C23.3984 32.277 23.1793 32.222 22.9601 32.1394C22.741 32.0569 22.4945 31.8919 22.2206 31.6718L22.7136 30.8467C22.878 31.0117 23.0424 31.1493 23.2067 31.2318C23.371 31.3143 23.508 31.3418 23.6449 31.3418C23.7545 31.3418 23.8641 31.3143 23.9189 31.2593C23.9737 31.2043 24.0285 31.1218 24.0285 31.0117C24.0285 30.9017 24.0011 30.8192 23.9463 30.7642C23.8915 30.7092 23.6724 30.5992 23.3163 30.4892C23.0149 30.4066 22.7684 30.2691 22.6315 30.0766C22.4945 29.884 22.4123 29.664 22.4123 29.3614C22.4123 29.0314 22.5219 28.7563 22.7684 28.5363C22.9876 28.3163 23.3437 28.2062 23.7545 28.2062C23.9737 28.2062 24.1654 28.2338 24.3572 28.3163C24.4393 28.385 24.5283 28.44 24.6174 28.495C24.6656 28.5249 24.7139 28.5547 24.761 28.5867C24.8009 28.6137 24.8399 28.6423 24.8776 28.6738Z" fill="white"/>
<path d="M10.305 32.222V28.3988H12.5786V29.3064H11.3733V29.884H12.469V30.7642H11.3733V32.222H10.305Z" fill="white"/>
<path fill-rule="evenodd" clip-rule="evenodd" d="M13.9482 28.3988H15.5369C15.9204 28.3988 16.2491 28.5088 16.4956 28.7013C16.7421 28.8939 16.8517 29.1964 16.8517 29.554C16.8517 29.8565 16.7696 30.1041 16.6326 30.2966C16.4956 30.4892 16.3039 30.6267 16.0573 30.7092L17.1257 32.2495H15.8382L15.0438 30.9842V32.2495H13.9482V28.3988ZM15.0165 30.1041H15.2904C15.365 30.1041 15.4283 30.0984 15.4829 30.0845C15.5054 30.0788 15.5264 30.0717 15.5461 30.063C15.5839 30.0463 15.617 30.0237 15.6465 29.9941C15.7286 29.9116 15.7834 29.8015 15.7834 29.664C15.7834 29.6282 15.7797 29.5942 15.7727 29.5621C15.7707 29.5526 15.7684 29.5433 15.7658 29.5342C15.7567 29.5021 15.7442 29.4721 15.7291 29.444C15.7193 29.4261 15.7084 29.4089 15.6966 29.3926C15.6814 29.3717 15.6646 29.3521 15.6465 29.3339C15.5643 29.2514 15.4273 29.2239 15.2904 29.2239H15.0165V30.1041Z" fill="white"/>
<path d="M18.5501 28.3988V32.222H20.8236V31.3143H19.5909V30.6817H20.6866V29.829H19.5909V29.3064H20.8236V28.3988H18.5501Z" fill="white"/>
<path d="M26.6307 28.3988V32.222H27.699V30.6817H28.9864V32.222H30.0547V28.3988H28.9864V29.774H27.699V28.3988H26.6307Z" fill="white"/>
<path d="M10.3324 18.0295H13.4551V27.8212H12.1676L12.1403 19.3222H10.3324V18.0295Z" fill="white"/>
<path d="M11.5924 20.0648H9.01758V21.3575H10.305V27.8487H11.5924V20.0648Z" fill="white"/>
<path d="M19.1252 26.3634H30.0821V27.6836H19.1252C16.523 27.6836 14.3316 25.6758 14.3316 23.0353C14.3316 20.3949 16.3587 18.0295 19.1252 18.0295C21.8919 18.0295 23.9188 20.2573 23.9188 23.0353H22.6314C22.604 21.1375 21.3166 19.3222 19.1252 19.3222C16.9065 19.3497 15.6191 21.1925 15.6191 23.0353C15.6191 24.6856 17.0982 26.3634 19.1252 26.3634Z" fill="white"/>
<path d="M19.1252 24.3281C18.3856 24.3281 17.646 23.778 17.646 23.0353C17.646 22.1002 18.1939 21.3575 19.1252 21.3575C20.0566 21.3575 20.6044 22.1002 20.6044 23.0353H21.8918C21.8918 21.3575 20.6044 20.0648 19.0979 20.0648C17.5639 20.0648 16.3312 21.3575 16.3587 22.8703C16.3587 24.4106 17.5913 25.6208 19.1252 25.6208H30.1095V24.3281H19.1252Z" fill="white"/>
<path d="M27.1785 19.3222C27.8085 19.3222 28.3564 19.6523 28.6303 20.2023C29.4247 20.2023 30.0273 20.835 30.0273 21.6326C30.0273 22.4027 29.3973 23.0079 28.6303 23.0079H25.6993C25.0693 23.0079 24.5763 22.5128 24.5763 21.9077C24.5763 21.2751 25.0967 20.7525 25.6993 20.7525C26.302 20.7525 26.7951 21.2751 26.7951 21.9077H26.0555C26.0555 21.6601 25.8911 21.4951 25.672 21.4951C25.4255 21.4951 25.2884 21.7151 25.2884 21.9077C25.2884 22.1002 25.4528 22.2652 25.672 22.2652H28.6303C29.0138 22.2652 29.3151 21.9902 29.3151 21.6326C29.3151 21.2475 29.0138 20.945 28.6303 20.945H28.1372L28.0551 20.6975C27.9181 20.3124 27.5894 20.0648 27.2059 20.0648C26.8772 20.0648 26.5759 20.2023 26.3842 20.4499C26.165 20.3399 25.9185 20.2849 25.672 20.2849H25.6172C25.8911 19.7073 26.5211 19.3222 27.1785 19.3222Z" fill="white"/>
<path d="M11.4863 10.3532H10.0463V14.0046H9.01772V10.3532H7.58415V9.50461H11.4863V10.3532ZM14.5103 14.0818C14.0431 14.0818 13.621 13.981 13.2439 13.7796C12.871 13.5782 12.5774 13.3018 12.3631 12.9503C12.1531 12.5946 12.0481 12.196 12.0481 11.7546C12.0481 11.3132 12.1531 10.9168 12.3631 10.5653C12.5774 10.2096 12.871 9.93104 13.2439 9.72961C13.621 9.52818 14.0431 9.42747 14.5103 9.42747C14.9774 9.42747 15.3974 9.52818 15.7703 9.72961C16.1431 9.93104 16.4367 10.2096 16.651 10.5653C16.8653 10.9168 16.9724 11.3132 16.9724 11.7546C16.9724 12.196 16.8653 12.5946 16.651 12.9503C16.4367 13.3018 16.1431 13.5782 15.7703 13.7796C15.3974 13.981 14.9774 14.0818 14.5103 14.0818ZM14.5103 13.1946C14.776 13.1946 15.016 13.1346 15.2303 13.0146C15.4446 12.8903 15.6117 12.7189 15.7317 12.5003C15.856 12.2818 15.9181 12.0332 15.9181 11.7546C15.9181 11.476 15.856 11.2275 15.7317 11.0089C15.6117 10.7903 15.4446 10.621 15.2303 10.501C15.016 10.3768 14.776 10.3146 14.5103 10.3146C14.2446 10.3146 14.0046 10.3768 13.7903 10.501C13.576 10.621 13.4067 10.7903 13.2824 11.0089C13.1624 11.2275 13.1024 11.476 13.1024 11.7546C13.1024 12.0332 13.1624 12.2818 13.2824 12.5003C13.4067 12.7189 13.576 12.8903 13.7903 13.0146C14.0046 13.1346 14.2446 13.1946 14.5103 13.1946ZM22.1618 9.50461V14.0046H21.1268V10.3532H19.0954V14.0046H18.0604V9.50461H22.1618ZM23.3381 11.7932H25.1573V12.5968H23.3381V11.7932ZM27.6176 9.50461V14.0046H26.5761V10.3403H25.6761V9.50461H27.6176ZM30.6136 14.0818C30.2407 14.0818 29.9086 13.9896 29.6171 13.8053C29.3257 13.621 29.0964 13.3553 28.9293 13.0082C28.7664 12.6568 28.685 12.2389 28.685 11.7546C28.685 11.2703 28.7664 10.8546 28.9293 10.5075C29.0964 10.156 29.3257 9.88818 29.6171 9.70389C29.9086 9.51961 30.2407 9.42747 30.6136 9.42747C30.9864 9.42747 31.3186 9.51961 31.61 9.70389C31.9014 9.88818 32.1286 10.156 32.2914 10.5075C32.4586 10.8546 32.5421 11.2703 32.5421 11.7546C32.5421 12.2389 32.4586 12.6568 32.2914 13.0082C32.1286 13.3553 31.9014 13.621 31.61 13.8053C31.3186 13.9896 30.9864 14.0818 30.6136 14.0818ZM30.6136 13.201C30.8879 13.201 31.1021 13.0832 31.2564 12.8475C31.415 12.6118 31.4943 12.2475 31.4943 11.7546C31.4943 11.2618 31.415 10.8975 31.2564 10.6618C31.1021 10.426 30.8879 10.3082 30.6136 10.3082C30.3436 10.3082 30.1293 10.426 29.9707 10.6618C29.8164 10.8975 29.7393 11.2618 29.7393 11.7546C29.7393 12.2475 29.8164 12.6118 29.9707 12.8475C30.1293 13.0832 30.3436 13.201 30.6136 13.201Z" fill="white"/>
</svg>
