<?xml version="1.0" encoding="UTF-8"?>
<svg id="_Слой_1" data-name="Слой 1" xmlns="http://www.w3.org/2000/svg" viewBox="0 0 649.88 188.21">
  <defs>
    <style>
      .cls-1 {
        fill: #575757;
      }

      .cls-2 {
        fill: #595753;
      }

      .cls-3 {
        fill: #898989;
      }

      .cls-4 {
        fill: #f8aa48;
      }
    </style>
  </defs>
  <path class="cls-1" d="m230.49,67.83h-2.5l-2-5.31h-8.07l-1.9,5.31h-2.45l7.31-18.99h2.3l7.31,18.99Zm-5.21-7.31l-3.01-8.12c-.1-.25-.2-.7-.3-1.25h-.05c-.05.55-.2.95-.3,1.25l-2.96,8.12h6.61Zm20.94,6.51c-1.4.75-3.16,1.15-5.26,1.15-2.71,0-4.86-.9-6.51-2.6-1.6-1.75-2.4-4.06-2.4-6.86,0-3.06.9-5.51,2.71-7.41,1.85-1.85,4.16-2.81,6.96-2.81,1.8,0,3.31.25,4.51.8v2.35c-1.35-.75-2.86-1.15-4.51-1.15-2.2,0-3.96.75-5.31,2.2-1.35,1.45-2.05,3.41-2.05,5.86,0,2.3.65,4.16,1.9,5.51,1.3,1.4,2.96,2.1,5.01,2.1,1.9,0,3.56-.45,4.96-1.3v2.15Zm16.83,0c-1.45.75-3.16,1.15-5.26,1.15-2.71,0-4.91-.9-6.51-2.6-1.6-1.75-2.45-4.06-2.45-6.86,0-3.06.95-5.51,2.76-7.41,1.85-1.85,4.16-2.81,6.96-2.81,1.8,0,3.31.25,4.51.8v2.35c-1.4-.75-2.91-1.15-4.51-1.15-2.2,0-3.96.75-5.31,2.2-1.4,1.45-2.05,3.41-2.05,5.86,0,2.3.65,4.16,1.9,5.51,1.25,1.4,2.91,2.1,5.01,2.1,1.9,0,3.56-.45,4.96-1.3v2.15Zm11.52,1.15c-2.71,0-4.86-.9-6.46-2.71-1.65-1.75-2.45-4.06-2.45-6.91,0-3.06.8-5.51,2.45-7.31,1.65-1.85,3.91-2.76,6.76-2.76,2.65,0,4.76.9,6.36,2.65s2.4,4.11,2.4,6.96c0,3.11-.85,5.56-2.45,7.36-1.65,1.8-3.86,2.71-6.61,2.71h0Zm.15-17.68c-2,0-3.61.75-4.86,2.2-1.25,1.4-1.85,3.31-1.85,5.66s.6,4.21,1.8,5.66c1.2,1.4,2.81,2.15,4.76,2.15,2.05,0,3.71-.7,4.91-2.05,1.2-1.35,1.8-3.26,1.8-5.71s-.55-4.46-1.75-5.86c-1.15-1.35-2.76-2.05-4.81-2.05h0Zm29.51,22.44h-2.05v-5.11h-14.83v-18.99h2.25v16.98h9.82v-16.98h2.25v16.98h2.55v7.11Zm18.63-5.11h-2.25v-13.73c0-1.25.05-2.1.15-2.6h-.1c-.15.45-.35.8-.6,1.2l-9.77,15.13h-2.76v-18.99h2.2v13.38c0,1.45,0,2.35-.1,2.81h.05c.2-.4.45-.8.75-1.3l9.57-14.88h2.86v18.99Zm19.74,0h-2.5l-2-5.31h-8.07l-1.9,5.31h-2.45l7.26-18.99h2.35l7.31,18.99Zm-5.21-7.31l-3.01-8.12c-.1-.25-.2-.7-.3-1.25h-.05c-.1.55-.2.95-.3,1.25l-2.96,8.12h6.61Zm24.85,12.42h-2.05v-5.11h-14.83v-18.99h2.25v16.98h9.82v-16.98h2.25v16.98h2.55v7.11Zm18.63-5.11h-2.25v-13.73c0-1.25.05-2.1.15-2.6h-.1c-.15.45-.35.8-.6,1.2l-9.77,15.13h-2.76v-18.99h2.2v13.38c0,1.45-.05,2.35-.1,2.81h.05c.2-.4.45-.8.75-1.3l9.57-14.88h2.86v18.99Zm16.03,0h-2.2v-8.07h-2.81c-.5,0-.95.15-1.35.4-.4.3-.85.95-1.3,1.95l-2.4,5.71h-2.65l2.91-6.36c.2-.4.45-.85.85-1.3s.85-.8,1.35-1v-.05c-1.25-.25-2.25-.85-2.96-1.7-.7-.9-1.05-1.95-1.05-3.21,0-1.65.55-2.96,1.7-3.91,1.1-1,2.6-1.45,4.41-1.45h5.51v18.99Zm-2.2-10.07v-6.91h-3.11c-1.25,0-2.2.3-2.91.9-.7.55-1.05,1.4-1.05,2.5s.35,1.9,1.05,2.55c.7.6,1.65.95,2.86.95h3.16Zm29.1,10.07h-2.25v-16.93h-9.97v16.93h-2.2v-18.99h14.43v18.99Zm7.11-7.16v7.16h-2.2v-18.99h5.21c2.05,0,3.61.5,4.76,1.45,1.1,1,1.65,2.4,1.65,4.21s-.6,3.26-1.85,4.41c-1.25,1.15-2.91,1.75-5.01,1.75h-2.55Zm0-9.82v7.76h2.35c1.55,0,2.71-.35,3.51-1.05.8-.7,1.2-1.65,1.2-2.96,0-2.5-1.45-3.76-4.41-3.76h-2.65Zm20.69,17.33c-2.71,0-4.86-.9-6.51-2.71-1.6-1.75-2.4-4.06-2.4-6.91,0-3.06.8-5.51,2.45-7.31,1.65-1.85,3.91-2.76,6.76-2.76,2.6,0,4.76.9,6.36,2.65,1.6,1.75,2.4,4.11,2.4,6.96,0,3.11-.85,5.56-2.5,7.36-1.6,1.8-3.81,2.71-6.56,2.71h0Zm.15-17.68c-2,0-3.66.75-4.86,2.2-1.25,1.4-1.9,3.31-1.9,5.66s.6,4.21,1.85,5.66c1.2,1.4,2.81,2.15,4.76,2.15,2.05,0,3.71-.7,4.91-2.05,1.2-1.35,1.8-3.26,1.8-5.71s-.6-4.46-1.75-5.86c-1.15-1.35-2.76-2.05-4.81-2.05h0Zm27.95,17.33h-2.2v-13.73c0-1.25.05-2.1.1-2.6h-.05c-.2.45-.4.8-.6,1.2l-9.82,15.13h-2.76v-18.99h2.25v13.38c0,1.45-.05,2.35-.1,2.81h.05c.15-.4.4-.8.7-1.3l9.57-14.88h2.86v18.99Zm3.81-.8v-2.4c1.45,1.1,3.16,1.65,5.06,1.65,1.35,0,2.45-.35,3.26-1,.8-.65,1.2-1.55,1.2-2.71,0-2.4-1.65-3.66-4.96-3.66h-1.95v-1.8h1.8c1.4,0,2.5-.35,3.31-.95.75-.6,1.15-1.45,1.15-2.55,0-.95-.35-1.75-1-2.3-.6-.6-1.5-.85-2.6-.85-1.6,0-3.16.5-4.66,1.5v-2.25c1.4-.8,3.01-1.2,4.81-1.2s3.26.45,4.26,1.3c1.05.85,1.55,2,1.55,3.36,0,2.5-1.2,4.06-3.61,4.71v.05c1.3.15,2.35.65,3.11,1.45.8.85,1.2,1.85,1.2,3.11,0,1.75-.65,3.11-1.9,4.16-1.2,1-2.91,1.55-5.06,1.55s-3.81-.4-4.96-1.15h0Zm15.88.8v-18.99h5.41c1.65,0,2.96.4,3.91,1.2s1.45,1.85,1.45,3.11c0,1.1-.3,2.05-.9,2.86-.55.75-1.35,1.35-2.4,1.65v.1c1.3.15,2.3.6,3.11,1.4.75.85,1.15,1.9,1.15,3.21,0,1.65-.6,2.96-1.75,3.96-1.2,1-2.65,1.5-4.41,1.5h-5.56Zm2.2-16.98v6.11h2.3c1.2,0,2.15-.3,2.86-.85.7-.6,1.05-1.45,1.05-2.5,0-1.85-1.2-2.76-3.66-2.76h-2.55Zm0,8.12v6.86h3.06c1.3,0,2.3-.3,3.01-.9.75-.65,1.1-1.5,1.1-2.55,0-2.25-1.5-3.41-4.61-3.41h-2.55Zm21.04,9.22c-2.71,0-4.86-.9-6.51-2.71-1.6-1.75-2.4-4.06-2.4-6.91,0-3.06.8-5.51,2.45-7.31,1.65-1.85,3.91-2.76,6.76-2.76,2.6,0,4.76.9,6.36,2.65,1.6,1.75,2.4,4.11,2.4,6.96,0,3.11-.85,5.56-2.5,7.36-1.6,1.8-3.81,2.71-6.56,2.71h0Zm.15-17.68c-2,0-3.61.75-4.86,2.2-1.25,1.4-1.9,3.31-1.9,5.66s.6,4.21,1.85,5.66c1.2,1.4,2.81,2.15,4.76,2.15,2.05,0,3.71-.7,4.91-2.05,1.2-1.35,1.8-3.26,1.8-5.71s-.6-4.46-1.75-5.86c-1.15-1.35-2.76-2.05-4.81-2.05h0Zm28.05,22.44h-2.05v-5.11h-13.63v5.11h-2.05v-7.11h1.5c1.25-2.3,2.35-5.06,3.26-8.17.85-3.11,1.35-6.06,1.5-8.82h8.92v16.98h2.55v7.11Zm-4.76-7.11v-14.98h-4.86c-.1,2.15-.6,4.71-1.45,7.66-.8,2.91-1.75,5.36-2.76,7.31h9.07Zm23.49,2h-2.2v-13.73c0-1.25,0-2.1.1-2.6h-.05c-.2.45-.4.8-.65,1.2l-9.77,15.13h-2.76v-18.99h2.25v13.38c0,1.45-.05,2.35-.15,2.81h.05c.2-.4.45-.8.75-1.3l9.57-14.88h2.86v18.99Zm16.28-16.98h-5.51v16.98h-2.2v-16.98h-5.51v-2h13.22v2Zm13.02,16.98h-10.07v-18.99h9.67v2h-7.41v6.31h6.86v2h-6.86v6.66h7.81v2Zm16.93,0h-2.2v-16.98h-5.31c-.6,4.76-1.1,8.17-1.45,10.12-.35,2-.7,3.46-1.05,4.41-.35.95-.85,1.6-1.45,2.1-.65.45-1.4.65-2.25.65-.7,0-1.3-.1-1.8-.25v-2.1c.45.25.95.4,1.5.4s1.05-.35,1.55-1c.45-.65.95-2.35,1.45-5.11.5-2.76,1.05-6.51,1.65-11.22h9.37v18.99Zm15.08,0h-10.07v-18.99h9.67v2h-7.41v6.31h6.86v2h-6.86v6.66h7.81v2Zm18.99,0h-2.2v-13.73c0-1.25.05-2.1.1-2.6h-.05c-.15.45-.4.8-.6,1.2l-9.82,15.13h-2.76v-18.99h2.25v13.38c0,1.45-.05,2.35-.1,2.81h.05c.2-.4.45-.8.75-1.3l9.52-14.88h2.86v18.99Zm-2.81-24.8c-.1,1.25-.65,2.2-1.5,2.96-.85.7-1.95,1.05-3.26,1.05s-2.45-.35-3.31-1.05c-.8-.75-1.3-1.7-1.35-2.96h2.15c.1,1.65.95,2.5,2.5,2.5.75,0,1.3-.25,1.75-.7.5-.4.75-1.05.85-1.8h2.15Zm-411.92,60.91h-2.2v-12.72c0-1,.05-2.25.15-3.71h-.05c-.2.85-.4,1.45-.55,1.85l-6.51,14.58h-1.05l-6.51-14.48c-.2-.45-.35-1.1-.55-1.95h-.05c.05.75.1,2,.1,3.71v12.72h-2.15v-18.99h2.96l5.81,13.22c.45,1.05.75,1.8.9,2.3h.05c.4-1.05.7-1.8.9-2.35l5.96-13.17h2.81v18.99Zm15.08,0h-10.07v-18.99h9.62v2h-7.41v6.31h6.86v2h-6.86v6.66h7.86v2Zm16.93,0h-2.25v-16.98h-5.26c-.6,4.76-1.1,8.17-1.45,10.17-.35,1.95-.7,3.41-1.05,4.36-.4.95-.9,1.65-1.5,2.1-.6.45-1.35.65-2.2.65-.7,0-1.3-.1-1.85-.25v-2.1c.45.25.95.4,1.5.4s1.1-.35,1.55-1c.5-.65,1-2.35,1.45-5.11.5-2.76,1.1-6.51,1.7-11.22h9.37v18.99Zm18.23,0h-3.11l-7.36-8.67c-.25-.35-.45-.55-.5-.7h-.05v9.37h-2.2v-18.99h2.2v8.92h.05c.15-.2.3-.4.5-.65l7.11-8.27h2.76l-8.12,9.12,8.72,9.87Zm10.17.35c-2.71,0-4.86-.9-6.46-2.65-1.65-1.8-2.45-4.11-2.45-6.96,0-3.06.85-5.51,2.5-7.31,1.65-1.85,3.91-2.76,6.71-2.76,2.65,0,4.76.9,6.36,2.65,1.6,1.8,2.4,4.11,2.4,6.96,0,3.11-.8,5.56-2.45,7.36-1.65,1.8-3.86,2.71-6.61,2.71h0Zm.15-17.68c-2,0-3.61.75-4.86,2.2-1.25,1.4-1.85,3.31-1.85,5.66s.6,4.21,1.8,5.66c1.2,1.4,2.81,2.15,4.76,2.15,2.1,0,3.71-.7,4.91-2.05,1.25-1.35,1.8-3.26,1.8-5.71s-.55-4.46-1.7-5.86c-1.2-1.35-2.81-2.05-4.86-2.05h0Zm33.41,17.33h-20.74v-18.99h2.2v16.98h7.06v-16.98h2.2v16.98h7.01v-16.98h2.25v18.99Zm16.28-16.98h-5.51v16.98h-2.2v-16.98h-5.51v-2h13.22v2Zm16.03-2l-5.86,13.27c-1.05,2.3-2.05,3.91-3.01,4.76-1,.85-2.05,1.3-3.21,1.3-.95,0-1.75-.15-2.35-.4v-2.25c.75.45,1.5.65,2.2.65s1.35-.25,1.95-.8c.6-.55,1.25-1.55,1.95-2.96l-6.46-13.58h2.55l4.56,10.12c.1.2.25.6.5,1.25h0c.05-.1.2-.5.55-1.3l4.26-10.07h2.35Zm15.13,18.99h-2.2v-8.52c-2.05,1.05-3.91,1.55-5.66,1.55-1.65,0-2.96-.4-3.86-1.25-.9-.9-1.35-2.1-1.35-3.66v-7.11h2.2v7.01c0,2.05,1.1,3.06,3.31,3.06,1.55,0,3.36-.45,5.36-1.45v-8.62h2.2v18.99Zm19.49,0h-2.25v-8.67h-9.82v8.67h-2.25v-18.99h2.25v8.32h9.82v-8.32h2.25v18.99Zm21.24,0h-2.25v-18.99h2.25v18.99Zm-16.28,0v-18.99h2.25v8.07h3.61c1.85,0,3.36.45,4.41,1.35,1.05.9,1.55,2.2,1.55,3.91s-.55,3.16-1.65,4.16-2.6,1.5-4.51,1.5h-5.66Zm2.25-8.92v6.91h3.11c1.3,0,2.35-.3,3.06-.9.7-.65,1.05-1.5,1.05-2.6,0-2.3-1.35-3.41-4.11-3.41h-3.11Zm32.16,8.92h-2.76l-4.36-7.26c-.15-.2-.3-.55-.45-.95h-.05c-.05.2-.2.5-.45.95l-4.51,7.26h-2.71l6.36-9.57-5.86-9.42h2.71l3.91,6.66c.25.45.5.9.65,1.35h.05c.3-.6.55-1.05.75-1.4l4.06-6.61h2.55l-5.96,9.42,6.06,9.57Zm10.32,0v-18.99h10.17v2h-7.96v6.06h3.61c1.9,0,3.36.45,4.41,1.35,1.1.9,1.6,2.2,1.6,3.91s-.55,3.16-1.65,4.16-2.6,1.5-4.51,1.5h-5.66Zm2.2-8.92v6.91h3.16c1.3,0,2.3-.3,3.06-.9.7-.65,1.05-1.5,1.05-2.6,0-2.3-1.35-3.41-4.11-3.41h-3.16Zm23.39,8.92h-10.07v-18.99h9.67v2h-7.46v6.31h6.86v2h-6.86v6.66h7.86v2Zm14.93-16.98h-5.51v16.98h-2.25v-16.98h-5.46v-2h13.22v2Zm10.62,17.33c-2.71,0-4.86-.9-6.46-2.65-1.65-1.8-2.45-4.11-2.45-6.96,0-3.06.85-5.51,2.5-7.31,1.65-1.85,3.91-2.76,6.76-2.76,2.6,0,4.71.9,6.31,2.65,1.6,1.8,2.4,4.11,2.4,6.96,0,3.11-.8,5.56-2.45,7.36s-3.86,2.71-6.61,2.71h0Zm.15-17.68c-2,0-3.61.75-4.86,2.2-1.25,1.4-1.85,3.31-1.85,5.66s.6,4.21,1.8,5.66c1.2,1.4,2.81,2.15,4.76,2.15,2.1,0,3.76-.7,4.96-2.05,1.2-1.35,1.8-3.26,1.8-5.71s-.6-4.46-1.75-5.86c-1.2-1.35-2.81-2.05-4.86-2.05h0Zm26.95,17.33h-2.2v-8.67h-9.87v8.67h-2.2v-18.99h2.2v8.32h9.87v-8.32h2.2v18.99Zm19.29,0h-2.2v-8.67h-9.87v8.67h-2.2v-18.99h2.2v8.32h9.87v-8.32h2.2v18.99Zm21.24,0h-2.2v-18.99h2.2v18.99Zm-16.23,0v-18.99h2.2v8.07h3.61c1.9,0,3.36.45,4.41,1.35,1.05.9,1.6,2.2,1.6,3.91s-.55,3.16-1.65,4.16-2.66,1.5-4.56,1.5h-5.61Zm2.2-8.92v6.91h3.11c1.35,0,2.35-.3,3.06-.9.75-.65,1.1-1.5,1.1-2.6,0-2.3-1.4-3.41-4.16-3.41h-3.11Zm32.16,8.92h-2.71l-4.36-7.26c-.15-.2-.3-.55-.45-.95h-.05c-.1.2-.25.5-.45.95l-4.51,7.26h-2.76l6.36-9.57-5.86-9.42h2.76l3.86,6.66c.25.45.5.9.7,1.35h.05c.3-.6.5-1.05.75-1.4l4.01-6.61h2.6l-6.01,9.42,6.06,9.57Zm-351.56,36.12h-2.25v-13.73c0-1.25.05-2.1.15-2.6h-.1c-.15.45-.35.85-.6,1.2l-9.77,15.13h-2.76v-18.99h2.2v13.38c0,1.45,0,2.35-.1,2.81h.05c.2-.4.45-.8.75-1.25l9.57-14.93h2.86v18.99Zm3.81-.75v-2.45c1.45,1.1,3.16,1.65,5.01,1.65,1.4,0,2.5-.35,3.31-1,.8-.65,1.2-1.55,1.2-2.71,0-2.4-1.65-3.66-4.96-3.66h-1.95v-1.8h1.8c1.4,0,2.5-.3,3.26-.95.8-.6,1.15-1.45,1.15-2.55,0-.95-.3-1.75-.95-2.3-.65-.55-1.5-.85-2.65-.85-1.55,0-3.11.5-4.61,1.5v-2.25c1.4-.8,3.01-1.2,4.81-1.2s3.21.45,4.26,1.3,1.55,2,1.55,3.41c0,2.45-1.2,4.01-3.61,4.66v.05c1.3.15,2.35.65,3.11,1.45.8.85,1.15,1.85,1.15,3.11,0,1.75-.6,3.11-1.85,4.16-1.2,1-2.91,1.55-5.06,1.55s-3.81-.4-4.96-1.1h0Zm31.31,5.86h-2.05v-5.11h-13.63v5.11h-2.05v-7.11h1.45c1.3-2.3,2.35-5.01,3.26-8.12.9-3.16,1.4-6.06,1.5-8.87h8.97v16.98h2.55v7.11Zm-4.81-7.11v-14.98h-4.81c-.15,2.2-.65,4.76-1.45,7.66-.85,2.91-1.75,5.36-2.81,7.31h9.07Zm18.28,2h-10.07v-18.99h9.62v2h-7.41v6.31h6.86v2h-6.86v6.66h7.86v2Zm16.88,0h-2.2v-16.98h-5.26c-.65,4.81-1.1,8.17-1.45,10.17-.35,1.95-.7,3.41-1.1,4.36-.35.95-.85,1.65-1.45,2.1-.6.45-1.35.65-2.25.65-.7,0-1.3-.1-1.8-.25v-2.1c.45.25.95.4,1.5.4s1.05-.35,1.55-1c.5-.65.95-2.35,1.45-5.11.5-2.76,1.05-6.46,1.65-11.22h9.37v18.99Zm20.34,0h-2.2v-13.73c0-1.25.05-2.1.15-2.6h-.1c-.15.45-.35.85-.6,1.2l-9.82,15.13h-2.76v-18.99h2.25v13.38c0,1.45-.05,2.35-.1,2.81h.05c.2-.4.45-.8.75-1.25l9.52-14.93h2.86v18.99Zm20.34,0h-2.2v-13.73c0-1.25.05-2.1.15-2.6h-.1c-.15.45-.35.85-.6,1.2l-9.82,15.13h-2.76v-18.99h2.25v13.38c0,1.45-.05,2.35-.1,2.81h.05c.2-.4.45-.8.75-1.25l9.52-14.93h2.86v18.99Zm-2.81-24.8c-.1,1.25-.6,2.25-1.5,2.96-.85.7-1.95,1.1-3.26,1.1s-2.45-.4-3.31-1.1c-.8-.7-1.3-1.7-1.35-2.96h2.15c.1,1.65.95,2.5,2.5,2.5.75,0,1.3-.25,1.75-.65.5-.45.75-1.05.85-1.85h2.15Z"/>
  <g>
    <rect class="cls-3" x="18.52" y="60.75" width="61.59" height="77.9" transform="translate(-56.05 64.07) rotate(-45)"/>
    <rect class="cls-4" x="108.11" y="49.57" width="61.59" height="77.9" transform="translate(-21.91 124.14) rotate(-45)"/>
    <rect class="cls-2" x="57.46" y="15.11" width="61.59" height="45.51" transform="translate(-.93 73.49) rotate(-45)"/>
    <rect class="cls-2" x="69.17" y="127.59" width="61.59" height="45.51" transform="translate(-77.03 114.72) rotate(-45)"/>
  </g>
</svg>