<svg width="43" height="99" viewBox="0 0 43 99" fill="none" xmlns="http://www.w3.org/2000/svg">
<path d="M25.6627 1.7508C26.0773 1.38599 26.1177 0.754113 25.7529 0.339471C25.3881 -0.0751711 24.7562 -0.115564 24.3416 0.249251L25.0021 1.00003L25.6627 1.7508ZM41.8098 94.9619C42.3273 94.7689 42.5903 94.1929 42.3974 93.6755L39.2525 85.2428C39.0595 84.7253 38.4836 84.4623 37.9661 84.6553C37.4487 84.8482 37.1856 85.4242 37.3786 85.9417L40.174 93.4374L32.6783 96.2328C32.1608 96.4258 31.8978 97.0017 32.0908 97.5192C32.2837 98.0366 32.8597 98.2997 33.3772 98.1067L41.8098 94.9619ZM25.0021 1.00003L24.3416 0.249251C23.8496 0.682104 23.355 1.12853 22.859 1.58802L23.5386 2.32162L24.2182 3.05522C24.7018 2.60724 25.1837 2.17227 25.6627 1.7508L25.0021 1.00003ZM20.6918 5.09239L19.9772 4.39287C19.0605 5.32933 18.146 6.30724 17.2408 7.32352L17.9875 7.98862L18.7343 8.65373C19.6183 7.66117 20.5114 6.70621 21.4064 5.79192L20.6918 5.09239ZM15.4173 11.015L14.64 10.3859C13.8061 11.4163 12.9866 12.4786 12.1876 13.5704L12.9946 14.161L13.8016 14.7515C14.5809 13.6867 15.3805 12.65 16.1946 11.6441L15.4173 11.015ZM10.7346 17.4183L9.89857 16.8695C9.16658 17.9847 8.45944 19.1255 7.78281 20.2895L8.64736 20.7921L9.51191 21.2946C10.1696 20.1631 10.8576 19.0531 11.5705 17.9671L10.7346 17.4183ZM6.75346 24.2786L5.86094 23.8276C5.25575 25.0253 4.68594 26.2438 4.15713 27.4808L5.07663 27.8739L5.99613 28.267C6.50746 27.0709 7.05913 25.891 7.64599 24.7296L6.75346 24.2786ZM3.64395 31.5728L2.69921 31.245C2.25736 32.5184 1.86212 33.8082 1.51921 35.1121L2.48633 35.3665L3.45345 35.6208C3.78274 34.3686 4.16286 33.1278 4.58869 31.9006L3.64395 31.5728ZM1.63747 39.2403L0.652408 39.0681C0.41987 40.3984 0.245416 41.7406 0.134807 43.0921L1.13148 43.1736L2.12814 43.2552C2.23359 41.9669 2.40007 40.6852 2.62254 39.4124L1.63747 39.2403ZM0.999841 47.1365L-2.78481e-05 47.1527C0.0218244 48.499 0.111115 49.8517 0.273268 51.2083L1.2662 51.0896L2.25913 50.9709C2.10532 49.6841 2.02048 48.3998 1.99971 47.1202L0.999841 47.1365ZM1.94237 54.9938L0.967399 55.2161C1.26489 56.5208 1.63399 57.8262 2.07925 59.1302L3.02561 58.8071L3.97196 58.484C3.54941 57.2465 3.19939 56.0084 2.91735 54.7715L1.94237 54.9938ZM4.49759 62.4903L3.58886 62.9077C4.14285 64.1137 4.76599 65.3163 5.46177 66.5137L6.32639 66.0113L7.19102 65.5088C6.52692 64.366 5.93328 63.2201 5.40631 62.0729L4.49759 62.4903ZM8.47102 69.3479L7.65415 69.9247C8.41282 70.9991 9.23364 72.0677 10.1191 73.1295L10.8871 72.489L11.6551 71.8485C10.803 70.8268 10.0149 69.8006 9.28789 68.771L8.47102 69.3479ZM13.5324 75.4338L12.8126 76.128C13.7196 77.0685 14.6805 78.0024 15.6973 78.9291L16.3709 78.19L17.0445 77.4509C16.0585 76.5523 15.1284 75.6482 14.2522 74.7397L13.5324 75.4338ZM19.3745 80.7703L18.7446 81.547C19.7605 82.3711 20.8234 83.1886 21.9347 83.999L22.5239 83.191L23.1131 82.383C22.0286 81.5922 20.993 80.7956 20.0045 79.9937L19.3745 80.7703ZM25.8072 85.4689L25.2559 86.3032C26.3362 87.017 27.4565 87.7247 28.6178 88.4258L29.1346 87.5697L29.6514 86.7136C28.5127 86.0261 27.4154 85.333 26.3584 84.6346L25.8072 85.4689ZM32.5577 89.5497L32.0728 90.4243C33.2237 91.0625 34.4107 91.6948 35.6346 92.3207L36.09 91.4303L36.5453 90.54C35.3407 89.924 34.1735 89.3023 33.0427 88.6752L32.5577 89.5497ZM39.62 93.1684L39.1915 94.072C39.801 94.361 40.4187 94.6485 41.0449 94.9345L41.4604 94.0249L41.8758 93.1153C41.2582 92.8332 40.6491 92.5497 40.0485 92.2649L39.62 93.1684Z" fill="#1324E3"/>
</svg>
