<svg width="76" height="76" viewBox="0 0 76 76" fill="none" xmlns="http://www.w3.org/2000/svg">
<path d="M31.5676 4.25H6.125V62.375H12.6875M31.5676 4.25V20.0574H42.6875M31.5676 4.25L44.4063 17.0887M47.375 51.125V32.375M39.6254 62.375H25.8125" stroke="white" stroke-width="1.875"/>
<path d="M38 54.4416L41.113 52.3508L48.1245 51.8174L53.5723 48.1584L55.1216 42.942L58.2347 40.8512L70.7154 49.1717M38 54.4416L50.4808 62.7621M38 54.4416L38 61.2181L50.8328 69.8673M50.4808 62.7621L53.5938 60.6713L54.3649 55.9776L59.8127 52.3187L67.6024 51.2625L70.7154 49.1717M50.4808 62.7621L50.8328 69.8673M70.7154 49.1717V56.7887L67.9544 58.3677L60.1647 59.4238L54.7169 63.0828L53.9458 67.7765L50.8328 69.8673" stroke="white" stroke-width="1.875"/>
<circle cx="19.25" cy="56.75" r="4.6875" stroke="white" stroke-width="1.875"/>
<path d="M14.5798 50.056C15.8155 50.176 17.03 49.6729 17.819 48.7142C18.5603 47.8134 19.9397 47.8134 20.681 48.7142C21.47 49.6729 22.6845 50.176 23.9202 50.056C25.0815 49.9432 26.0568 50.9185 25.944 52.0798C25.824 53.3155 26.3271 54.53 27.2858 55.319C28.1866 56.0603 28.1866 57.4397 27.2858 58.181C26.3271 58.97 25.824 60.1845 25.944 61.4202C26.0568 62.5815 25.0815 63.5568 23.9202 63.444C22.6845 63.324 21.47 63.8271 20.681 64.7858C19.9397 65.6866 18.5603 65.6866 17.819 64.7858C17.03 63.8271 15.8155 63.324 14.5798 63.444C13.4185 63.5568 12.4432 62.5815 12.556 61.4202C12.676 60.1845 12.1729 58.97 11.2142 58.181C10.3134 57.4397 10.3134 56.0603 11.2142 55.319C12.1729 54.53 12.676 53.3155 12.556 52.0798C12.4432 50.9185 13.4185 49.9432 14.5798 50.056Z" stroke="white" stroke-width="1.875"/>
<path d="M12.47 63.003L6.66061 69.852C6.36335 70.2025 6.69551 70.7269 7.1394 70.608L10.3598 69.7451C10.6098 69.6781 10.8669 69.8265 10.9339 70.0766L11.8066 73.3335C11.9246 73.774 12.5383 73.8037 12.6983 73.3766L16.1863 64.0661" stroke="white" stroke-width="1.875"/>
<path d="M24.5902 63.003L30.3996 69.852C30.6968 70.2025 30.3647 70.7269 29.9208 70.608L26.7004 69.7451C26.4504 69.6781 26.1933 69.8265 26.1263 70.0766L25.2536 73.3335C25.1356 73.774 24.5219 73.8037 24.3619 73.3766L20.8738 64.0661" stroke="white" stroke-width="1.875"/>
<circle cx="54.875" cy="23" r="12.1875" stroke="white" stroke-width="1.875"/>
<path d="M49.25 23L53.5424 27.2924C53.7485 27.4985 54.0908 27.4686 54.2579 27.2298L60.5 18.3125" stroke="white" stroke-width="1.875"/>
<path d="M10.8125 9.875H26.75" stroke="white" stroke-width="1.875"/>
<path d="M10.8125 13.625H26.75" stroke="white" stroke-width="1.875"/>
<path d="M10.8125 17.375H26.75" stroke="white" stroke-width="1.875"/>
<path d="M10.8125 21.125H26.75" stroke="white" stroke-width="1.875"/>
<path d="M10.8125 24.875L38.9375 24.875" stroke="white" stroke-width="1.875"/>
<path d="M10.8125 28.625L39.875 28.625" stroke="white" stroke-width="1.875"/>
<path d="M10.8125 32.375H41.75" stroke="white" stroke-width="1.875"/>
<path d="M10.8125 36.125H41.75" stroke="white" stroke-width="1.875"/>
<path d="M10.8125 39.875H41.75" stroke="white" stroke-width="1.875"/>
<path d="M10.8125 43.625H41.75" stroke="white" stroke-width="1.875"/>
<path d="M10.8125 47.375H41.75" stroke="white" stroke-width="1.875"/>
<path d="M10.8125 51.125H12.6875M41.75 51.125H25.8125" stroke="white" stroke-width="1.875"/>
<path d="M38 54.875H26.75" stroke="white" stroke-width="1.875"/>
</svg>
