<svg width="41" height="40" viewBox="0 0 41 40" fill="none" xmlns="http://www.w3.org/2000/svg">
<g clip-path="url(#clip0_113_1158)">
<path d="M22.5134 8.3282L19.1852 6.1094L17.5249 7.22451L13.7855 7.509L12.1252 8.62412M22.5134 8.3282L20.8531 9.44331L20.4419 11.9466M22.5134 8.3282L29.1698 12.7658M20.4419 11.9466L18.7816 13.0617M20.4419 11.9466L17.1213 14.1768M17.1213 14.1768L12.9668 14.7401M17.1213 14.1768L18.7816 13.0617M12.9668 14.7401L11.7216 15.5764M12.9668 14.7401L10.0613 16.6915M10.0613 16.6915L9.65008 19.1948L7.98981 20.3099M10.0613 16.6915L11.7216 15.5764M7.98981 20.3099L1.3334 15.8723L2.99368 14.7572L6.73313 14.4727L9.63862 12.5213L10.4649 9.73923L12.1252 8.62412M7.98981 20.3099L11.318 22.5287M12.1252 8.62412L18.7816 13.0617M11.318 22.5287L12.9783 21.4136L16.7177 21.1291M11.318 22.5287L17.9744 26.9664M16.7177 21.1291L18.378 20.014M16.7177 21.1291L19.6232 19.1777M19.6232 19.1777L20.4495 16.3956M19.6232 19.1777L18.378 20.014M20.4495 16.3956L23.7701 14.1654M20.4495 16.3956L22.1098 15.2805M23.7701 14.1654L27.5095 13.8809L29.1698 12.7658M23.7701 14.1654L22.1098 15.2805M29.1698 12.7658L32.498 14.9846M11.7216 15.5764L18.378 20.014M32.498 14.9846L30.8377 16.0997L30.4265 18.603M32.498 14.9846L39.1544 19.4222L37.4941 20.5373L33.7547 20.8218L30.4341 23.052L29.6078 25.8341L28.3626 26.6704M30.4265 18.603L28.7662 19.7181M30.4265 18.603L27.1059 20.8332M27.1059 20.8332L22.9514 21.3965M27.1059 20.8332L28.7662 19.7181M22.9514 21.3965L21.7062 22.2328M22.9514 21.3965L20.0459 23.3479M20.0459 23.3479L19.6347 25.8512L17.9744 26.9664M20.0459 23.3479L21.7062 22.2328M17.9744 26.9664L21.3026 29.1852L22.9629 28.07L26.7023 27.7855L28.3626 26.6704M22.1098 15.2805L28.7662 19.7181M21.7062 22.2328L28.3626 26.6704" stroke="white"/>
<path d="M1.00873 15.8763V20.9992L21.4005 34.2097L24.5337 32H26.8334L31.9839 28.8546L34.8281 25.9517L37.5843 25.3912L39.4991 23.7819V19.427" stroke="white"/>
<path d="M11.5834 22.5V27.98" stroke="white"/>
<path d="M21.3334 29L21.3334 33.9885" stroke="white"/>
<path d="M29.6594 25.6786V30.1786" stroke="white"/>
</g>
<defs>
<clipPath id="clip0_113_1158">
<rect width="40" height="40" fill="white" transform="translate(0.333374)"/>
</clipPath>
</defs>
</svg>
