<svg width="40" height="40" viewBox="0 0 40 40" fill="none" xmlns="http://www.w3.org/2000/svg">
<g clip-path="url(#clip0_113_1140)">
<path d="M13.725 17.3298L19.3409 13.5579L28.6738 19.7395L15.2192 25.8418L8.10904 21.1017L10.4075 19.5579" stroke="white"/>
<path d="M15.3304 25.643L28.7176 19.7733L39.2491 26.7944L28.1945 34.2191L15.3304 25.643Z" stroke="white"/>
<rect x="0.000955552" y="0.556128" width="5.78151" height="8.79551" transform="matrix(0.83205 0.5547 -0.830139 0.557556 23.6403 30.8389)" stroke="white"/>
<path d="M6.41454 29.7446L12.5901 24.09L22.9743 31.0128L15.6728 35.9167L6.41454 29.7446Z" stroke="white"/>
<path d="M8.13261 21.1183L12.3753 23.9467L6.19967 29.6013L0.83111 26.0223L8.13261 21.1183Z" stroke="white"/>
<path d="M32.2886 22.154L18.5855 28.0169" stroke="white" stroke-dasharray="3 1"/>
<path d="M20.0763 10.3925L38.3814 22.5959" stroke="white" stroke-dasharray="2 2"/>
<path d="M22.9847 10.1094L19.6603 10.1151L19.6641 12.3396" stroke="white"/>
<path d="M38.7936 20.6487L38.7974 22.8732L35.473 22.8789" stroke="white"/>
<path d="M16.5 9C16.5 11.1483 15.6558 14.0714 14.488 16.4685C13.906 17.6631 13.257 18.6991 12.6166 19.4278C11.9519 20.1841 11.3933 20.5 11 20.5C10.6067 20.5 10.0481 20.1841 9.38339 19.4278C8.74302 18.6991 8.094 17.6631 7.51199 16.4685C6.34416 14.0714 5.5 11.1483 5.5 9C5.5 5.96243 7.96243 3.5 11 3.5C14.0376 3.5 16.5 5.96243 16.5 9Z" fill="#8E2C1E" stroke="white"/>
<circle cx="11" cy="9" r="2.5" stroke="white"/>
</g>
<defs>
<clipPath id="clip0_113_1140">
<rect width="40" height="40" fill="white"/>
</clipPath>
</defs>
</svg>
